<?xml version="1.0" encoding="UTF-8"?>
<svg width="18px" height="16px" viewBox="0 0 18 16" version="1.1" xmlns="http://www.w3.org/2000/svg" xmlns:xlink="http://www.w3.org/1999/xlink">
    <!-- Generator: sketchtool 55.2 (78181) - https://sketchapp.com -->
    <title>FBD8A55E-5116-4CE8-8E10-5D6A0B4C98AA</title>
    <desc>Created with sketchtool.</desc>
    <defs>
        <path d="M132.142857,5.36842105 L132.142857,4.4 C132.142857,3.0745166 133.294125,2 134.714286,2 L138.142857,2 C139.563018,2 140.714286,3.0745166 140.714286,4.4 L140.714286,5.36842105 L142.545455,5.36842105 C143.901063,5.36842105 145,6.42879928 145,7.73684211 L145,15.6315789 C145,16.9396218 143.901063,18 142.545455,18 L129.454545,18 C128.098937,18 127,16.9396218 127,15.6315789 L127,7.73684211 C127,6.42879928 128.098937,5.36842105 129.454545,5.36842105 L132.142857,5.36842105 Z M133.857143,5.36842105 L139,5.36842105 L139,4.4 C139,3.9581722 138.616244,3.6 138.142857,3.6 L134.714286,3.6 C134.240899,3.6 133.857143,3.9581722 133.857143,4.4 L133.857143,5.36842105 Z M132.142857,7.05263158 L129.52381,7.05263158 C129.076722,7.05263158 128.714286,7.39823633 128.714286,7.8245614 L128.714286,15.5438596 C128.714286,15.9701847 129.076722,16.3157895 129.52381,16.3157895 L132.142857,16.3157895 L132.142857,7.05263158 Z M133.857143,7.05263158 L133.857143,16.3157895 L139,16.3157895 L139,7.05263158 L133.857143,7.05263158 Z M140.714286,7.05263158 L140.714286,16.3157895 L142.47619,16.3157895 C142.923278,16.3157895 143.285714,15.9701847 143.285714,15.5438596 L143.285714,7.8245614 C143.285714,7.39823633 142.923278,7.05263158 142.47619,7.05263158 L140.714286,7.05263158 Z" id="path-1"></path>
    </defs>
    <g id="Job-Apply" stroke="none" stroke-width="1" fill="none" fill-rule="evenodd">
        <g id="Job-Apply-Form-V8.0" transform="translate(-210.000000, -379.000000)">
            <g id="Group-13" transform="translate(83.000000, 377.000000)">
                <mask id="mask-2" fill="white">
                    <use xlink:href="#path-1"></use>
                </mask>
                <use id="Combined-Shape" fill="#626262" fill-rule="nonzero" xlink:href="#path-1"></use>
            </g>
        </g>
    </g>
</svg>