<?xml version="1.0" encoding="UTF-8"?>
<svg width="45px" height="28px" viewBox="0 0 45 28" version="1.1" xmlns="http://www.w3.org/2000/svg" xmlns:xlink="http://www.w3.org/1999/xlink">
    <!-- Generator: Sketch 55.2 (78181) - https://sketchapp.com -->
    <title>Search Copy 5</title>
    <desc>Created with Sketch.</desc>
    <g id="Page-1" stroke="none" stroke-width="1" fill="none" fill-rule="evenodd">
        <g id="Filters" transform="translate(-982.000000, -473.000000)" stroke="#626262" stroke-width="2.83852783">
            <g id="Group-2" transform="translate(0.000000, -19.000000)">
                <g id="Down-Arrow" transform="translate(984.000000, 484.000000)">
                    <path d="M31.2044429,1.06511363 C31.4069196,1.06511363 31.5949308,1.09895121 31.7684822,1.16662739 C31.9420337,1.23430357 32.1011201,1.33581632 32.2457463,1.47116868 C32.5349986,1.7418734 32.6796227,2.0734817 32.6796227,2.46600354 C32.6796227,2.85852539 32.5349986,3.19013369 32.2457463,3.46083841 L12.4609829,21.9769486 L31.9854204,40.2494258 C32.2746728,40.5201305 32.4192968,40.8449713 32.4192968,41.2239579 C32.4192968,41.6029445 32.2746728,41.9277853 31.9854204,42.19849 C31.6961681,42.4691948 31.3418392,42.6045451 30.9224233,42.6045451 C30.5030073,42.6045451 30.1486785,42.4691948 29.8594261,42.19849 L9.2936852,22.9514807 C9.00443283,22.680776 8.85980881,22.3559352 8.85980881,21.9769486 C8.85980881,21.597962 9.00443283,21.2731212 9.2936852,21.0024165 L30.1631396,1.47116868 C30.3077658,1.33581632 30.4740834,1.23430357 30.6620974,1.16662739 C30.8501115,1.09895121 31.0308915,1.06511363 31.2044429,1.06511363 Z" id="Arrow-left---simple-line-icons" transform="translate(20.769716, 21.834829) scale(-1, -1) rotate(90.000000) translate(-20.769716, -21.834829) "></path>
                </g>
            </g>
        </g>
    </g>
</svg>