<?xml version="1.0" encoding="UTF-8"?>
<svg width="61px" height="60px" viewBox="0 0 61 60" version="1.1" xmlns="http://www.w3.org/2000/svg" xmlns:xlink="http://www.w3.org/1999/xlink">
    <!-- Generator: Sketch 55.2 (78181) - https://sketchapp.com -->
    <title>Combined Shape</title>
    <desc>Created with Sketch.</desc>
    <defs>
        <filter x="-12.1%" y="-14.3%" width="124.2%" height="131.7%" filterUnits="objectBoundingBox" id="filter-1">
            <feOffset dx="0" dy="2" in="SourceAlpha" result="shadowOffsetOuter1"></feOffset>
            <feGaussianBlur stdDeviation="13.5" in="shadowOffsetOuter1" result="shadowBlurOuter1"></feGaussianBlur>
            <feColorMatrix values="0 0 0 0 0   0 0 0 0 0   0 0 0 0 0  0 0 0 0.09 0" type="matrix" in="shadowBlurOuter1" result="shadowMatrixOuter1"></feColorMatrix>
            <feMerge>
                <feMergeNode in="shadowMatrixOuter1"></feMergeNode>
                <feMergeNode in="SourceGraphic"></feMergeNode>
            </feMerge>
        </filter>
        <path d="M11.3866085,12.6044634 C11.444193,12.8087188 11.475,13.0241992 11.475,13.246875 C11.475,13.4694316 11.4442259,13.6848005 11.386701,13.8889586 L14.5234039,15.7167884 C14.9514021,15.2856895 15.5445275,15.01875 16.2,15.01875 C17.5047727,15.01875 18.5625,16.0764773 18.5625,17.38125 C18.5625,18.6860227 17.5047727,19.74375 16.2,19.74375 C14.8952273,19.74375 13.8375,18.6860227 13.8375,17.38125 C13.8375,17.1576193 13.8685718,16.9412457 13.9266338,16.7362111 L10.791259,14.9091552 C10.3630972,15.3415348 9.76907733,15.609375 9.1125,15.609375 C7.80772728,15.609375 6.75,14.5516477 6.75,13.246875 C6.75,11.9421023 7.80772728,10.884375 9.1125,10.884375 C9.76895493,10.884375 10.3628757,11.1521153 10.7910195,11.584353 L13.9258915,9.75491157 C13.868307,9.55065616 13.8375,9.33517577 13.8375,9.1125 C13.8375,7.80772728 14.8952273,6.75 16.2,6.75 C17.5047727,6.75 18.5625,7.80772728 18.5625,9.1125 C18.5625,10.4172727 17.5047727,11.475 16.2,11.475 C15.5435451,11.475 14.9496243,11.2072597 14.5214805,10.775022 L11.3866085,12.6044634 Z M10.1494944,12.68073 C10.1434779,12.6716108 10.1376774,12.6622742 10.1321036,12.6527231 C10.1265705,12.6432417 10.1213313,12.6336697 10.1163832,12.6240178 C9.907952,12.2887924 9.53628778,12.065625 9.1125,12.065625 C8.46011364,12.065625 7.93125,12.5944886 7.93125,13.246875 C7.93125,13.8992614 8.46011364,14.428125 9.1125,14.428125 C9.5362892,14.428125 9.90795451,14.2049561 10.1163853,13.8697288 C10.1212762,13.8601885 10.1264514,13.8507262 10.1319139,13.8413522 C10.1375463,13.8316866 10.1434108,13.8222404 10.1494963,13.8130164 C10.2414655,13.6449142 10.29375,13.4520004 10.29375,13.246875 C10.29375,13.0417481 10.2414648,12.8488331 10.1494944,12.68073 Z M15.1961168,9.73535719 C15.404548,10.0705826 15.7762122,10.29375 16.2,10.29375 C16.8523864,10.29375 17.38125,9.76488636 17.38125,9.1125 C17.38125,8.46011364 16.8523864,7.93125 16.2,7.93125 C15.5476136,7.93125 15.01875,8.46011364 15.01875,9.1125 C15.01875,9.31762689 15.0710352,9.5105419 15.1630056,9.67864495 C15.1690221,9.68776422 15.1748226,9.69710082 15.1803964,9.70665192 C15.1859295,9.71613332 15.1911687,9.72570527 15.1961168,9.73535719 Z M15.1458875,16.8475854 C15.0645754,17.0078781 15.01875,17.1892125 15.01875,17.38125 C15.01875,18.0336364 15.5476136,18.5625 16.2,18.5625 C16.8523864,18.5625 17.38125,18.0336364 17.38125,17.38125 C17.38125,16.7288636 16.8523864,16.2 16.2,16.2 C15.7907877,16.2 15.4301753,16.4080804 15.2181975,16.7242063 C15.2089798,16.7454118 15.1984207,16.7663027 15.1864924,16.7867728 C15.1740501,16.8081247 15.160475,16.8284061 15.1458875,16.8475854 Z" id="path-2"></path>
    </defs>
    <g id="PromotionListing-Page" stroke="none" stroke-width="1" fill="none" fill-rule="evenodd">
        <g id="Promotion-Listing-V8.0" transform="translate(-610.000000, -683.000000)">
            <g id="1" filter="url(#filter-1)" transform="translate(202.000000, 422.000000)">
                <g id="SHARE" transform="translate(425.000000, 276.000000)">
                    <mask id="mask-3" fill="white">
                        <use xlink:href="#path-2"></use>
                    </mask>
                    <use id="Combined-Shape" fill="#0098FF" fill-rule="nonzero" xlink:href="#path-2"></use>
                </g>
            </g>
        </g>
    </g>
</svg>