<?xml version="1.0" encoding="UTF-8"?>
<svg width="23px" height="23px" viewBox="0 0 23 23" version="1.1" xmlns="http://www.w3.org/2000/svg" xmlns:xlink="http://www.w3.org/1999/xlink">
    <!-- Generator: sketchtool 55.2 (78181) - https://sketchapp.com -->
    <title>9D65D845-A69C-42E8-B329-04ECFED8A24Cmdpi/</title>
    <desc>Created with sketchtool.</desc>
    <g id="Home" stroke="none" stroke-width="1" fill="none" fill-rule="evenodd">
        <g id="Home-V8.0--S--Dark---2-Liner" transform="translate(-1145.000000, -5481.000000)" fill="#386B8F" fill-rule="nonzero">
            <g id="FIll" transform="translate(1116.000000, 5481.000000)">
                <path d="M32.3691406,23 L39.8710938,23 L39.8710938,14.8242188 L37.1757812,14.8242188 L37.1757812,12.1289062 L39.8710938,12.1289062 L39.8710938,8.75976562 C39.8710938,6.90200042 41.3824692,5.390625 43.2402344,5.390625 L46.609375,5.390625 L46.609375,8.0859375 L43.9140625,8.0859375 C43.1709213,8.0859375 42.5664062,8.69045256 42.5664062,9.43359375 L42.5664062,12.1289062 L46.4877701,12.1289062 L46.0385513,14.8242188 L42.5664062,14.8242188 L42.5664062,23 L48.6308594,23 C50.4886246,23 52,21.4886246 52,19.6308594 L52,3.36914062 C52,1.51137542 50.4886246,0 48.6308594,0 L32.3691406,0 C30.5113754,0 29,1.51137542 29,3.36914062 L29,19.6308594 C29,21.4886246 30.5113754,23 32.3691406,23 Z" id="Fb-fill"></path>
            </g>
        </g>
    </g>
</svg>