<?xml version="1.0" encoding="UTF-8"?>
<svg width="23px" height="23px" viewBox="0 0 23 23" version="1.1" xmlns="http://www.w3.org/2000/svg" xmlns:xlink="http://www.w3.org/1999/xlink">
    <!-- Generator: sketchtool 55.2 (78181) - https://sketchapp.com -->
    <title>9355E3BF-BB31-4584-8E9E-D79BEC1A5EF7mdpi/</title>
    <desc>Created with sketchtool.</desc>
    <g id="Final-Short" stroke="none" stroke-width="1" fill="none" fill-rule="evenodd">
        <g id="Home-V8.0--S--Dark---2-Liner" transform="translate(-745.000000, -5856.000000)" fill="#386B8F" fill-rule="nonzero">
            <g id="Footer" transform="translate(0.000000, 5668.000000)">
                <path d="M748.369141,211 L755.871094,211 L755.871094,202.824219 L753.175781,202.824219 L753.175781,200.128906 L755.871094,200.128906 L755.871094,196.759766 C755.871094,194.902 757.382469,193.390625 759.240234,193.390625 L762.609375,193.390625 L762.609375,196.085938 L759.914062,196.085938 C759.170921,196.085938 758.566406,196.690453 758.566406,197.433594 L758.566406,200.128906 L762.48777,200.128906 L762.038551,202.824219 L758.566406,202.824219 L758.566406,211 L764.630859,211 C766.488625,211 768,209.488625 768,207.630859 L768,191.369141 C768,189.511375 766.488625,188 764.630859,188 L748.369141,188 C746.511375,188 745,189.511375 745,191.369141 L745,207.630859 C745,209.488625 746.511375,211 748.369141,211 Z M746.347656,191.369141 C746.347656,190.254517 747.254517,189.347656 748.369141,189.347656 L764.630859,189.347656 C765.745483,189.347656 766.652344,190.254517 766.652344,191.369141 L766.652344,207.630859 C766.652344,208.745483 765.745483,209.652344 764.630859,209.652344 L759.914062,209.652344 L759.914062,204.171875 L763.180199,204.171875 L764.078636,198.78125 L759.914062,198.78125 L759.914062,197.433594 L763.957031,197.433594 L763.957031,192.042969 L759.240234,192.042969 C756.639328,192.042969 754.523438,194.158859 754.523438,196.759766 L754.523438,198.78125 L751.828125,198.78125 L751.828125,204.171875 L754.523438,204.171875 L754.523438,209.652344 L748.369141,209.652344 C747.254517,209.652344 746.347656,208.745483 746.347656,207.630859 L746.347656,191.369141 Z" id="Fb"></path>
            </g>
        </g>
    </g>
</svg>