<?xml version="1.0" encoding="UTF-8"?>
<svg width="27px" height="22px" viewBox="0 0 27 22" version="1.1" xmlns="http://www.w3.org/2000/svg" xmlns:xlink="http://www.w3.org/1999/xlink">
    <!-- Generator: sketchtool 55.2 (78181) - https://sketchapp.com -->
    <title>1BC7E2C6-AFA7-47BA-9461-A65DD36DDE81mdpi/</title>
    <desc>Created with sketchtool.</desc>
    <g id="Home" stroke="none" stroke-width="1" fill="none" fill-rule="evenodd">
        <g id="Home-V8.0--S--Dark---2-Liner" transform="translate(-429.000000, -1056.000000)" fill-rule="nonzero" stroke="#0098FF" stroke-width="0.831441422">
            <g id="Top-Picks-For-You" transform="translate(-1.000000, 728.000000)">
                <g id="02-hover">
                    <g transform="translate(264.000000, 0.000000)">
                        <g id="02" transform="translate(0.000000, 0.415721)">
                            <g id="Next-arrow" transform="translate(166.754703, 328.638794)">
                                <path d="M25.0892012,10.5034715 L0.390371887,10.5034715 C0.174886605,10.5034715 5.68434189e-14,10.3296327 5.68434189e-14,10.1154385 C5.68434189e-14,9.90124428 0.174886605,9.7274055 0.390371887,9.7274055 L25.0892012,9.7274055 C25.3046865,9.7274055 25.4795731,9.90124428 25.4795731,10.1154385 C25.4795731,10.3296327 25.3046865,10.5034715 25.0892012,10.5034715 Z" id="Path"></path>
                                <path d="M15.3010165,20.2322351 C15.2010813,20.2322351 15.1011461,20.1942079 15.0246332,20.1189295 C14.8723882,19.9675966 14.8723882,19.7215837 15.0246332,19.5702508 L24.5372153,10.1146624 L15.0246332,0.662178331 C14.8723882,0.510845457 14.8723882,0.264832529 15.0246332,0.113499655 C15.1768782,-0.0378332184 15.424374,-0.0378332184 15.576619,0.113499655 L25.3648037,9.83993507 C25.4381937,9.91288527 25.4787923,10.0114457 25.4787923,10.1146624 C25.4787923,10.2178792 25.4374129,10.3164396 25.3648037,10.3893898 L15.576619,20.1181534 C15.5008869,20.1942079 15.4009517,20.2322351 15.3010165,20.2322351 Z" id="Path"></path>
                            </g>
                        </g>
                    </g>
                </g>
            </g>
        </g>
    </g>
</svg>