<svg xmlns="http://www.w3.org/2000/svg" viewBox="0 0 32 26" width="32" height="26">
	<style>
		tspan { white-space:pre }
		.shp0 { fill: none;stroke: #0098ff } 
	</style>
	<g id="Final-Short">
		<g id="Home-V8.0--S--Dark---2-Liner">
			<g id="Top-Picks-For-You">
				<g id="02-hover">
					<g id="Layer">
						<g id="02">
							<g id="Next-arrow">
								<path id="Path" class="shp0" d="M1.26 12.6L30.97 12.6C31.23 12.6 31.44 12.81 31.44 13.07C31.44 13.33 31.23 13.54 30.97 13.54L1.26 13.54C1 13.54 0.79 13.33 0.79 13.07C0.79 12.81 1 12.6 1.26 12.6Z" />
								<path id="Path" class="shp0" d="M13.04 0.9C13.16 0.9 13.28 0.95 13.37 1.04C13.55 1.22 13.55 1.52 13.37 1.7L1.93 13.07L13.37 24.44C13.55 24.62 13.55 24.92 13.37 25.1C13.19 25.28 12.89 25.28 12.7 25.1L0.93 13.4C0.84 13.31 0.79 13.2 0.79 13.07C0.79 12.95 0.84 12.83 0.93 12.74L12.7 1.04C12.8 0.95 12.92 0.9 13.04 0.9Z" />
							</g>
						</g>
					</g>
				</g>
			</g>
		</g>
	</g>
</svg>