<?xml version="1.0" encoding="UTF-8"?>
<svg width="18px" height="18px" viewBox="0 0 18 18" version="1.1" xmlns="http://www.w3.org/2000/svg" xmlns:xlink="http://www.w3.org/1999/xlink">
    <!-- Generator: sketchtool 55.2 (78181) - https://sketchapp.com -->
    <title>0414A570-AFF8-4030-9837-ADF94B9F1F5Bmdpi/</title>
    <desc>Created with sketchtool.</desc>
    <g id="New-Search-Page" stroke="none" stroke-width="1" fill="none" fill-rule="evenodd">
        <g id="Search-Tap" transform="translate(-780.000000, -28.000000)" fill="#0098ff" fill-rule="nonzero" stroke="#0098ff">
            <g id="Group-8">
                <g id="Header-upper" transform="translate(29.000000, 12.000000)">
                    <g id="Header-top">
                        <g id="Group-6" transform="translate(144.000000, 6.000000)">
                            <path d="M624.120649,26.2511905 L620.229571,22.3629422 C621.273345,21.1638291 621.905291,19.5993058 621.905291,17.889328 C621.905291,14.1252482 618.841421,11.0671551 615.078151,11.0671551 C611.311331,11.0671551 608.251012,14.1287959 608.251012,17.889328 C608.251012,21.6498602 611.314882,24.711501 615.078151,24.711501 C616.789374,24.711501 618.355036,24.0800154 619.555022,23.0369999 L623.446101,26.9252482 C623.538408,27.0174877 623.662667,27.0671551 623.783375,27.0671551 C623.904084,27.0671551 624.028343,27.0210353 624.120649,26.9252482 C624.305263,26.7407693 624.305263,26.4356695 624.120649,26.2511905 Z M609.206031,17.889328 C609.206031,14.6538513 611.840319,12.0250265 615.074601,12.0250265 C618.312433,12.0250265 620.943172,14.657399 620.943172,17.889328 C620.943172,21.1212571 618.312433,23.7571772 615.074601,23.7571772 C611.840319,23.7571772 609.206031,21.1248047 609.206031,17.889328 Z" id="Search"></path>
                        </g>
                    </g>
                </g>
            </g>
        </g>
    </g>
</svg>