<?xml version="1.0" encoding="UTF-8"?>
<svg width="67px" height="67px" viewBox="0 0 67 67" version="1.1" xmlns="http://www.w3.org/2000/svg" xmlns:xlink="http://www.w3.org/1999/xlink">
    <!-- Generator: Sketch 55.2 (78181) - https://sketchapp.com -->
    <title>Shape</title>
    <desc>Created with Sketch.</desc>
    <g id="Page-1" stroke="none" stroke-width="1" fill="none" fill-rule="evenodd">
        <g id="Home-Page-" transform="translate(-958.000000, -311.000000)" fill="#FFFFFF" fill-rule="nonzero">
            <g id="Header-upper" transform="translate(-505.000000, -149.000000)">
                <g id="Group-9" transform="translate(494.000000, 144.000000)">
                    <g id="Group-6" transform="translate(49.000000, 289.000000)">
                        <path d="M986.420492,90.5831486 L970.134841,74.3011086 C974.503438,69.2798226 977.14837,62.7283814 977.14837,55.5678492 C977.14837,39.805765 964.324906,27 948.574185,27 C932.808605,27 920,39.8206208 920,55.5678492 C920,71.3150776 932.823464,84.1356984 948.574185,84.1356984 C955.736305,84.1356984 962.289199,81.4913525 967.311599,77.1237251 L983.59725,93.405765 C983.983588,93.7920177 984.503659,94 985.008871,94 C985.514083,94 986.034154,93.8068736 986.420492,93.405765 C987.193169,92.6332594 987.193169,91.3556541 986.420492,90.5831486 Z M923.997117,55.5678492 C923.997117,42.0192905 935.022621,31.0110865 948.559326,31.0110865 C962.110889,31.0110865 973.121535,42.0341463 973.121535,55.5678492 C973.121535,69.1015521 962.110889,80.1394678 948.559326,80.1394678 C935.022621,80.1394678 923.997117,69.116408 923.997117,55.5678492 Z" id="Shape"></path>
                    </g>
                </g>
            </g>
        </g>
    </g>
</svg>