<?xml version="1.0" encoding="UTF-8"?>
<svg width="12px" height="13px" viewBox="0 0 12 13" version="1.1" xmlns="http://www.w3.org/2000/svg" xmlns:xlink="http://www.w3.org/1999/xlink">
    <!-- Generator: Sketch 55.2 (78181) - https://sketchapp.com -->
    <title>Combined Shape</title>
    <desc>Created with Sketch.</desc>
    <g id="Promotion-Listiong-Reference" stroke="none" stroke-width="1" fill="none" fill-rule="evenodd">
        <path d="M4.63660853,5.85446343 C4.69419297,6.05871884 4.725,6.27419923 4.725,6.496875 C4.725,6.71943159 4.69422593,6.93480052 4.63670096,7.13895862 L7.77340391,8.96678845 C8.20140211,8.53568953 8.79452752,8.26875 9.45,8.26875 C10.7547727,8.26875 11.8125,9.32647728 11.8125,10.63125 C11.8125,11.9360227 10.7547727,12.99375 9.45,12.99375 C8.14522728,12.99375 7.0875,11.9360227 7.0875,10.63125 C7.0875,10.4076193 7.11857184,10.1912457 7.17663383,9.98621112 L4.04125896,8.1591552 C3.61309724,8.59153481 3.01907733,8.859375 2.3625,8.859375 C1.05772728,8.859375 0,7.80164772 0,6.496875 C0,5.19210228 1.05772728,4.134375 2.3625,4.134375 C3.01895493,4.134375 3.61287575,4.40211533 4.04101948,4.834353 L7.17589147,3.00491157 C7.11830703,2.80065616 7.0875,2.58517577 7.0875,2.3625 C7.0875,1.05772728 8.14522728,0 9.45,0 C10.7547727,0 11.8125,1.05772728 11.8125,2.3625 C11.8125,3.66727272 10.7547727,4.725 9.45,4.725 C8.79354507,4.725 8.19962425,4.45725967 7.77148052,4.025022 L4.63660853,5.85446343 Z M3.39949436,5.93073005 C3.39347793,5.92161078 3.38767741,5.91227418 3.3821036,5.90272308 C3.37657047,5.89324168 3.37133126,5.88366973 3.36638321,5.87401781 C3.157952,5.53879243 2.78628778,5.315625 2.3625,5.315625 C1.71011364,5.315625 1.18125,5.84448864 1.18125,6.496875 C1.18125,7.14926136 1.71011364,7.678125 2.3625,7.678125 C2.7862892,7.678125 3.15795451,7.45495606 3.36638532,7.11972879 C3.37127615,7.11018849 3.37645145,7.10072623 3.3819139,7.09135223 C3.38754627,7.08168662 3.3934108,7.07224036 3.3994963,7.0630164 C3.49146549,6.89491419 3.54375,6.70200044 3.54375,6.496875 C3.54375,6.29174811 3.49146476,6.0988331 3.39949436,5.93073005 Z M8.44611679,2.98535719 C8.654548,3.32058257 9.02621222,3.54375 9.45,3.54375 C10.1023864,3.54375 10.63125,3.01488636 10.63125,2.3625 C10.63125,1.71011364 10.1023864,1.18125 9.45,1.18125 C8.79761364,1.18125 8.26875,1.71011364 8.26875,2.3625 C8.26875,2.56762689 8.32103524,2.7605419 8.41300564,2.92864495 C8.41902207,2.93776422 8.42482259,2.94710082 8.4303964,2.95665192 C8.43592953,2.96613332 8.44116874,2.97570527 8.44611679,2.98535719 Z M8.3958875,10.0975854 C8.31457538,10.2578781 8.26875,10.4392125 8.26875,10.63125 C8.26875,11.2836364 8.79761364,11.8125 9.45,11.8125 C10.1023864,11.8125 10.63125,11.2836364 10.63125,10.63125 C10.63125,9.97886364 10.1023864,9.45 9.45,9.45 C9.04078775,9.45 8.68017528,9.65808042 8.46819754,9.97420633 C8.45897979,9.99541184 8.44842073,10.0163027 8.43649235,10.0367728 C8.4240501,10.0581247 8.41047498,10.0784061 8.3958875,10.0975854 Z" id="Combined-Shape" fill="#0098FF" fill-rule="nonzero"></path>
    </g>
</svg>