<?xml version="1.0" encoding="UTF-8"?>
<svg width="16px" height="18px" viewBox="0 0 16 18" version="1.1" xmlns="http://www.w3.org/2000/svg" xmlns:xlink="http://www.w3.org/1999/xlink">
    <!-- Generator: Sketch 55.2 (78181) - https://sketchapp.com -->
    <title>Group 2</title>
    <desc>Created with Sketch.</desc>
    <g id="Promotion-Listiong-Reference" stroke="none" stroke-width="1" fill="none" fill-rule="evenodd">
        <g id="stopwatch" fill="#343434" fill-rule="nonzero">
            <g id="Group-2" transform="translate(0.000000, -0.000000)">
                <path d="M8.40693149,10.7954847 C8.70020637,10.7724666 8.96756263,10.6215702 9.14110473,10.3808749 L11.7788883,6.7025271 C11.8597431,6.58971004 11.847629,6.43398271 11.749589,6.33509017 C11.651549,6.2364818 11.4971641,6.22426232 11.3853196,6.30553608 L7.73811827,8.96710942 C7.50034306,9.14159223 7.35074751,9.41127332 7.32792785,9.70709842 C7.30510819,10.0029235 7.41131821,10.2924968 7.61894894,10.501933 C7.80798587,10.6928979 8.06294626,10.7986106 8.32804872,10.7986106 C8.35424907,10.7986106 8.38044942,10.7974739 8.40693149,10.7954847 Z M7.88968588,9.75142956 C7.89954623,9.62156206 7.96546969,9.50306151 8.06914419,9.42690289 L10.2939201,7.80341704 L8.68499327,10.0469705 C8.60892774,10.152399 8.49144875,10.2186116 8.3627008,10.2288418 C8.23451629,10.237367 8.10858558,10.1924675 8.01702522,10.100111 C7.92631003,10.0083228 7.87954381,9.88101288 7.88968588,9.75142956 Z" id="Shape"></path>
                <path d="M14.7175533,5.55957942 C14.7147361,5.55361177 14.7147361,5.54735994 14.7116371,5.54139229 C14.7082564,5.53570881 14.7029036,5.5325829 14.6992412,5.52718359 C14.4144181,5.03442594 14.0774759,4.57605333 13.6948945,4.160591 L14.3000381,3.5504695 L14.6983961,3.95229148 L15.8934701,2.74654136 L14.6983961,1.5410754 L13.5030403,2.74654136 L13.9016801,3.14864752 L13.2965365,3.75876902 C12.8846557,3.37286077 12.4305163,3.03270454 11.9417249,2.74540466 C11.9363721,2.7417104 11.9332732,2.73631109 11.9276387,2.73290101 C11.9217225,2.72949092 11.9155245,2.72977509 11.9096083,2.72664918 C11.0382354,2.22025118 10.0592439,1.88293668 9.01545574,1.75932101 L9.01545574,1.42086982 L9.43804202,1.42086982 C9.82653968,1.42086982 10.1423525,1.1023108 10.1423525,0.710434909 C10.1423525,0.318559013 9.82625795,-1.77635684e-15 9.4377603,-1.77635684e-15 L6.9022426,-1.77635684e-15 C6.51374495,-1.77635684e-15 6.19793213,0.318559013 6.19793213,0.710434909 C6.19793213,1.1023108 6.51374495,1.42086982 6.9022426,1.42086982 L7.32482889,1.42086982 L7.32482889,1.74937492 C7.02056676,1.78205493 6.71686809,1.83206954 6.4165501,1.90140799 C6.26498249,1.93636139 6.17004144,2.08896281 6.20497524,2.2418484 C6.23962731,2.39473399 6.3909132,2.49078479 6.54248082,2.45526304 C6.80166707,2.39530234 7.06338884,2.35011868 7.32567406,2.31971206 L7.62796411,2.29612563 C7.72036965,2.28902128 7.80545035,2.28390614 7.88827726,2.27992771 L7.88827726,2.84173963 C7.88827726,2.99888784 8.01420797,3.1259136 8.17000145,3.1259136 C8.32579493,3.1259136 8.45172564,2.99888784 8.45172564,2.84173963 L8.45172564,2.28191693 C9.51129031,2.33107902 10.5097208,2.61809473 11.3974337,3.09039185 L11.1196537,3.57547681 C11.0418978,3.71159614 11.0881006,3.88522643 11.2227648,3.96365844 C11.2669954,3.98951827 11.315452,4.00173775 11.3633451,4.00173775 C11.4608217,4.00173775 11.555481,3.95087061 11.6076,3.85965077 L11.8845349,3.37570251 C12.7660499,3.93978783 13.5148727,4.69512222 14.0740953,5.58430256 L13.594319,5.86364556 C13.4599365,5.94207758 13.4137338,6.11570787 13.4917714,6.2518272 C13.5441721,6.34304704 13.6385497,6.39391418 13.7360262,6.39391418 C13.7839193,6.39391418 13.8323759,6.3816947 13.8766066,6.35583487 L14.3575098,6.07563934 C14.832215,6.98385933 15.1176016,8.00745394 15.160142,9.09328266 L14.6037367,9.09328266 C14.4479433,9.09328266 14.3220125,9.22030842 14.3220125,9.37745662 C14.3220125,9.53460482 14.4479433,9.66163058 14.6037367,9.66163058 L15.160142,9.66163058 C15.1176016,10.7474593 14.832215,11.7710539 14.3575098,12.6792739 L13.8766066,12.3990784 C13.7419424,12.3206464 13.5695272,12.3666825 13.4917714,12.503086 C13.4140155,12.6392054 13.4602183,12.8128357 13.5948824,12.8912677 L14.0746587,13.1706107 C13.5154362,14.059791 12.7666133,14.8151254 11.8850983,15.3792107 L11.6081634,14.8952625 C11.5301258,14.758859 11.3574289,14.7125386 11.2233282,14.7912548 C11.0883823,14.8696868 11.0421795,15.0436013 11.1202171,15.1794364 L11.3979972,15.6645214 C10.5102843,16.1368185 9.51185376,16.4238342 8.45228909,16.4729963 L8.45228909,15.913742 C8.45228909,15.7565938 8.32635837,15.629568 8.1705649,15.629568 C8.01477142,15.629568 7.88884071,15.7565938 7.88884071,15.913742 L7.88884071,16.4752697 C7.43892718,16.4596401 6.98760503,16.4028053 6.54332599,16.2999344 C6.39175838,16.2632759 6.24047249,16.3604634 6.20582041,16.513349 C6.17088661,16.6662346 6.26582766,16.818836 6.41739528,16.8537894 C6.97971676,16.9845095 7.55415238,17.0504378 8.12408041,17.0504378 C8.13788489,17.0504378 8.15112593,17.0495853 8.16493042,17.0493011 C8.16690248,17.0493011 8.16831111,17.0504378 8.17000145,17.0504378 C8.17225524,17.0504378 8.17422731,17.0490169 8.17648111,17.0490169 C9.53072928,17.0396392 10.8013054,16.6707814 11.9005931,16.0336634 C11.9093266,16.0296849 11.9186235,16.0276957 11.9270752,16.0225806 C11.9327097,16.0191705 11.9358087,16.0137712 11.9411614,16.0100769 C13.0790454,15.3411314 14.0298646,14.383181 14.6944519,13.2362549 C14.6998047,13.2285822 14.7065661,13.2226145 14.7113554,13.2140893 C14.7147361,13.2081216 14.7144543,13.2018698 14.7172716,13.1959022 C15.3607296,12.0705733 15.7306335,10.7673515 15.7306335,9.3777408 C15.7306335,7.98813011 15.3607296,6.68490832 14.7175533,5.55957942 Z M14.6981143,2.34471937 L15.0964723,2.74654136 L14.6981143,3.14864752 L14.2994746,2.74654136 L14.6981143,2.34471937 Z M7.88827726,1.71101143 L7.88827726,0.85252189 L6.9022426,0.85252189 C6.82476845,0.85252189 6.76138051,0.788582749 6.76138051,0.710434909 C6.76138051,0.632287069 6.82476845,0.568347927 6.9022426,0.568347927 L9.4377603,0.568347927 C9.51523445,0.568347927 9.57862239,0.632287069 9.57862239,0.710434909 C9.57862239,0.788582749 9.51523445,0.85252189 9.4377603,0.85252189 L8.45172564,0.85252189 L8.45172564,1.71101143 C8.35368562,1.707033 8.26015319,1.70504378 8.17000145,1.70504378 C8.16211317,1.70504378 8.153098,1.70561213 8.14520972,1.70561213 C8.13816662,1.70561213 8.13112351,1.70504378 8.12408041,1.70504378 C8.07787764,1.70504378 8.03167487,1.70816969 7.98547211,1.70902222 C7.9527921,1.70987474 7.92208417,1.70959056 7.88827726,1.71101143 Z" id="Shape"></path>
                <path d="M5.63448376,3.97843549 L4.22586282,3.97843549 C4.07006934,3.97843549 3.94413863,4.10546125 3.94413863,4.26260945 C3.94413863,4.41975765 4.07006934,4.54678342 4.22586282,4.54678342 L5.63448376,4.54678342 C5.79027723,4.54678342 5.91620795,4.41975765 5.91620795,4.26260945 C5.91620795,4.10546125 5.79027723,3.97843549 5.63448376,3.97843549 Z" id="Path"></path>
                <path d="M5.63448376,5.96765323 L2.81724188,5.96765323 C2.6614484,5.96765323 2.53551769,6.094679 2.53551769,6.2518272 C2.53551769,6.4089754 2.6614484,6.53600116 2.81724188,6.53600116 L5.63448376,6.53600116 C5.79027723,6.53600116 5.91620795,6.4089754 5.91620795,6.2518272 C5.91620795,6.094679 5.79027723,5.96765323 5.63448376,5.96765323 Z" id="Path"></path>
                <path d="M5.63448376,7.95687098 L1.40862094,7.95687098 C1.25282746,7.95687098 1.12689675,8.08389674 1.12689675,8.24104494 C1.12689675,8.39819314 1.25282746,8.5252189 1.40862094,8.5252189 L5.63448376,8.5252189 C5.79027723,8.5252189 5.91620795,8.39819314 5.91620795,8.24104494 C5.91620795,8.08389674 5.79027723,7.95687098 5.63448376,7.95687098 Z" id="Path"></path>
                <path d="M5.63448376,9.94608872 L0.281724188,9.94608872 C0.125930712,9.94608872 -5.59552404e-14,10.0731145 -5.59552404e-14,10.2302627 C-5.59552404e-14,10.3874109 0.125930712,10.5144366 0.281724188,10.5144366 L5.63448376,10.5144366 C5.79027723,10.5144366 5.91620795,10.3874109 5.91620795,10.2302627 C5.91620795,10.0731145 5.79027723,9.94608872 5.63448376,9.94608872 Z" id="Path"></path>
                <path d="M5.63448376,11.9353065 L1.97206932,11.9353065 C1.81627584,11.9353065 1.69034513,12.0623322 1.69034513,12.2194804 C1.69034513,12.3766286 1.81627584,12.5036544 1.97206932,12.5036544 L5.63448376,12.5036544 C5.79027723,12.5036544 5.91620795,12.3766286 5.91620795,12.2194804 C5.91620795,12.0623322 5.79027723,11.9353065 5.63448376,11.9353065 Z" id="Path"></path>
                <path d="M5.63448376,13.9245242 L3.66241444,13.9245242 C3.50662097,13.9245242 3.38069026,14.05155 3.38069026,14.2086982 C3.38069026,14.3658464 3.50662097,14.4928721 3.66241444,14.4928721 L5.63448376,14.4928721 C5.79027723,14.4928721 5.91620795,14.3658464 5.91620795,14.2086982 C5.91620795,14.05155 5.79027723,13.9245242 5.63448376,13.9245242 Z" id="Path"></path>
            </g>
        </g>
    </g>
</svg>