<?xml version="1.0" encoding="UTF-8"?>
<svg width="26px" height="26px" viewBox="0 0 26 26" version="1.1" xmlns="http://www.w3.org/2000/svg" xmlns:xlink="http://www.w3.org/1999/xlink">
    <!-- Generator: sketchtool 55.2 (78181) - https://sketchapp.com -->
    <title>6AEC6D42-F329-4EB6-9C0F-9F09DE4BD2A9</title>
    <desc>Created with sketchtool.</desc>
    <g id="New-Find-Agent" stroke="none" stroke-width="1" fill="none" fill-rule="evenodd">
        <g id="Find-Venue-Search-Results-Hover" transform="translate(-451.000000, -513.000000)" fill="#343434" fill-rule="nonzero" stroke="#343434" stroke-width="0.5">
            <g id="Group-8" transform="translate(431.000000, 490.000000)">
                <path d="M44.868568,24.1448942 C44.7314533,23.9997003 44.5199711,23.9592365 44.3410247,24.0434965 L21.2708821,34.8878084 C21.0854285,34.9754007 20.9771311,35.1758158 21.0040893,35.3833715 C21.0310474,35.5909273 21.186754,35.7556389 21.3880106,35.7899142 L31.7357609,37.5660392 L32.9186664,47.5810801 C32.9437654,47.789588 33.099472,47.957632 33.3016582,47.9928593 C33.3281516,47.9976198 33.3541801,48 33.3802087,48 C33.5545071,48 33.7176505,47.8995544 33.7966658,47.7353188 L44.9517665,24.6875858 C45.0391481,24.5071646 45.0056828,24.2896119 44.868568,24.1448942 Z M33.6544383,45.8849307 L32.6170139,37.0985627 C32.5919149,36.8891028 32.4352787,36.7210588 32.2321629,36.6863075 L23.0329232,35.1067892 L43.5355335,25.4697282 L33.6544383,45.8849307 Z" id="Shape"></path>
            </g>
        </g>
    </g>
</svg>