<?xml version="1.0" encoding="UTF-8"?>
<svg width="28px" height="36px" viewBox="0 0 28 36" version="1.1" xmlns="http://www.w3.org/2000/svg" xmlns:xlink="http://www.w3.org/1999/xlink">
    <!-- Generator: sketchtool 55.2 (78181) - https://sketchapp.com -->
    <title>D72CF936-2E10-4115-B555-6E1A96DD0568mdpi/</title>
    <desc>Created with sketchtool.</desc>
    <g id="Final-Short" stroke="none" stroke-width="1" fill="none" fill-rule="evenodd">
        <g id="Home-V8.0--S--Dark---2-Liner" transform="translate(-1128.000000, -5759.000000)" fill="#343434" fill-rule="nonzero">
            <g id="Footer" transform="translate(0.000000, 5668.000000)">
                <path d="M1151.38567,110.326973 C1151.34228,105.821553 1154.93717,103.660805 1155.09775,103.553452 C1153.07787,100.495456 1149.93135,100.076536 1148.81009,100.028106 C1146.13229,99.7475986 1143.58506,101.659176 1142.22604,101.659176 C1140.87045,101.659176 1138.77333,100.069588 1136.5525,100.111348 C1133.6338,100.156235 1130.94257,101.867142 1129.43969,104.571534 C1126.40722,110.015615 1128.6631,118.080637 1131.61875,122.495866 C1133.06299,124.6571 1134.78515,127.084458 1137.04627,126.997742 C1139.22372,126.90783 1140.04712,125.540035 1142.67965,125.540035 C1145.31211,125.540035 1146.05217,126.997742 1148.35641,126.952994 C1150.69954,126.907969 1152.18402,124.750417 1153.61832,122.582582 C1155.2768,120.075317 1155.9597,117.647889 1156,117.523304 C1155.94795,117.498707 1151.43093,115.708449 1151.38567,110.326973 Z M1147.16646,97.2257981 C1148.37183,95.5750224 1149.18542,93.2847699 1148.96349,91 C1147.22724,91.0798013 1145.12267,92.3055284 1143.87696,93.952573 C1142.75921,95.4136683 1141.78076,97.745649 1142.04296,99.9847311 C1143.98125,100.155451 1145.9598,98.8728427 1147.16646,97.2257981 Z" id="apple"></path>
            </g>
        </g>
    </g>
</svg>