<?xml version="1.0" encoding="UTF-8"?>
<svg width="17px" height="18px" viewBox="0 0 17 18" version="1.1" xmlns="http://www.w3.org/2000/svg" xmlns:xlink="http://www.w3.org/1999/xlink">
    <!-- Generator: sketchtool 55.2 (78181) - https://sketchapp.com -->
    <title>35F8D2A5-26CF-4248-B81E-8CFBBFE6FB8B</title>
    <desc>Created with sketchtool.</desc>
    <g id="Page-1" stroke="none" stroke-width="1" fill="none" fill-rule="evenodd" opacity="0.49844215">
        <g id="Contact-US" transform="translate(-655.000000, -759.000000)" fill="#343434" fill-rule="nonzero" stroke="#2E2F30" stroke-width="0.3">
            <g id="Form" transform="translate(214.000000, 262.000000)">
                <g id="Group-32" transform="translate(30.000000, 488.000000)">
                    <g id="Group-29">
                        <g id="Group-33" transform="translate(168.000000, 0.000000)">
                            <path d="M258.083242,11.0322981 C257.506424,10.3666253 256.739557,10 255.923824,10 C255.108091,10 254.341225,10.3666253 253.764407,11.0322981 L244.692284,21.5026087 C243.769239,22.5679089 243.769239,24.3012422 244.692284,25.3665424 C245.153789,25.8991718 245.760027,26.1655072 246.366266,26.1655072 C246.972469,26.1655072 247.578707,25.8991718 248.040212,25.3665424 L255.185266,17.1203313 C255.83994,16.3647619 255.83994,15.1353623 255.185266,14.3797516 C254.530591,13.6241822 253.465324,13.6241822 252.810649,14.3797516 L247.506205,20.4869565 C247.3661,20.6486542 247.3661,20.9108489 247.506205,21.072588 C247.646311,21.2343271 247.873529,21.2342857 248.013599,21.072588 L253.318043,14.965383 C253.692901,14.5327122 254.302943,14.5327122 254.677801,14.965383 C255.052695,15.3980538 255.052695,16.1020704 254.677801,16.5347412 L247.532854,24.7809524 C246.889589,25.5233126 245.842943,25.523354 245.199677,24.7809524 C244.888073,24.4213251 244.716466,23.9431884 244.716466,23.4345756 C244.716466,22.9259627 244.888073,22.4478261 245.199677,22.0881988 L254.2718,11.6179296 C254.713069,11.1086542 255.299754,10.8281988 255.923824,10.8281988 C256.547894,10.8281988 257.134579,11.1086542 257.575813,11.6179296 C258.486731,12.669234 258.486731,14.3798344 257.575813,15.4311387 L250.344264,23.7624845 C250.204159,23.9241822 250.204159,24.1863768 250.344264,24.3481159 C250.48437,24.5098551 250.711552,24.5098137 250.851693,24.3481159 L258.083242,16.0167702 C259.273905,14.6425259 259.273905,12.406501 258.083242,11.0322981 Z" id="Path"></path>
                        </g>
                    </g>
                </g>
            </g>
        </g>
    </g>
</svg>