<?xml version="1.0" encoding="UTF-8"?>
<svg width="69px" height="61px" viewBox="0 0 69 61" version="1.1" xmlns="http://www.w3.org/2000/svg" xmlns:xlink="http://www.w3.org/1999/xlink">
    <!-- Generator: Sketch 55.2 (78181) - https://sketchapp.com -->
    <title>next (1)</title>
    <desc>Created with Sketch.</desc>
    <g id="Page-1" stroke="none" stroke-width="1" fill="none" fill-rule="evenodd">
        <g id="Filters" transform="translate(-29.000000, -178.000000)" fill-rule="nonzero" stroke="#323232" stroke-width="3.4799999">
            <g id="next-(1)" transform="translate(63.000000, 208.500000) scale(-1, 1) translate(-63.000000, -208.500000) translate(30.000000, 180.000000)">
                <path d="M64.2647151,29.750744 L1.04319924,29.750744 C0.491622236,29.750744 0.0439655412,29.2836726 0.0439655412,28.708174 C0.0439655412,28.1326754 0.491622236,27.6656041 1.04319924,27.6656041 L64.2647151,27.6656041 C64.8162921,27.6656041 65.2639488,28.1326754 65.2639488,28.708174 C65.2639488,29.2836726 64.8162921,29.750744 64.2647151,29.750744 Z" id="Path"></path>
                <path d="M38.3455091,56.857563 C38.0811979,56.857563 37.8168868,56.7517474 37.6145235,56.5422756 C37.211862,56.1211725 37.211862,55.4366102 37.6145235,55.0155071 L62.7736421,28.7041249 L37.6145235,2.4013808 C37.211862,1.98027775 37.211862,1.29571537 37.6145235,0.874612319 C38.0171851,0.453509272 38.6717682,0.453509272 39.0744297,0.874612319 L64.9624689,27.939661 C65.1565724,28.1426542 65.2639488,28.4169111 65.2639488,28.7041249 C65.2639488,28.9913388 65.1545074,29.2655957 64.9624689,29.4685889 L39.0744297,56.5401161 C38.8741314,56.7517474 38.6098202,56.857563 38.3455091,56.857563 Z" id="Path"></path>
            </g>
        </g>
    </g>
</svg>