<?xml version="1.0" encoding="UTF-8"?>
<svg width="18px" height="16px" viewBox="0 0 18 16" version="1.1" xmlns="http://www.w3.org/2000/svg" xmlns:xlink="http://www.w3.org/1999/xlink">
    <!-- Generator: Sketch 55.2 (78181) - https://sketchapp.com -->
    <title>Date</title>
    <desc>Created with Sketch.</desc>
    <g id="Page-1" stroke="none" stroke-width="1" fill="none" fill-rule="evenodd">
        <g id="Event-Detail-Page-V8.0-Copy-2" transform="translate(-545.000000, -1434.000000)" fill="#343434" fill-rule="nonzero">
            <path d="M560.220588,1435.29032 L558.764706,1435.29032 L558.764706,1434.3871 C558.764706,1434.18065 558.579412,1434 558.367647,1434 C558.155882,1434 557.970588,1434.18065 557.970588,1434.3871 L557.970588,1435.29032 L549.764706,1435.29032 L549.764706,1434.3871 C549.764706,1434.18065 549.579412,1434 549.367647,1434 C549.155882,1434 548.970588,1434.18065 548.970588,1434.3871 L548.970588,1435.29032 L547.514706,1435.29032 C546.138235,1435.29032 545,1436.4 545,1437.74194 L545,1447.54839 C545,1448.89032 546.138235,1450 547.514706,1450 L560.220588,1450 C561.597059,1450 562.735294,1448.89032 562.735294,1447.54839 L562.735294,1437.74194 C562.735294,1436.37419 561.597059,1435.29032 560.220588,1435.29032 Z M547.514706,1436.06452 L548.970588,1436.06452 L548.970588,1438 C548.970588,1438.20645 549.155882,1438.3871 549.367647,1438.3871 C549.579412,1438.3871 549.764706,1438.20645 549.764706,1438 L549.764706,1436.06452 L557.970588,1436.06452 L557.970588,1438 C557.970588,1438.20645 558.155882,1438.3871 558.367647,1438.3871 C558.579412,1438.3871 558.764706,1438.20645 558.764706,1438 L558.764706,1436.06452 L560.220588,1436.06452 C561.173529,1436.06452 561.941176,1436.8129 561.941176,1437.74194 L561.941176,1440.42581 L545.794118,1440.42581 L545.794118,1437.74194 C545.794118,1436.8129 546.561765,1436.06452 547.514706,1436.06452 Z M560.220588,1449.22581 L547.514706,1449.22581 C546.561765,1449.22581 545.794118,1448.47742 545.794118,1447.54839 L545.794118,1441.2 L561.941176,1441.2 L561.941176,1447.54839 C561.941176,1448.47742 561.173529,1449.22581 560.220588,1449.22581 Z" id="Date"></path>
        </g>
    </g>
</svg>