<?xml version="1.0" encoding="UTF-8"?>
<svg width="18px" height="18px" viewBox="0 0 18 18" version="1.1" xmlns="http://www.w3.org/2000/svg" xmlns:xlink="http://www.w3.org/1999/xlink">
    <!-- Generator: sketchtool 56.2 (101010) - https://sketch.com -->
    <title>523B3E16-6D56-4459-AD05-D1DDD9668539</title>
    <desc>Created with sketchtool.</desc>
    <g id="Detail-Page" stroke="none" stroke-width="1" fill="none" fill-rule="evenodd">
        <g id="Event-Detail-Page--Fixed-Header-V8.0" transform="translate(-181.000000, -58.000000)" fill="#6A6A6A" fill-rule="nonzero">
            <g id="Group-5">
                <g id="Group-7" transform="translate(30.000000, 5.000000)">
                    <g id="calendar" transform="translate(152.000000, 54.000000)">
                        <g transform="translate(3.000000, 5.000000)" id="Rectangle">
                            <rect x="0" y="0" width="2" height="2"></rect>
                            <rect x="0" y="3" width="2" height="2"></rect>
                            <rect x="0" y="6" width="2" height="2"></rect>
                            <rect x="4" y="6" width="2" height="2"></rect>
                            <rect x="4" y="3" width="2" height="2"></rect>
                            <rect x="4" y="0" width="2" height="2"></rect>
                            <rect x="8" y="6" width="2" height="2"></rect>
                            <rect x="8" y="3" width="2" height="2"></rect>
                            <rect x="8" y="0" width="2" height="2"></rect>
                        </g>
                        <path d="M14.667,1.5 L12.5,1.5 L12.5,0.5 C12.5,0.2235 12.2765,0 12,0 C11.7235,0 11.5,0.2235 11.5,0.5 L11.5,1.5 L8.5,1.5 L8.5,0.5 C8.5,0.2235 8.276,0 8,0 C7.724,0 7.5,0.2235 7.5,0.5 L7.5,1.5 L4.5,1.5 L4.5,0.5 C4.5,0.2235 4.276,0 4,0 C3.724,0 3.5,0.2235 3.5,0.5 L3.5,1.5 L1.3335,1.5 C0.597,1.5 0,2.0965 0,2.833 L0,14.6665 C0,15.403 0.597,16 1.3335,16 L14.667,16 C15.4035,16 16,15.403 16,14.6665 L16,2.833 C16,2.0965 15.4035,1.5 14.667,1.5 Z M15,14.6665 C15,14.8505 14.8505,15 14.667,15 L1.3335,15 C1.1495,15 1,14.8505 1,14.6665 L1,2.833 C1,2.6495 1.1495,2.5 1.3335,2.5 L3.5,2.5 L3.5,3.5 C3.5,3.7765 3.724,4 4,4 C4.276,4 4.5,3.7765 4.5,3.5 L4.5,2.5 L7.5,2.5 L7.5,3.5 C7.5,3.7765 7.724,4 8,4 C8.276,4 8.5,3.7765 8.5,3.5 L8.5,2.5 L11.5,2.5 L11.5,3.5 C11.5,3.7765 11.7235,4 12,4 C12.2765,4 12.5,3.7765 12.5,3.5 L12.5,2.5 L14.667,2.5 C14.8505,2.5 15,2.6495 15,2.833 L15,14.6665 Z" id="Shape" stroke="#6A6A6A" stroke-width="0.5"></path>
                    </g>
                </g>
            </g>
        </g>
    </g>
</svg>