<?xml version="1.0" encoding="UTF-8"?>
<svg width="22px" height="22px" viewBox="0 0 22 22" version="1.1" xmlns="http://www.w3.org/2000/svg" xmlns:xlink="http://www.w3.org/1999/xlink">
    <!-- Generator: Sketch 55.2 (78181) - https://sketchapp.com -->
    <title>Combined Shape Copy 3</title>
    <desc>Created with Sketch.</desc>
    <defs>
        <path d="M21.9993677,20.9843858 L21.9993595,23.9790731 C22.0028056,24.8265991 21.6481556,25.636302 21.022537,26.2092603 C20.3969183,26.7822186 19.5583122,27.0653318 18.694635,26.9872484 C15.4455488,26.634826 12.3245728,25.5265246 9.59029953,23.7564081 C7.03731215,22.1369706 4.87282453,19.9762681 3.25530809,17.435148 C1.47086529,14.6854166 0.360370217,11.5547471 0.012247627,8.28111627 C-0.0639277401,7.43963646 0.217694486,6.60494078 0.788320528,5.98092601 C1.35894657,5.35691124 2.16602964,5.00104054 3.01336457,5.00014505 L6.01871957,5.00014505 C7.53216845,4.98542351 8.82214644,6.09286455 9.03522866,7.5980951 C9.15258348,8.48633326 9.37022175,9.35846765 9.68314278,10.1955987 C10.0973397,11.295556 9.83242021,12.5355617 9.0007467,13.3751019 L8.2800097,14.0945785 C9.46184163,15.9453599 11.0350838,17.5158501 12.889108,18.6956145 L13.613827,17.9721755 C14.45085,17.145915 15.6930279,16.8814588 16.7926447,17.2940837 C17.6335098,17.6073052 18.507172,17.8245629 19.4059464,17.942936 C20.9174318,18.1557967 22.0303763,19.4623538 21.9993677,20.9843858 Z M19.9892033,20.9731718 C20.0021716,20.438993 19.6304784,20.0010758 19.1341221,19.9311333 C18.0940248,19.794195 17.0727845,19.5402384 16.087614,19.17326 C15.7203192,19.0354358 15.3062599,19.1235879 15.03124,19.3950494 L13.7547856,20.6692716 C13.4348549,20.9886429 12.9405912,21.0552512 12.5472785,20.8319986 C9.87374229,19.3144423 7.66009406,17.1046652 6.13987936,14.4358043 C5.91623562,14.0431795 5.98296062,13.5497801 6.30289136,13.2304089 L7.57538021,11.9601675 C7.85128286,11.6816477 7.93958934,11.2683125 7.80067447,10.8993965 C7.43390247,9.91821228 7.17950098,8.89875789 7.04358513,7.86970415 C6.97297853,7.37103552 6.54298587,7.00188851 6.02861124,7.00684331 L3.01431108,7.00684331 C2.73218161,7.00715838 2.46315392,7.12578194 2.27294524,7.33378687 C2.08273656,7.54179179 1.98886248,7.82002368 2.01271349,8.08486596 C2.32595409,11.0294278 3.32961944,13.8589266 4.94715663,16.3515362 C6.41116036,18.6514227 8.36447846,20.6013249 10.6762131,22.0677793 C13.154516,23.6721392 15.9752539,24.6738219 18.893672,24.9905427 C19.1755292,25.015971 19.4550646,24.9215999 19.6636041,24.7306138 C19.8721436,24.5396277 19.9903603,24.2697267 19.9892033,23.9831456 L19.9892033,20.9731718 Z" id="path-1"></path>
    </defs>
    <g id="Page-1" stroke="none" stroke-width="1" fill="none" fill-rule="evenodd">
        <g id="Contact-US" transform="translate(-762.000000, -514.000000)">
            <g id="Form" transform="translate(214.000000, 262.000000)">
                <g id="Group-28" transform="translate(548.000000, 247.000000)">
                    <mask id="mask-2" fill="white">
                        <use xlink:href="#path-1"></use>
                    </mask>
                    <use id="Combined-Shape-Copy-3" fill="#0098FF" fill-rule="nonzero" xlink:href="#path-1"></use>
                </g>
            </g>
        </g>
    </g>
</svg>