<?xml version="1.0" encoding="UTF-8"?>
<svg width="27px" height="23px" viewBox="0 0 27 23" version="1.1" xmlns="http://www.w3.org/2000/svg" xmlns:xlink="http://www.w3.org/1999/xlink">
    <!-- Generator: sketchtool 55.2 (78181) - https://sketchapp.com -->
    <title>1976A805-C998-4DE6-A28C-92CE4A8D636Emdpi/</title>
    <desc>Created with sketchtool.</desc>
    <g id="Home" stroke="none" stroke-width="1" fill="none" fill-rule="evenodd">
        <g id="Home-V8.0--S--Dark---2-Liner" transform="translate(-1164.000000, -26.000000)" stroke="#FFFFFF" stroke-width="0.909090909">
            <g id="Group-Copy" transform="translate(1120.000000, 21.000000)">
                <g id="shopping-cart" transform="translate(44.545455, 0.000000)">
                    <g id="Group-11" transform="translate(0.000000, 0.454545)">
                        <g id="Cart" transform="translate(0.000000, 5.454545)">
                            <path d="M1.14660129e-05,0.0199177607 L3.11985586,0.0199177607 C4.6246552,0.0199177607 5.90575266,1.10793114 6.14028993,2.58501313 L8.54878296,17.7537325 C8.6770303,18.5613817 9.37754627,19.1562938 10.2003473,19.1562938 L10.9620917,19.1562938" id="Stroke-2"></path>
                            <path d="M7.36863227,4.64329948 L24.412113,4.64329948 C25.0468141,4.64329948 25.5287879,5.21114937 25.4216953,5.83283874 L24.2539394,12.6145058 C23.987068,14.1641714 22.6352252,15.2972504 21.053145,15.2972504 L9.000819,15.2972504" id="Stroke-4"></path>
                            <path d="M14.516217,19.115051 C14.516217,20.0901439 13.7207625,20.8805873 12.7396159,20.8805873 C11.758412,20.8805873 10.9630147,20.0901439 10.9630147,19.115051 C10.9630147,18.1400151 11.758412,17.3495717 12.7396159,17.3495717 C13.7207625,17.3495717 14.516217,18.1400151 14.516217,19.115051 Z" id="Stroke-6"></path>
                            <path d="M21.9574234,19.115051 C21.9574234,20.0901439 21.1619689,20.8805873 20.1808223,20.8805873 C19.1996183,20.8805873 18.4042211,20.0901439 18.4042211,19.115051 C18.4042211,18.1400151 19.1996183,17.3495717 20.1808223,17.3495717 C21.1619689,17.3495717 21.9574234,18.1400151 21.9574234,19.115051 Z" id="Stroke-8"></path>
                        </g>
                    </g>
                </g>
            </g>
        </g>
    </g>
</svg>