<?xml version="1.0" encoding="UTF-8"?>
<svg width="14px" height="20px" viewBox="0 0 14 20" version="1.1" xmlns="http://www.w3.org/2000/svg" xmlns:xlink="http://www.w3.org/1999/xlink">
    <!-- Generator: Sketch 55.2 (78181) - https://sketchapp.com -->
    <title>noun_Chair_2598822</title>
    <desc>Created with Sketch.</desc>
    <g id="Page-1" stroke="none" stroke-width="1" fill="none" fill-rule="evenodd">
        <g id="Artboard" transform="translate(-3.000000, 0.000000)" fill="#343434" fill-rule="nonzero">
            <g id="noun_Chair_2598822" transform="translate(2.857143, 0.000000)">
                <g id="Group" transform="translate(0.142857, 0.000000)">
                    <path d="M11.5199232,9.78200356 C11.2558809,9.78200356 11.0398464,9.57952887 11.0398464,9.3320598 L11.0398464,2.50843645 C11.0398464,1.62204724 10.2693231,0.899887514 9.32357177,0.899887514 L4.67642823,0.899887514 C3.73067691,0.899887514 2.96015362,1.62204724 2.96015362,2.50843645 L2.96015362,9.3320598 C2.96015362,9.57952887 2.74411906,9.78200356 2.48007681,9.78200356 C2.21603457,9.78200356 2,9.57952887 2,9.3320598 L2,2.50843645 C2,1.12485939 3.20019203,0 4.67642823,0 L9.32357177,0 C10.799808,0 12,1.12485939 12,2.50843645 L12,9.3320598 C12,9.57952887 11.7839654,9.78200356 11.5199232,9.78200356 Z" id="Path"></path>
                    <path d="M2.78971538,20 C2.78515325,20 2.78059113,20 2.77831007,20 C2.5273934,19.9930876 2.32666006,19.781106 2.33350324,19.5276498 L2.37456234,17.9539171 C2.37456234,16.8824885 3.24820857,16 4.32030708,16 L10.0685799,16 C11.1429595,16 12.0143247,16.8824885 12.0143247,17.9654378 L12.0553838,19.5276498 C12.0622269,19.781106 11.8637747,19.9930876 11.612858,20 C11.6082959,20 11.6037338,20 11.5991716,20 C11.3528171,20 11.1498027,19.8018433 11.1429595,19.5506912 L11.0996193,17.9769585 C11.0996193,17.3894009 10.636564,16.9193548 10.0662989,16.9193548 L4.32030708,16.9193548 C3.75004191,16.9193548 3.2869866,17.3870968 3.2869866,17.9631336 L3.24364645,19.5506912 C3.23908433,19.8018433 3.03606993,20 2.78971538,20 Z" id="Path"></path>
                    <path d="M7,20 C6.78611111,20 6.61111111,19.7991779 6.61111111,19.5537287 L6.61111111,12.8462713 C6.61111111,12.6008221 6.78611111,12.4 7,12.4 C7.21388889,12.4 7.38888889,12.6008221 7.38888889,12.8462713 L7.38888889,19.5537287 C7.38888889,19.7991779 7.21583333,20 7,20 Z" id="Path"></path>
                    <path d="M12.0198472,13 L2.03570837,13 C1.46505777,13 1,12.5163551 1,11.9228972 L1,10.0771028 C1,9.48364486 1.46505777,9 2.03570837,9 L12.0198472,9 C12.5904978,9 13.0555556,9.48364486 13.0555556,10.0771028 L13.0555556,11.9228972 C13.0555556,12.5163551 12.5904978,13 12.0198472,13 Z M2.03570837,9.93457944 C1.96156872,9.93457944 1.89866236,10 1.89866236,10.0771028 L1.89866236,11.9228972 C1.89866236,12 1.96156872,12.0654206 2.03570837,12.0654206 L12.0198472,12.0654206 C12.0939868,12.0654206 12.1568932,12 12.1568932,11.9228972 L12.1568932,10.0771028 C12.1568932,10 12.0939868,9.93457944 12.0198472,9.93457944 L2.03570837,9.93457944 Z" id="Shape"></path>
                    <g transform="translate(0.000000, 6.000000)" id="Path">
                        <path d="M1.22331227,6.11769231 C1.01557034,6.11769231 0.828150981,5.96254079 0.782989691,5.734662 L0.0807316262,2.22920746 C-0.0728167609,1.52132867 -0.00733288992,0.961328671 0.277183239,0.573449883 C0.604602594,0.12981352 1.07879614,0.117692308 1.13298969,0.117692308 L2.33333333,0.117692308 C2.58172043,0.117692308 2.78494624,0.335874126 2.78494624,0.602540793 C2.78494624,0.869207459 2.58172043,1.08738928 2.33333333,1.08738928 L1.13298969,1.08738928 C1.13524776,1.08738928 1.04040905,1.09708625 0.981699368,1.18435897 C0.936538078,1.24981352 0.841699368,1.4655711 0.963634852,2.01829837 L1.66815098,5.53102564 C1.72008646,5.79284382 1.56653808,6.04981352 1.32266711,6.10799534 C1.28653808,6.11284382 1.25492517,6.11769231 1.22331227,6.11769231 Z"></path>
                        <path d="M12.7793548,6.11769231 C12.7477419,6.11769231 12.716129,6.11526807 12.6845161,6.10799534 C12.4406452,6.05223776 12.2848387,5.79284382 12.3390323,5.53102564 L13.0412903,2.0255711 C13.1632258,1.46314685 13.0706452,1.24981352 13.0254839,1.18435897 C12.9667742,1.09708625 12.8719355,1.08981352 12.8606452,1.08738928 L11.6575699,1.08738928 C11.4091828,1.08738928 11.205957,0.869207459 11.205957,0.602540793 C11.205957,0.335874126 11.4091828,0.117692308 11.6575699,0.117692308 L12.8741935,0.117692308 C12.926129,0.117692308 13.4003226,0.12981352 13.73,0.573449883 C14.0145161,0.958904429 14.08,1.51890443 13.9241935,2.23648019 L13.2219355,5.73223776 C13.1745161,5.96254079 12.9870968,6.11769231 12.7793548,6.11769231 Z"></path>
                    </g>
                </g>
            </g>
        </g>
    </g>
</svg>