<?xml version="1.0" encoding="UTF-8"?>
<svg width="24px" height="24px" viewBox="0 0 24 24" version="1.1" xmlns="http://www.w3.org/2000/svg" xmlns:xlink="http://www.w3.org/1999/xlink">
    <!-- Generator: sketchtool 56.2 (101010) - https://sketch.com -->
    <title>48EF0329-7AF4-4C8C-B0F5-CB43AEA3840B</title>
    <desc>Created with sketchtool.</desc>
    <g id="New-Find-Agent" stroke="none" stroke-width="1" fill="none" fill-rule="evenodd">
        <g id="Find-agent-Search-Results-Hover" transform="translate(-456.000000, -642.000000)" fill="#343434" fill-rule="nonzero">
            <g id="Group-8" transform="translate(431.000000, 460.000000)">
                <g id="Group-28" transform="translate(25.000000, 178.000000)">
                    <g id="clock" transform="translate(0.000000, 4.000000)">
                        <g id="Group-20">
                            <path d="M23.0420392,7.3261006 C21.7767059,4.37448011 19.6265098,2.22785058 16.6518824,0.958487012 C15.1651373,0.324060268 13.6075294,0 11.9802745,0 C10.3532941,0 8.80717647,0.320999765 7.32207843,0.958487012 C4.37207843,2.22447618 2.21235294,4.3697324 0.944784314,7.3261006 C0.309607843,8.8072275 0,10.3589422 0,11.9868163 C0,13.6150043 0.309607843,15.1795888 0.944784314,16.6610296 C2.21235294,19.6173978 4.37235294,21.7755238 7.32207843,23.0418269 C8.80745098,23.6793141 10.3532549,24 11.9802745,24 C13.6072941,24 15.1651373,23.6759397 16.6516471,23.0418269 C19.6262745,21.7724241 21.7764706,19.6123754 23.0420784,16.6610296 C23.6791765,15.1748411 24,13.6150043 24,11.9868163 C24,10.3589422 23.679451,8.81224986 23.0420392,7.3261006 Z M21.1264314,17.2912579 C20.1844314,18.9076356 18.8939216,20.1899474 17.2685882,21.1380366 C15.653098,22.080554 13.8830196,22.5558738 11.980549,22.5558738 C10.5503529,22.5558738 9.18564706,22.2802715 7.88643137,21.7156086 C6.5872549,21.1512203 5.46552941,20.4092443 4.52717647,19.4706506 C3.58882353,18.5317822 2.84196078,17.3984933 2.2834902,16.0963666 C1.72666667,14.7989877 1.45682353,13.4181119 1.45682353,11.9868555 C1.45682353,10.0830652 1.92431373,8.32099976 2.86101961,6.70909519 C3.80105882,5.09130503 5.09184314,3.80761987 6.70568627,2.86227733 C8.3192549,1.91697402 10.0778431,1.44416542 11.9802745,1.44416542 C13.8830196,1.44416542 15.6527843,1.91975987 17.2683137,2.86227733 C18.8936471,3.81040571 20.1813725,5.09405164 21.1261569,6.70905595 C22.0709412,8.32378561 22.5432157,10.0830652 22.5432157,11.9868163 C22.5432157,13.8906458 22.0740392,15.6647179 21.1264314,17.2912579 Z" id="Shape"></path>
                            <path d="M12.6549764,12.8629162 L12.6549764,5.76710379 C12.6549764,5.34249068 12.2594505,5 11.8054513,5 C11.3808638,5 11,5.34249068 11,5.76710379 L11,12.9724673 C11,12.9862227 11.0293679,13.041162 11.0293679,13.0821004 C11,13.3287133 11.0734417,13.5341832 11.2490365,13.6987146 L15.6280953,17.794438 C15.921118,18.0685207 16.4628707,18.0685207 16.7556746,17.794438 C17.0924209,17.479417 17.0702746,17.0223398 16.7556746,16.7259867 L12.6549764,12.8629162 Z" id="Path"></path>
                        </g>
                    </g>
                </g>
            </g>
        </g>
    </g>
</svg>