<?xml version="1.0" encoding="UTF-8"?>
<svg width="14px" height="14px" viewBox="0 0 14 14" version="1.1" xmlns="http://www.w3.org/2000/svg" xmlns:xlink="http://www.w3.org/1999/xlink">
    <!-- Generator: Sketch 55.2 (78181) - https://sketchapp.com -->
    <title>close-blue-color</title>
    <desc>Created with Sketch.</desc>
    <g id="Page-1" stroke="none" stroke-width="1" fill="none" fill-rule="evenodd">
        <g id="Artboard" transform="translate(-612.000000, -460.000000)" fill="#0098FF" fill-rule="nonzero">
            <g id="close-blue-color" transform="translate(612.000000, 460.000000)">
                <path d="M8.414214,6.99999998 L13.707107,12.2928932 C14.097631,12.6834175 14.097631,13.3165825 13.707107,13.7071068 C13.316582,14.0976311 12.683418,14.0976311 12.292893,13.7071068 L7,8.4142136 L1.707107,13.7071068 C1.316582,14.0976311 0.683418,14.0976311 0.292893,13.7071068 C-0.097631,13.3165825 -0.097631,12.6834175 0.292893,12.2928932 L5.585786,6.99999998 L0.292893,1.7071068 C-0.097631,1.3165825 -0.097631,0.6834175 0.292893,0.2928932 C0.683418,-0.0976311 1.316582,-0.0976311 1.707107,0.2928932 L7,5.5857864 L12.292893,0.2928932 C12.683418,-0.0976311 13.316582,-0.0976311 13.707107,0.2928932 C14.097631,0.6834175 14.097631,1.3165825 13.707107,1.7071068 L8.414214,6.99999998 Z" id="path-1"></path>
            </g>
        </g>
    </g>
</svg>