<?xml version="1.0" encoding="UTF-8"?>
<svg width="22px" height="22px" viewBox="0 0 22 22" version="1.1" xmlns="http://www.w3.org/2000/svg" xmlns:xlink="http://www.w3.org/1999/xlink">
    <!-- Generator: Sketch 55.2 (78181) - https://sketchapp.com -->
    <title>Shape</title>
    <desc>Created with Sketch.</desc>
    <g id="Event-Listing" stroke="none" stroke-width="1" fill="none" fill-rule="evenodd">
        <g id="Event-listing-Filter---Multiple-Genre-Select" transform="translate(-176.000000, -218.000000)" fill="#343434" fill-rule="nonzero" stroke="#343434" stroke-width="0.5">
            <path d="M193.074403,239 C192.24227,239 191.237252,238.791463 190.132001,238.37439 C187.708926,237.460864 185.072604,235.655338 182.708726,233.291473 C180.344176,230.926934 178.538642,228.289952 177.624439,225.866889 C176.793651,223.663798 176.791633,221.855582 177.61973,221.028162 C177.738798,220.909094 177.859885,220.781281 177.985008,220.649432 C178.740453,219.854974 179.594113,218.960956 180.725599,219.001318 C181.505261,219.033608 182.260706,219.517951 183.034314,220.480584 C185.320158,223.323412 184.289578,224.336498 183.096876,225.511031 L182.88632,225.719568 C182.691236,225.91465 182.322595,226.818086 185.752034,230.247508 C186.871411,231.366879 187.825976,232.186227 188.588821,232.682007 C189.069131,232.994139 189.928172,233.466374 190.280668,233.11388 L190.49257,232.899961 C191.665763,231.709956 192.678854,230.682744 195.519678,232.966559 C196.482315,233.740163 196.965988,234.494932 196.998278,235.275936 C197.044695,236.406744 196.143946,237.262417 195.348811,238.017186 C195.217634,238.142308 195.08982,238.263394 194.970752,238.381789 C194.559731,238.793481 193.9025,239 193.074403,239 Z M180.644874,219.672672 C179.840994,219.672672 179.115148,220.436859 178.472717,221.112922 C178.343558,221.248807 178.218435,221.380656 178.095331,221.50376 C177.478462,222.119953 177.541024,223.73914 178.254089,225.630099 C179.135329,227.965711 180.886375,230.517933 183.185,232.816547 C185.482952,235.113815 188.033841,236.864852 190.370138,237.745416 C192.261105,238.459822 193.880301,238.520365 194.495824,237.904845 C194.618929,237.781741 194.750778,237.656619 194.886664,237.528134 C195.57753,236.871579 196.361229,236.127573 196.326921,235.302171 C196.303376,234.735086 195.890337,234.124947 195.099238,233.489246 C192.731997,231.585507 192.070058,232.257533 190.972207,233.370851 L190.756942,233.588133 C190.232234,234.113511 189.37992,233.997134 188.222871,233.245056 C187.420336,232.723041 186.428773,231.874095 185.277105,230.721761 C182.4309,227.876242 181.520733,226.134623 182.411392,225.241951 L182.625984,225.030051 C183.741998,223.932205 184.415373,223.269596 182.510952,220.901021 C181.873902,220.1106 181.264433,219.697562 180.697345,219.673345 C180.679855,219.672672 180.662365,219.672672 180.644874,219.672672 Z" id="Shape"></path>
        </g>
    </g>
</svg>