<?xml version="1.0" encoding="UTF-8"?>
<svg width="14px" height="14px" viewBox="0 0 14 14" version="1.1" xmlns="http://www.w3.org/2000/svg" xmlns:xlink="http://www.w3.org/1999/xlink">
    <!-- Generator: Sketch 55.2 (78181) - https://sketchapp.com -->
    <title>cross-grey</title>
    <desc>Created with Sketch.</desc>
    <g id="Page-1" stroke="none" stroke-width="1" fill="none" fill-rule="evenodd">
        <g id="Artboard" transform="translate(-682.000000, -481.000000)" fill="#949494" fill-rule="nonzero">
            <g id="cross-grey" transform="translate(682.000000, 481.000000)">
                <path d="M8.4142135,7 L13.7071068,12.2928932 C14.0976311,12.6834175 14.0976311,13.3165824 13.7071068,13.7071068 C13.3165824,14.0976311 12.6834175,14.0976311 12.2928932,13.7071068 L7,8.4142135 L1.70710679,13.7071068 C1.31658248,14.0976311 0.683417504,14.0976311 0.292893216,13.7071068 C-0.097631072,13.3165824 -0.097631072,12.6834175 0.292893216,12.2928932 L5.58578644,7 L0.292893216,1.70710679 C-0.097631072,1.31658248 -0.097631072,0.683417504 0.292893216,0.292893216 C0.683417504,-0.097631072 1.31658248,-0.097631072 1.70710679,0.292893216 L7,5.58578644 L12.2928932,0.292893216 C12.6834175,-0.097631072 13.3165824,-0.097631072 13.7071068,0.292893216 C14.0976311,0.683417504 14.0976311,1.31658248 13.7071068,1.70710679 L8.4142135,7 Z" id="path-1"></path>
            </g>
        </g>
    </g>
</svg>