<?xml version="1.0" encoding="UTF-8"?>
<svg width="20px" height="21px" viewBox="0 0 20 21" version="1.1" xmlns="http://www.w3.org/2000/svg" xmlns:xlink="http://www.w3.org/1999/xlink">
    <!-- Generator: sketchtool 55.2 (78181) - https://sketchapp.com -->
    <title>2DC0D880-7209-4A0A-A1E9-AD2985A3862C</title>
    <desc>Created with sketchtool.</desc>
    <g id="New-Find-Agent" stroke="none" stroke-width="1" fill="none" fill-rule="evenodd">
        <g id="Find-Venue-Search-Results-Hover" transform="translate(-455.000000, -850.000000)" fill="#343434" fill-rule="nonzero">
            <g id="Group-8" transform="translate(431.000000, 490.000000)">
                <g id="noun_event_1150462" transform="translate(24.000000, 360.000000)">
                    <path d="M6.63541165,3.9157531 L13.0719012,3.9157531 C13.4752954,3.9157531 13.8021586,3.5896589 13.8021586,3.18721379 C13.8021586,2.78476867 13.4752954,2.45867447 13.0719012,2.45867447 L6.63541165,2.45867447 C6.23201741,2.45867447 5.90515416,2.78476867 5.90515416,3.18721379 C5.90515416,3.5896589 6.23230951,3.9157531 6.63541165,3.9157531 Z M18.2470899,2.45867447 L17.2343688,2.45867447 C16.8309746,2.45867447 16.5041113,2.78476867 16.5041113,3.18721379 C16.5041113,3.5896589 16.8309746,3.9157531 17.2343688,3.9157531 L18.2470899,3.9157531 C18.4083308,3.9157531 18.5391929,4.04630735 18.5391929,4.20716883 L18.5391929,7.47306486 L1.46051498,7.47306486 L1.46051498,4.20716883 C1.46051498,4.04630735 1.59137712,3.9157531 1.75261797,3.9157531 L2.47323606,3.9157531 C2.8766303,3.9157531 3.20349355,3.5896589 3.20349355,3.18721379 C3.20349355,2.78476867 2.8766303,2.45867447 2.47323606,2.45867447 L1.75261797,2.45867447 C0.786049161,2.45867447 0,3.24287419 0,4.20716883 L0,19.2515056 C0,20.2158003 0.786049161,21 1.75261797,21 L18.247382,21 C19.2139508,21 20,20.2158003 20,19.2515056 L20,4.20716883 C19.9997079,3.24316561 19.2136587,2.45867447 18.2470899,2.45867447 Z M18.5391929,19.2515056 C18.5391929,19.4123671 18.4083308,19.5429214 18.2470899,19.5429214 L1.75261797,19.5429214 C1.59137712,19.5429214 1.46051498,19.4123671 1.46051498,19.2515056 L1.46051498,8.93014349 L18.539485,8.93014349 L18.539485,19.2515056 L18.5391929,19.2515056 Z M4.59594853,6.01044934 C4.99934277,6.01044934 5.32620602,5.68435514 5.32620602,5.28191002 L5.32620602,0.728539313 C5.32620602,0.326094197 4.99934277,0 4.59594853,0 C4.19255429,0 3.86569104,0.326094197 3.86569104,0.728539313 L3.86569104,5.28191002 C3.86569104,5.68435514 4.19255429,6.01044934 4.59594853,6.01044934 Z M15.221195,6.01044934 C15.6245892,6.01044934 15.9514525,5.68435514 15.9514525,5.28191002 L15.9514525,0.728539313 C15.9514525,0.326094197 15.6245892,0 15.221195,0 C14.8178008,0 14.4909375,0.326094197 14.4909375,0.728539313 L14.4909375,5.28191002 C14.4909375,5.68435514 14.8178008,6.01044934 15.221195,6.01044934 Z" id="Shape"></path>
                </g>
            </g>
        </g>
    </g>
</svg>