<?xml version="1.0" encoding="UTF-8"?>
<svg width="13px" height="14px" viewBox="0 0 13 14" version="1.1" xmlns="http://www.w3.org/2000/svg" xmlns:xlink="http://www.w3.org/1999/xlink">
    <!-- Generator: sketchtool 56.2 (101010) - https://sketch.com -->
    <title>7471A3EE-0399-43AF-8C51-D1B996A021FE</title>
    <desc>Created with sketchtool.</desc>
    <defs>
        <path d="M685.85,913.009137 L685.85,905.636364 C685.85,905.28491 686.141015,905 686.5,905 C686.858985,905 687.15,905.28491 687.15,905.636364 L687.15,913.009137 L688.640381,911.550023 C688.894221,911.301507 689.305779,911.301507 689.559619,911.550023 C689.81346,911.798538 689.81346,912.201462 689.559619,912.449977 L686.959619,914.995432 C686.705779,915.243947 686.294221,915.243947 686.040381,914.995432 L683.440381,912.449977 C683.18654,912.201462 683.18654,911.798538 683.440381,911.550023 C683.694221,911.301507 684.105779,911.301507 684.359619,911.550023 L685.85,913.009137 Z M680,915.181818 C680,914.830364 680.291015,914.545455 680.65,914.545455 C681.008985,914.545455 681.3,914.830364 681.3,915.181818 L681.3,917.090909 C681.3,917.442363 681.591015,917.727273 681.95,917.727273 L691.05,917.727273 C691.408985,917.727273 691.7,917.442363 691.7,917.090909 L691.7,915.181818 C691.7,914.830364 691.991015,914.545455 692.35,914.545455 C692.708985,914.545455 693,914.830364 693,915.181818 L693,917.090909 C693,918.145271 692.126955,919 691.05,919 L681.95,919 C680.873045,919 680,918.145271 680,917.090909 L680,915.181818 Z" id="path-1"></path>
    </defs>
    <g id="New-Find-Agent" stroke="none" stroke-width="1" fill="none" fill-rule="evenodd">
        <g id="Find-agent-Search-Results-Hover" transform="translate(-680.000000, -905.000000)">
            <mask id="mask-2" fill="white">
                <use xlink:href="#path-1"></use>
            </mask>
            <use id="Combined-Shape" fill="#0098FF" fill-rule="nonzero" xlink:href="#path-1"></use>
        </g>
    </g>
</svg>