<?xml version="1.0" encoding="UTF-8"?>
<svg width="16px" height="18px" viewBox="0 0 16 18" version="1.1" xmlns="http://www.w3.org/2000/svg" xmlns:xlink="http://www.w3.org/1999/xlink">
    <!-- Generator: sketchtool 55.2 (78181) - https://sketchapp.com -->
    <title>3E3FF670-8D88-4CB6-B275-06794232FF75</title>
    <desc>Created with sketchtool.</desc>
    <defs>
        <path d="M7.2,10.2974616 L7.2,0.818181818 C7.2,0.366312477 7.5581722,0 8,0 C8.4418278,0 8.8,0.366312477 8.8,0.818181818 L8.8,10.2974616 L10.6343146,8.42145809 C10.946734,8.10193821 11.453266,8.10193821 11.7656854,8.42145809 C12.0781049,8.74097796 12.0781049,9.25902204 11.7656854,9.57854191 L8.56568542,12.8512692 C8.25326599,13.1707891 7.74673401,13.1707891 7.43431458,12.8512692 L4.23431458,9.57854191 C3.92189514,9.25902204 3.92189514,8.74097796 4.23431458,8.42145809 C4.54673401,8.10193821 5.05326599,8.10193821 5.36568542,8.42145809 L7.2,10.2974616 Z M0,13.0909091 C0,12.6390398 0.3581722,12.2727273 0.8,12.2727273 C1.2418278,12.2727273 1.6,12.6390398 1.6,13.0909091 L1.6,15.5454545 C1.6,15.9973239 1.9581722,16.3636364 2.4,16.3636364 L13.6,16.3636364 C14.0418278,16.3636364 14.4,15.9973239 14.4,15.5454545 L14.4,13.0909091 C14.4,12.6390398 14.7581722,12.2727273 15.2,12.2727273 C15.6418278,12.2727273 16,12.6390398 16,13.0909091 L16,15.5454545 C16,16.9010626 14.9254834,18 13.6,18 L2.4,18 C1.0745166,18 0,16.9010626 0,15.5454545 L0,13.0909091 Z" id="path-1"></path>
    </defs>
    <g id="New-Find-Agent" stroke="none" stroke-width="1" fill="none" fill-rule="evenodd">
        <g id="Find-Agent-Search-Results-" transform="translate(-318.000000, -414.000000)">
            <g id="Group-16" transform="translate(48.000000, 414.000000)">
                <g id="Group-15">
                    <g id="download" transform="translate(270.000000, 0.000000)">
                        <mask id="mask-2" fill="white">
                            <use xlink:href="#path-1"></use>
                        </mask>
                        <use id="Combined-Shape" fill="#FF8300" fill-rule="nonzero" xlink:href="#path-1"></use>
                    </g>
                </g>
            </g>
        </g>
    </g>
</svg>