<?xml version="1.0" encoding="UTF-8"?>
<svg width="18px" height="18px" viewBox="0 0 18 18" version="1.1" xmlns="http://www.w3.org/2000/svg" xmlns:xlink="http://www.w3.org/1999/xlink">
    <!-- Generator: Sketch 55.2 (78181) - https://sketchapp.com -->
    <title>noun_masks_1189995</title>
    <desc>Created with Sketch.</desc>
    <g id="Page-1" stroke="none" stroke-width="1" fill="none" fill-rule="evenodd">
        <g id="Event-Detail-Page-V8.0-Copy-2" transform="translate(-553.000000, -1411.000000)" fill="#343434" fill-rule="nonzero">
            <g id="noun_masks_1189995" transform="translate(553.000000, 1411.000000)">
                <path d="M3.81600006,9.93600015 C3.85725573,9.68109949 4.09217192,9.50876356 4.34070006,9.55107707 C4.58922821,9.59339057 4.75725574,9.83433026 4.71600007,10.0892309 C4.6747769,10.3405553 4.83996903,10.5785807 5.08500008,10.6209232 C5.11015652,10.6230723 5.13544363,10.6230723 5.16060008,10.6209232 C5.37965256,10.6205217 5.56659956,10.4583996 5.60340008,10.2369232 C5.72517887,9.47935848 5.2251257,8.76397837 4.48650007,8.63907705 C3.74787443,8.51417573 3.05037883,9.02705078 2.92860004,9.78461553 C2.89910901,9.94847141 2.95801829,10.1159093 3.08272852,10.2226951 C3.20743875,10.3294809 3.37858569,10.3590335 3.53051226,10.3000156 C3.68243884,10.2409978 3.79155482,10.1025735 3.81600006,9.9378463 L3.81600006,9.93600015 Z" id="Path"></path>
                <path d="M8.10900012,9.27138475 C7.37312651,9.14563141 6.67677374,9.65424656 6.5520001,10.4086155 C6.52250907,10.5724714 6.58141834,10.7399093 6.70612857,10.8466951 C6.8308388,10.9534809 7.00198574,10.9830335 7.15391232,10.9240157 C7.30583889,10.8649978 7.41495487,10.7265735 7.43940011,10.5618463 C7.46608785,10.3969545 7.57651786,10.259191 7.72909221,10.20045 C7.88166657,10.1417089 8.0532056,10.1709146 8.17909222,10.2770654 C8.30497884,10.3832161 8.36608786,10.5501853 8.33940012,10.7150771 C8.29817696,10.9664015 8.46336908,11.2044269 8.70840013,11.2467694 C8.73355658,11.2489184 8.75884369,11.2489184 8.78400013,11.2467694 C9.00305261,11.2463679 9.18999961,11.0842458 9.22680014,10.8627694 C9.34578304,10.1069296 8.84569796,9.39497068 8.10900012,9.27138475 L8.10900012,9.27138475 Z" id="Path"></path>
                <path d="M8.05860012,12.5409233 C7.85479504,12.3951761 7.57438834,12.4464146 7.43220011,12.6553848 C7.0131539,13.2736503 6.28393217,13.5884562 5.55993691,13.4636431 C4.83594165,13.3388299 4.24714016,12.7968034 4.04820006,12.0720002 C4.00414921,11.9133743 3.88093428,11.7909013 3.72496912,11.7507157 C3.56900397,11.71053 3.40398342,11.7587369 3.29206911,11.8771772 C3.18015481,11.9956175 3.1383492,12.1662973 3.18240005,12.3249233 C3.48032554,13.3899402 4.34617591,14.1861739 5.41080008,14.3741541 C5.56189285,14.4000199 5.7148171,14.4129874 5.86800009,14.4129235 C6.78460022,14.4110838 7.64317041,13.9525463 8.17020012,13.1833848 C8.31230358,12.974354 8.26234607,12.6867573 8.05860012,12.5409233 Z" id="Path"></path>
                <path d="M14.4126002,3.72738467 C13.9503634,3.42633532 13.3567143,3.44101456 12.9091593,3.76456046 C12.4616043,4.08810637 12.2485539,4.65660535 12.3696002,5.20430777 C12.4237793,5.45309081 12.6643367,5.60972227 12.9069002,5.55415393 C13.1494637,5.49858559 13.3021793,5.25186004 13.2480002,5.003077 C13.2216951,4.88311371 13.2429559,4.75734596 13.307101,4.65346727 C13.3712461,4.54958858 13.4730156,4.47611706 13.5900002,4.44923084 C13.7069644,4.4222513 13.829588,4.44405723 13.9308697,4.50984707 C14.0321514,4.57563691 14.1037861,4.68001584 14.1300002,4.80000007 C14.1841793,5.04878311 14.4247368,5.20541457 14.6673002,5.14984623 C14.9098637,5.09427789 15.0625794,4.84755234 15.0084002,4.5987693 C14.9316704,4.23815832 14.7170231,3.92422685 14.4126002,3.72738467 Z" id="Path"></path>
                <path d="M16.9614003,0.738461549 C16.9197098,0.563584942 16.7826833,0.429531436 16.6104002,0.395076929 C12.7489744,-0.380886136 8.74727907,0.540706681 5.58000008,2.93538466 C5.43677859,3.04042724 5.36644474,3.22149181 5.40000008,3.39876928 L5.50620008,3.87692313 C5.59620008,4.34400006 5.68620008,4.82215392 5.79960009,5.31323085 C4.22629371,5.1636629 2.63965155,5.28850565 1.10700002,5.68246162 C0.935321178,5.72787378 0.805641618,5.87244408 0.775800012,6.0516924 L0.68760001,6.51692317 C0.189000003,9.17169244 -0.430200006,12.4763079 1.44000002,15.5556925 C2.19294045,16.7975473 3.4290227,17.6485575 4.83480007,17.8929233 C5.10303415,17.9393642 5.37457118,17.9628298 5.64660008,17.9630772 C6.78820947,17.9614533 7.89483048,17.5587969 8.78220013,16.8221541 C10.0311649,15.775626 10.9669942,14.3889988 11.4822002,12.8215387 C13.6063195,13.2618833 15.7619385,12.2290855 16.7958003,10.2756925 C18.5058003,7.09846164 17.7120003,3.8344616 17.0748003,1.21107694 L16.9614003,0.738461549 Z M8.21700012,16.1021541 C7.31343574,16.8592352 6.13532357,17.1796557 4.98472219,16.9812625 C3.8341208,16.7828692 2.82292599,16.0849558 2.21040003,15.0664618 C0.522000008,12.297231 1.10340002,9.18830783 1.57320002,6.69230779 L1.60740002,6.5076924 C4.99770173,5.71059513 8.55783408,6.32469722 11.5074002,8.21538474 L11.4804002,8.40000013 C11.1330002,10.9200002 10.6938002,14.049231 8.21700012,16.1021541 Z M16.0074002,9.82523092 C15.1761249,11.3936294 13.4610975,12.2422905 11.7468002,11.9335386 C12.0290583,10.8164947 12.2401047,9.68178691 12.3786002,8.53661551 L12.3894002,8.45907705 L12.4794002,8.43507705 C13.196016,8.27259163 13.9399796,8.54607996 14.3928002,9.13846167 C14.5458936,9.33932338 14.82876,9.37486508 15.0246002,9.21784628 C15.2204404,9.06082748 15.2550935,8.770708 15.1020002,8.56984628 C14.4344112,7.69788574 13.3387688,7.29532139 12.2832002,7.53415396 L12.1824002,7.56184627 C11.3673806,7.01884566 10.499266,6.56468691 9.59220014,6.20676932 C9.63472995,6.11474383 9.64613109,6.01080182 9.62460014,5.9113847 C9.59829509,5.79142142 9.61955588,5.66565367 9.68370097,5.56177498 C9.74784606,5.45789629 9.84961552,5.38442477 9.96660015,5.35753854 C10.0833714,5.32999968 10.206037,5.35196666 10.3068002,5.41846162 C10.4084104,5.4838956 10.4803364,5.58823744 10.5066002,5.70830778 C10.5612763,5.95709082 10.8022367,6.113309 11.0448002,6.05723086 C11.2873636,6.00115271 11.4396764,5.75401389 11.3850002,5.50523085 C11.2364735,4.78990872 10.571745,4.3159289 9.86624791,4.42229567 C9.16075081,4.52866243 8.65713449,5.1787919 8.71560013,5.9076924 C8.07286721,5.70217053 7.41658123,5.54422631 6.7518001,5.435077 C6.6114001,4.84061546 6.4980001,4.26092314 6.3918001,3.69784621 L6.35580009,3.51323082 C9.20178512,1.45769235 12.7267016,0.644333077 16.1568002,1.25169233 L16.2018002,1.43630771 C16.7994003,3.90092314 17.5464003,6.96923087 16.0074002,9.83076938 L16.0074002,9.82523092 Z" id="Shape"></path>
            </g>
        </g>
    </g>
</svg>