<?xml version="1.0" encoding="UTF-8"?>
<svg width="29px" height="39px" viewBox="0 0 29 39" version="1.1" xmlns="http://www.w3.org/2000/svg" xmlns:xlink="http://www.w3.org/1999/xlink">
    <!-- Generator: sketchtool 56.2 (101010) - https://sketch.com -->
    <title>E7435292-B7BD-4F01-A56E-ADA3AA88A97A</title>
    <desc>Created with sketchtool.</desc>
    <g id="Sell-ticket-with-us" stroke="none" stroke-width="1" fill="none" fill-rule="evenodd">
        <g id="Sell-Ticket-with-Us" transform="translate(-1045.000000, -514.000000)">
            <g id="Group-7" transform="translate(1045.000000, 502.000000)">
                <g id="Events-icon" transform="translate(0.000000, 12.000000)">
                    <path d="M14.5,39 C14.3460034,39 14.1972322,38.9426994 14.0812727,38.8387324 C11.604362,36.5252632 9.3386139,33.9844795 7.31227273,31.2480539 C2.79090909,25.1642811 0.5,19.483351 0.5,14.3639196 C0.5,9.2321854 3.16838483,4.49026744 7.5,1.92440033 C11.831615,-0.641466777 17.168385,-0.641466777 21.5,1.92440033 C25.8316152,4.49026744 28.5,9.2321854 28.5,14.3639196 C28.5,19.483351 26.2090909,25.1642811 21.6909091,31.2480539 C19.66356,33.9846221 17.3967429,36.5254104 14.9187273,38.8387324 C14.8027678,38.9426994 14.6539966,39 14.5,39 L14.5,39 Z M14.5,1.13148532 C7.42755528,1.18825512 1.73426696,7.10751726 1.77253356,14.3639196 C1.77253356,24.7398926 12.2555455,35.3176134 14.5,37.4630606 C16.7444545,35.3163076 27.2274664,24.7314048 27.2274664,14.3639196 C27.265733,7.10751726 21.5724447,1.18825512 14.5,1.13148532 Z" id="Shape" fill="#0098FF" fill-rule="nonzero"></path>
                    <circle id="Oval" stroke="#0098FF" stroke-width="1.5" cx="15" cy="14.5" r="7.5"></circle>
                    <path d="M17.5502195,18.9998225 C17.489501,19 17.4296715,18.9828151 17.3758748,18.9499916 L15.000663,17.494407 L12.6258261,18.9499916 C12.4994754,19.0272455 12.3464657,19.0142017 12.2310983,18.9163417 C12.1157309,18.8184818 12.0580016,18.652767 12.0821707,18.488838 L12.5358418,15.4063207 L10.6139261,13.2233809 C10.511172,13.1072075 10.474119,12.9329644 10.5184254,12.7742861 C10.5627319,12.6156078 10.6806662,12.5001842 10.8223898,12.4767928 L13.477303,12.0274411 L14.6632217,9.2238016 C14.7333185,9.08512286 14.8610938,9 14.9991633,9 C15.1372328,9 15.265008,9.08512286 15.3351048,9.2238016 L16.5225233,12.0283153 L19.1789362,12.4767928 C19.3202049,12.5007095 19.4375679,12.6160749 19.4816577,12.7743617 C19.5257475,12.9326486 19.4889137,13.1063912 19.3866501,13.2225067 L17.4654843,15.4054464 L17.9191553,18.4879637 C17.9378262,18.6149108 17.907523,18.7449961 17.8363355,18.8434925 C17.7651479,18.9419888 17.660323,18.9988689 17.5498446,18.9989482 L17.5502195,18.9998225 Z" id="Shape" fill="#0098FF" fill-rule="nonzero"></path>
                </g>
            </g>
        </g>
    </g>
</svg>