<?xml version="1.0" encoding="UTF-8"?>
<svg width="79px" height="50px" viewBox="0 0 79 50" version="1.1" xmlns="http://www.w3.org/2000/svg" xmlns:xlink="http://www.w3.org/1999/xlink">
    <!-- Generator: sketchtool 55.2 (78181) - https://sketchapp.com -->
    <title>45159453-E70D-4927-8B38-ADEE5A61603F</title>
    <desc>Created with sketchtool.</desc>
    <defs>
        <path d="M70.4100107,18.9726611 C70.0363282,19.127262 69.6003114,19.2756789 69.1316742,19.4001327 C68.6627139,19.5269054 68.1627481,19.6374451 67.6611673,19.7116536 C67.1599096,19.785862 66.6576829,19.8268313 66.1861388,19.8376533 C65.7145948,19.8531134 65.2740564,19.8353343 64.8955293,19.7912731 C64.138798,19.7193836 63.6304348,19.5330895 63.6304348,19.5330895 C63.6304348,19.5338625 64.125233,19.1999244 64.8722751,18.9054096 C65.2459576,18.7500357 65.6826202,18.6023918 66.1512575,18.478711 C66.6195718,18.3496193 67.1198606,18.2421716 67.6214414,18.1679631 C68.1226991,18.0937547 68.6252488,18.0558775 69.0967928,18.0442824 C69.5680139,18.0295953 70.0088753,18.0473744 70.3874024,18.0906627 C71.1441337,18.1625521 71.6521739,18.3465272 71.6521739,18.3465272 C71.6521739,18.3465272 71.1573757,18.6789193 70.4100107,18.9726611 M63.6630431,24.6128926 C61.4599764,23.8508286 59.85857,22.7128911 60.0868941,22.0708453 C60.3148697,21.4294873 62.2857778,21.5271525 64.4891932,22.2888726 C66.6919113,23.0509366 68.2933177,24.1888742 68.0653422,24.830576 C67.8373666,25.4726218 65.8661099,25.3749566 63.6630431,24.6128926 M54.7853584,35.940745 C54.4239127,36.1071454 54.0257986,36.1174867 53.6754844,35.9999723 C53.324188,35.881831 53.0203641,35.6361475 52.8461892,35.2901849 C52.2617865,34.1260083 51.2383452,33.249507 49.964773,32.8220678 C48.6912008,32.3946285 47.3203919,32.4676441 46.1041141,33.0276397 C45.3812227,33.3601273 44.5129674,33.0686914 44.1655997,32.3767663 C43.8179047,31.6848411 44.122056,30.8537788 44.8452747,30.5209779 C46.760544,29.6394627 48.920051,29.5244552 50.926009,30.197578 C52.9319671,30.8707009 54.5440672,32.2514175 55.4650334,34.0849565 C55.812401,34.7771951 55.5082497,35.607944 54.7853584,35.940745 M46.7282265,18.2991819 C44.5251448,17.5374793 42.9240761,16.399224 43.1520533,15.757193 C43.3800304,15.1158498 45.3513005,15.2131689 47.5543822,15.9755592 C49.7574639,16.7372618 51.3585326,17.8755171 51.1305554,18.5168603 C50.9025783,19.1588913 48.9313082,19.0612283 46.7282265,18.2991819 M44.9687834,8.82597966 C45.2446299,9.04881131 45.557604,9.3192538 45.8847911,9.61916966 C46.2131384,9.91811387 46.5562787,10.2452359 46.8901371,10.58337 C47.2245756,10.921828 47.5506025,11.2700024 47.8490736,11.6055454 C48.1489951,11.9397929 48.4202007,12.2610851 48.6458669,12.5461023 C49.1009702,13.1103069 49.3695652,13.5294118 49.3695652,13.5294118 C49.3695652,13.5294118 48.9698633,13.2719246 48.421941,12.821403 C48.1460945,12.5988953 47.8328303,12.3287767 47.5056432,12.0285369 C47.177586,11.7295927 46.8350258,11.4018229 46.5005873,11.0633649 C46.1667289,10.7255547 45.8412822,10.3757609 45.5425209,10.0405417 C45.2431796,9.70661813 44.9713939,9.38500209 44.7457277,9.10030875 C44.2906244,8.53610418 44.0217391,8.11764706 44.0217391,8.11764706 C44.0214492,8.11797094 44.4208611,8.3754581 44.9687834,8.82597966 M51.2759543,26.1788849 C51.3850064,26.1256384 51.5151097,26.172185 51.5679103,26.2836148 C52.0755547,27.3619453 53.3475992,27.8182434 54.4039552,27.2995305 C54.5130073,27.246284 54.6434557,27.2928306 54.6962562,27.4042604 C54.7476763,27.5153376 54.7021229,27.6489829 54.593761,27.7025821 C53.9570486,28.0153614 53.2547669,28.0340506 52.6353095,27.8122488 C52.0165423,27.590447 51.4795643,27.1278016 51.1734592,26.4772065 C51.1216939,26.3661293 51.1675924,26.2324841 51.2759543,26.1788849 M59.3089448,9.33703546 C52.7384798,7.02115537 42.9617232,0 42.9617232,0 C42.9617232,0 36.9343603,18.0139728 36.1250617,24.2507618 C35.3237183,30.4269547 38.3329631,42.5821723 46.3213072,45.3978937 C54.3099573,48.2139227 64.1283262,40.5311312 67.3147294,35.2063603 C70.5347897,29.8240692 77,11.9974215 77,11.9974215 C77,11.9974215 66.0204635,11.7027459 59.3089448,9.33703546" id="path-1"></path>
        <filter x="-9.8%" y="-4.3%" width="119.5%" height="117.4%" filterUnits="objectBoundingBox" id="filter-2">
            <feOffset dx="0" dy="2" in="SourceAlpha" result="shadowOffsetOuter1"></feOffset>
            <feGaussianBlur stdDeviation="1" in="shadowOffsetOuter1" result="shadowBlurOuter1"></feGaussianBlur>
            <feColorMatrix values="0 0 0 0 0   0 0 0 0 0   0 0 0 0 0  0 0 0 0.081840035 0" type="matrix" in="shadowBlurOuter1"></feColorMatrix>
        </filter>
    </defs>
    <g id="Detail-Page" stroke="none" stroke-width="1" fill="none" fill-rule="evenodd">
        <g id="Event-Detail-Page---After-event’s-publish-end-date-&amp;-time-V8.0" transform="translate(-934.000000, -528.000000)">
            <g id="Group" transform="translate(921.000000, 509.000000)">
                <g id="Group-12" transform="translate(13.000000, 19.000000)">
                    <path d="M32.247815,9.10819477 C32.020754,9.39450148 31.7483939,9.717557 31.4480052,10.0529735 C31.1484658,10.3887241 30.8231625,10.7388401 30.4887996,11.0772633 C30.1541534,11.4153524 29.8124294,11.742751 29.4848612,12.0404164 C29.1584255,12.3397523 28.8464289,12.6086868 28.572087,12.8295138 C28.0268007,13.2765131 27.6304348,13.5294118 27.6304348,13.5294118 C27.6304348,13.5294118 27.9027948,13.1057981 28.3600313,12.5381959 C28.5870923,12.2518892 28.8600186,11.9284996 29.1604074,11.5937512 C29.4593805,11.2573325 29.7855331,10.9082187 30.1198961,10.5697955 C30.4542591,10.2317064 30.7971156,9.90497598 31.1244007,9.60731055 C31.4508364,9.30830879 31.7631161,9.03937425 32.037458,8.81821318 C32.5824612,8.37087983 32.9782609,8.11798114 32.9782609,8.11764706 C32.9782609,8.11764706 32.7059008,8.54059256 32.247815,9.10819477 M31.531069,18.3600753 C29.571116,19.0923597 27.8318037,19.1389792 27.6465024,18.4633554 C27.4612011,17.7880901 28.899975,16.6466301 30.8602353,15.9143457 C32.819881,15.1820612 34.5595007,15.1358003 34.744802,15.810707 C34.9301033,16.4863308 33.4913294,17.6277908 31.531069,18.3600753 M21.5516864,35.0932189 C21.7334465,34.7434976 22.0426663,34.4997524 22.3938308,34.388638 C22.7459707,34.2772024 23.1403804,34.2987188 23.4947964,34.4785571 C24.6861543,35.0845481 26.0452908,35.1963048 27.3221638,34.7923108 C28.5980613,34.3889591 29.6391988,33.5183488 30.252436,32.341371 C30.6169317,31.6419283 31.4873644,31.3667114 32.195546,31.7270304 C32.9040528,32.0873494 33.1827083,32.9463986 32.8178875,33.6461625 C31.8518601,35.4997821 30.2124423,36.8707283 28.2020258,37.5065854 C26.1916093,38.1424424 24.0504816,37.9671 22.1737027,37.0126722 C21.465521,36.6523532 21.1868655,35.7929828 21.5516864,35.0932189 M11.922375,24.6738212 C9.96242119,25.4060799 8.22310814,25.4526977 8.03780677,24.7770977 C7.8525054,24.1018562 9.2912799,22.9604363 11.2512337,22.2281777 C13.2111876,21.4955604 14.9508079,21.4496598 15.1361093,22.1245426 C15.3214106,22.8001427 13.8823288,23.9415626 11.922375,24.6738212 M8.40022787,16.2426548 C8.78022712,16.226541 9.2217254,16.2366121 9.6939732,16.275554 C10.166221,16.3124816 10.6688946,16.3742514 11.1699499,16.4675776 C11.6713288,16.5602323 12.171413,16.6817578 12.6397766,16.8200685 C13.1074929,16.9543507 13.5428413,17.1074325 13.9153959,17.2631999 C14.6605052,17.5619778 15.1524974,17.8795553 15.1521739,17.8795553 C15.1521739,17.8795553 14.6410845,18.0118233 13.882057,18.0312943 C13.5023814,18.0480796 13.0605595,18.0386798 12.5883117,17.9983951 C12.1163875,17.9628103 11.6137139,17.8983549 11.1120113,17.8050287 C10.6112798,17.7117025 10.1108719,17.5881629 9.64283191,17.451195 C9.17511562,17.3155699 8.73944356,17.1631596 8.36688892,17.0073922 C7.62210333,16.7092856 7.13043478,16.3923795 7.13043478,16.3923795 C7.13043478,16.393051 7.64120039,16.2621258 8.40022787,16.2426548 M22.3064853,27.3496982 C22.3616018,27.2363334 22.4920327,27.1918623 22.5988423,27.250185 C23.6316776,27.8162798 24.9055191,27.3828692 25.4381978,26.282028 C25.4933143,26.1686633 25.6237453,26.1241922 25.7305549,26.1825149 C25.8363375,26.2408376 25.8784451,26.3804476 25.8240133,26.4934479 C25.5032421,27.1568627 24.9585816,27.6194407 24.3382642,27.8308605 C23.7189739,28.0422803 23.0229997,28.002548 22.3999437,27.6609956 C22.2938187,27.6023084 22.2520534,27.4630629 22.3064853,27.3496982 M18.8137552,8.64627424 C12.1217094,10.7925345 0,11.1181846 0,11.1181846 C0,11.1181846 6.04973784,29.2407853 9.17296016,34.7366341 C12.2659199,40.178981 22.0459846,48.0960216 30.1822968,45.4868 C38.3192266,42.8772692 41.5749249,30.7317249 40.9177945,24.5187036 C40.252944,18.2391915 34.6688795,0 34.6688795,0 C34.6688795,0 25.6497026,6.45424363 18.8137552,8.64627424" id="Fill-80" fill="#FFFFFF"></path>
                    <g id="Fill-81">
                        <use fill="black" fill-opacity="1" filter="url(#filter-2)" xlink:href="#path-1"></use>
                        <use fill="#FFFFFF" fill-rule="evenodd" xlink:href="#path-1"></use>
                    </g>
                </g>
            </g>
        </g>
    </g>
</svg>