<?xml version="1.0" encoding="UTF-8"?>
<svg width="32px" height="33px" viewBox="0 0 32 33" version="1.1" xmlns="http://www.w3.org/2000/svg" xmlns:xlink="http://www.w3.org/1999/xlink">
    <!-- Generator: sketchtool 55.2 (78181) - https://sketchapp.com -->
    <title>7BF19A96-64B7-40F9-9B01-7A37B9A3E104</title>
    <desc>Created with sketchtool.</desc>
    <g id="Page-1" stroke="none" stroke-width="1" fill="none" fill-rule="evenodd" stroke-linejoin="round">
        <g id="Contact-US" transform="translate(-762.000000, -612.000000)" fill="#0098FF" fill-rule="nonzero" stroke="#0098FF" stroke-width="0.7">
            <g id="Form" transform="translate(214.000000, 262.000000)">
                <g id="Group-25" transform="translate(548.000000, 351.000000)">
                    <g id="noun_movie-ticket_1614519">
                        <g id="Group">
                            <path d="M0.481429821,20.4838063 L3.12932763,23.1037979 L3.61075741,23.5801937 L4.0921872,23.1037979 C5.29439997,21.9142737 7.22294465,21.9143074 8.42512337,23.1037979 C9.62733614,24.2933895 9.62730209,26.2015663 8.42512337,27.3911242 L7.94365954,27.8674863 L8.42512337,28.3438484 L11.0729872,30.9638737 L11.554417,31.4402358 L12.0358808,30.9638737 L31.2932425,11.9091672 L31.7746723,11.4328017 L31.2932425,10.9564362 L28.6453446,8.33641768 L28.1639149,7.86005221 L27.6824851,8.33641768 C26.4803063,9.525952 24.5517957,9.52598232 23.3495829,8.33641768 C22.1474042,7.14691032 22.1473702,5.23865263 23.3495829,4.04911832 L23.8310127,3.57275284 L23.3495829,3.096384 L20.7016851,0.476368842 L20.2202553,0 L19.7388255,0.476368842 L0.481429821,19.5310484 L0,20.0074442 L0.481429821,20.4838063 Z M1.92575323,20.0074442 L14.2023149,7.86005221 L23.8310127,17.3874189 L11.554417,29.5347537 L9.8167489,27.8153768 C11.0782978,26.1049937 10.9464851,23.6931705 9.38798294,22.1510737 C7.82944677,20.6089768 5.3845106,20.4709389 3.65589784,21.7193768 L1.92575323,20.0074442 L1.92575323,20.0074442 Z M15.1651744,6.90731789 L20.2202553,1.90546863 L21.9504,3.61741137 C20.6886808,5.32783495 20.8281872,7.74703495 22.3867234,9.289152 C23.9451915,10.8312421 26.3826723,10.9616808 28.111251,9.71341474 L29.8489532,11.4328017 L24.7938723,16.4346947 L15.1651744,6.90731789 Z" id="Shape"></path>
                        </g>
                    </g>
                </g>
            </g>
        </g>
    </g>
</svg>