<?xml version="1.0" encoding="UTF-8"?>
<svg width="22px" height="27px" viewBox="0 0 22 27" version="1.1" xmlns="http://www.w3.org/2000/svg" xmlns:xlink="http://www.w3.org/1999/xlink">
    <!-- Generator: sketchtool 55.2 (78181) - https://sketchapp.com -->
    <title>1DF28922-5889-4FCB-A6A8-1EB950CE887A</title>
    <desc>Created with sketchtool.</desc>
    <defs>
        <path d="M16.748548,25.0534717 C15.6277023,26.2506712 14.4300783,27.3413645 13.2320945,28.3066712 C12.8121384,28.6450617 12.4213911,28.9441457 12.0694302,29.2013657 C11.8549464,29.3581148 11.6986599,29.4676463 11.6101702,29.5273417 C11.2406809,29.7766004 10.7593191,29.7766004 10.3898298,29.5273417 C10.3013401,29.4676463 10.1450536,29.3581148 9.93056977,29.2013657 C9.57860895,28.9441457 9.18786158,28.6450617 8.76790554,28.3066712 C7.56992168,27.3413645 6.37229769,26.2506712 5.25145205,25.0534717 C1.98264173,21.5619845 0,17.8838693 0,14.1309523 C0,7.98349706 4.92486782,3 11,3 C17.0751322,3 22,7.98349706 22,14.1309523 C22,17.8838693 20.0173583,21.5619845 16.748548,25.0534717 Z M11.8616555,26.5651666 C12.9839842,25.6608211 14.1066727,24.6383726 15.151452,23.5224211 C18.0701417,20.4049053 19.8,17.1957436 19.8,14.1309523 C19.8,9.21298813 15.8601057,5.22619049 11,5.22619049 C6.13989425,5.22619049 2.2,9.21298813 2.2,14.1309523 C2.2,17.1957436 3.92985827,20.4049053 6.84854795,23.5224211 C7.89332731,24.6383726 9.01601582,25.6608211 10.1383445,26.5651666 C10.4446882,26.812011 10.7334573,27.0357448 11,27.2349961 C11.2665427,27.0357448 11.5553118,26.812011 11.8616555,26.5651666 Z M11,18.5833333 C8.5699471,18.5833333 6.6,16.5899344 6.6,14.1309523 C6.6,11.6719702 8.5699471,9.67857132 11,9.67857132 C13.4300529,9.67857132 15.4,11.6719702 15.4,14.1309523 C15.4,16.5899344 13.4300529,18.5833333 11,18.5833333 Z M11,16.3571428 C12.2150264,16.3571428 13.2,15.3604434 13.2,14.1309523 C13.2,12.9014612 12.2150264,11.9047618 11,11.9047618 C9.78497355,11.9047618 8.8,12.9014612 8.8,14.1309523 C8.8,15.3604434 9.78497355,16.3571428 11,16.3571428 Z" id="path-1"></path>
    </defs>
    <g id="Page-1" stroke="none" stroke-width="1" fill="none" fill-rule="evenodd">
        <g id="Contact-US" transform="translate(-762.000000, -376.000000)">
            <g id="Form" transform="translate(214.000000, 262.000000)">
                <g id="Group-8" transform="translate(548.000000, 111.000000)">
                    <mask id="mask-2" fill="white">
                        <use xlink:href="#path-1"></use>
                    </mask>
                    <use id="Combined-Shape-Copy-2" fill="#0098FF" fill-rule="nonzero" xlink:href="#path-1"></use>
                </g>
            </g>
        </g>
    </g>
</svg>