<?xml version="1.0" encoding="UTF-8"?>
<svg width="30px" height="30px" viewBox="0 0 30 30" version="1.1" xmlns="http://www.w3.org/2000/svg" xmlns:xlink="http://www.w3.org/1999/xlink">
    <!-- Generator: sketchtool 55.2 (78181) - https://sketchapp.com -->
    <title>0211278B-5C2E-4DD0-9891-410F0FC60402</title>
    <desc>Created with sketchtool.</desc>
    <g id="Page-1" stroke="none" stroke-width="1" fill="none" fill-rule="evenodd">
        <g id="Contact-US" transform="translate(-761.000000, -678.000000)" fill="#0098FF" fill-rule="nonzero">
            <g id="Form" transform="translate(214.000000, 262.000000)">
                <g id="Group-25-Copy" transform="translate(548.000000, 417.000000)">
                    <g id="question-sign-in-circles">
                        <path d="M14.4089283,8.45518943 C15.7611604,8.45518943 16.5735197,9.14395041 16.5735197,10.3057998 C16.5735197,12.415913 12.6290237,12.9975334 12.6290237,15.5584719 C12.6290237,16.2472329 13.1011392,17 14.0708703,17 C15.558617,17 15.3786594,15.9452913 15.9199894,15.1911328 C16.6405484,14.1802543 20,13.1039782 20,10.305104 C20,7.2710771 17.1607498,6 14.2748708,6 C11.5259637,6 9,7.87287332 9,9.98298653 C9,10.8435899 9.67684462,11.2958067 10.4658895,11.2958067 C12.6508809,11.2965024 11.5245066,8.45518943 14.4089283,8.45518943 Z" id="Path"></path>
                        <path d="M16,20 C16,18.9018526 15.0973591,18 14,18 C12.9026409,18 12,18.9034292 12,20 C12,21.0981474 12.9026409,22 14,22 C15.0973591,22 16,21.0981474 16,20 Z" id="Path"></path>
                        <path d="M28,14 C28,6.28053036 21.7194696,0 14,0 C6.28053036,0 0,6.28053036 0,14 C0,21.7194696 6.28053036,28 14,28 C21.7194696,28 28,21.7201675 28,14 Z M1.39567341,14 C1.39567341,7.05024424 7.05024424,1.39567341 14,1.39567341 C20.9497558,1.39567341 26.6043266,7.05024424 26.6043266,14 C26.6043266,20.9497558 20.9497558,26.6043266 14,26.6043266 C7.05024424,26.6043266 1.39567341,20.9497558 1.39567341,14 Z" id="Shape" stroke="#0098FF" stroke-width="0.5"></path>
                    </g>
                </g>
            </g>
        </g>
    </g>
</svg>