<?xml version="1.0" encoding="UTF-8"?>
<svg width="29px" height="27px" viewBox="0 0 29 27" version="1.1" xmlns="http://www.w3.org/2000/svg" xmlns:xlink="http://www.w3.org/1999/xlink">
    <!-- Generator: sketchtool 55.2 (78181) - https://sketchapp.com -->
    <title>2663934C-CD9A-4691-AF00-091398182DAD</title>
    <desc>Created with sketchtool.</desc>
    <g id="Page-1" stroke="none" stroke-width="1" fill="none" fill-rule="evenodd">
        <g id="Contact-US" transform="translate(-761.000000, -740.000000)" fill="#0098FF" fill-rule="nonzero" stroke="#0098FF" stroke-width="0.931034483">
            <g id="Form" transform="translate(214.000000, 262.000000)">
                <g id="Group-20" transform="translate(548.000000, 479.000000)">
                    <path d="M25.65,4.16666667 L19.8,4.16666667 L19.8,2.31481481 C19.7984619,1.0369195 18.7921142,0.00158239583 17.55,0 L9.45,0 C8.20788576,0.00158239583 7.2015381,1.0369195 7.2,2.31481481 L7.2,4.16666667 L1.35,4.16666667 C0.604467787,4.16666667 0,4.78854711 0,5.55555556 L0,15.8610026 C0.0028564425,16.4482964 0.3625488,16.9707122 0.9,17.1680591 L0.9,23.6111111 C0.9,24.3781196 1.50446779,25 2.25,25 L24.75,25 C25.4955322,25 26.1,24.3781196 26.1,23.6111111 L26.1,17.1685113 C26.6374512,16.9709382 26.9973633,16.4482964 27,15.8610026 L27,5.55555556 C27,4.78854711 26.3955322,4.16666667 25.65,4.16666667 Z M18.9137931,4 L7.9137931,4 L7.9137931,2.36206897 C7.9137931,1.33367667 8.74746978,0.5 9.77586207,0.5 L17.0517241,0.5 C18.0801164,0.5 18.9137931,1.33367667 18.9137931,2.36206897 L18.9137931,4 Z M25.2,23.6111111 C25.2,23.8667806 24.9985108,24.0740741 24.75,24.0740741 L2.25,24.0740741 C2.00148924,24.0740741 1.8,23.8667806 1.8,23.6111111 L1.8,17.3272027 L11.7,18.7319155 L11.7,19.9074074 C11.7,20.6744159 12.3044678,21.2962963 13.05,21.2962963 L13.95,21.2962963 C14.6955322,21.2962963 15.3,20.6744159 15.3,19.9074074 L15.3,18.7319155 L25.2,17.3272027 L25.2,23.6111111 Z M14.4,19.9074074 C14.4,20.1630769 14.1985108,20.3703704 13.95,20.3703704 L13.05,20.3703704 C12.8014892,20.3703704 12.6,20.1630769 12.6,19.9074074 L12.6,17.1296296 C12.6,16.8739601 12.8014892,16.6666667 13.05,16.6666667 L13.95,16.6666667 C14.1985108,16.6666667 14.4,16.8739601 14.4,17.1296296 L14.4,19.9074074 Z M26.1000002,15.8610026 C26.1000002,16.0918059 25.9352051,16.2875705 25.7130615,16.3198965 L25.5882569,16.3375289 L15.3,17.7971734 L15.3,17.1296296 C15.3,16.3626212 14.6955322,15.7407407 13.95,15.7407407 L13.05,15.7407407 C12.3044678,15.7407407 11.7,16.3626212 11.7,17.1296296 L11.7,17.7971734 L1.28737794,16.3198965 C1.06523438,16.2877966 0.899999781,16.0920319 0.899999781,15.8610026 L0.899999781,5.55555556 C0.899999781,5.29988605 1.10148924,5.09259259 1.35,5.09259259 L25.65,5.09259259 C25.8985108,5.09259259 26.1000002,5.29988605 26.1000002,5.55555556 L26.1000002,15.8610026 Z" id="Shape"></path>
                </g>
            </g>
        </g>
    </g>
</svg>