<?xml version="1.0" encoding="UTF-8"?>
<svg width="26px" height="26px" viewBox="0 0 26 26" version="1.1" xmlns="http://www.w3.org/2000/svg" xmlns:xlink="http://www.w3.org/1999/xlink">
    <!-- Generator: sketchtool 55.2 (78181) - https://sketchapp.com -->
    <title>A9F6A840-D61E-46FD-BC4B-1F4F9FF1AD1E</title>
    <desc>Created with sketchtool.</desc>
    <g id="New-Find-Agent" stroke="none" stroke-width="1" fill="none" fill-rule="evenodd">
        <g id="Find-Venue-Search-Results-Hover" transform="translate(-452.000000, -669.000000)" fill="#343434" fill-rule="nonzero" stroke="#343434">
            <g id="Group-8" transform="translate(431.000000, 490.000000)">
                <g id="fork" transform="translate(22.000000, 180.000000)">
                    <path d="M17.9460067,9.42239296 L19.3318802,9.33145645 C19.3342197,9.33127012 19.3367392,9.33108378 19.3392586,9.33089745 C20.3268802,9.24461956 21.2133641,8.70887679 21.7716006,7.86063296 L22.8671983,6.19619668 C23.8208074,4.74717557 24.1902657,2.99702045 23.9071883,1.26829505 C23.8515806,0.928773925 23.6838577,0.615900143 23.4351527,0.387627154 C23.1862678,0.159167784 22.8662985,0.0242537816 22.534092,0.00785539462 C20.8421062,-0.0759999696 19.2089674,0.513782914 17.9341293,1.66781939 L16.4696133,2.99366626 C15.7233183,3.66916798 15.3158884,4.64468568 15.3515206,5.67051658 C15.3517005,5.67293905 15.3517005,5.67554791 15.3518805,5.67815672 L15.430883,7.11357463 C15.4616562,7.6731696 15.26352,8.22531071 14.888303,8.62744391 L3.44679349,20.7984012 C3.14050121,21.1291642 2.98231618,21.582915 3.00157193,22.0761711 C3.02280721,22.6191813 3.26341403,23.1525015 3.64528955,23.5030171 C3.99027324,23.8196177 4.46446838,24 4.93848357,24 C4.98923232,24 5.03998112,23.9979502 5.09054992,23.9936642 C5.5658248,23.9543454 5.98207277,23.7374395 6.26389042,23.3807745 L16.5588735,10.1625566 C16.900258,9.7276266 17.4059462,9.45779859 17.9460067,9.42239296 Z M16.0092751,9.70191097 L5.71519178,22.9190109 C5.55790655,23.1180276 5.31604004,23.2406429 5.03422239,23.263936 C4.69895653,23.2917015 4.35523257,23.1761674 4.1144458,22.9551619 C3.87365903,22.73397 3.72177267,22.3944488 3.70827565,22.0465421 C3.69675819,21.7541664 3.78511866,21.4908605 3.95536099,21.307124 L15.3959707,9.13709833 C15.9088573,8.58756599 16.1787976,7.83491733 16.1370468,7.07201962 L16.0580443,5.64032861 C16.0312302,4.8373667 16.3506596,4.07390999 16.9349903,3.54487565 L18.3995064,2.21902878 C19.5361351,1.19021635 20.9927329,0.66490897 22.5004395,0.739074378 C22.6721215,0.747646239 22.8373249,0.817339407 22.9659965,0.935482308 C23.094668,1.05343892 23.1812289,1.21518665 23.2100225,1.39053757 C23.4623267,2.93179962 23.1329996,4.49188252 22.2828675,5.78362819 L21.1872699,7.4482508 C20.7501465,8.11238548 20.0564,8.53222144 19.283291,8.60098285 L17.9011967,8.69154669 C17.1647995,8.73999647 16.4755519,9.10784208 16.0092751,9.70191097 Z" id="Shape" stroke-width="0.58"></path>
                    <path d="M23.4849857,20.899549 L15.8963224,14.0898868 C15.7535532,13.9616806 15.5324568,13.9718529 15.4021487,14.1125114 C15.2721968,14.2531699 15.2825217,14.4711732 15.4252909,14.5993794 L23.011996,21.4074632 C23.1925047,21.5717987 23.2948642,21.8140049 23.3003826,22.0893589 C23.3069692,22.4169776 23.1764832,22.7447716 22.9512924,22.9666333 C22.7262796,23.1883195 22.3941009,23.3172273 22.0608541,23.3105627 C21.7813683,23.3051258 21.5355276,23.2042796 21.3705063,23.0283687 L14.6083734,15.7141246 C14.4782434,15.5732907 14.2569689,15.5632938 14.1141997,15.6913246 C13.9714305,15.8195308 13.9611056,16.037534 14.0912356,16.1781926 L20.8549707,23.4941905 C21.1522581,23.8109353 21.5755812,23.9905292 22.0471468,23.9996493 C22.0594299,23.9998246 22.0715351,24 22.0838182,24 C22.590631,24 23.0974439,23.7974306 23.4458221,23.4540274 C23.8029231,23.1022056 24.0099562,22.5871008 23.9996312,22.0758543 C23.9903744,21.6112602 23.8082636,21.1941953 23.4849857,20.899549 L23.4849857,20.899549 Z" id="Path" stroke-width="0.58"></path>
                    <path d="M4.42107759,9.63405045 C5.02751578,10.1919713 5.81540056,10.5100384 6.63964927,10.5297779 C6.64226004,10.5299641 6.64487075,10.5299641 6.64729505,10.5299641 L8.08618709,10.5344334 C8.64712376,10.5361094 9.1862421,10.7739148 9.56461327,11.1856515 L10.1984643,11.8804455 C10.2708191,11.9597761 10.3698409,12 10.4694221,12 C10.5574414,12 10.6458337,11.9685285 10.7159507,11.9046544 C10.8656955,11.7685261 10.8765114,11.5370523 10.7401933,11.3877023 L10.10541,10.6919772 C9.58848292,10.1292145 8.85337245,9.80518837 8.08861139,9.80258128 L6.6536354,9.79811196 C6.01605477,9.78191064 5.40644641,9.53814615 4.93408851,9.11113929 L0.764173244,4.16098805 C0.721655485,4.11033569 0.72482566,4.03696428 0.771632508,3.99022256 C0.803707392,3.95800618 0.841376653,3.9533506 0.86095721,3.9533506 C0.880537767,3.9533506 0.918207076,3.95800618 0.950468382,3.99022256 L4.74611505,7.78076986 C5.12131604,8.15544832 5.7318568,8.15544832 6.1070578,7.7805836 L6.5531218,7.33532701 L7.3451092,6.54425627 L7.79135968,6.09862717 C8.16656067,5.72394866 8.16656067,5.1142581 7.79135968,4.73957959 L3.99571306,0.949218501 C3.94648192,0.900055913 3.94648192,0.819794252 3.99571306,0.770631663 C4.04251996,0.723889996 4.11599368,0.720724235 4.16671668,0.763182786 L9.1237708,4.9274775 C9.55155959,5.39899141 9.795664,6.00793713 9.81188791,6.64444365 L9.816177,8.07760758 C9.81878772,8.84111747 10.1434522,9.57520428 10.7077456,10.0925288 L11.3869116,10.7102269 C11.5366563,10.8463552 11.7682665,10.8355543 11.9045845,10.6862043 C12.0407161,10.5366681 12.0299002,10.3053805 11.8803419,10.1692522 L11.2022948,9.55248523 C10.7888651,9.17370986 10.5509145,8.635156 10.5490497,8.07518671 L10.5445741,6.63829833 C10.5445741,6.6356912 10.5445741,6.63308412 10.5443877,6.63047699 C10.5246206,5.80737608 10.20611,5.02058846 9.64741116,4.41499476 C9.63696819,4.40363523 9.62577924,4.39283434 9.61384442,4.38277838 L4.63832866,0.203213494 C4.29445657,-0.0858029341 3.79543179,-0.0642011908 3.47766713,0.253120969 C3.14255969,0.587761757 3.14255969,1.13208846 3.47766713,1.46654303 L7.2733138,5.25709033 C7.36282497,5.34647685 7.36282497,5.49191616 7.2733138,5.58130269 L7.08627273,5.76789703 L2.85593747,1.54363889 C2.71290607,1.40062045 2.48092295,1.40062045 2.33789154,1.54363889 C2.19486014,1.68647111 2.19486014,1.91813119 2.33789154,2.06096342 L6.56822685,6.28540777 L6.29409886,6.55896777 L2.0637636,2.33470962 C1.9207322,2.1918774 1.68874908,2.1918774 1.54571767,2.33470962 C1.4024998,2.47754185 1.4024998,2.70920193 1.54571767,2.85203416 L5.77586646,7.07647851 L5.58901192,7.26325912 C5.49950074,7.35264564 5.35385862,7.35264564 5.26434745,7.26325912 L1.46851431,3.47289803 C1.30627529,3.31088498 1.09051608,3.22149845 0.86095721,3.22149845 C0.631398339,3.22149845 0.415639131,3.31088498 0.253400156,3.47289803 C-0.0643645034,3.79022019 -0.0858099002,4.28855006 0.203423085,4.6321295 L4.38900276,9.60053046 C4.39888627,9.61244866 4.40970223,9.62362203 4.42107759,9.63405045 Z" id="Path" stroke-width="0.2"></path>
                </g>
            </g>
        </g>
    </g>
</svg>