<?xml version="1.0" encoding="UTF-8"?>
<svg width="31px" height="31px" viewBox="0 0 31 31" version="1.1" xmlns="http://www.w3.org/2000/svg" xmlns:xlink="http://www.w3.org/1999/xlink">
    <!-- Generator: Sketch 56.2 (81672) - https://sketch.com -->
    <title>hotline-color</title>
    <desc>Created with Sketch.</desc>
    <g id="Page-1" stroke="none" stroke-width="1" fill="none" fill-rule="evenodd">
        <g id="hotline-color" transform="translate(1.000000, 1.000000)" fill="#0399FF" fill-rule="nonzero" stroke="#0399FF" stroke-width="0.5">
            <path d="M23.895,29.733 C22.658,29.733 21.164,29.423 19.522,28.804 C15.919,27.445 12.001,24.761 8.487,21.247 C4.973,17.733 2.289,13.814 0.93,10.21 C-0.307,6.935 -0.31,4.247 0.92,3.017 C1.098,2.839 1.279,2.649 1.465,2.454 C2.588,1.274 3.887,-0.067 5.538,0.006 C6.698,0.054 7.821,0.774 8.973,2.204 C12.369,6.429 10.838,7.935 9.066,9.681 L8.752,9.991 C8.462,10.281 7.913,11.623 13.012,16.721 C14.678,18.386 16.096,19.604 17.229,20.341 C17.944,20.805 19.22,21.505 19.743,20.982 L20.058,20.664 C21.802,18.894 23.308,17.368 27.532,20.763 C28.963,21.913 29.682,23.036 29.73,24.197 C29.799,25.879 28.459,27.151 27.277,28.273 C27.083,28.458 26.893,28.637 26.717,28.813 C26.103,29.426 25.127,29.733 23.895,29.733 Z M5.419,1.002 C4.225,1.002 3.145,2.138 2.19,3.142 C1.997,3.344 1.81,3.541 1.627,3.724 C0.711,4.639 0.805,7.047 1.865,9.858 C3.175,13.331 5.778,17.125 9.194,20.541 C12.61,23.957 16.403,26.559 19.875,27.869 C22.686,28.93 25.094,29.022 26.01,28.105 C26.193,27.923 26.388,27.737 26.588,27.547 C27.616,26.57 28.781,25.464 28.731,24.236 C28.696,23.393 28.082,22.486 26.905,21.541 C23.385,18.713 22.402,19.713 20.77,21.365 L20.45,21.688 C19.673,22.469 18.406,22.298 16.684,21.178 C15.494,20.404 14.02,19.141 12.305,17.427 L12.305,17.427 C8.074,13.196 6.72,10.608 8.045,9.282 L8.364,8.966 C10.022,7.334 11.022,6.349 8.193,2.829 C7.247,1.654 6.34,1.04 5.497,1.004 C5.471,1.003 5.444,1.002 5.419,1.002 Z" id="Shape"></path>
            <g id="Group" transform="translate(15.000000, 0.000000)">
                <path d="M9.07,12.29 C9.007,12.29 8.944,12.278 8.882,12.253 C8.626,12.149 8.502,11.858 8.607,11.603 C9.243,10.035 8.879,8.248 7.683,7.051 C6.454,5.822 4.565,5.481 2.98,6.193 C2.731,6.306 2.432,6.196 2.319,5.944 C2.205,5.692 2.316,5.396 2.568,5.283 C4.529,4.395 6.868,4.822 8.39,6.345 C9.871,7.826 10.32,10.037 9.533,11.979 C9.455,12.171 9.267,12.29 9.07,12.29 Z" id="Path"></path>
                <path d="M13.534,14.102 C13.471,14.102 13.408,14.09 13.346,14.065 C13.089,13.961 12.966,13.67 13.071,13.415 C14.436,10.048 13.659,6.213 11.09,3.644 C8.452,1.006 4.395,0.266 0.995,1.803 C0.743,1.913 0.447,1.805 0.333,1.553 C0.22,1.3 0.331,1.004 0.583,0.89 C4.36,-0.816 8.866,0.005 11.797,2.936 C14.651,5.79 15.515,10.05 13.997,13.79 C13.919,13.984 13.731,14.102 13.534,14.102 Z" id="Path"></path>
            </g>
        </g>
    </g>
</svg>