<?xml version="1.0" encoding="UTF-8"?>
<svg width="9px" height="17px" viewBox="0 0 9 17" version="1.1" xmlns="http://www.w3.org/2000/svg" xmlns:xlink="http://www.w3.org/1999/xlink">
    <!-- Generator: sketchtool 56.2 (101010) - https://sketch.com -->
    <title>217F24E3-B4E3-4C5F-A418-D3E28DBEA56F</title>
    <desc>Created with sketchtool.</desc>
    <g id="Detail-Page" stroke="none" stroke-width="1" fill="none" fill-rule="evenodd">
        <g id="Event-Detail-Page-V8.0-Info" transform="translate(-1272.000000, -131.000000)" fill="#0098FF" fill-rule="nonzero">
            <g id="Group-7" transform="translate(891.000000, 109.000000)">
                <g id="info" transform="translate(371.000000, 15.000000)">
                    <g id="info-sign" transform="translate(10.000000, 7.000000)">
                        <path d="M6.2734547,0 C7.13686028,0 7.56843412,0.613184748 7.56843412,1.31431257 C7.56843412,2.18998389 6.8187567,3 5.84175191,3 C5.02373444,3 4.5465146,2.4962406 4.56920865,1.66447368 C4.56920865,0.963480129 5.13720471,0 6.2734547,0 Z M4.84536957,16.7656048 C3.81095652,16.7656048 3.05241304,16.1132 3.77652174,13.2426 L4.96413043,8.1512 C5.17093478,7.3358 5.20478261,7.0098 4.96413043,7.0098 C4.65343478,7.0098 1.31067391,8.573 0.516521739,9.1278 L0,8.2468 C2.51667391,6.0616 5.41213043,4.78 6.65295652,4.78 C7.68697826,4.78 7.85973913,6.0522 7.34263043,8.0096 L5.98304348,13.3616 C5.7416087,14.3074 5.8455,14.6334 6.08615217,14.6334 C6.39645652,14.6334 7.41404348,14.2408 8.41363043,13.4252 L9,14.241 C6.552,16.7856 5.87978261,16.7656048 4.84536957,16.7656048 Z" id="Shape"></path>
                    </g>
                </g>
            </g>
        </g>
    </g>
</svg>