<?xml version="1.0" encoding="utf-8"?>
<!-- Generator: Adobe Illustrator 23.0.3, SVG Export Plug-In . SVG Version: 6.00 Build 0)  -->
<svg version="1.1" id="Layer_1" xmlns="http://www.w3.org/2000/svg" xmlns:xlink="http://www.w3.org/1999/xlink" x="0px" y="0px"
	 viewBox="0 0 23 23" style="enable-background:new 0 0 23 23;" xml:space="preserve">
<style type="text/css">
	.st0{fill:#386B8F;}
</style>
<title>E16B1260-6F70-49FB-88B9-8CBECD64F21Amdpi/</title>
<desc>Created with sketchtool.</desc>
<g id="Final-Short">
	<g id="Home-V8.0--S--Dark---2-Liner" transform="translate(-786.000000, -5856.000000)">
		<g id="Footer" transform="translate(0.000000, 5668.000000)">
			<g id="Instagram" transform="translate(786.000000, 188.000000)">
				<path id="Shape" class="st0" d="M3.4,23h16.3c1.9,0,3.4-1.5,3.4-3.4V3.4C23,1.5,21.5,0,19.6,0H3.4C1.5,0,0,1.5,0,3.4v16.3
					C0,21.5,1.5,23,3.4,23z M1.3,3.4c0-1.1,0.9-2,2-2h16.3c1.1,0,2,0.9,2,2v16.3c0,1.1-0.9,2-2,2H3.4c-1.1,0-2-0.9-2-2V3.4z"/>
				<path class="st0" d="M11.5,17.7c3.4,0,6.2-2.8,6.2-6.2s-2.8-6.2-6.2-6.2s-6.2,2.8-6.2,6.2S8.1,17.7,11.5,17.7z M11.5,6.7
					c2.7,0,4.8,2.2,4.8,4.8s-2.2,4.8-4.8,4.8s-4.8-2.2-4.8-4.8S8.8,6.7,11.5,6.7z"/>
				<path class="st0" d="M17.9,7.4c1.2,0,2.3-1,2.3-2.3s-1-2.3-2.3-2.3c-1.2,0-2.3,1-2.3,2.3S16.7,7.4,17.9,7.4z M17.9,4.1
					c0.6,0,1,0.5,1,1c0,0.6-0.5,1-1,1c-0.6,0-1-0.5-1-1C16.8,4.5,17.3,4.1,17.9,4.1z"/>
			</g>
		</g>
	</g>
</g>
</svg>
