<?xml version="1.0" encoding="UTF-8"?>
<svg width="23px" height="23px" viewBox="0 0 23 23" version="1.1" xmlns="http://www.w3.org/2000/svg" xmlns:xlink="http://www.w3.org/1999/xlink">
    <!-- Generator: Sketch 55.2 (78181) - https://sketchapp.com -->
    <title>mdpi/Instagram</title>
    <desc>Created with Sketch.</desc>
    <g id="Page-1" stroke="none" stroke-width="1" fill="none" fill-rule="evenodd">
        <g id="Instagram" fill="#386B8F" fill-rule="nonzero">
            <path d="M3.36914062,23 L19.6308594,23 C21.4886246,23 23,21.4886246 23,19.6308594 L23,3.36914062 C23,1.51137542 21.4886246,0 19.6308594,0 L3.36914062,0 C1.51137542,0 0,1.51137542 0,3.36914062 L0,19.6308594 C0,21.4886246 1.51137542,23 3.36914062,23 Z M1.34765625,3.36914062 C1.34765625,2.2545166 2.2545166,1.34765625 3.36914062,1.34765625 L19.6308594,1.34765625 C20.7454834,1.34765625 21.6523438,2.2545166 21.6523438,3.36914062 L21.6523438,19.6308594 C21.6523438,20.7454834 20.7454834,21.6523438 19.6308594,21.6523438 L3.36914062,21.6523438 C2.2545166,21.6523438 1.34765625,20.7454834 1.34765625,19.6308594 L1.34765625,3.36914062 Z" id="Shape"></path>
            <path d="M11.5,17.6923077 C14.9143697,17.6923077 17.6923077,14.9143697 17.6923077,11.5 C17.6923077,8.08563034 14.9143697,5.30769231 11.5,5.30769231 C8.08563034,5.30769231 5.30769231,8.08563034 5.30769231,11.5 C5.30769231,14.9143697 8.08563034,17.6923077 11.5,17.6923077 Z M11.5,6.68376068 C14.1557403,6.68376068 16.3162393,8.84425968 16.3162393,11.5 C16.3162393,14.1557403 14.1557403,16.3162393 11.5,16.3162393 C8.84425968,16.3162393 6.68376068,14.1557403 6.68376068,11.5 C6.68376068,8.84425968 8.84425968,6.68376068 11.5,6.68376068 Z" id="Shape"></path>
            <path d="M17.6923077,7.07692308 C18.6678419,7.07692308 19.4615385,6.2832265 19.4615385,5.30769231 C19.4615385,4.33215812 18.6678419,3.53846154 17.6923077,3.53846154 C16.7167735,3.53846154 15.9230769,4.33215812 15.9230769,5.30769231 C15.9230769,6.2832265 16.7167735,7.07692308 17.6923077,7.07692308 Z M17.6923077,4.71794872 C18.0174346,4.71794872 18.2820513,4.98256545 18.2820513,5.30769231 C18.2820513,5.63281917 18.0174346,5.8974359 17.6923077,5.8974359 C17.3671808,5.8974359 17.1025641,5.63281917 17.1025641,5.30769231 C17.1025641,4.98256545 17.3671808,4.71794872 17.6923077,4.71794872 Z" id="Shape"></path>
        </g>
    </g>
</svg>