<?xml version="1.0" encoding="utf-8"?>
<!-- Generator: Adobe Illustrator 23.0.3, SVG Export Plug-In . SVG Version: 6.00 Build 0)  -->
<svg version="1.1" id="Layer_1" xmlns="http://www.w3.org/2000/svg" xmlns:xlink="http://www.w3.org/1999/xlink" x="0px" y="0px"
	 viewBox="0 0 23 23" style="enable-background:new 0 0 23 23;" xml:space="preserve">
<style type="text/css">
	.st0{fill:none;stroke:#386B8F;stroke-miterlimit:10;}
	.st1{fill:#386B8F;}
</style>
<title>E16B1260-6F70-49FB-88B9-8CBECD64F21Amdpi/</title>
<desc>Created with sketchtool.</desc>
<g id="Final-Short">
	<g id="Home-V8.0--S--Dark---2-Liner" transform="translate(-786.000000, -5856.000000)">
		<g>
			<circle class="st0" cx="797.5" cy="5867.5" r="6.2"/>
			<path class="st1" d="M805.6,5856h-16.3c-1.9,0-3.4,1.5-3.4,3.4v16.3c0,1.9,1.5,3.4,3.4,3.4h16.3c1.9,0,3.4-1.5,3.4-3.4v-16.3
				C809,5857.5,807.5,5856,805.6,5856z M797.5,5873.7c-3.4,0-6.2-2.8-6.2-6.2s2.8-6.2,6.2-6.2s6.2,2.8,6.2,6.2
				S800.9,5873.7,797.5,5873.7z M803.7,5863.1c-1,0-1.8-0.8-1.8-1.8s0.8-1.8,1.8-1.8s1.8,0.8,1.8,1.8S804.7,5863.1,803.7,5863.1z"/>
		</g>
	</g>
</g>
</svg>
