<?xml version="1.0" encoding="UTF-8"?>
<svg width="16px" height="19px" viewBox="0 0 16 19" version="1.1" xmlns="http://www.w3.org/2000/svg" xmlns:xlink="http://www.w3.org/1999/xlink">
    <!-- Generator: sketchtool 56.2 (101010) - https://sketch.com -->
    <title>0750472A-EB12-4939-A0E1-3ED7A9BEC20B</title>
    <desc>Created with sketchtool.</desc>
    <defs>
        <path d="M430.180762,68.6850895 C429.365602,69.5365737 428.494602,70.3123074 427.623341,70.9988624 C427.317919,71.2395359 427.033739,71.4522533 426.777767,71.6351959 C426.621779,71.7466806 426.508116,71.8245826 426.44376,71.8670398 C426.175041,72.0443201 425.824959,72.0443201 425.55624,71.8670398 C425.491884,71.8245826 425.378221,71.7466806 425.222233,71.6351959 C424.966261,71.4522533 424.682081,71.2395359 424.376659,70.9988624 C423.505398,70.3123074 422.634398,69.5365737 421.819238,68.6850895 C419.441921,66.2018392 418,63.5858536 418,60.9166666 C418,56.5444123 421.581722,53 426,53 C430.418278,53 434,56.5444123 434,60.9166666 C434,63.5858536 432.558079,66.2018392 430.180762,68.6850895 Z M426.626659,69.7602522 C427.442898,69.1170546 428.259398,68.3898586 429.019238,67.5961605 C431.141921,65.3788899 432.4,63.096438 432.4,60.9166666 C432.4,57.4188632 429.534622,54.5833333 426,54.5833333 C422.465378,54.5833333 419.6,57.4188632 419.6,60.9166666 C419.6,63.096438 420.858079,65.3788899 422.980762,67.5961605 C423.740602,68.3898586 424.557102,69.1170546 425.373341,69.7602522 C425.596137,69.9358153 425.806151,70.0949415 426,70.2366549 C426.193849,70.0949415 426.403863,69.9358153 426.626659,69.7602522 Z M426,64.0833333 C424.232689,64.0833333 422.8,62.6655683 422.8,60.9166666 C422.8,59.1677649 424.232689,57.7499999 426,57.7499999 C427.767311,57.7499999 429.2,59.1677649 429.2,60.9166666 C429.2,62.6655683 427.767311,64.0833333 426,64.0833333 Z M426,62.4999999 C426.883656,62.4999999 427.6,61.7911175 427.6,60.9166666 C427.6,60.0422157 426.883656,59.3333333 426,59.3333333 C425.116344,59.3333333 424.4,60.0422157 424.4,60.9166666 C424.4,61.7911175 425.116344,62.4999999 426,62.4999999 Z" id="path-1"></path>
    </defs>
    <g id="Detail-Page" stroke="none" stroke-width="1" fill="none" fill-rule="evenodd">
        <g id="Event-Detail-Page--Fixed-Header-V8.0" transform="translate(-448.000000, -58.000000)">
            <g id="Group-5">
                <g id="Group-7" transform="translate(30.000000, 5.000000)">
                    <mask id="mask-2" fill="white">
                        <use xlink:href="#path-1"></use>
                    </mask>
                    <use id="Location" fill="#6A6A6A" fill-rule="nonzero" xlink:href="#path-1"></use>
                </g>
            </g>
        </g>
    </g>
</svg>