<?xml version="1.0" encoding="UTF-8"?>
<svg width="14px" height="17px" viewBox="0 0 14 17" version="1.1" xmlns="http://www.w3.org/2000/svg" xmlns:xlink="http://www.w3.org/1999/xlink">
    <!-- Generator: Sketch 55.2 (78181) - https://sketchapp.com -->
    <title>Venue</title>
    <desc>Created with Sketch.</desc>
    <g id="Symbols" stroke="none" stroke-width="1" fill="none" fill-rule="evenodd">
        <g id="Venue" fill="#343434">
            <g>
                <path d="M6.8320001,1.77635684e-15 C10.6400002,1.77635684e-15 13.7200002,3.11666671 13.7200002,6.91333344 C13.7200002,11.0500002 9.40800014,13.4300002 7.22400011,16.6600002 C7.05600011,17 6.6080001,16.9433336 6.4400001,16.6600002 C4.31200006,13.4300002 -9.05941988e-14,11.0500002 -9.05941988e-14,6.91333344 C-9.05941988e-14,3.11666671 3.08000005,1.77635684e-15 6.8320001,1.77635684e-15 Z M6.8320001,0.963333348 C3.58400005,0.963333348 0.952000014,3.62666672 0.952000014,6.91333344 C0.952000014,10.3700002 4.87200007,12.9200002 6.8320001,15.5833336 C8.79200013,12.9200002 12.7680002,10.3700002 12.7680002,6.91333344 C12.7680002,3.62666672 10.1360002,0.963333348 6.8320001,0.963333348 Z" id="Shape" fill-rule="nonzero"></path>
                <path d="M6.83777788,4.51309534 C8.12666677,4.51309534 9.19333344,5.57704092 9.19333344,6.91853752 C9.19333344,8.26003412 8.12666677,9.3702382 6.83777788,9.3702382 C5.54888899,9.3702382 4.52666677,8.26003412 4.52666677,6.91853752 C4.52666677,5.57704092 5.54888899,4.51309534 6.83777788,4.51309534 Z" id="Path"></path>
            </g>
        </g>
    </g>
</svg>