<?xml version="1.0" encoding="UTF-8"?>
<svg width="16px" height="19px" viewBox="0 0 16 19" version="1.1" xmlns="http://www.w3.org/2000/svg" xmlns:xlink="http://www.w3.org/1999/xlink">
    <!-- Generator: sketchtool 55.2 (78181) - https://sketchapp.com -->
    <title>0CEA813C-FBBA-4D69-B9A8-B4C9F8CCFD24</title>
    <desc>Created with sketchtool.</desc>
    <defs>
        <path d="M12.1807621,16.6850895 C11.3656017,17.5365737 10.4946024,18.3123074 9.62334143,18.9988624 C9.31791885,19.2395359 9.03373895,19.4522533 8.77776744,19.6351959 C8.62177922,19.7466806 8.5081163,19.8245826 8.44376016,19.8670398 C8.17504063,20.0443201 7.82495937,20.0443201 7.55623984,19.8670398 C7.4918837,19.8245826 7.37822078,19.7466806 7.22223256,19.6351959 C6.96626105,19.4522533 6.68208115,19.2395359 6.37665857,18.9988624 C5.50539758,18.3123074 4.63439832,17.5365737 3.81923785,16.6850895 C1.44192126,14.2018392 0,11.5858536 0,8.91666659 C0,4.54441235 3.58172205,1 8,1 C12.418278,1 16,4.54441235 16,8.91666659 C16,11.5858536 14.5580787,14.2018392 12.1807621,16.6850895 Z M8.62665857,17.7602522 C9.44289758,17.1170546 10.2593983,16.3898586 11.0192379,15.5961605 C13.1419213,13.3788899 14.4,11.096438 14.4,8.9166666 C14.4,5.41886322 11.5346224,2.58333334 8,2.58333334 C4.46537764,2.58333334 1.6,5.41886322 1.6,8.9166666 C1.6,11.096438 2.85807874,13.3788899 4.98076215,15.5961605 C5.74060168,16.3898586 6.55710242,17.1170546 7.37334143,17.7602522 C7.59613687,17.9358153 7.80615077,18.0949415 8,18.2366549 C8.19384923,18.0949415 8.40386313,17.9358153 8.62665857,17.7602522 Z M8,12.0833333 C6.2326888,12.0833333 4.8,10.6655683 4.8,8.9166666 C4.8,7.16776489 6.2326888,5.74999992 8,5.74999992 C9.7673112,5.74999992 11.2,7.16776489 11.2,8.9166666 C11.2,10.6655683 9.7673112,12.0833333 8,12.0833333 Z M8,10.4999999 C8.8836556,10.4999999 9.6,9.79111746 9.6,8.9166666 C9.6,8.04221575 8.8836556,7.33333326 8,7.33333326 C7.1163444,7.33333326 6.4,8.04221575 6.4,8.9166666 C6.4,9.79111746 7.1163444,10.4999999 8,10.4999999 Z" id="path-1"></path>
    </defs>
    <g id="Detail-Page" stroke="none" stroke-width="1" fill="none" fill-rule="evenodd">
        <g id="Event-Detail-Page-V8.0" transform="translate(-920.000000, -392.000000)">
            <g id="Group-7" transform="translate(891.000000, 109.000000)">
                <g id="Group-10" transform="translate(29.000000, 282.000000)">
                    <mask id="mask-2" fill="white">
                        <use xlink:href="#path-1"></use>
                    </mask>
                    <use id="Combined-Shape" fill="#0098FF" fill-rule="nonzero" xlink:href="#path-1"></use>
                </g>
            </g>
        </g>
    </g>
</svg>