<?xml version="1.0" encoding="utf-8"?>
<!-- Generator: Adobe Illustrator 24.0.1, SVG Export Plug-In . SVG Version: 6.00 Build 0)  -->
<svg version="1.1" id="Layer_1" xmlns="http://www.w3.org/2000/svg" xmlns:xlink="http://www.w3.org/1999/xlink" x="0px" y="0px"
	 viewBox="0 0 20 20" style="enable-background:new 0 0 20 20;" xml:space="preserve">
<style type="text/css">
	.st0{fill:#478ECC;}
</style>
<g>
	<path class="st0" d="M1.2,10.6L10,3.1l8.7,7.5c0.3,0.3,0.8,0.2,1-0.1c0.3-0.3,0.2-0.8-0.1-1l-9.2-7.9c-0.3-0.2-0.7-0.2-1,0L0.3,9.4
		C0,9.7,0,10.2,0.2,10.5c0.1,0.2,0.3,0.3,0.6,0.3C0.9,10.7,1.1,10.7,1.2,10.6z"/>
	<path class="st0" d="M0.2,18.4c0.1,0.2,0.4,0.3,0.6,0.3c0.2,0,0.3-0.1,0.5-0.2L10,11l8.7,7.5c0.3,0.3,0.8,0.2,1-0.1
		c0.3-0.3,0.2-0.8-0.1-1l-9.2-7.9c-0.3-0.2-0.7-0.2-1,0l-9.2,7.9C0,17.6,0,18.1,0.2,18.4z"/>
</g>
</svg>
