<?xml version="1.0" encoding="UTF-8"?>
<svg width="21px" height="24px" viewBox="0 0 21 24" version="1.1" xmlns="http://www.w3.org/2000/svg" xmlns:xlink="http://www.w3.org/1999/xlink">
    <!-- Generator: Sketch 61.2 (89653) - https://sketch.com -->
    <title>noun_metro_738288</title>
    <desc>Created with Sketch.</desc>
    <g id="New-Find-Agent" stroke="none" stroke-width="1" fill="none" fill-rule="evenodd">
        <g id="Find-agent-Search-Results-Hover" transform="translate(-443.000000, -531.000000)" fill="#343434" fill-rule="nonzero">
            <g id="noun_metro_738288" transform="translate(443.000000, 531.000000)">
                <path d="M6.4434,16.3392 C6.4434,17.0016 5.9061,17.5392 5.2434,17.5392 C4.5804,17.5392 4.0434,17.0016 4.0434,16.3392 C4.0434,15.6768 4.5804,15.1392 5.2434,15.1392 C5.9061,15.1392 6.4434,15.6768 6.4434,16.3392 Z M15.1566,15.1392 C14.4939,15.1392 13.9566,15.6768 13.9566,16.3392 C13.9566,17.0016 14.4939,17.5392 15.1566,17.5392 C15.8196,17.5392 16.3566,17.0016 16.3566,16.3392 C16.3566,15.6768 15.8196,15.1392 15.1566,15.1392 Z M19.7832,20.4 L17.8353,20.4 L20.2272,23.0139 C20.4501,23.259 20.4324,23.6301 20.187,23.853 C20.0718,23.9577 19.9275,24.0048 19.7835,24.0048 C19.6203,24.0048 19.4577,23.9535 19.3395,23.8236 L16.2132,20.4 L4.1868,20.4 L1.0608,23.8212 C0.9423,23.9514 0.7797,24.009 0.6168,24.009 C0.4728,24.009 0.3282,23.9529 0.2133,23.8482 C-0.0318,23.6256 -0.0498,23.2611 0.1728,23.016 L2.5647,20.4 L0.6165,20.4 C0.2853,20.4 0,20.097 0,19.7655 L0,1.9206 C0,0.861 0.879,0 1.9386,0 L18.4614,0 C19.521,0 20.4,0.861 20.4,1.9206 L20.4,19.7652 C20.4,20.097 20.1147,20.4 19.7832,20.4 Z M19.2,3.9 L1.2,3.9 L1.2,12.6 L19.2,12.6 L19.2,3.9 Z M1.2,1.9206 L1.2,2.7 L19.2,2.7 L19.2,1.9206 C19.2,1.5228 18.8595,1.2 18.4614,1.2 L1.9386,1.2 C1.5405,1.2 1.2,1.5228 1.2,1.9206 Z M19.2,19.2 L19.2,13.8 L1.2,13.8 L1.2,19.2 L19.2,19.2 Z" id="Shape"></path>
            </g>
        </g>
    </g>
</svg>