<?xml version="1.0" encoding="UTF-8"?>
<svg width="20px" height="16px" viewBox="0 0 20 16" version="1.1" xmlns="http://www.w3.org/2000/svg" xmlns:xlink="http://www.w3.org/1999/xlink">
    <!-- Generator: Sketch 55.2 (78181) - https://sketchapp.com -->
    <title>next-arrow-white</title>
    <desc>Created with Sketch.</desc>
    <g id="Page-1" stroke="none" stroke-width="1" fill="none" fill-rule="evenodd">
        <g id="next-arrow-white" transform="translate(1.000000, 1.000000)" stroke="#0098FF">
            <path d="M17.7242225,7.8 L0.275777539,7.8 C0.123548338,7.8 0,7.59093333 0,7.33333333 C0,7.07573333 0.123548338,6.86666667 0.275777539,6.86666667 L17.7242225,6.86666667 C17.8764517,6.86666667 18,7.07573333 18,7.33333333 C18,7.59093333 17.8764517,7.8 17.7242225,7.8 Z" id="Path" stroke-width="0.8"></path>
            <path d="M10.7011426,14.3333333 C10.6294754,14.3333333 10.5578082,14.3070198 10.502938,14.2549298 C10.3937575,14.1502127 10.3937575,13.9799804 10.502938,13.8752633 L17.3247605,7.33232644 L10.502938,0.791537608 C10.3937575,0.686820546 10.3937575,0.516588193 10.502938,0.41187113 C10.6121185,0.307154068 10.7896069,0.307154068 10.8987874,0.41187113 L17.9182546,7.14222469 C17.9708852,7.19270369 18,7.26090403 18,7.33232644 C18,7.40374885 17.9703253,7.47194919 17.9182546,7.52242818 L10.8987874,14.2543928 C10.8444771,14.3070198 10.7728099,14.3333333 10.7011426,14.3333333 Z" id="Path"></path>
        </g>
    </g>
</svg>