<?xml version="1.0" encoding="UTF-8"?>
<svg width="27px" height="22px" viewBox="0 0 27 22" version="1.1" xmlns="http://www.w3.org/2000/svg" xmlns:xlink="http://www.w3.org/1999/xlink">
    <!-- Generator: Sketch 55.2 (78181) - https://sketchapp.com -->
    <title>next-arrow</title>
    <desc>Created with Sketch.</desc>
    <g id="Page-1" stroke="none" stroke-width="1" fill="none" fill-rule="evenodd">
        <g id="next-arrow" transform="translate(0.000000, 1.000000)" stroke="#0098FF" stroke-width="0.831441422">
            <path d="M25.8439042,10.5579865 L1.14507489,10.5579865 C0.929589605,10.5579865 0.754703,10.3841477 0.754703,10.1699535 C0.754703,9.95575928 0.929589605,9.7819205 1.14507489,9.7819205 L25.8439042,9.7819205 C26.0593895,9.7819205 26.2342761,9.95575928 26.2342761,10.1699535 C26.2342761,10.3841477 26.0593895,10.5579865 25.8439042,10.5579865 Z" id="Path"></path>
            <path d="M16.0557195,20.2867501 C15.9557843,20.2867501 15.8558491,20.2487229 15.7793362,20.1734445 C15.6270912,20.0221116 15.6270912,19.7760987 15.7793362,19.6247658 L25.2919183,10.1691774 L15.7793362,0.716693331 C15.6270912,0.565360457 15.6270912,0.319347529 15.7793362,0.168014655 C15.9315812,0.0166817816 16.179077,0.0166817816 16.331322,0.168014655 L26.1195067,9.89445007 C26.1928967,9.96740027 26.2334953,10.0659607 26.2334953,10.1691774 C26.2334953,10.2723942 26.1921159,10.3709546 26.1195067,10.4439048 L16.331322,20.1726684 C16.2555899,20.2487229 16.1556547,20.2867501 16.0557195,20.2867501 Z" id="Path"></path>
        </g>
    </g>
</svg>