<?xml version="1.0" encoding="UTF-8"?>
<svg width="662px" height="318px" viewBox="0 0 662 318" version="1.1" xmlns="http://www.w3.org/2000/svg" xmlns:xlink="http://www.w3.org/1999/xlink">
    <!-- Generator: Sketch 56.2 (81672) - https://sketch.com -->
    <title>Group</title>
    <desc>Created with Sketch.</desc>
    <defs>
        <polygon id="path-1" points="0.640277778 0.699534884 74.9726852 0.699534884 74.9726852 39.6613029 0.640277778 39.6613029"></polygon>
        <polygon id="path-3" points="0.652941667 0.6956 43.972775 0.6956 43.972775 36.697895 0.652941667 36.697895"></polygon>
        <polygon id="path-5" points="0 313.5 471 313.5 471 1.5 0 1.5"></polygon>
    </defs>
    <g id="Page-1" stroke="none" stroke-width="1" fill="none" fill-rule="evenodd">
        <g id="Event-Listing-Grid-View-V8.0-Copy-2" transform="translate(-510.000000, -539.000000)">
            <g id="Group" transform="translate(510.000000, 538.000000)">
                <ellipse id="Oval" fill="#D6D9E2" opacity="0.167154948" cx="331" cy="308" rx="331" ry="11"></ellipse>
                <g id="Group-111" transform="translate(96.000000, 0.000000)">
                    <path d="M83,187.5 C83,187.5 128.040096,157.248143 116.29111,66.5 C139.008779,93.6093251 191.888013,125.032784 215,99.8925316 C215,99.8925316 178.958852,160.785232 83,187.5" id="Fill-1" fill="#EEF9FB"></path>
                    <path d="M120.498636,173.5 C126.304941,170.931099 131.80388,168.255083 137,165.498731 C136.32525,121.468207 116,66.5 116,66.5 C116,66.5 130.548954,109.671761 120.498636,173.5" id="Fill-3" fill="#FC174D"></path>
                    <path d="M193.014854,125.5 C208.303823,110.688684 215,99.5406981 215,99.5406981 C191.819141,124.416066 138.784454,93.3246119 116,66.5 C116,66.5 116.014854,66.5266391 116.034349,66.5615454 C117.021183,68.2682822 141.743101,110.443421 193.014854,125.5" id="Fill-5" fill="#FC174D"></path>
                    <path d="M116,66.5 C116,66.5 143.54673,125.649342 152.838639,156.5 C158.684336,152.878706 164.060428,149.200209 169,145.554927 C143.369365,114.665519 117.059596,68.3729241 116.034003,66.5608931 C116.014704,66.5258334 116,66.5 116,66.5" id="Fill-7" fill="#FC174D"></path>
                    <path d="M116.4815,66.967 C116.4815,66.967 116.4975,66.995 116.5185,67.033 C116.4975,66.995 116.4815,66.967 116.4815,66.967" id="Fill-9" fill="#EEF9FB"></path>
                    <path d="M119,64.0013939 C119,65.9295765 117.433196,67.5 115.500464,67.5 C113.571448,67.5 112,65.9295765 112,64.0013939 C112,62.0676357 113.571448,60.5 115.500464,60.5 C117.433196,60.5 119,62.0676357 119,64.0013939" id="Fill-11" fill="#FFC502"></path>
                    <path d="M115.500929,60.5 C115.365349,60.5 115.232555,60.5092937 115.096047,60.5213755 C116.553064,60.651487 117.704564,61.8596654 117.704564,63.355948 C117.704564,64.929368 116.4277,66.2091078 114.856461,66.2091078 C113.364155,66.2091078 112.154152,65.0576208 112.031573,63.5994424 C112.013929,63.732342 112,63.8680297 112,64.0018587 C112,65.9302974 113.572168,67.5 115.500929,67.5 C117.432475,67.5 119,65.9302974 119,64.0018587 C119,62.0678439 117.432475,60.5 115.500929,60.5" id="Fill-13" fill="#FFC502"></path>
                    <path d="M114.976288,61.7134627 C114.85645,62.254424 114.322884,62.5972868 113.784562,62.4753801 C113.244338,62.3572829 112.902894,61.8191787 113.024635,61.2791698 C113.144473,60.7410656 113.676137,60.4029648 114.212556,60.5248716 C114.755633,60.6439212 115.095175,61.1791681 114.976288,61.7134627" id="Fill-15" fill="#FFC502"></path>
                    <path d="M113.843737,63.0772507 C113.798737,63.2632507 113.613737,63.3842507 113.419737,63.3412507 C113.234737,63.3012507 113.110737,63.1132507 113.159737,62.9232507 C113.194737,62.7352507 113.391737,62.6192507 113.575737,62.6572507 C113.767737,62.7072507 113.881737,62.8902507 113.843737,63.0772507" id="Fill-17" fill="#FFC502"></path>
                    <path d="M395,187.5 C395,187.5 351.663371,157.248374 362.967332,66.5 C341.109801,93.606476 290.232263,125.036604 268,99.8958476 C268,99.8958476 302.666897,160.787597 395,187.5" id="Fill-19" fill="#EEF9FB"></path>
                    <path d="M358.49946,173.5 C352.6974,170.933804 347.194747,168.254829 342,165.49543 C342.682873,121.464284 363,66.5 363,66.5 C363,66.5 348.449987,109.673282 358.49946,173.5" id="Fill-21" fill="#FC174D"></path>
                    <path d="M289.089411,125.5 C274.428175,110.690224 268,99.5442671 268,99.5442671 C290.238986,124.42035 341.134024,93.3211079 363,66.5 C363,66.5 362.986116,66.5229908 362.964828,66.5597762 C362.017956,68.2693746 338.286931,110.441923 289.089411,125.5" id="Fill-23" fill="#FC174D"></path>
                    <path d="M362,66.5 C362,66.5 335.491723,125.651803 326.549979,156.5 C320.925675,152.878461 315.750617,149.200581 311,145.549486 C335.667195,114.668962 360.97932,68.3675725 361.966008,66.5600357 C361.986219,66.5267852 362,66.5 362,66.5" id="Fill-25" fill="#FC174D"></path>
                    <path d="M362.5185,66.9675 C362.5185,66.9675 362.5035,66.9965 362.4815,67.0325 C362.5035,66.9925 362.5185,66.9675 362.5185,66.9675" id="Fill-27" fill="#EEF9FB"></path>
                    <path d="M360,63.9962815 C360,65.926162 361.565853,67.5 363.491794,67.5 C365.430285,67.5 367,65.926162 367,63.9962815 C367,62.0626826 365.430285,60.5 363.491794,60.5 C361.565853,60.5 360,62.0626826 360,63.9962815" id="Fill-29" fill="#FFC502"></path>
                    <path d="M363.491794,60.5 C363.63274,60.5 363.765963,60.5092974 363.89629,60.521384 C362.441456,60.6515474 361.291684,61.8602072 361.291684,63.3505778 C361.291684,64.9246248 362.565026,66.2020853 364.144394,66.2020853 C365.634947,66.2020853 366.8494,65.0547882 366.973935,63.6006774 C366.98745,63.7289813 367,63.8628636 367,63.9967459 C367,65.9268827 365.430285,67.5 363.491794,67.5 C361.565853,67.5 360,65.9268827 360,63.9967459 C360,62.0628902 361.565853,60.5 363.491794,60.5" id="Fill-31" fill="#FFC502"></path>
                    <path d="M364.025023,61.7168983 C364.148692,62.2544995 364.677997,62.5966961 365.221154,62.4756405 C365.761342,62.3526785 366.094755,61.8169836 365.976032,61.2822419 C365.854341,60.7370151 365.320089,60.3986313 364.784848,60.5273124 C364.242681,60.6407425 363.902343,61.1764374 364.025023,61.7168983" id="Fill-33" fill="#FFC502"></path>
                    <path d="M365.173574,63.0783055 C365.210574,63.2643055 365.394574,63.3853055 365.572574,63.3423055 C365.753574,63.3023055 365.868574,63.1143055 365.826574,62.9243055 C365.793574,62.7363055 365.604574,62.6133055 365.429574,62.6583055 C365.243574,62.7013055 365.131574,62.8913055 365.173574,63.0783055" id="Fill-35" fill="#FFC502"></path>
                    <g id="Group-39" transform="translate(241.000000, 0.500000)">
                        <mask id="mask-2" fill="white">
                            <use xlink:href="#path-1"></use>
                        </mask>
                        <g id="Clip-38"></g>
                        <path d="M0.850462963,13.3410233 C0.850462963,13.3410233 25.7467593,17.9791628 35.3893519,7.8907907 C45.025463,-2.1975814 51.8476852,0.428465116 58.2773148,3.25265116 C64.7013889,6.07776744 73.7356481,5.47032558 73.7356481,5.47032558 C73.7356481,5.47032558 69.2143519,11.8489302 59.1134259,16.4126512 C64.4680556,20.3717209 74.9726852,18.4470698 74.9726852,18.4470698 C74.9726852,18.4470698 70.4282407,33.0610233 54.4708333,27.0703256 C47.5050926,24.3335814 43.3847222,27.3019535 37.8069444,32.4452093 C29.1263889,40.4610233 17.6087963,41.1791628 0.640277778,37.6210233 L0.850462963,13.3410233 Z" id="Fill-37" fill="#FFB32C" mask="url(#mask-2)"></path>
                    </g>
                    <path d="M242.214421,13.5 L242,37.4256774 C244.074307,37.8482565 246.077771,38.2085029 248,38.5 L248,14.2177428 C244.51165,13.9097459 242.214421,13.5 242.214421,13.5" id="Fill-40" fill="#FFC502"></path>
                    <g id="Group-44" transform="translate(272.000000, 0.500000)">
                        <mask id="mask-4" fill="white">
                            <use xlink:href="#path-3"></use>
                        </mask>
                        <g id="Clip-43"></g>
                        <path d="M28.2721083,16.320145 C38.272025,11.78302 42.7481083,5.43937 42.7481083,5.43937 C42.7481083,5.43937 33.8041917,6.04432 27.445275,3.235095 C21.079025,0.42587 14.325025,-2.185405 4.785275,7.84622 C3.613775,9.077395 2.211275,10.087495 0.652941667,10.912595 L0.652941667,36.697895 C3.003275,35.59067 5.17210833,34.130095 7.17869167,32.26252 C12.7006917,27.148195 16.7798583,24.197445 23.6759417,26.91787 C39.473775,32.87487 43.972775,18.344045 43.972775,18.344045 C43.972775,18.344045 33.5731917,20.256945 28.2721083,16.320145" id="Fill-42" fill="#FFAF22" mask="url(#mask-4)"></path>
                    </g>
                    <mask id="mask-6" fill="white">
                        <use xlink:href="#path-5"></use>
                    </mask>
                    <g id="Clip-46"></g>
                    <polygon id="Fill-45" fill="#AF8308" mask="url(#mask-6)" points="242 41.5 243 41.5 243 14.5 242 14.5"></polygon>
                    <path d="M247,10.5009654 C247,13.2592199 244.770479,15.5 242.00966,15.5 C239.240147,15.5 237,13.2592199 237,10.5009654 C237,7.73981464 239.240147,5.5 242.00966,5.5 C244.770479,5.5 247,7.73981464 247,10.5009654" id="Fill-47" fill="#FFC502" mask="url(#mask-6)"></path>
                    <path d="M242.00966,5.5 C241.810665,5.5 241.617465,5.51737955 241.426198,5.53669016 C243.514683,5.71531331 245.155912,7.44554408 245.155912,9.57840108 C245.155912,11.8280873 243.325348,13.65294 241.082303,13.65294 C238.946484,13.65294 237.216383,12.009607 237.03864,9.93178527 C237.016422,10.1152361 237,10.3054456 237,10.5014483 C237,13.2599691 239.240147,15.5 242.00966,15.5 C244.770479,15.5 247,13.2599691 247,10.5014483 C247,7.73906537 244.770479,5.5 242.00966,5.5" id="Fill-48" fill="#FFAF22" mask="url(#mask-6)"></path>
                    <path d="M240.963761,8.32311282 C240.784019,9.13805449 239.98609,9.64635357 239.173616,9.46236801 C238.368415,9.27942192 237.856203,8.48007225 238.035944,7.67760417 C238.216725,6.86162304 239.021927,6.35436342 239.82505,6.53730951 C240.637524,6.71609774 241.143502,7.51960528 240.963761,8.32311282" id="Fill-49" fill="#FFC502" mask="url(#mask-6)"></path>
                    <path d="M238.96544,10.1036616 C238.91444,10.3586616 238.65544,10.5276616 238.39844,10.4706616 C238.13444,10.4146616 237.97344,10.1526616 238.03444,9.89666163 C238.08644,9.63466163 238.34744,9.47266163 238.60644,9.52966163 C238.86744,9.58966163 239.02644,9.84166163 238.96544,10.1036616" id="Fill-50" fill="#FFC502" mask="url(#mask-6)"></path>
                    <path d="M81,195.550673 L81,300.343132 C81,300.343132 131.191158,313.5 236.882091,313.5 C342.555468,313.5 392,303.298432 392,303.298432 L392,193.5 C392,193.5 241.400654,206.062108 81,195.550673" id="Fill-51" fill="#EEF9FB" mask="url(#mask-6)"></path>
                    <path d="M154,198.5 L154,310.204791 C159.961387,310.681925 166.293789,311.112734 173,311.5 L173,198.942854 C166.727259,198.827971 160.389265,198.679736 154,198.5" id="Fill-52" fill="#FC174D" mask="url(#mask-6)"></path>
                    <path d="M194,199.5 L194,312.963599 C200.082573,313.191894 206.418703,313.370076 213,313.5 L213,199.603011 C206.762683,199.596515 200.419095,199.56125 194,199.5" id="Fill-53" fill="#FC174D" mask="url(#mask-6)"></path>
                    <path d="M81,195.5 L81,300.61358 C81,300.61358 85.6219918,301.820662 95,303.5 L95,196.358225 C90.3370562,196.094727 85.6731818,195.806178 81,195.5" id="Fill-54" fill="#FC174D" mask="url(#mask-6)"></path>
                    <path d="M114,197.5 L114,306.00795 C120.12822,306.848475 127.120461,307.694536 135,308.5 L135,198.376508 C128.043139,198.120936 121.036001,197.831228 114,197.5" id="Fill-55" fill="#FC174D" mask="url(#mask-6)"></path>
                    <path d="M357,195.661994 L357,308.5 C364.559551,307.716351 370.887913,306.942928 376,306.254098 L376,194.5 C370.78912,194.850457 364.405769,195.244606 357,195.661994" id="Fill-56" fill="#FC174D" mask="url(#mask-6)"></path>
                    <path d="M317,197.321223 L317,311.5 C323.800226,311.099154 330.133559,310.666687 336,310.210039 L336,196.5 C330.045958,196.783661 323.70517,197.058022 317,197.321223" id="Fill-57" fill="#FC174D" mask="url(#mask-6)"></path>
                    <path d="M274,199.000836 L274,313.5 C280.622921,313.335532 286.953147,313.135755 293,312.897881 L293,198.5 C286.87205,198.687697 280.537163,198.855882 274,199.000836" id="Fill-58" fill="#FC174D" mask="url(#mask-6)"></path>
                    <path d="M235,199.71175 L235,313.5 L236.727697,313.5 C242.66135,313.5 248.412258,313.463013 254,313.405683 L254,199.5 C247.80528,199.597091 241.466974,199.662742 235,199.71175" id="Fill-59" fill="#FC174D" mask="url(#mask-6)"></path>
                    <path d="M81,191.685857 L81,206.361934 C86.3871615,208.103889 98.5928246,210.896473 106.815869,204.081475 C117.042236,214.028352 133.768309,214.343086 144.591606,206.64847 C156.612461,216.479823 178.653621,216.479823 189.078656,207.500799 C199.897333,216.479823 216.73152,215.621126 226.349867,208.355858 C240.374044,219.046817 264.02396,213.915557 270.434035,207.076909 C283.262502,216.479823 296.893961,212.202711 303.299416,205.789773 C311.318248,215.199964 330.954128,213.485299 336.566755,204.081475 C342.973134,213.061408 359.808245,211.350382 365.822831,203.227326 C371.415129,209.544753 383.760323,208.654219 392,203.162742 L392,189.5 C392,189.5 241.400654,202.883484 81,191.685857" id="Fill-60" fill="#939393" mask="url(#mask-6)"></path>
                    <path d="M81,188.515626 L81,202.014792 C86.3871615,203.61605 98.5928246,206.194746 106.815869,199.917561 C117.042236,209.066311 133.768309,209.356459 144.591606,202.278646 C156.612461,211.320403 178.653621,211.320403 189.078656,203.061141 C199.897333,211.320403 216.73152,210.535188 226.349867,203.851796 C240.374044,213.680581 264.02396,208.963852 270.434035,202.66672 C283.262502,211.320403 296.893961,207.386169 303.299416,201.486177 C311.318248,210.140767 330.954128,208.571245 336.566755,199.917561 C342.973134,208.177731 359.808245,206.600954 365.822831,199.135067 C371.415129,204.945293 383.760323,204.122903 392,199.07341 L392,186.5 C392,186.5 241.400654,198.81409 81,188.515626" id="Fill-61" fill="#939393" mask="url(#mask-6)"></path>
                    <path d="M77,188.5 L77,194.131007 C77,196.631918 81.0289846,201.031549 91.3704136,202.476996 C97.0546532,202.776696 107,200.079397 107,198.382649 L107,191.016734 L77,188.5 Z" id="Fill-62" fill="#AB1113" mask="url(#mask-6)"></path>
                    <path d="M242,39.5 C229.855112,152.160478 192.89867,192.058646 190,195.022834 C201.719395,195.29298 214.148556,195.473078 227.166437,195.5 C227.191197,195.356107 241.193948,115.614543 241.966071,43.2579177 C241.968822,42.0000179 241.979826,40.7523298 242,39.5" id="Fill-63" fill="#FC174D" mask="url(#mask-6)"></path>
                    <path d="M145,192.915101 C158.341452,193.553502 173.351393,194.12066 189.727465,194.5 C192.641328,191.545777 229.79146,151.781738 242,39.5 C227.752402,132.516839 149.858896,189.439055 145,192.915101" id="Fill-64" fill="#EEF9FB" mask="url(#mask-6)"></path>
                    <path d="M242,39.5 C242,39.5 241.991657,39.5380786 241.982386,39.6003046 C225.747159,138.518243 107.013906,191.244076 107.013906,191.244076 L107,191.277511 C117.240069,192.006577 129.852429,192.797868 144.450506,193.5 C149.336927,190.01163 227.670764,132.871468 242,39.5" id="Fill-65" fill="#FC174D" mask="url(#mask-6)"></path>
                    <path d="M242,39.5 C241.374298,43.0393876 222.885955,140.780296 77,187.966583 C77,187.966583 87.861264,189.134359 107.027219,190.5 L107.042051,190.466714 C107.042051,190.466714 225.766039,137.976894 242,39.5" id="Fill-66" fill="#EEF9FB" mask="url(#mask-6)"></path>
                    <path d="M242,39.5 C266.895232,135.594934 362.578389,187.63477 366.065479,189.5 C375.624915,188.718432 385.278696,187.846329 395,186.863364 C395,186.863364 283.80623,160.623573 242,39.5" id="Fill-67" fill="#EEF9FB" mask="url(#mask-6)"></path>
                    <path d="M241.93098,43.5 C241.152004,115.738143 227.024979,195.349132 227,195.492789 C240.72181,195.532643 255.100475,195.408449 270,195.091477 L269.974096,194.804163 C269.974096,194.804163 241.840315,115.406341 241.93098,43.5" id="Fill-68" fill="#EEF9FB" mask="url(#mask-6)"></path>
                    <path d="M242,39.5 C254.637496,129.345634 333.797959,188.956755 337.222193,191.5 C346.704475,190.912671 356.303241,190.221913 366,189.440655 C362.514751,187.576162 266.882093,135.556915 242,39.5" id="Fill-69" fill="#FC174D" mask="url(#mask-6)"></path>
                    <path d="M242,43.2434744 C241.910168,114.990934 269.852858,194.213321 269.852858,194.213321 L269.878586,194.5 C280.659631,194.263259 291.715417,193.924792 303,193.457783 C298.833865,188.884788 255.760223,139.574131 242.034215,39.5 C242.025945,40.7475165 242.019513,41.991334 242,43.2434744" id="Fill-70" fill="#FC174D" mask="url(#mask-6)"></path>
                    <path d="M242,39.5 C255.777499,139.602174 299.011806,188.926649 303.194491,193.5 C314.258548,193.04211 325.542116,192.463041 337,191.756318 C333.583756,189.208784 254.608008,129.497141 242,39.5" id="Fill-71" fill="#EEF9FB" mask="url(#mask-6)"></path>
                    <path d="M145,192.728088 L145,197.410076 C145,199.117336 137.250447,205.425546 125.081379,204.384801 C112.911391,203.331308 108,197.667759 108,196.619729 L108,190.5 L145,192.728088 Z" id="Fill-72" fill="#B3AFAE" mask="url(#mask-6)"></path>
                    <path d="M145,193.5 L190,195.097577 L190,200.164582 C190,202.96199 178.743505,208.783014 163.959381,207.245758 C154.313608,206.250454 145.010206,200.164582 145.010206,197.293656 C145.010206,194.427443 145,193.5 145,193.5" id="Fill-73" fill="#AB1113" mask="url(#mask-6)"></path>
                    <path d="M189,194.5 L227,194.963795 L227,200.496856 C227,202.680484 218.547534,207.32295 205.609588,206.373703 C192.667892,205.423555 189,200.402112 189,198.605582 L189,194.5 Z" id="Fill-74" fill="#B3AFAE" mask="url(#mask-6)"></path>
                    <path d="M227,194.893859 L270,194.5 L270,199.307986 C270,202.264652 263.654403,206.5 248.505088,206.5 C233.352998,206.5 227,201.794563 227,199.629244 L227,194.893859 Z" id="Fill-75" fill="#AB1113" mask="url(#mask-6)"></path>
                    <path d="M270,194.531107 L303,193.5 L303,197.724154 C303,199.713175 297.458497,205.5 287.810992,205.5 C278.159824,205.5 270,200.808326 270,198.620769 L270,194.531107 Z" id="Fill-76" fill="#B3AFAE" mask="url(#mask-6)"></path>
                    <path d="M303,193.258095 L337,191.5 L337,195.725582 C337,197.862143 330.581808,205.130367 320.969825,205.484596 C311.363408,205.844418 303,199.802946 303,197.56198 L303,193.258095 Z" id="Fill-77" fill="#AB1113" mask="url(#mask-6)"></path>
                    <path d="M337,192.513686 L366,190.5 L366,195.23564 C366,197.282752 361.320537,203.107896 353.000353,203.479194 C344.673648,203.855914 337,199.022706 337,196.608813 L337,192.513686 Z" id="Fill-78" fill="#B3AFAE" mask="url(#mask-6)"></path>
                    <path d="M366,190.214991 L395,187.5 L395,193.795659 C395,196.163429 390.21271,200.580284 381.540151,201.412665 C372.865737,202.245998 366,196.902584 366,194.449198 L366,190.214991 Z" id="Fill-79" fill="#AB1113" mask="url(#mask-6)"></path>
                    <path d="M241.951853,232.5 C193.13103,232.5 197.221778,297.247565 198.834406,312.369352 C200.275969,312.417534 201.726779,312.462937 203.184987,312.5 C201.717532,297.855401 198.384091,238.085425 241.861236,238.085425 C282.937008,238.085425 280.626253,293.490282 278.640982,312.425874 C280.101964,312.381398 281.537055,312.343408 282.968447,312.298932 C285.195981,292.364488 288.029176,232.5 241.951853,232.5" id="Fill-80" fill="#FFC502" mask="url(#mask-6)"></path>
                    <path d="M240.499,237.9335 L240.499,238.0665 L240.501,238.0665 C240.501,237.9875 240.499,237.9335 240.499,237.9335" id="Fill-81" fill="#AB1113" mask="url(#mask-6)"></path>
                    <path d="M240.407,238.5 L240.396,238.5 C240.396,239.114564 240.413,242.056525 240.604,246.5 C240.561,242.056525 240.435,239.108748 240.407,238.5" id="Fill-82" fill="#AB1113" mask="url(#mask-6)"></path>
                    <path d="M240.312793,246.5 C240.440639,263.283252 239.193678,302.358581 225.204739,313.281088 C225.138963,313.338356 225.070408,313.38454 225,313.440885 C228.914124,313.479679 232.895876,313.5 236.975829,313.5 C244.242666,313.5 251.254737,313.455663 258,313.361448 C244.034221,300.458572 240.977036,262.852818 240.312793,246.5" id="Fill-83" fill="#531113" mask="url(#mask-6)"></path>
                    <path d="M223,300.480419 C228.593917,304.451768 225.162751,313.5 225.162751,313.5 C233.815571,306.548276 237.492793,288.287892 239,271.5 C235.219271,288.784311 230.472478,296.09368 223,300.480419" id="Fill-84" fill="#FB0F0F" mask="url(#mask-6)"></path>
                    <path d="M240.993684,246.167699 C240.817415,241.908795 240.801726,239.089037 240.801726,238.5 C199.013834,239.8834 202.271592,298.573397 203.719587,313.080056 C210.74453,313.278879 218.091557,313.430319 225.739443,313.5 C225.809581,313.443326 225.877874,313.396872 225.943399,313.339269 C225.943399,313.339269 229.430952,304.313255 223.745104,300.351657 C231.340386,295.975689 236.166112,288.685197 240.008051,271.442397 C240.898628,261.669402 241.034291,252.391607 240.993684,246.167699" id="Fill-85" fill="#AB1113" mask="url(#mask-6)"></path>
                    <path d="M263,296.594141 C244.195332,290.250043 242.017637,265.5 242.017637,265.5 L242,265.621378 C244.005967,283.167484 248.44026,304.423502 258.254741,313.5 C257.22623,307.01414 263,296.594141 263,296.594141" id="Fill-86" fill="#FB0F0F" mask="url(#mask-6)"></path>
                    <path d="M242.505653,238.5 C241.991191,238.5 241.494215,238.517663 241,238.535326 C241.026689,239.119136 241.14265,241.946149 241.182224,246.207587 C241.377333,251.126275 241.782277,257.956289 242.637259,265.462145 L242.654745,265.340363 C242.654745,265.340363 244.813829,290.17272 263.457784,296.537917 C263.457784,296.537917 257.733359,306.992569 258.75216,313.5 C265.827623,313.3996 272.618705,313.260155 279.111602,313.084454 C281.088461,294.087404 283.388355,238.5 242.505653,238.5" id="Fill-87" fill="#AB1113" mask="url(#mask-6)"></path>
                    <path d="M241.915115,236.5 C195.358154,236.5 199.251786,298.061424 200.800538,312.434328 C201.571673,312.461152 202.356695,312.484276 203.138939,312.5 C201.667949,297.797812 198.389929,238.274992 241.861422,238.274992 C282.94545,238.274992 280.676479,293.496763 278.691708,312.434328 C279.469323,312.411204 280.24879,312.39363 281.019926,312.366806 C283.135226,293.416291 285.844846,236.5 241.915115,236.5" id="Fill-88" fill="#D39D07" mask="url(#mask-6)"></path>
                    <path d="M210,251.5 C210,251.5 218.19942,238.643973 234,235.719625 C229.322435,234.16861 215.460406,240.97975 210,251.5" id="Fill-89" fill="#FFFFFF" mask="url(#mask-6)"></path>
                    <path d="M240.993684,246.167699 C240.817405,241.908795 240.801716,239.089037 240.801716,238.5 C239.841875,238.532518 238.91526,238.599412 238.002489,238.691391 C238.469488,251.04537 238.237834,285.613657 221.546761,293.515485 C208.695974,299.609322 203.696497,288.092443 205.277465,274.199907 C201.976167,289.906008 203.041221,306.307061 203.717724,313.080056 C210.743018,313.278879 218.090413,313.430319 225.73868,313.5 C225.808822,313.443326 225.877119,313.396872 225.942646,313.339269 C225.942646,313.339269 229.430374,304.313255 223.744242,300.351657 C231.339903,295.975689 236.165871,288.685197 240.008001,271.442397 C240.898623,261.669402 241.034292,252.391607 240.993684,246.167699" id="Fill-90" fill="#AB1113" mask="url(#mask-6)"></path>
                    <path d="M277.410097,270.810324 C279.660303,284.484295 276.764945,297.850558 262.504431,291.464909 C244.028806,283.20698 242.624382,246.978253 242.548915,238.508367 C242.536031,238.508367 242.520385,238.5 242.50566,238.5 C241.992116,238.5 241.495138,238.517663 241,238.535326 C241.02669,239.119136 241.142651,241.946149 241.182225,246.207587 C241.378256,251.126275 241.782281,257.956289 242.637267,265.462145 L242.654753,265.340363 C242.654753,265.340363 244.813848,290.17272 263.457893,296.537917 C263.457893,296.537917 257.733441,306.992569 258.753166,313.5 C265.827743,313.3996 272.618858,313.260155 279.112707,313.085384 C280.058806,304.000081 281.07393,286.548081 277.410097,270.810324" id="Fill-91" fill="#AB1113" mask="url(#mask-6)"></path>
                    <path d="M207,275.5 C207,275.5 214.147113,249.131452 234,241.5 C222.541767,242.452438 208.076619,259.052064 207,275.5" id="Fill-92" fill="#AB1113" mask="url(#mask-6)"></path>
                    <path d="M236,284.5 C236,284.5 233.219894,295.179709 224,299.5 C229.038349,298.372611 234.932553,292.102366 236,284.5" id="Fill-93" fill="#FFFFFF" mask="url(#mask-6)"></path>
                    <path d="M245,278.5 C245,278.5 249.277109,292.993784 262,296.49933 C256.309446,296.572382 248.571801,290.670932 245,278.5" id="Fill-94" fill="#FFFFFF" mask="url(#mask-6)"></path>
                    <polygon id="Fill-95" fill="#FB0F0F" mask="url(#mask-6)" points="9 287.837143 23 296.5 15.9995515 277.5"></polygon>
                    <polygon id="Fill-96" fill="#006AD0" mask="url(#mask-6)" points="20 272.173167 36 278.5 28.82102 259.5"></polygon>
                    <polygon id="Fill-97" fill="#FB0F0F" mask="url(#mask-6)" points="31 256.160478 47 262.5 39.8196514 243.5"></polygon>
                    <polygon id="Fill-98" fill="#006AD0" mask="url(#mask-6)" points="43 238.901072 56 246.5 51.6109383 226.5"></polygon>
                    <polygon id="Fill-99" fill="#FB0F0F" mask="url(#mask-6)" points="55 221.899818 68 229.5 63.6100277 209.5"></polygon>
                    <polygon id="Fill-100" fill="#006AD0" mask="url(#mask-6)" points="65 207.899818 78 215.5 73.6142521 195.5"></polygon>
                    <polygon id="Fill-101" fill="#1D1D1B" mask="url(#mask-6)" points="2.48431102 298.5 2 298.154531 77.5101645 189.5 78 189.847326"></polygon>
                    <polygon id="Fill-102" fill="#FFC502" mask="url(#mask-6)" points="0 299.5 2 299.5 2 291.5 0 291.5"></polygon>
                    <polygon id="Fill-103" fill="#FB0F0F" mask="url(#mask-6)" points="462 287.837143 448 296.5 454.999552 277.5"></polygon>
                    <polygon id="Fill-104" fill="#006AD0" mask="url(#mask-6)" points="451 272.173167 435 278.5 442.179015 259.5"></polygon>
                    <polygon id="Fill-105" fill="#FB0F0F" mask="url(#mask-6)" points="440 256.160478 424 262.5 431.181139 243.5"></polygon>
                    <polygon id="Fill-106" fill="#006AD0" mask="url(#mask-6)" points="427 238.901072 414 246.5 418.388478 226.5"></polygon>
                    <polygon id="Fill-107" fill="#FB0F0F" mask="url(#mask-6)" points="416 221.899818 403 229.5 407.387545 209.5"></polygon>
                    <polygon id="Fill-108" fill="#006AD0" mask="url(#mask-6)" points="406 207.899818 393 215.5 397.386365 195.5"></polygon>
                    <polygon id="Fill-109" fill="#1D1D1B" mask="url(#mask-6)" points="468.505609 298.5 393 189.847326 393.485185 189.5 469 298.154531"></polygon>
                    <polygon id="Fill-110" fill="#FFC502" mask="url(#mask-6)" points="469 299.5 471 299.5 471 291.5 469 291.5"></polygon>
                </g>
            </g>
        </g>
    </g>
</svg>