<?xml version="1.0" encoding="UTF-8"?>
<svg width="25px" height="29px" viewBox="0 0 25 29" version="1.1" xmlns="http://www.w3.org/2000/svg" xmlns:xlink="http://www.w3.org/1999/xlink">
    <!-- Generator: sketchtool 56.2 (101010) - https://sketch.com -->
    <title>FA8D7619-7559-4A7B-8AC5-DF20FDFE5D8C</title>
    <desc>Created with sketchtool.</desc>
    <g id="New-Find-Agent" stroke="none" stroke-width="1" fill="none" fill-rule="evenodd">
        <g id="Find-agent-Search-Results-Hover" transform="translate(-456.000000, -788.000000)" fill="#343434" fill-rule="nonzero" stroke="#343434" stroke-width="0.3">
            <g id="Group-8" transform="translate(431.000000, 460.000000)">
                <g id="Group-32" transform="translate(26.000000, 325.000000)">
                    <g id="notification" transform="translate(0.000000, 4.000000)">
                        <path d="M22.9178975,23.134823 L20.9422633,19.8639717 C20.031502,18.3542779 19.5496544,16.626281 19.5496544,14.8651235 L19.5496544,11.9999679 C19.5496544,7.58970788 15.9376577,4 11.500014,4 C7.06237025,4 3.45037351,7.58970788 3.45037351,11.9999679 L3.45037351,14.8651235 C3.45037351,16.626281 2.96852599,18.3542779 2.05776464,19.8639717 L0.0821304985,23.134823 C-0.0248149635,23.3108048 -0.0271328339,23.5314116 0.0740988081,23.7096969 C0.176462433,23.8891073 0.368468348,24 0.575459565,24 L22.4245145,24 C22.6315057,24 22.8235655,23.8891609 22.9258752,23.7096969 C23.0271069,23.531358 23.0248429,23.3108048 22.9178975,23.134823 Z M1.59090241,22.8571092 L3.04329079,20.4513813 C4.06212959,18.7645272 4.60030675,16.8331199 4.60030675,14.8651235 L4.60030675,11.9999679 C4.60030675,8.21826032 7.69482544,5.14283724 11.500014,5.14283724 C15.3052025,5.14283724 18.3997212,8.21826032 18.3997212,11.9999679 L18.3997212,14.8651235 C18.3997212,16.8331199 18.9378984,18.7645272 19.9556052,20.4513813 L21.4091255,22.8571092 L1.59090241,22.8571092 Z" id="Shape"></path>
                        <path d="M12,0 C10.896993,0 10,0.996666667 10,2.22223958 L10,4.44447917 C10,4.75109375 10.2240139,5 10.5000117,5 C10.7760096,5 11.0000234,4.75109375 11.0000234,4.44442708 L11.0000234,2.22223958 C11.0000234,1.60890625 11.4480043,1.11114583 12,1.11114583 C12.5519957,1.11114583 12.9999766,1.60890625 12.9999766,2.22223958 L12.9999766,4.44447917 C12.9999766,4.75109375 13.2239904,5 13.4999883,5 C13.7759861,5 14,4.75109375 14,4.44442708 L14,2.22223958 C14,0.996666667 13.103007,0 12,0 Z" id="Path"></path>
                        <path d="M14.594546,23.2464332 C14.4254147,23.0084129 14.0595446,22.9304011 13.7728985,23.0673906 C13.4861962,23.2074273 13.3902727,23.5144581 13.558167,23.7524784 C13.7140849,23.9735274 13.799269,24.2385518 13.799269,24.4995912 C13.799269,25.3267317 12.9920157,25.9998177 12,25.9998177 C11.0079843,25.9998177 10.200731,25.3267317 10.200731,24.4995912 C10.200731,24.2385518 10.2859151,23.9735274 10.441833,23.7524784 C10.6085465,23.5134267 10.512623,23.2073805 10.2271015,23.0673906 C9.93803767,22.9303542 9.57334833,23.008366 9.40545403,23.2464332 C9.14034299,23.6244903 9,24.0575401 9,24.4996381 C9,25.8788151 10.3446725,27 11.9988192,27 C13.652966,27 14.9975822,25.8788151 15,24.4996381 C15,24.0575401 14.859657,23.6244903 14.594546,23.2464332 Z" id="Path"></path>
                    </g>
                </g>
            </g>
        </g>
    </g>
</svg>