<?xml version="1.0" encoding="UTF-8"?>
<svg width="28px" height="21px" viewBox="0 0 28 21" version="1.1" xmlns="http://www.w3.org/2000/svg" xmlns:xlink="http://www.w3.org/1999/xlink">
    <!-- Generator: sketchtool 55.2 (78181) - https://sketchapp.com -->
    <title>F59D8360-DC82-4E9D-B139-5C934A4D0BC0</title>
    <desc>Created with sketchtool.</desc>
    <g id="New-Find-Agent" stroke="none" stroke-width="1" fill="none" fill-rule="evenodd">
        <g id="Find-Venue-Search-Results-Hover" transform="translate(-453.000000, -609.000000)" fill="#343434" fill-rule="nonzero" stroke="#343434" stroke-width="0.5">
            <g id="Group-8" transform="translate(431.000000, 490.000000)">
                <g id="noun_Parking_138628" transform="translate(23.000000, 120.000000)">
                    <path d="M5.71958213,0 C4.73758995,0 3.78171458,0.594186902 3.44551996,1.43085449 L0.0270665157,9.991078 C0,10.0273409 0,10.075837 0,10.1120999 L0,13.6405215 L0,14.0162574 L0,17.8841519 C0,18.5023685 0.551777039,19 1.23793695,19 L3.00105928,19 C3.67392337,19 4.23899624,18.5023685 4.23899624,17.8841519 L4.23899624,15.1316685 L21.7610038,15.1316685 L21.7610038,17.8841519 C21.7610038,18.5023685 22.3260766,19 22.9989407,19 L24.762063,19 C25.448223,19 26,18.5023685 26,17.8841519 L26,14.0166943 L26,13.6409584 L26,10.1125368 C26,10.0762739 26,10.0277778 25.9729335,9.9915149 L22.5407094,1.43129139 C22.2178106,0.594623804 21.2624101,0.000436902134 20.279943,0.000436902134 L13.5926142,0.000436902134 L13.4444607,0.000436902134 L12.4078606,0.000436902134 L5.71958213,0.000436902134 L5.71958213,0 Z M5.71958213,0.679382818 L12.4083355,0.679382818 L13.4449355,0.679382818 L13.5930891,0.679382818 L20.2818424,0.679382818 C20.8739818,0.679382818 21.6275706,1.15211093 21.8426782,1.66153882 L25.2478358,10.1610329 L25.2478358,13.6409584 L25.2478358,14.0166943 L25.2478358,17.8845889 C25.2478358,18.1270695 25.0322534,18.3092577 24.7630127,18.3092577 L22.9998904,18.3092577 C22.7311247,18.3092577 22.5288381,18.1270695 22.5288381,17.8845889 L22.5288381,14.7930694 C22.5288381,14.6108812 22.340797,14.4535964 22.1389853,14.4535964 L3.84914344,14.4535964 C3.66110239,14.4535964 3.47258648,14.6108812 3.47258648,14.7930694 L3.47258648,17.8845889 C3.47258648,18.1270695 3.27029989,18.3092577 3.00153413,18.3092577 L1.23841181,18.3092577 C0.969646053,18.3092577 0.75406363,18.1270695 0.75406363,17.8845889 L0.75406363,14.0166943 L0.75406363,13.6409584 L0.75406363,10.1610329 L4.17204223,1.66153882 C4.37385397,1.15211093 5.1279176,0.679382818 5.71958213,0.679382818 L5.71958213,0.679382818 Z M7.78074763,2.31220957 C7.20845666,2.31220957 6.69200862,2.62204979 6.48962753,3.08681012 L4.69394086,7.30908101 C4.62661251,7.47377086 4.79493338,7.66707208 4.99691843,7.66707208 L21.0036393,7.66707208 C21.2056243,7.66707208 21.3739452,7.47342194 21.2951314,7.30908101 L19.5105341,3.08681012 C19.308153,2.62204979 18.7921011,2.31220957 18.219414,2.31220957 L14.7397266,2.31220957 L11.3388528,2.31220957 L11.2600391,2.31220957 L7.78074763,2.31220957 L7.78074763,2.31220957 Z M7.88995748,3.20468665 L11.2979528,3.20468665 L11.3751515,3.20468665 L14.706336,3.20468665 L18.1147192,3.20468665 C18.3676518,3.20468665 18.7082574,3.38302127 18.7963183,3.54527655 L20.3907247,6.77459499 L5.60308983,6.77459499 L7.20797049,3.54527655 C7.29603138,3.38302127 7.63663694,3.20468665 7.88995748,3.20468665 L7.88995748,3.20468665 Z M4.64309457,9.44538723 C3.44599481,9.44538723 2.47634876,10.330551 2.47634876,11.4096992 C2.47634876,12.4766142 3.44551996,13.361778 4.64309457,13.361778 C5.82737334,13.361778 6.79654454,12.4770511 6.79654454,11.4096992 C6.79654454,10.330551 5.82737334,9.44538723 4.64309457,9.44538723 L4.64309457,9.44538723 Z M21.35833,9.44538723 C20.1740512,9.44538723 19.20488,10.330551 19.20488,11.4096992 C19.20488,12.4766142 20.1740512,13.361778 21.35833,13.361778 C22.5554297,13.361778 23.5250758,12.4770511 23.5250758,11.4096992 C23.5246009,10.330551 22.5554297,9.44538723 21.35833,9.44538723 L21.35833,9.44538723 Z M4.64309457,10.1483628 C5.41045403,10.1483628 6.04295577,10.7062868 6.04295577,11.4096992 C6.04295577,12.1131117 5.41045403,12.682832 4.64309457,12.682832 C3.86291412,12.682832 3.24370822,12.1126748 3.24370822,11.4096992 C3.24370822,10.7067237 3.86291412,10.1483628 4.64309457,10.1483628 L4.64309457,10.1483628 Z M21.35833,10.1483628 C22.1389853,10.1483628 22.7577163,10.7062868 22.7577163,11.4096992 C22.7577163,12.1131117 22.1385104,12.682832 21.35833,12.682832 C20.5771998,12.682832 19.9584688,12.1126748 19.9584688,11.4096992 C19.9584688,10.7067237 20.5771998,10.1483628 21.35833,10.1483628 L21.35833,10.1483628 Z" id="Shape"></path>
                </g>
            </g>
        </g>
    </g>
</svg>