<?xml version="1.0" encoding="UTF-8"?>
<svg width="53px" height="38px" viewBox="0 0 53 38" version="1.1" xmlns="http://www.w3.org/2000/svg" xmlns:xlink="http://www.w3.org/1999/xlink">
    <!-- Generator: Sketch 56.2 (81672) - https://sketch.com -->
    <title>partners</title>
    <desc>Created with Sketch.</desc>
    <g id="Page-1" stroke="none" stroke-width="1" fill="none" fill-rule="evenodd">
        <g id="partners" transform="translate(0.000000, 1.000000)" fill="#092438" fill-rule="nonzero" stroke="#092438" stroke-width="0.3">
            <path d="M36.0672962,7.26820863 L22.7215467,2.29929087 C21.4572125,1.83272583 20.0415905,1.92603884 18.8312877,2.55590165 L18.1612987,2.90582544 C17.2535716,3.38405461 16.1837504,3.45403937 15.2327982,3.08078733 L14.0873331,2.63755053 C14.0333017,2.60255815 13.9792703,2.56756578 13.9252389,2.54423752 L7.09567322,0.0364503943 C6.9335791,-0.0218702366 6.74987242,-0.0102061104 6.59858458,0.0714427729 C6.44729673,0.153091656 6.3284277,0.29306117 6.27439633,0.468023063 L0.53626437,18.5357545 C0.417395346,18.8973424 0.601102019,19.2939227 0.93609654,19.4222281 L7.77646854,21.9533435 C7.85211246,21.9883359 7.91695011,22 7.99259403,22 C8.08985051,22 8.18710698,21.9766717 8.27355718,21.9300152 C8.42484503,21.8483664 8.54371405,21.7083968 8.59774543,21.533435 L14.1197519,4.15388694 L14.8113535,4.42216184 C16.0864939,4.91205514 17.5237285,4.81874213 18.7448375,4.17721519 L19.4148266,3.8272914 C20.3117474,3.34906223 21.3707623,3.27907747 22.3109082,3.62900126 L35.1595691,8.41129299 C35.0623126,9.01782756 34.7921557,10.0209424 34.0897479,10.5458281 C33.4629839,11.0123931 32.5552568,11.0357214 31.4097917,10.6041487 L25.801335,8.53959838 C25.6284346,8.48127775 25.444728,8.49294188 25.2826338,8.58625489 C25.1205397,8.6795679 25.012477,8.84286566 24.9584456,9.02949168 C24.9476393,9.06448406 24.1155561,12.3770959 21.5220502,13.870104 C19.8794964,14.8265624 17.8479167,14.8615548 15.4813425,13.9867453 C15.146348,13.8584399 14.7789347,14.0567301 14.6600656,14.418318 C14.5411966,14.7799059 14.7249033,15.1764862 15.0598978,15.3047916 C16.324232,15.7713566 17.5237285,16.0046391 18.6367748,16.0046391 C19.9119152,16.0046391 21.0789929,15.7013719 22.1380078,15.0831732 C24.4505507,13.7417987 25.563597,11.2923322 25.9850417,10.079263 L30.9667344,11.922195 C32.5336443,12.5054013 33.819591,12.4237524 34.8137683,11.6889125 C36.413097,10.4991716 36.4887409,8.04970508 36.4995472,7.94472795 C36.5103534,7.64146067 36.3266468,7.36152164 36.0672962,7.26820863 Z M7.59276186,20.4020147 L1.97349893,18.3258003 L7.29018617,1.58777918 L12.7581613,3.60567301 C12.8013864,3.62900126 12.8446115,3.65232951 12.8878366,3.67565776 L12.9094491,3.68732189 L7.59276186,20.4020147 Z" id="Shape"></path>
            <path d="M52.4360343,17.0139802 L44.5015265,0.375694089 C44.4245991,0.216910172 44.2927236,0.0921513803 44.1278793,0.0354428386 C43.9630349,-0.0212657031 43.7762114,-0.0099239948 43.6223566,0.0694679636 L37.0175932,3.40393022 C36.6879045,3.57405584 36.5560291,3.97101563 36.7098838,4.31126688 L44.4026199,20.5299098 L41.8200585,22.9683771 C39.6331235,25.0439097 37.1604583,26.7791911 34.48998,28.1288544 L21.8409239,34.5142362 C21.489256,34.6957035 21.0936296,34.718387 20.7199824,34.5822865 C20.3463352,34.446186 20.0496154,34.173985 19.8737814,33.8110503 C19.6979474,33.4481156 19.6759682,33.0398141 19.8078437,32.654196 C19.9397191,32.268578 20.2034701,31.9623518 20.555138,31.7808845 L27.6214656,28.2082464 C27.9511543,28.0381207 28.0830298,27.6411609 27.929175,27.3009097 C27.7643307,26.9606584 27.3687043,26.8245579 27.0500052,26.9833419 L20.1375324,30.476588 L16.6538219,32.2345528 C15.9285068,32.5974875 15.0383473,32.2912614 14.6866794,31.5427086 C14.3350114,30.7941559 14.6317312,29.8868192 15.3570464,29.5125428 L25.511458,24.3860907 C25.8411467,24.215965 25.9730222,23.8190052 25.8191674,23.478754 C25.6543231,23.1385027 25.2586967,23.0024022 24.9399976,23.1611862 L17.4230955,26.9606584 L14.785586,28.2876383 L13.5437586,28.9114323 C12.8184435,29.274367 11.928284,28.9681408 11.5766161,28.2195881 C11.2249481,27.4710353 11.5216679,26.5523569 12.2469831,26.1894223 L13.4998001,25.5542866 L22.5882183,20.9608947 C22.917907,20.7907691 23.0497824,20.3938093 22.8959277,20.0535581 C22.7310834,19.7133068 22.3354569,19.5772063 22.0167579,19.7359902 L16.1812681,22.6848344 L12.9283397,24.3293821 C12.5766718,24.5108494 12.1810453,24.5335329 11.8073981,24.3974324 C11.433751,24.2613319 11.1370311,23.9891309 10.9611972,23.6261962 C10.7853632,23.2632615 10.763384,22.85496 10.8952594,22.4693419 C11.0271349,22.0837239 11.2908859,21.7774977 11.6425538,21.5960304 L16.4669983,19.1575631 C16.796687,18.9874375 16.9285624,18.5904777 16.7747077,18.2502264 C16.6098634,17.9099752 16.214237,17.7738747 15.8955379,17.9326586 L11.0710934,20.3711259 C10.4007264,20.7113772 9.89520375,21.301146 9.65343204,22.0270153 C9.41166034,22.7528847 9.45561883,23.5354625 9.78530752,24.2273067 C10.0380688,24.7717087 10.4556745,25.2026937 10.9611972,25.4862364 C10.1259858,26.3368645 9.8732245,27.6638444 10.411716,28.7980152 C10.8952594,29.818769 11.8843255,30.4085378 12.9173501,30.4085378 C13.0382359,30.4085378 13.1591218,30.3971961 13.2800076,30.3858544 C13.1920906,30.9529398 13.2580284,31.5540503 13.5217793,32.1211357 C14.0053227,33.1418895 14.9943888,33.7316583 16.0274134,33.7316583 C16.4340294,33.7316583 16.8516351,33.6409247 17.2472615,33.4367739 L18.4451304,32.8243217 C18.3901823,33.357382 18.4780993,33.8904422 18.719871,34.3781357 C19.0495597,35.0699799 19.6210201,35.5916985 20.3243559,35.8412161 C20.6210758,35.9432915 20.9287852,36 21.2364947,36 C21.6541003,36 22.071706,35.8979246 22.4563428,35.7051156 L35.1053988,29.3197338 C37.8967631,27.913362 40.4573452,26.0986886 42.7431868,23.9324223 L45.6114784,21.2104123 L52.1283248,17.9213169 C52.4580135,17.7511913 52.589889,17.3542315 52.4360343,17.0139802 Z M45.5125718,19.7813571 L38.1824933,4.32260859 L43.611367,1.58925688 L50.9304559,17.0480054 L45.5125718,19.7813571 Z" id="Shape"></path>
        </g>
    </g>
</svg>