<?xml version="1.0" encoding="UTF-8"?>
<svg width="43px" height="44px" viewBox="0 0 43 44" version="1.1" xmlns="http://www.w3.org/2000/svg" xmlns:xlink="http://www.w3.org/1999/xlink">
    <!-- Generator: sketchtool 56.2 (101010) - https://sketch.com -->
    <title>CFFA0BD5-C472-4D24-AEE5-8D3E1A8DA2A4</title>
    <desc>Created with sketchtool.</desc>
    <g id="Sell-ticket-with-us" stroke="none" stroke-width="1" fill="none" fill-rule="evenodd">
        <g id="Sell-Ticket-with-Us" transform="translate(-702.000000, -513.000000)" fill="#0098FF" fill-rule="nonzero">
            <g id="Group-10" transform="translate(702.000000, 505.000000)">
                <g id="Partners-icon" transform="translate(0.000000, 8.000000)">
                    <path d="M40.292065,7.29065555 L18.3579313,0.198970999 C16.2823649,-0.472071883 14.0278686,0.609656627 13.3318288,2.61006991 L13.0424772,3.44159295 C12.8995034,3.85238112 13.1291763,4.29721364 13.5554381,4.43503174 C13.9816999,4.57284984 14.4429606,4.35156155 14.5860407,3.94056829 L14.8753924,3.10904526 C15.2860165,1.92887525 16.615864,1.29074875 17.8402897,1.68666815 L39.7745297,8.77825015 C40.998849,9.17416955 41.660741,10.456165 41.2501169,11.6362325 L31.0448322,40.9656465 C30.9018584,41.3764346 31.1315313,41.8211646 31.5577931,41.9590853 C31.6436412,41.9867719 31.7308722,42 31.8167203,42 C32.1569213,42 32.4741444,41.7927601 32.5883957,41.4647244 L42.7936804,12.1354129 C43.4896138,10.1351021 42.367525,7.96159589 40.292065,7.29065555 Z" id="Path"></path>
                    <path d="M27.0395976,5 L3.96029632,5 C1.77660434,5 0,6.73488098 0,8.86741657 L0,40.1324798 C0,42.2650154 1.77660434,44 3.96029632,44 L27.0397037,44 C29.2233957,44 31,42.2650154 31,40.1324798 L31,8.86741657 C31,6.73488098 29.2233957,5 27.0395976,5 Z M29.3758943,40.1324798 C29.3758943,41.3905276 28.3277179,42.4139415 27.0395976,42.4139415 L3.96029632,42.4139415 C2.67206981,42.4139415 1.62410566,41.390424 1.62410566,40.1324798 L1.62410566,8.86741657 C1.62410566,7.60936877 2.67217593,6.58595481 3.96029632,6.58595481 L27.0397037,6.58595481 C28.3279302,6.58595481 29.3758943,7.60947241 29.3758943,8.86741657 L29.3758943,40.1324798 L29.3758943,40.1324798 Z" id="Shape"></path>
                    <path d="M27.205286,28 L3.79461011,28 C3.35576767,28 3,28.4477261 3,29 C3,29.5522739 3.35576767,30 3.79461011,30 L27.2053899,30 C27.6442323,30 28,29.5522739 28,29 C28,28.4477261 27.6441285,28 27.205286,28 Z" id="Path"></path>
                    <path d="M24.1656763,32 L13.8343237,32 C13.3735485,32 13,32.4477261 13,33 C13,33.5522739 13.3735485,34 13.8343237,34 L24.1656763,34 C24.6264515,34 25,33.5522739 25,33 C25,32.4477261 24.6264515,32 24.1656763,32 Z" id="Path"></path>
                    <path d="M11.2214558,32 L7.77854425,32 C7.34857457,32 7,32.4477261 7,33 C7,33.5522739 7.34857457,34 7.77854425,34 L11.2214558,34 C11.6514254,34 12,33.5522739 12,33 C12,32.4477261 11.6514254,32 11.2214558,32 Z" id="Path"></path>
                    <path d="M23.1869377,36 L6.81306227,36 C6.36402918,36 6,36.4477261 6,37 C6,37.5522739 6.36402918,38 6.81306227,38 L23.1869377,38 C23.6359708,38 24,37.5522739 24,37 C24,36.4475954 23.6359708,36 23.1869377,36 Z" id="Path"></path>
                    <path d="M23.9600854,14.4346597 C23.8641992,14.1429554 23.6091419,13.9303377 23.302093,13.8863188 L18.0706488,13.1349433 L15.7311322,8.44924567 C15.5936954,8.17418011 15.3104049,8 15.0000533,8 C14.6898082,8 14.4064112,8.17418011 14.2689743,8.44924567 L11.9293512,13.1349433 L6.69790698,13.8863188 C6.39085808,13.9303377 6.13569427,14.1429554 6.03991461,14.4346597 C5.94402842,14.726364 6.02404012,15.0465016 6.24617647,15.2605936 L10.0317634,18.907845 L9.13810408,24.058058 C9.08568629,24.3602932 9.21140375,24.6657929 9.46241249,24.8460809 C9.6044306,24.9480194 9.7726576,25 9.94163038,25 C10.0712898,25 10.2015885,24.9692917 10.3209135,24.9074757 L15.0000533,22.4757992 L19.679193,24.9074757 C19.9538537,25.0501685 20.2866853,25.0263688 20.537694,24.8460809 C20.7888093,24.6657929 20.9144202,24.3602932 20.8620025,24.058058 L19.9683431,18.907845 L23.7538235,15.2605936 C23.9759599,15.0465016 24.0559716,14.726364 23.9600854,14.4346597 Z M18.5234447,18.0495815 C18.3312462,18.2347136 18.2435636,18.5014598 18.2889497,18.7628353 L18.9758145,22.7212731 L15.3793364,20.8522594 C15.1417518,20.7289433 14.8580352,20.7289433 14.6206636,20.8522594 L11.0241855,22.7212731 L11.7110503,18.7628353 C11.7563299,18.5014598 11.6687538,18.2347136 11.4765553,18.0495815 L8.56704852,15.2462716 L12.5879828,14.668655 C12.853481,14.6305333 13.0829686,14.4657257 13.201761,14.227834 L14.9999467,10.6262864 L16.7981325,14.227834 C16.9168183,14.4656204 17.1464125,14.6305333 17.4119107,14.668655 L21.4329515,15.2462716 L18.5234447,18.0495815 Z" id="Shape"></path>
                </g>
            </g>
        </g>
    </g>
</svg>