<?xml version="1.0" encoding="UTF-8"?>
<svg width="26px" height="26px" viewBox="0 0 26 26" version="1.1" xmlns="http://www.w3.org/2000/svg" xmlns:xlink="http://www.w3.org/1999/xlink">
    <!-- Generator: sketchtool 56.2 (101010) - https://sketch.com -->
    <title>8E645502-8F4D-4065-84C2-46E6CF0D0F62</title>
    <desc>Created with sketchtool.</desc>
    <g id="New-Find-Agent" stroke="none" stroke-width="1" fill="none" fill-rule="evenodd">
        <g id="Find-agent-Search-Results-Hover" transform="translate(-455.000000, -728.000000)" fill="#343434" fill-rule="nonzero">
            <g id="Group-8" transform="translate(431.000000, 460.000000)">
                <g id="Group-29" transform="translate(24.000000, 264.000000)">
                    <g id="coin" transform="translate(0.000000, 4.000000)">
                        <path d="M22.1924219,3.80757813 C19.7370469,1.35220312 16.4724219,0 13,0 C9.52757812,0 6.26295312,1.35220312 3.80757813,3.80757813 C1.35225391,6.26295312 0,9.52757812 0,13 C0,16.4724219 1.35225391,19.7370469 3.80757813,22.1924219 C6.26295312,24.6477969 9.52757812,26 13,26 C16.4724219,26 19.7370469,24.6477969 22.1924219,22.1924219 C24.6477461,19.7370469 26,16.4724219 26,13 C26,9.52757812 24.6477461,6.26295312 22.1924219,3.80757813 Z M13,24.4765625 C6.67179297,24.4765625 1.5234375,19.328207 1.5234375,13 C1.5234375,6.67179297 6.67179297,1.5234375 13,1.5234375 C19.328207,1.5234375 24.4765625,6.67179297 24.4765625,13 C24.4765625,19.328207 19.328207,24.4765625 13,24.4765625 Z" id="Shape"></path>
                        <path d="M13.810789,12.2480702 L12.189211,12.2480702 C11.2653849,12.2480702 10.5138395,11.5015539 10.5138395,10.5839599 C10.5138395,9.66631579 11.2654354,8.9197995 12.189211,8.9197995 L15.4323165,8.9197995 C15.850352,8.9197995 16.1892615,8.58315789 16.1892615,8.1679198 C16.1892615,7.7526817 15.850352,7.4160401 15.4323165,7.4160401 L13.756945,7.4160401 L13.756945,5.7518797 C13.756945,5.3366416 13.4180355,5 13,5 C12.5819645,5 12.243055,5.3366416 12.243055,5.7518797 L12.243055,7.4160401 L12.1892615,7.4160401 C10.4306765,7.4160401 9,8.83719298 9,10.5839599 C9,12.3307268 10.4307269,13.7518296 12.1892615,13.7518296 L13.8108395,13.7518296 C14.7346151,13.7518296 15.4861605,14.498396 15.4861605,15.41599 C15.4861605,16.333584 14.7346151,17.0801504 13.8108395,17.0801504 L10.567734,17.0801504 C10.1496985,17.0801504 9.81078899,17.416792 9.81078899,17.8320301 C9.81078899,18.2472682 10.1496985,18.5839098 10.567734,18.5839098 L12.243055,18.5839098 L12.243055,20.2481203 C12.243055,20.6633584 12.5819645,21 13,21 C13.4180355,21 13.756945,20.6633584 13.756945,20.2481203 L13.756945,18.5839098 L13.810789,18.5839098 C15.5693235,18.5839098 17,17.1627569 17,15.41599 C17,13.6692231 15.5693235,12.2480702 13.810789,12.2480702 Z" id="Path"></path>
                    </g>
                </g>
            </g>
        </g>
    </g>
</svg>