<?xml version="1.0" encoding="UTF-8"?>
<svg width="21px" height="21px" viewBox="0 0 21 21" version="1.1" xmlns="http://www.w3.org/2000/svg" xmlns:xlink="http://www.w3.org/1999/xlink">
    <!-- Generator: Sketch 55.2 (78181) - https://sketchapp.com -->
    <title>coin</title>
    <desc>Created with Sketch.</desc>
    <g id="Detail-Page-Without-Package" stroke="none" stroke-width="1" fill="none" fill-rule="evenodd">
        <g id="Event-Detail-Page-V8.0---all-information---V1" transform="translate(-919.000000, -460.000000)" fill-rule="nonzero" stroke="#6A6A6A">
            <g id="Group-7" transform="translate(891.000000, 109.000000)">
                <g id="Group-29" transform="translate(29.000000, 350.000000)">
                    <g id="Group-36">
                        <g id="coin" transform="translate(0.000000, 2.000000)">
                            <path d="M9.5,18.7695312 C4.38875586,18.7695312 0.23046875,14.6112441 0.23046875,9.5 C0.23046875,4.38875586 4.38875586,0.23046875 9.5,0.23046875 C14.6112441,0.23046875 18.7695312,4.38875586 18.7695312,9.5 C18.7695312,14.6112441 14.6112441,18.7695312 9.5,18.7695312 Z" id="Path" stroke-width="1.8"></path>
                            <path d="M10.154868,8.89267206 L8.84513197,8.89267206 C8.09896473,8.89267206 7.49194727,8.2897166 7.49194727,7.548583 C7.49194727,6.80740891 8.09900549,6.20445344 8.84513197,6.20445344 L11.4645633,6.20445344 C11.8022074,6.20445344 12.075942,5.93255061 12.075942,5.59716599 C12.075942,5.26178138 11.8022074,4.98987854 11.4645633,4.98987854 L10.1113786,4.98987854 L10.1113786,3.64574899 C10.1113786,3.31036437 9.83764404,3.03846154 9.5,3.03846154 C9.16235596,3.03846154 8.88862137,3.31036437 8.88862137,3.64574899 L8.88862137,4.98987854 L8.84517273,4.98987854 C7.42477714,4.98987854 6.26923077,6.13773279 6.26923077,7.548583 C6.26923077,8.9594332 7.4248179,10.107247 8.84517273,10.107247 L10.1549088,10.107247 C10.9010353,10.107247 11.5080527,10.7102429 11.5080527,11.4513765 C11.5080527,12.1925101 10.9010353,12.7955061 10.1549088,12.7955061 L7.53547743,12.7955061 C7.19783339,12.7955061 6.9240988,13.0674089 6.9240988,13.4027935 C6.9240988,13.7381781 7.19783339,14.010081 7.53547743,14.010081 L8.88862137,14.010081 L8.88862137,15.354251 C8.88862137,15.6896356 9.16235596,15.9615385 9.5,15.9615385 C9.83764404,15.9615385 10.1113786,15.6896356 10.1113786,15.354251 L10.1113786,14.010081 L10.154868,14.010081 C11.5752229,14.010081 12.7307692,12.8622267 12.7307692,11.4513765 C12.7307692,10.0405263 11.5752229,8.89267206 10.154868,8.89267206 Z" id="Path" stroke-width="0.4" fill="#6A6A6A"></path>
                        </g>
                    </g>
                </g>
            </g>
        </g>
    </g>
</svg>