<?xml version="1.0" encoding="UTF-8"?>
<svg width="39px" height="63px" viewBox="0 0 39 63" version="1.1" xmlns="http://www.w3.org/2000/svg" xmlns:xlink="http://www.w3.org/1999/xlink">
    <!-- Generator: Sketch 55.2 (78181) - https://sketchapp.com -->
    <title>Group 42</title>
    <desc>Created with Sketch.</desc>
    <defs>
        <path d="M2.47282759,7.5021 C1.84937931,8.72893333 0.900689655,12.3754333 0.387310345,14.4664333 L0.387310345,14.4664333 C0.16137931,15.3762167 0.0176551724,15.9907667 0.0176551724,15.9907667 L0.0176551724,15.9907667 L1.38868966,16.79855 C1.38868966,16.79855 5.15696552,9.79455 5.22593103,9.01226667 L5.22593103,9.01226667 C5.25627586,8.64138333 7.45489655,8.22771667 9.84386207,7.43438333 L9.84386207,7.43438333 C12.4755862,6.56171667 15.3448276,5.22438333 15.8024828,2.96593333 L15.8024828,2.96593333 C15.8024828,2.96593333 14.6962759,0.13855 12.0342069,0.01955 L12.0342069,0.01955 C12.0074483,0.0181333333 11.9804138,0.0175666667 11.9528276,0.0175666667 L11.9528276,0.0175666667 C9.25158621,0.0184166667 3.35503448,5.76045 2.47282759,7.5021" id="path-1"></path>
        <linearGradient x1="0.000578643831%" y1="50.0000111%" x2="100.000527%" y2="50.0000111%" id="linearGradient-3">
            <stop stop-color="#1A95D1" offset="0%"></stop>
            <stop stop-color="#2A3890" offset="100%"></stop>
        </linearGradient>
        <path d="M9.78005926,4.58837656 C7.40657778,5.33363176 5.22220741,5.72222911 5.19205926,6.07063592 C5.12354074,6.80551078 1.37968889,13.3850495 1.37968889,13.3850495 L0.0175407407,12.62622 C0.0175407407,12.62622 0.160333333,12.0486473 0.3848,11.1942654 C1.26759259,11.9983425 4.01628148,5.95645217 3.96448148,5.59979433 C3.90939259,5.23754707 3.40262963,4.95009149 5.25262963,4.01346541 C7.10262963,3.07630699 8.57714815,0.00239546314 8.57714815,0.00239546314 L9.78005926,4.58837656 Z" id="path-4"></path>
        <linearGradient x1="0.00092953397%" y1="49.9993365%" x2="100.001259%" y2="49.9993365%" id="linearGradient-6">
            <stop stop-color="#1A95D1" offset="0%"></stop>
            <stop stop-color="#2A3890" offset="100%"></stop>
        </linearGradient>
        <path d="M3.84937931,1.13813333 C2.79558621,1.42613333 2.12248276,1.6584 2.12248276,1.6584 L2.12248276,1.6584 C-2.35751724,4.2664 1.90758621,8.70106667 1.90758621,8.70106667 L1.90758621,8.70106667 C1.90758621,8.70106667 6.43972414,7.88506667 7.59006897,6.00506667 L7.59006897,6.00506667 C8.50593103,4.5144 9.96524138,4.42613333 10.5252414,4.45306667 L10.5252414,4.45306667 C10.6714483,4.4608 10.7569655,4.4744 10.7569655,4.4744 L10.7569655,4.4744 C10.6742069,4.4688 10.5972414,4.4664 10.5197241,4.4664 L10.5197241,4.4664 C7.76662069,4.45013333 6.44524138,7.67146667 6.65517241,10.0048 L6.65517241,10.0048 C6.87310345,12.4048 5.36110345,19.3970667 5.36110345,19.3970667 L5.36110345,19.3970667 L7.30344828,19.8154667 C6.96937931,19.0317333 8.36827586,16.2821333 10.1089655,13.3274667 L10.1089655,13.3274667 C12.3155862,9.5808 15.0769655,5.50106667 15.5627586,4.68506667 L15.5627586,4.68506667 C16.425931,3.22346667 15.1845517,1.03173333 15.1845517,1.03173333 L15.1845517,1.03173333 C14.1296552,0.282933333 12.6030345,0.016 10.9624828,0.016 L10.9624828,0.016 C8.42013793,0.016 5.60496552,0.6568 3.84937931,1.13813333" id="path-7"></path>
        <linearGradient x1="88.284633%" y1="55.2450828%" x2="27.3955717%" y2="45.2311673%" id="linearGradient-9">
            <stop stop-color="#1A95D1" offset="0%"></stop>
            <stop stop-color="#2A3890" offset="100%"></stop>
        </linearGradient>
        <path d="M5.62192842,0.209810985 C5.07516026,1.66107042 3.19805021,7.17275315 5.18386752,9.52089251 C3.33026175,12.6255923 1.84038462,15.5148125 2.19588675,16.3383425 L0.127510684,15.8986968 C0.127510684,15.8986968 1.73784722,8.55137435 1.50574252,6.0295063" id="path-10"></path>
        <linearGradient x1="56.7046473%" y1="51.7180488%" x2="47.8750275%" y2="48.3632713%" id="linearGradient-12">
            <stop stop-color="#1A95D1" offset="0%"></stop>
            <stop stop-color="#2A3890" offset="100%"></stop>
        </linearGradient>
        <path d="M11.3419872,3.21622239 C11.3419872,3.21622239 11.2920406,3.33979392 11.2097756,3.55835582 C10.6136485,3.53005486 9.05942842,3.62252335 8.08370726,5.18888362 C6.85854701,7.16462713 2.03165064,8.02206227 2.03165064,8.02206227 C2.03165064,8.02206227 -2.51084402,3.36221053 2.2605235,0.621780578 C2.2605235,0.621780578 2.97769765,0.377719792 4.09973291,0.0750956264 C3.88525641,0.826332098 3.64433761,2.64179689 6.05352564,3.21622239" id="path-13"></path>
        <linearGradient x1="114.018834%" y1="57.9913556%" x2="18.1001255%" y2="49.2315167%" id="linearGradient-15">
            <stop stop-color="#1A95D1" offset="0%"></stop>
            <stop stop-color="#2A3890" offset="100%"></stop>
        </linearGradient>
        <path d="M4.4425,0.4576 C3.18611111,0.780533333 2.53583333,2.28453333 2.38111111,3.9712 L2.38111111,3.9712 C2.23638889,5.51786667 2.51,7.21946667 3.11388889,8.3048 L3.11388889,8.3048 C4.37805556,10.5757333 2.64416667,15.8416 2.64416667,15.8416 L2.64416667,15.8416 C-1.10222222,18.3178667 0.285833333,31.8272 0.285833333,31.8272 L0.285833333,31.8272 L1.92944444,31.2757333 C2.00416667,30.08 2.25694444,28.7744 2.61055556,27.4634667 L2.61055556,27.4634667 C3.90833333,22.6261333 6.56083333,17.6885333 6.56083333,17.6885333 L6.56083333,17.6885333 C8.5425,15.0845333 9.39888889,9.21973333 9.755,5.56533333 L9.755,5.56533333 C9.93333333,3.71306667 9.98194444,2.4272 9.98194444,2.4272 L9.98194444,2.4272 C9.96388889,1.73306667 9.78361111,1.22453333 9.48666667,0.856 L9.48666667,0.856 C8.98916667,0.2408 8.16694444,0.0258664192 7.23555556,0.0258664192 L7.23555556,0.0258664192 C6.34111111,0.0258664192 5.34611111,0.224266667 4.4425,0.4576" id="path-16"></path>
        <linearGradient x1="0.000683876677%" y1="49.9997658%" x2="100.001623%" y2="49.9997658%" id="linearGradient-18">
            <stop stop-color="#1A95D1" offset="0%"></stop>
            <stop stop-color="#2A3890" offset="100%"></stop>
        </linearGradient>
        <path d="M11.3077666,0.197416281 L9.90964053,5.16963878 C9.90964053,5.16963878 9.81022556,5.10454477 9.64435085,5.03411517 C8.95833262,4.74839512 7.11915562,4.37463808 6.31559703,8.11327561 C5.31815178,12.7570935 7.18012282,13.6070506 4.71864105,14.8507732 C2.25715928,16.0944957 0.325982245,25.3167706 1.79029339,26.4927314 C2.09128458,26.7360336 2.35410261,26.8712905 2.58094451,26.9414533 C2.23161897,28.2529376 1.9817084,29.5593532 1.90755912,30.7553224 L0.282591179,31.3070209 C0.282591179,31.3070209 -1.08971992,17.792009 2.61417438,15.3147014 C2.61417438,15.3147014 4.32812146,10.0466213 3.07856863,7.77473336 C2.48152954,6.68894381 2.21129657,4.98636178 2.35410261,3.43931176 L9.37906118,0.322802298 L9.50923437,0.264911307 L11.3077666,0.197416281 Z" id="path-19"></path>
        <linearGradient x1="55.5946291%" y1="51.9825074%" x2="46.0474307%" y2="48.5092681%" id="linearGradient-21">
            <stop stop-color="#1A95D1" offset="0%"></stop>
            <stop stop-color="#2A3890" offset="100%"></stop>
        </linearGradient>
        <path d="M1.78815686,1.26317204 C1.78815686,1.26317204 0.88227451,2.10456989 0.552862745,5.15564516 L0.552862745,5.15564516 C0.0175686275,10.15 5.656,13.8330645 5.22776471,15.7255376 L5.22776471,15.7255376 C4.79705882,17.6180108 1.11313725,21.3196237 0.338745098,23.2467742 L0.338745098,23.2467742 C-0.948705882,26.4540323 6.01560784,24.5451613 9.23560784,20.7577957 L9.23560784,20.7577957 C10.3720784,19.419086 11.1818824,18.5346774 11.7833333,17.9056452 L11.7833333,17.9056452 C12.8893333,16.7551075 13.3093333,16.4728495 13.8199216,15.883871 L13.8199216,15.883871 C14.5970588,14.9862903 9.24933333,7.17150538 9.51011765,4.12607527 L9.51011765,4.12607527 C9.51286275,4.08306452 9.51862745,4.04005376 9.52384314,3.99704301 L9.52384314,3.99704301 C9.82388235,1.93467742 6.51164706,0.183333333 4.07866667,0.183602151 L4.07866667,0.183602151 C3.03580392,0.183870968 2.15407843,0.505645161 1.78815686,1.26317204" id="path-22"></path>
        <linearGradient x1="32.7768374%" y1="79.2542975%" x2="55.0117607%" y2="25.9989254%" id="linearGradient-24">
            <stop stop-color="#1A95D1" offset="0%"></stop>
            <stop stop-color="#2A3890" offset="100%"></stop>
        </linearGradient>
        <path d="M11.4770902,13.7867524 C10.9607544,14.3777404 10.5360265,14.6610908 9.41757652,15.8160811 C8.9290007,15.2817632 7.51296363,13.6950008 6.33594006,11.9217668 C4.8868686,9.73888912 4.95904457,8.82407202 1.99177926,6.78125037 C-0.978817239,4.74112729 0.5424302,0.658182564 0.5424302,0.658182564 C1.43380347,-0.839796695 4.54847432,0.507062336 7.11877177,1.98318313" id="path-25"></path>
        <linearGradient x1="88.7790053%" y1="57.154512%" x2="31.8623813%" y2="46.7416631%" id="linearGradient-27">
            <stop stop-color="#1A95D1" offset="0%"></stop>
            <stop stop-color="#2A3890" offset="100%"></stop>
        </linearGradient>
        <path d="M12.5776184,3.4188 C12.3750789,3.6141 10.7536579,2.95773333 8.74207895,2.30183333 L8.74207895,2.30183333 C5.73603947,1.32113333 1.85739474,0.340666667 0.539644737,2.20126667 L0.539644737,2.20126667 C-0.0688026316,3.06086667 -0.181263158,4.6361 1.90934211,6.03633333 L1.90934211,6.03633333 C3.99939474,7.43633333 12.2170263,6.52306667 13.9467632,5.79273333 L13.9467632,5.79273333 C15.6770526,5.0624 20.7946974,1.34913333 20.7946974,1.34913333 L20.7946974,1.34913333 L20.1461842,0.131833333 C20.1461842,0.131833333 13.0821711,2.93206667 12.5776184,3.4188" id="path-28"></path>
        <linearGradient x1="-0.000246183169%" y1="50.000111%" x2="100.000526%" y2="50.000111%" id="linearGradient-30">
            <stop stop-color="#1A95D1" offset="0%"></stop>
            <stop stop-color="#2A3890" offset="100%"></stop>
        </linearGradient>
        <path d="M8.12616,4.78189861 L7.23296,5.29930523 C7.15456,5.33645238 7.07336,5.37094615 6.99496,5.40543993 C4.03256,6.71089666 1.51536,7.53344053 1.36976,7.23891675 C1.26336,7.023994 2.47604,6.26513094 4.30136,5.35767932 L4.29856,5.35502595 L2.93496,4.07875626 L0.12376,1.44661587 C0.55776,0.910635668 1.05896,0.456909855 1.59096,0.0721715914 C1.55176,0.512630568 1.74216,1.07514444 2.43376,1.74113964 C2.99376,2.27977321 3.63216,2.74941923 4.24844,3.14211759 C5.12176,3.70463147 5.95616,4.11325004 6.47416,4.344093 C6.58084,4.39450697 6.67604,4.43430748 6.75136,4.46614789 C6.84376,4.5059484 6.91376,4.53513544 6.95604,4.55105565 C6.99216,4.56432248 7.00896,4.57228259 7.00896,4.57228259 C7.00896,4.57228259 4.78016,5.46116064 5.05456,5.67343003 C5.07724,5.6920036 5.11616,5.70527044 5.17216,5.71323054" id="path-31"></path>
        <linearGradient x1="0.000592022393%" y1="50.0006044%" x2="100.000865%" y2="50.0006044%" id="linearGradient-33">
            <stop stop-color="#1A95D1" offset="0%"></stop>
            <stop stop-color="#2A3890" offset="100%"></stop>
        </linearGradient>
        <path d="M0.13916,5.25313664 L0.95312,2.71678281 C0.95312,2.71678281 0.85176,0.245436478 0.85176,0.115686816 L0.91168,0.100827959 L2.14956,3.52234513 C2.14956,3.52234513 1.72564,4.36266657 3.42636,5.30036658 L0.13916,5.25313664 Z" id="path-34"></path>
        <linearGradient x1="-0.00408006814%" y1="50.0007859%" x2="100.001978%" y2="50.0007859%" id="linearGradient-36">
            <stop stop-color="#1A95D1" offset="0%"></stop>
            <stop stop-color="#2A3890" offset="100%"></stop>
        </linearGradient>
        <polygon id="path-37" points="0.24875 1.404 0.38475 1.92371429 3.921 0.683714286 3.785 0.164285714"></polygon>
        <linearGradient x1="1.7839853%" y1="58.0038167%" x2="98.2186309%" y2="41.9966336%" id="linearGradient-39">
            <stop stop-color="#1A95D1" offset="0%"></stop>
            <stop stop-color="#2A3890" offset="100%"></stop>
        </linearGradient>
        <path d="M0.230740741,5.37107407 L1.52807407,2.93637037 C1.52807407,2.93637037 1.91696296,0.394592593 1.94262963,0.26237037 L2.00407407,0.258481481 L2.54022222,3.98507407 C2.54022222,3.98507407 1.95922222,4.76259259 3.43855556,6.04151852 L0.230740741,5.37107407 Z" id="path-40"></path>
        <linearGradient x1="39.4496331%" y1="43.3559078%" x2="70.309998%" y2="54.1186277%" id="linearGradient-42">
            <stop stop-color="#1A95D1" offset="0%"></stop>
            <stop stop-color="#2A3890" offset="100%"></stop>
        </linearGradient>
        <polygon id="path-43" points="0.102117647 0.4098 0.151294118 0.8118 3.87552941 0.4838 3.82635294 0.0816"></polygon>
        <linearGradient x1="0.653032363%" y1="50.8414219%" x2="99.3516755%" y2="49.1592702%" id="linearGradient-45">
            <stop stop-color="#1A95D1" offset="0%"></stop>
            <stop stop-color="#2A3890" offset="100%"></stop>
        </linearGradient>
    </defs>
    <g id="Home" stroke="none" stroke-width="1" fill="none" fill-rule="evenodd">
        <g id="Group-42">
            <g id="Group-39" transform="translate(1.000000, 0.000000)">
                <g id="Group-5" transform="translate(0.000000, 30.000000)" fill="#FFBB92">
                    <path d="M1.30045263,0.421281203 C1.30045263,0.421281203 3.02554286,1.6244391 2.51950526,2.81000301 L2.09358797,2.23833383 C2.09358797,2.23833383 1.45457293,3.1248 2.15479098,3.7646797 C2.15479098,3.7646797 1.43649023,4.18395789 0.675069173,3.28179248 C-0.0863518797,2.37989774 0.475324812,0.0656120301 0.475324812,0.0656120301 L1.30045263,0.421281203 Z" id="Fill-3"></path>
                </g>
                <g id="Group-8" transform="translate(1.000000, 14.000000)">
                    <mask id="mask-2" fill="white">
                        <use xlink:href="#path-1"></use>
                    </mask>
                    <g id="Clip-7"></g>
                    <path d="M2.47282759,7.5021 C1.84937931,8.72893333 0.900689655,12.3754333 0.387310345,14.4664333 L0.387310345,14.4664333 C0.16137931,15.3762167 0.0176551724,15.9907667 0.0176551724,15.9907667 L0.0176551724,15.9907667 L1.38868966,16.79855 C1.38868966,16.79855 5.15696552,9.79455 5.22593103,9.01226667 L5.22593103,9.01226667 C5.25627586,8.64138333 7.45489655,8.22771667 9.84386207,7.43438333 L9.84386207,7.43438333 C12.4755862,6.56171667 15.3448276,5.22438333 15.8024828,2.96593333 L15.8024828,2.96593333 C15.8024828,2.96593333 14.6962759,0.13855 12.0342069,0.01955 L12.0342069,0.01955 C12.0074483,0.0181333333 11.9804138,0.0175666667 11.9528276,0.0175666667 L11.9528276,0.0175666667 C9.25158621,0.0184166667 3.35503448,5.76045 2.47282759,7.5021" id="Fill-6" fill="url(#linearGradient-3)" mask="url(#mask-2)"></path>
                </g>
                <g id="Group-16" transform="translate(1.000000, 6.000000)">
                    <g id="Group-11" transform="translate(0.000000, 10.380340)">
                        <mask id="mask-5" fill="white">
                            <use xlink:href="#path-4"></use>
                        </mask>
                        <g id="Clip-10"></g>
                        <path d="M9.78005926,4.58837656 C7.40657778,5.33363176 5.22220741,5.72222911 5.19205926,6.07063592 C5.12354074,6.80551078 1.37968889,13.3850495 1.37968889,13.3850495 L0.0175407407,12.62622 C0.0175407407,12.62622 0.160333333,12.0486473 0.3848,11.1942654 C1.26759259,11.9983425 4.01628148,5.95645217 3.96448148,5.59979433 C3.90939259,5.23754707 3.40262963,4.95009149 5.25262963,4.01346541 C7.10262963,3.07630699 8.57714815,0.00239546314 8.57714815,0.00239546314 L9.78005926,4.58837656 Z" id="Fill-9" fill="url(#linearGradient-6)" mask="url(#mask-5)"></path>
                    </g>
                    <path d="M30.2182015,3.79821974 L36.8644978,14.0992436 C36.9184904,14.1830848 36.9031422,14.2871543 36.8294163,14.3318696 C36.7559644,14.376585 36.6529126,14.3449116 36.5983719,14.2610704 L29.9523496,3.96004658 L30.2182015,3.79821974 Z" id="Fill-12" fill="#1C1536"></path>
                    <path d="M30.26452,4.15692703 C30.3746978,4.09012023 30.3979941,3.93361664 30.3168681,3.80772174 L28.4487793,0.912405293 C28.0121793,0.235553875 27.175157,-0.0218253308 26.5823348,0.338824953 C25.9900607,0.699209074 25.8631644,1.54321059 26.2997644,2.21979584 L26.9315052,3.19874178 C27.0126311,3.32437051 27.167757,3.37201361 27.2779348,3.30520681 C27.3878385,3.23813384 27.4114089,3.08163025 27.330283,2.95600151 L26.6985422,1.97732174 C26.42392,1.55172779 26.5036756,1.02099962 26.8764163,0.794229112 C27.248883,0.567724764 27.7753793,0.729551607 28.0500015,1.1548794 L29.9180904,4.050462 C29.9992163,4.1763569 30.1546163,4.22373384 30.26452,4.15692703" id="Fill-14" fill="#A12C1D"></path>
                </g>
                <g id="Group-19" transform="translate(18.000000, 28.000000)">
                    <mask id="mask-8" fill="white">
                        <use xlink:href="#path-7"></use>
                    </mask>
                    <g id="Clip-18"></g>
                    <path d="M3.84937931,1.13813333 C2.79558621,1.42613333 2.12248276,1.6584 2.12248276,1.6584 L2.12248276,1.6584 C-2.35751724,4.2664 1.90758621,8.70106667 1.90758621,8.70106667 L1.90758621,8.70106667 C1.90758621,8.70106667 6.43972414,7.88506667 7.59006897,6.00506667 L7.59006897,6.00506667 C8.50593103,4.5144 9.96524138,4.42613333 10.5252414,4.45306667 L10.5252414,4.45306667 C10.6714483,4.4608 10.7569655,4.4744 10.7569655,4.4744 L10.7569655,4.4744 C10.6742069,4.4688 10.5972414,4.4664 10.5197241,4.4664 L10.5197241,4.4664 C7.76662069,4.45013333 6.44524138,7.67146667 6.65517241,10.0048 L6.65517241,10.0048 C6.87310345,12.4048 5.36110345,19.3970667 5.36110345,19.3970667 L5.36110345,19.3970667 L7.30344828,19.8154667 C6.96937931,19.0317333 8.36827586,16.2821333 10.1089655,13.3274667 L10.1089655,13.3274667 C12.3155862,9.5808 15.0769655,5.50106667 15.5627586,4.68506667 L15.5627586,4.68506667 C16.425931,3.22346667 15.1845517,1.03173333 15.1845517,1.03173333 L15.1845517,1.03173333 C14.1296552,0.282933333 12.6030345,0.016 10.9624828,0.016 L10.9624828,0.016 C8.42013793,0.016 5.60496552,0.6568 3.84937931,1.13813333" id="Fill-17" fill="url(#linearGradient-9)" mask="url(#mask-8)"></path>
                </g>
                <g id="Group-26" transform="translate(18.000000, 30.000000)">
                    <g id="Group-22" transform="translate(5.582265, 3.362491)">
                        <mask id="mask-11" fill="white">
                            <use xlink:href="#path-10"></use>
                        </mask>
                        <g id="Clip-21"></g>
                        <path d="M5.62192842,0.209810985 C5.07516026,1.66107042 3.19805021,7.17275315 5.18386752,9.52089251 C3.33026175,12.6255923 1.84038462,15.5148125 2.19588675,16.3383425 L0.127510684,15.8986968 C0.127510684,15.8986968 1.73784722,8.55137435 1.50574252,6.0295063 C1.28215812,3.57769014 2.6894765,0.192782802 5.62192842,0.209810985" id="Fill-20" fill="url(#linearGradient-12)" mask="url(#mask-11)"></path>
                    </g>
                    <g id="Group-25">
                        <mask id="mask-14" fill="white">
                            <use xlink:href="#path-13"></use>
                        </mask>
                        <g id="Clip-24"></g>
                        <path d="M11.3419872,3.21622239 C11.3419872,3.21622239 11.2920406,3.33979392 11.2097756,3.55835582 C10.6136485,3.53005486 9.05942842,3.62252335 8.08370726,5.18888362 C6.85854701,7.16462713 2.03165064,8.02206227 2.03165064,8.02206227 C2.03165064,8.02206227 -2.51084402,3.36221053 2.2605235,0.621780578 C2.2605235,0.621780578 2.97769765,0.377719792 4.09973291,0.0750956264 C3.88525641,0.826332098 3.64433761,2.64179689 6.05352564,3.21622239 C9.12112714,3.94784433 11.3419872,3.21622239 11.3419872,3.21622239" id="Fill-23" fill="url(#linearGradient-15)" mask="url(#mask-14)"></path>
                    </g>
                </g>
                <g id="Group-29" transform="translate(11.000000, 28.000000)">
                    <mask id="mask-17" fill="white">
                        <use xlink:href="#path-16"></use>
                    </mask>
                    <g id="Clip-28"></g>
                    <path d="M4.4425,0.4576 C3.18611111,0.780533333 2.53583333,2.28453333 2.38111111,3.9712 L2.38111111,3.9712 C2.23638889,5.51786667 2.51,7.21946667 3.11388889,8.3048 L3.11388889,8.3048 C4.37805556,10.5757333 2.64416667,15.8416 2.64416667,15.8416 L2.64416667,15.8416 C-1.10222222,18.3178667 0.285833333,31.8272 0.285833333,31.8272 L0.285833333,31.8272 L1.92944444,31.2757333 C2.00416667,30.08 2.25694444,28.7744 2.61055556,27.4634667 L2.61055556,27.4634667 C3.90833333,22.6261333 6.56083333,17.6885333 6.56083333,17.6885333 L6.56083333,17.6885333 C8.5425,15.0845333 9.39888889,9.21973333 9.755,5.56533333 L9.755,5.56533333 C9.93333333,3.71306667 9.98194444,2.4272 9.98194444,2.4272 L9.98194444,2.4272 C9.96388889,1.73306667 9.78361111,1.22453333 9.48666667,0.856 L9.48666667,0.856 C8.98916667,0.2408 8.16694444,0.0258664192 7.23555556,0.0258664192 L7.23555556,0.0258664192 C6.34111111,0.0258664192 5.34611111,0.224266667 4.4425,0.4576" id="Fill-27" fill="url(#linearGradient-18)" mask="url(#mask-17)"></path>
                </g>
                <g id="Group-35" transform="translate(0.000000, 27.000000)">
                    <g id="Group-32" transform="translate(10.985080, 1.067115)">
                        <mask id="mask-20" fill="white">
                            <use xlink:href="#path-19"></use>
                        </mask>
                        <g id="Clip-31"></g>
                        <path d="M11.3077666,0.197416281 L9.90964053,5.16963878 C9.90964053,5.16963878 9.81022556,5.10454477 9.64435085,5.03411517 C8.95833262,4.74839512 7.11915562,4.37463808 6.31559703,8.11327561 C5.31815178,12.7570935 7.18012282,13.6070506 4.71864105,14.8507732 C2.25715928,16.0944957 0.325982245,25.3167706 1.79029339,26.4927314 C2.09128458,26.7360336 2.35410261,26.8712905 2.58094451,26.9414533 C2.23161897,28.2529376 1.9817084,29.5593532 1.90755912,30.7553224 L0.282591179,31.3070209 C0.282591179,31.3070209 -1.08971992,17.792009 2.61417438,15.3147014 C2.61417438,15.3147014 4.32812146,10.0466213 3.07856863,7.77473336 C2.48152954,6.68894381 2.21129657,4.98636178 2.35410261,3.43931176 L9.37906118,0.322802298 L9.50923437,0.264911307 L11.3077666,0.197416281 Z" id="Fill-30" fill="url(#linearGradient-21)" mask="url(#mask-20)"></path>
                    </g>
                    <path d="M3.0406701,1.69545904 C3.0406701,1.69545904 1.8677382,1.4761669 1.22016774,1.64210329 L0.0648119711,0.137471094 L0.316644927,2.19486888 L1.63512914,2.7761798 L3.0406701,1.69545904 Z" id="Fill-33" fill="#1B96D1"></path>
                </g>
                <g id="Group-38" transform="translate(8.000000, 14.000000)">
                    <mask id="mask-23" fill="white">
                        <use xlink:href="#path-22"></use>
                    </mask>
                    <g id="Clip-37"></g>
                    <path d="M1.78815686,1.26317204 C1.78815686,1.26317204 0.88227451,2.10456989 0.552862745,5.15564516 L0.552862745,5.15564516 C0.0175686275,10.15 5.656,13.8330645 5.22776471,15.7255376 L5.22776471,15.7255376 C4.79705882,17.6180108 1.11313725,21.3196237 0.338745098,23.2467742 L0.338745098,23.2467742 C-0.948705882,26.4540323 6.01560784,24.5451613 9.23560784,20.7577957 L9.23560784,20.7577957 C10.3720784,19.419086 11.1818824,18.5346774 11.7833333,17.9056452 L11.7833333,17.9056452 C12.8893333,16.7551075 13.3093333,16.4728495 13.8199216,15.883871 L13.8199216,15.883871 C14.5970588,14.9862903 9.24933333,7.17150538 9.51011765,4.12607527 L9.51011765,4.12607527 C9.51286275,4.08306452 9.51862745,4.04005376 9.52384314,3.99704301 L9.52384314,3.99704301 C9.82388235,1.93467742 6.51164706,0.183333333 4.07866667,0.183602151 L4.07866667,0.183602151 C3.03580392,0.183870968 2.15407843,0.505645161 1.78815686,1.26317204" id="Fill-36" fill="url(#linearGradient-24)" mask="url(#mask-23)"></path>
                </g>
                <g id="Group-60" transform="translate(5.000000, 0.000000)">
                    <path d="M6.46821641,11.216683 C6.46821641,11.216683 6.35967485,13.0471268 5.88886543,13.0822083 C5.4183336,13.1172898 7.62691838,14.8773007 8.74953237,13.7158338 C9.87186876,12.5543669 8.71316678,11.3926302 8.71316678,11.3926302 L6.46821641,11.216683 Z" id="Fill-39" fill="#FFBB92"></path>
                    <path d="M6.46821641,5.62005333 C6.46821641,5.62005333 9.14761062,4.4232351 10.161683,7.94325698 C11.1754779,11.463009 11.2115659,11.3574947 11.2115659,11.3574947 C11.2115659,11.3574947 8.42363009,12.9062072 6.21476771,11.2870619 C4.00618292,9.66791658 4.15081247,6.67600593 6.46821641,5.62005333" id="Fill-41" fill="#FFBB92"></path>
                    <path d="M8.49600038,6.14802963 C8.49600038,6.14802963 7.08384971,7.62657915 6.86676659,8.57674758 C6.64940587,9.52718587 6.46813313,8.47123328 5.96123572,8.82312752 C5.45461591,9.17502177 6.03396689,10.1608114 6.54058671,10.4071913 C7.04748412,10.6535713 6.21468443,11.4631439 6.21468443,11.4631439 C6.21468443,11.4631439 4.15100679,10.37184 4.33200192,7.94312205 C4.51299705,5.5144041 7.73565426,4.88104843 8.49600038,6.14802963" id="Fill-43" fill="#543A67"></path>
                    <path d="M7.17090503,7.54845538 C7.09345466,7.58623544 7.01295069,7.62131692 6.93494512,7.6563984 C3.9979382,8.98409755 1.50231513,9.82065595 1.35824078,9.52111407 C1.25275282,9.30252946 2.45476037,8.53073687 4.26443411,7.60782405 C4.91401787,7.27589926 5.6441056,6.92778302 6.41860931,6.57696821 C7.12371305,6.2585363 7.8038328,5.96709014 8.43120857,5.71342405 C10.4188238,4.91194712 11.8845513,4.48287362 11.9928153,4.70955396 C12.1346688,5.00100011 9.99131999,6.2585363 7.17090503,7.54845538" id="Fill-45" fill="#1B96D1"></path>
                    <path d="M8.44234032,5.77012112 C7.88158853,6.2018932 7.36247672,6.53111941 6.89638649,6.78748408 C5.2640991,7.67261684 4.26723787,7.60785103 4.26723787,7.60785103 L4.26446187,7.60785103 L4.26168587,7.60515246 L2.90977437,6.30713764 L0.122671395,3.63015075 C0.552951236,3.0850385 1.04985505,2.62358209 1.57757246,2.23228864 C4.10622992,0.354080091 7.32916473,0.111208296 7.32916473,0.111208296 L8.03426847,3.69221798 L8.43123633,5.71345103 L8.44234032,5.77012112 Z" id="Fill-47" fill="#1B96D1"></path>
                    <path d="M6.70381545,8.86716827 C6.70381545,8.86716827 7.51857114,9.36883346 7.46388397,10.4774083 C7.40975199,11.5862529 6.94810336,11.7975514 7.49136636,12.1934324 C8.03435175,12.5893135 11.7278184,12.8006119 12.1347798,11.7446593 C12.1347798,11.7446593 11.5373849,12.00858 11.293097,11.0584116 C11.0485314,10.1079733 10.9943995,10.2663797 10.64157,10.4512321 C10.2881853,10.6358147 9.82681429,11.5071847 8.95764901,10.7151528 C8.08848373,9.92312087 6.89397138,7.81121568 6.75794743,8.25998879 C6.62220108,8.70876189 6.70381545,8.86716827 6.70381545,8.86716827" id="Fill-49" fill="#543A67"></path>
                    <path d="M9.22009196,7.96074375 C9.22009196,8.11645156 9.11904559,8.24220517 8.99412564,8.24220517 C8.86865049,8.24220517 8.76760412,8.11645156 8.76760412,7.96074375 C8.76760412,7.8053058 8.86865049,7.67928232 8.99412564,7.67928232 C9.11904559,7.67928232 9.22009196,7.8053058 9.22009196,7.96074375" id="Fill-51" fill="#543A67"></path>
                    <path d="M5.40012305,13.0645866 C5.40012305,13.0645866 8.38737554,13.9621328 9.20213124,13.275885 L9.5821655,14.3318376 C9.5821655,14.3318376 5.83456689,14.2789455 5.29130389,13.8566185 C4.74831849,13.4342914 5.40012305,13.0645866 5.40012305,13.0645866" id="Fill-53" fill="#1B96D1"></path>
                    <path d="M10.6867077,9.19275141 C10.6867077,9.19275141 10.5057126,8.89347938 9.87167444,9.50956417 C9.23819147,10.125649 8.84011322,10.1431897 8.67716208,10.0023241 C8.51421094,9.86145842 8.56834292,10.6885718 9.09356192,10.5830575 C9.61850333,10.4775432 10.433259,9.57999699 10.8496589,9.87899916 C11.2660587,10.1782712 11.1572396,9.35115779 10.6867077,9.19275141" id="Fill-55" fill="#543A67"></path>
                    <g id="Group-59" transform="translate(5.274398, 15.381880)">
                        <mask id="mask-26" fill="white">
                            <use xlink:href="#path-25"></use>
                        </mask>
                        <g id="Clip-58"></g>
                        <path d="M11.4770902,13.7867524 C10.9607544,14.3777404 10.5360265,14.6610908 9.41757652,15.8160811 C8.9290007,15.2817632 7.51296363,13.6950008 6.33594006,11.9217668 C4.8868686,9.73888912 4.95904457,8.82407202 1.99177926,6.78125037 C-0.978817239,4.74112729 0.5424302,0.658182564 0.5424302,0.658182564 C1.43380347,-0.839796695 4.54847432,0.507062336 7.11877177,1.98318313 C6.85505187,5.04039932 12.2629755,12.8854281 11.4770902,13.7867524" id="Fill-57" fill="url(#linearGradient-27)" mask="url(#mask-26)"></path>
                    </g>
                </g>
                <g id="Group-63" transform="translate(11.000000, 15.000000)">
                    <mask id="mask-29" fill="white">
                        <use xlink:href="#path-28"></use>
                    </mask>
                    <g id="Clip-62"></g>
                    <path d="M12.5776184,3.4188 C12.3750789,3.6141 10.7536579,2.95773333 8.74207895,2.30183333 L8.74207895,2.30183333 C5.73603947,1.32113333 1.85739474,0.340666667 0.539644737,2.20126667 L0.539644737,2.20126667 C-0.0688026316,3.06086667 -0.181263158,4.6361 1.90934211,6.03633333 L1.90934211,6.03633333 C3.99939474,7.43633333 12.2170263,6.52306667 13.9467632,5.79273333 L13.9467632,5.79273333 C15.6770526,5.0624 20.7946974,1.34913333 20.7946974,1.34913333 L20.7946974,1.34913333 L20.1461842,0.131833333 C20.1461842,0.131833333 13.0821711,2.93206667 12.5776184,3.4188" id="Fill-61" fill="url(#linearGradient-30)" mask="url(#mask-29)"></path>
                </g>
                <g id="Group-78" transform="translate(5.000000, 2.000000)">
                    <path d="M23.945124,11.3546079 C23.945124,11.3546079 24.778404,12.1959907 25.415124,12.4297523 L25.442564,14.2963963 L26.501804,12.4968825 L25.771004,11.2811096 L23.945124,11.3546079 Z" id="Fill-64" fill="#1B96D1"></path>
                    <path d="M25.71646,11.4152639 C25.71646,11.4152639 25.04082,9.49449126 26.17286,8.83698683 L26.17286,9.52898503 C26.17286,9.52898503 27.2321,9.18298593 27.04954,8.28322907 C27.04954,8.28322907 27.88954,8.35248196 27.96234,9.49449126 C28.03542,10.6365006 26.17286,12.1592681 26.17286,12.1592681 L25.71646,11.4152639 Z" id="Fill-66" fill="#FFBB92"></path>
                    <path d="M11.819808,59.7468274 L8.186248,59.6945561 L4.899048,59.6470608 L5.713008,57.110707 C5.713008,57.110707 5.611648,54.6393606 5.611648,54.5098763 L5.671568,54.4947521 L8.563408,53.7939978 L7.952168,57.5997226 L11.819808,59.7468274 Z" id="Fill-68" fill="#DB7700"></path>
                    <path d="M8.515332,3.5507627 C7.921732,3.91162065 7.314132,4.2167579 6.751332,4.46617443 C5.393612,5.07114218 4.304132,5.35770585 4.304132,5.35770585 L4.301332,5.35770585 L4.298532,5.35505248 L2.934932,4.0787828 C3.349612,3.72853831 3.794812,3.41544096 4.248412,3.14214413 C5.651212,2.29041321 7.146132,1.78096669 8.103732,1.50766985 L8.504132,3.49504198 L8.515332,3.5507627 Z" id="Fill-70" fill="#DB7700"></path>
                    <g id="Group-74">
                        <mask id="mask-32" fill="white">
                            <use xlink:href="#path-31"></use>
                        </mask>
                        <g id="Clip-73"></g>
                        <path d="M8.12616,4.78189861 L7.23296,5.29930523 C7.15456,5.33645238 7.07336,5.37094615 6.99496,5.40543993 C4.03256,6.71089666 1.51536,7.53344053 1.36976,7.23891675 C1.26336,7.023994 2.47604,6.26513094 4.30136,5.35767932 L4.29856,5.35502595 L2.93496,4.07875626 L0.12376,1.44661587 C0.55776,0.910635668 1.05896,0.456909855 1.59096,0.0721715914 C1.55176,0.512630568 1.74216,1.07514444 2.43376,1.74113964 C2.99376,2.27977321 3.63216,2.74941923 4.24844,3.14211759 C5.12176,3.70463147 5.95616,4.11325004 6.47416,4.344093 C6.58084,4.39450697 6.67604,4.43430748 6.75136,4.46614789 C6.84376,4.5059484 6.91376,4.53513544 6.95604,4.55105565 C6.99216,4.56432248 7.00896,4.57228259 7.00896,4.57228259 C7.00896,4.57228259 4.78016,5.46116064 5.05456,5.67343003 C5.07724,5.6920036 5.11616,5.70527044 5.17216,5.71323054 C5.91724,5.8140585 8.00296,4.84027269 8.12616,4.78189861" id="Fill-72" fill="url(#linearGradient-33)" mask="url(#mask-32)"></path>
                    </g>
                    <g id="Group-77" transform="translate(4.760000, 54.394030)">
                        <mask id="mask-35" fill="white">
                            <use xlink:href="#path-34"></use>
                        </mask>
                        <g id="Clip-76"></g>
                        <path d="M0.13916,5.25313664 L0.95312,2.71678281 C0.95312,2.71678281 0.85176,0.245436478 0.85176,0.115686816 L0.91168,0.100827959 L2.14956,3.52234513 C2.14956,3.52234513 1.72564,4.36266657 3.42636,5.30036658 L0.13916,5.25313664 Z" id="Fill-75" fill="url(#linearGradient-36)" mask="url(#mask-35)"></path>
                    </g>
                </g>
                <g id="Group-81" transform="translate(10.000000, 56.000000)">
                    <mask id="mask-38" fill="white">
                        <use xlink:href="#path-37"></use>
                    </mask>
                    <g id="Clip-80"></g>
                    <polygon id="Fill-79" fill="url(#linearGradient-39)" mask="url(#mask-38)" points="0.24875 1.404 0.38475 1.92371429 3.921 0.683714286 3.785 0.164285714"></polygon>
                </g>
                <g id="Group-87" transform="translate(22.000000, 45.000000)">
                    <path d="M6.98423704,6.78320741 L3.43860741,6.04172593 L0.230792593,5.37102222 L1.52812593,2.93631852 C1.52812593,2.93631852 1.91701481,0.394540741 1.94268148,0.262577778 L2.00412593,0.25842963 L4.9729037,0.0909481481 L3.6232,3.85928148 L6.98423704,6.78320741 Z" id="Fill-82" fill="#DB7700"></path>
                    <g id="Group-86">
                        <mask id="mask-41" fill="white">
                            <use xlink:href="#path-40"></use>
                        </mask>
                        <g id="Clip-85"></g>
                        <path d="M0.230740741,5.37107407 L1.52807407,2.93637037 C1.52807407,2.93637037 1.91696296,0.394592593 1.94262963,0.26237037 L2.00407407,0.258481481 L2.54022222,3.98507407 C2.54022222,3.98507407 1.95922222,4.76259259 3.43855556,6.04151852 L0.230740741,5.37107407 Z" id="Fill-84" fill="url(#linearGradient-42)" mask="url(#mask-41)"></path>
                    </g>
                </g>
                <g id="Group-90" transform="translate(23.000000, 44.000000)">
                    <mask id="mask-44" fill="white">
                        <use xlink:href="#path-43"></use>
                    </mask>
                    <g id="Clip-89"></g>
                    <polygon id="Fill-88" fill="url(#linearGradient-45)" mask="url(#mask-44)" points="0.102117647 0.4098 0.151294118 0.8118 3.87552941 0.4838 3.82635294 0.0816"></polygon>
                </g>
            </g>
            <path d="M36.2625018,60.1051331 C36.2625018,61.2676323 28.1450379,62.2099904 18.1311138,62.2099904 C8.11773807,62.2099904 -1.7408297e-13,61.2676323 -1.7408297e-13,60.1051331 C-1.7408297e-13,58.9423581 8.11773807,58 18.1311138,58 C28.1450379,58 36.2625018,58.9423581 36.2625018,60.1051331" id="Fill-94-Copy-2" fill="#0098FF" opacity="0.147437686"></path>
        </g>
    </g>
</svg>