<?xml version="1.0" encoding="UTF-8"?>
<svg width="48px" height="61px" viewBox="0 0 48 61" version="1.1" xmlns="http://www.w3.org/2000/svg" xmlns:xlink="http://www.w3.org/1999/xlink">
    <!-- Generator: Sketch 55.2 (78181) - https://sketchapp.com -->
    <title>Group 41</title>
    <desc>Created with Sketch.</desc>
    <defs>
        <path d="M9.12420833,6.0722093 C9.006375,6.67413953 0.340375,7.15755814 0.287875,10.5396744 L0.287875,10.5396744 C0.273,11.4756744 0.935375,12.74 3.0275,12.8808837 L3.0275,12.8808837 C5.11991667,13.0208605 10.33375,8.62686047 11.1787083,7.28695349 L11.1787083,7.28695349 C12.0239583,5.94704651 13.7955417,0.786651163 13.7955417,0.786651163 L13.7955417,0.786651163 L12.7787917,0.139069767 C12.7787917,0.139069767 9.24204167,5.46997674 9.12420833,6.0722093" id="path-1"></path>
        <linearGradient x1="2.37753031%" y1="86.0653308%" x2="107.29518%" y2="21.3175354%" id="linearGradient-3">
            <stop stop-color="#D45700" offset="0%"></stop>
            <stop stop-color="#FF8E9A" offset="100%"></stop>
        </linearGradient>
        <path d="M9.52219608,0.148282353 C8.38215686,0.167223529 7.54133333,1.17516471 7.08866667,2.40904706 L7.08866667,2.40904706 C6.67168627,3.53956471 6.58384314,4.86057647 6.89733333,5.78084706 L6.89733333,5.78084706 C7.5514902,7.70310588 5.06607843,11.3325059 5.06607843,11.3325059 L5.06607843,11.3325059 C1.38215686,12.5174118 0.0161960784,22.8674118 0.0161960784,22.8674118 L0.0161960784,22.8674118 L1.53066667,22.7461882 C1.82082353,21.8667765 2.2847451,20.9346 2.83596078,20.0178471 L2.83596078,20.0178471 C4.86623529,16.6303529 8.078,13.4095412 8.078,13.4095412 L8.078,13.4095412 C10.2713333,11.8149647 12.1174118,7.5808 13.1141569,4.91171765 L13.1141569,4.91171765 C13.6184314,3.55958824 13.9036471,2.60738824 13.9036471,2.60738824 L13.9036471,2.60738824 C14.0205882,2.08352941 13.9612941,1.67277647 13.776549,1.34401176 L13.776549,1.34401176 C13.2088627,0.344188235 11.4662745,0.145305882 9.87741176,0.145305882 L9.87741176,0.145305882 C9.758,0.145305882 9.63941176,0.146388235 9.52219608,0.148282353" id="path-4"></path>
        <linearGradient x1="45.4045521%" y1="49.9528625%" x2="58.9291273%" y2="52.6132232%" id="linearGradient-6">
            <stop stop-color="#1A95D1" offset="0%"></stop>
            <stop stop-color="#2A3890" offset="100%"></stop>
        </linearGradient>
        <path d="M13.1141569,3.84375309 C12.572549,3.50533333 11.0481961,2.89503704 9.64188235,5.55323457 C7.89764706,8.85866667 9.35309804,9.83155556 6.98215686,10.3201728 C4.60819608,10.8104198 1.1872549,17.3805432 2.23560784,18.5264444 C2.45137255,18.7635556 2.65286275,18.9115802 2.83596078,19.0063704 C2.2847451,19.9268395 1.82082353,20.8625185 1.53066667,21.7452346 L0.0161960784,21.8669136 C0.0161960784,21.8669136 1.38188235,11.4782963 5.06607843,10.2886667 C5.06607843,10.2886667 7.5514902,6.64590123 6.89733333,4.71614815 C6.58411765,3.79241975 6.67141176,2.46644444 7.08866667,1.33167901 L13.776549,0.26291358 C13.9615686,0.59237037 14.0205882,1.00493827 13.9033725,1.53076543" id="path-7"></path>
        <linearGradient x1="59.6853036%" y1="55.7688607%" x2="43.9916975%" y2="46.6826497%" id="linearGradient-9">
            <stop stop-color="#1A95D1" offset="0%"></stop>
            <stop stop-color="#2A3890" offset="100%"></stop>
        </linearGradient>
        <path d="M1.44363636,0.20925 L1.39931818,0.21 C1.37886364,0.29975 1.06068182,2.0325 1.06068182,2.0325 L1.06068182,2.0325 L0.0875,3.66075 L2.39727273,4.2295 L4.95,4.85775 L2.56204545,2.73675 L3.5925,0.19375 L1.44363636,0.20925 Z" id="path-10"></path>
        <linearGradient x1="0.000437952793%" y1="50.002723%" x2="99.9981402%" y2="50.002723%" id="linearGradient-12">
            <stop stop-color="#1A95D1" offset="0%"></stop>
            <stop stop-color="#2A3890" offset="100%"></stop>
        </linearGradient>
        <path d="M0.108589744,3.92439673 L1.31661538,2.17888038 C1.31661538,2.17888038 1.71120513,0.321337955 1.73630769,0.225124172 L1.79158974,0.224320157 L2.20564103,2.98745137 C2.20564103,2.98745137 1.67058974,3.53900559 2.97507692,4.53410803 L0.108589744,3.92439673 Z" id="path-13"></path>
        <linearGradient x1="35.0757201%" y1="41.0291431%" x2="79.2583391%" y2="55.5012232%" id="linearGradient-15">
            <stop stop-color="#1A95D1" offset="0%"></stop>
            <stop stop-color="#2A3890" offset="100%"></stop>
        </linearGradient>
        <path d="M0.629488889,1.9 C-0.235155556,2.58586667 -0.0655777778,3.8104 0.5876,4.96933333 L0.5876,4.96933333 C1.18386667,6.03253333 2.18948889,7.0392 3.17922222,7.51946667 L3.17922222,7.51946667 C5.24564444,8.52346667 6.27553333,12.6125333 6.27553333,12.6125333 L6.27553333,12.6125333 C4.39457778,15.6421333 11.7479556,23.9290667 11.7479556,23.9290667 L11.7479556,23.9290667 L12.8188667,22.9488 C12.3283333,22.1416 11.9290889,21.1941333 11.6098667,20.2061333 L11.6098667,20.2061333 C10.4251333,16.56 10.2876222,12.3378667 10.2876222,12.3378667 L10.2876222,12.3378667 C10.6854222,9.8912 8.67071111,5.74186667 7.27191111,3.2248 L7.27191111,3.2248 C6.56268889,1.9496 6.00917778,1.09306667 6.00917778,1.09306667 L6.00917778,1.09306667 C5.67406667,0.6456 5.29446667,0.3832 4.88482222,0.254666667 L4.88482222,0.254666667 C4.67768889,0.1904 4.46362222,0.161066667 4.24493333,0.161066667 L4.24493333,0.161066667 C3.04373333,0.161333333 1.70386667,1.0464 0.629488889,1.9" id="path-16"></path>
        <linearGradient x1="50.9138011%" y1="51.7114464%" x2="59.013117%" y2="41.6704179%" id="linearGradient-18">
            <stop stop-color="#1A95D1" offset="0%"></stop>
            <stop stop-color="#2A3890" offset="100%"></stop>
        </linearGradient>
        <path d="M7.39671739,3.2248 C6.71930435,3.30026667 5.08497826,3.75973333 6.12808696,6.50346667 C7.42780435,9.9128 9.29697826,9.75493333 7.89354348,11.5050667 C6.48897826,13.2584 9.10763043,20.0077333 10.8063913,20.2144 C11.1571087,20.2581333 11.4264348,20.2458667 11.640087,20.2061333 C11.9523696,21.1938667 12.3432174,22.1416 12.8228043,22.9485333 L11.7751739,23.9290667 C11.7751739,23.9290667 4.58165217,15.6421333 6.42143478,12.6128 C6.42143478,12.6128 5.41393478,8.52346667 3.39243478,7.51946667 C2.4245,7.03893333 0.482130435,5.37546667 0.0627391304,3.56586667 L5.06123913,0.254933333 C5.46197826,0.3832 5.83332609,0.6456 6.16115217,1.09306667" id="path-19"></path>
        <linearGradient x1="60.6816224%" y1="45.5987865%" x2="48.4047571%" y2="54.3365473%" id="linearGradient-21">
            <stop stop-color="#1A95D1" offset="0%"></stop>
            <stop stop-color="#2A3890" offset="100%"></stop>
        </linearGradient>
        <path d="M0.270407407,1.482 L0.233592593,1.51225 C0.287518519,1.592 1.38859259,3.075 1.38859259,3.075 L1.38859259,3.075 L1.85940741,4.9195 L4.24044444,3.79425 L6.87218519,2.55025 L3.20081481,2.589 L2.05644444,0.0355 L0.270407407,1.482 Z" id="path-22"></path>
        <linearGradient x1="0.000838084824%" y1="50.0020982%" x2="100.002771%" y2="50.0020982%" id="linearGradient-24">
            <stop stop-color="#1A95D1" offset="0%"></stop>
            <stop stop-color="#2A3890" offset="100%"></stop>
        </linearGradient>
        <path d="M1.68752941,3.91413333 L1.26047059,1.94693333 C1.26047059,1.94693333 0.260941176,0.3648 0.212,0.279733333 L0.245411765,0.247466667 L2.34470588,2.0264 C2.34470588,2.0264 2.38541176,2.73626667 3.84847059,2.71386667 L1.68752941,3.91413333 Z" id="path-25"></path>
        <linearGradient x1="18.0434574%" y1="54.9330793%" x2="74.3498809%" y2="17.9240553%" id="linearGradient-27">
            <stop stop-color="#1A95D1" offset="0%"></stop>
            <stop stop-color="#2A3890" offset="100%"></stop>
        </linearGradient>
        <path d="M1.58893333,0.733014493 C1.58893333,0.733014493 -0.596133333,1.67668116 0.450783333,4.29207246 L0.450783333,4.29207246 C2.00118333,8.16834783 2.69393333,8.50731884 2.29953333,10.237971 L2.29953333,10.237971 C2.1607,10.8426667 1.99863333,11.7469565 1.8139,12.7523043 L1.8139,12.7523043 C1.74051667,13.1507536 1.66486667,13.5657246 1.58383333,13.9862029 L1.58383333,13.9862029 C1.513,14.3573913 1.43961667,14.731058 1.36623333,15.0997681 L1.36623333,15.0997681 C1.27783333,15.5249275 1.18688333,15.9404493 1.0931,16.3383478 L1.0931,16.3383478 C0.9265,17.0366667 0.751683333,17.6708261 0.56695,18.1722609 L0.56695,18.1722609 C0.0867,19.4821594 5.68621667,18.9856812 8.88023333,18.3636377 L8.88023333,18.3636377 C9.86935,18.1722609 12.1377167,17.4494348 12.8712667,17.1126667 L12.8712667,17.1126667 C15.1147,16.0874928 16.32595,15.1193188 16.7962833,14.5807101 L16.7962833,14.5807101 C17.0368333,14.3056232 16.2602167,13.4751304 15.13,12.3860725 L15.13,12.3860725 C14.8869,12.1498116 14.6265167,11.9019855 14.3559333,11.6489275 L14.3559333,11.6489275 C14.0397333,11.3463043 13.7085167,11.0318406 13.3744667,10.7121449 L13.3744667,10.7121449 C13.1166333,10.4640435 12.8585167,10.2134638 12.6032333,9.95765217 L12.6032333,9.95765217 C10.8632833,8.227 9.26981667,6.39115942 9.37606667,5.15450725 L9.37606667,5.15450725 C9.37861667,5.1154058 9.34801667,4.26508696 9.3432,4.22571014 L9.3432,4.22571014 C8.85303333,1.15266667 6.29226667,0.21257971 4.13893333,0.21257971 L4.13893333,0.21257971 C3.10221667,0.21257971 2.16013333,0.430391304 1.58893333,0.733014493" id="path-28"></path>
        <linearGradient x1="20.5179803%" y1="87.0819846%" x2="57.2677856%" y2="32.4109374%" id="linearGradient-30">
            <stop stop-color="#D45700" offset="0%"></stop>
            <stop stop-color="#FF8E9A" offset="100%"></stop>
        </linearGradient>
        <path d="M9.51267797,1.54725 C7.9799322,2.26425 6.7319322,2.98125 6.55023729,2.84825 L6.55023729,2.84825 C6.11877966,2.5325 0.523932203,1.112 0.523932203,1.112 L0.523932203,1.112 L0.174372881,2.0825 C0.174372881,2.0825 4.41572881,4.36925 5.79064407,4.7505 L5.79064407,4.7505 C7.16583051,5.132 13.4126102,5.03425 14.8200678,3.79075 L14.8200678,3.79075 C16.2272542,2.5475 15.968,1.3815 15.4169492,0.79775 L15.4169492,0.79775 C15.0345763,0.39225 14.4878644,0.23 13.8508475,0.23 L13.8508475,0.23 C12.5684068,0.23025 10.9204068,0.88875 9.51267797,1.54725" id="path-31"></path>
        <linearGradient x1="99.9096565%" y1="48.2819073%" x2="1.4930297%" y2="52.0362683%" id="linearGradient-33">
            <stop stop-color="#D45700" offset="0%"></stop>
            <stop stop-color="#FF8E9A" offset="100%"></stop>
        </linearGradient>
        <path d="M0.195789474,2.4215 L0.992368421,2.31725 L0.808684211,2.8375 L1.54368421,2.49925 L1.63578947,3.3055 L2.21789474,2.96725 L2.27921053,3.4615 L2.83078947,3.14925 L3.25973684,3.7735 L3.68868421,3.22725 L3.995,3.66925 L4.14815789,3.17525 L4.63842105,3.53925 C4.63842105,3.53925 4.45447368,1.83625 4.91421053,0.90025 L4.91421053,0.90025 L2.67736842,0.211 C2.67736842,0.211 1.29894737,2.16125 0.195789474,2.4215" id="path-34"></path>
        <linearGradient x1="-0.00149191299%" y1="49.9993432%" x2="99.9992225%" y2="49.9993432%" id="linearGradient-36">
            <stop stop-color="#1D7E00" offset="0%"></stop>
            <stop stop-color="#FFB12A" offset="100%"></stop>
        </linearGradient>
        <path d="M1.403,0.610636364 L1.109,0.435545455 L1.17825,0.803454545 L0.73975,0.734181818 L0.8395,1.25127273 L0.45525,1.35763636 L0.65575,1.63445455 L0.246,1.74245455 L0.57625,2.19054545 L0.09975,2.37109091 L0.41925,2.54454545 L0.0235,2.87181818 C0.62475,2.47690909 2.12325,2.79790909 2.12325,2.79790909 L2.12325,2.79790909 L2.78325,1.38654545 C2.15225,1.13618182 1.44975,0.194454545 1.44975,0.194454545 L1.44975,0.194454545 L1.403,0.610636364 Z" id="path-37"></path>
        <linearGradient x1="7.14148927%" y1="104.624391%" x2="81.813946%" y2="25.5953672%" id="linearGradient-39">
            <stop stop-color="#1D7E00" offset="0%"></stop>
            <stop stop-color="#FFB12A" offset="100%"></stop>
        </linearGradient>
        <path d="M0.999692308,0.548454545 L0.856384615,0.213818182 L0.735923077,0.550363636 L0.483,0.256363636 C0.483,0.256363636 0.471461538,1.47054545 0.147461538,2.09481818 L0.147461538,2.09481818 L1.36753846,2.75127273 C1.36753846,2.75127273 2.28115385,1.48227273 2.92361538,1.383 L2.92361538,1.383 L2.46530769,1.39554545 L2.60492308,1.04318182 L2.16530769,1.22536364 L2.16807692,0.650454545 L1.81523077,0.844090909 L1.81407692,0.491181818 L1.48038462,0.669 L1.27984615,0.196636364 L0.999692308,0.548454545 Z" id="path-40"></path>
        <linearGradient x1="98.9523591%" y1="57.010075%" x2="2.67184954%" y2="45.0792467%" id="linearGradient-42">
            <stop stop-color="#1D7E00" offset="0%"></stop>
            <stop stop-color="#FFB12A" offset="100%"></stop>
        </linearGradient>
        <path d="M0.0623529412,0.908705882 C0.0623529412,0.908705882 0.617411765,2.99105882 0.103764706,3.78188235 L0.103764706,3.78188235 L0.536470588,3.26705882 L0.801882353,3.71952941 L1.02329412,3.08141176 L1.67552941,3.57247059 L1.79858824,3.02 L2.20188235,3.31835294 L2.32470588,2.80047059 L3.05835294,2.98094118 L2.93058824,2.37388235 L3.452,2.50023529 L3.18611765,2.08211765 L3.76776471,2.05364706 C3.76776471,2.05364706 2.39576471,1.00988235 1.99976471,0.123529412 L1.99976471,0.123529412 L0.0623529412,0.908705882 Z" id="path-43"></path>
        <linearGradient x1="0.00358140716%" y1="49.9992874%" x2="99.9953162%" y2="49.9992874%" id="linearGradient-45">
            <stop stop-color="#1D7E00" offset="0%"></stop>
            <stop stop-color="#FFB12A" offset="100%"></stop>
        </linearGradient>
        <path d="M6.95937255,2.34844444 C4.25435294,2.86022222 1.77690196,2.886 0.500156863,2.85244444 L0.500156863,2.85244444 C0.414509804,3.19555556 0.326392157,3.53088889 0.235529412,3.852 L0.235529412,3.852 C2.01435294,3.87977778 6.09686275,3.79044444 9.49062745,2.59644444 L9.49062745,2.59644444 C11.4827451,1.89222222 12.8893333,1.20577778 13.8352941,0.662444444 L13.8352941,0.662444444 C13.5997647,0.471777778 13.3474902,0.271777778 13.0853333,0.0675555556 L13.0853333,0.0675555556 C11.548902,0.848888889 9.14996078,1.934 6.95937255,2.34844444" id="path-46"></path>
        <linearGradient x1="0.000727261717%" y1="49.9989679%" x2="99.9981242%" y2="49.9989679%" id="linearGradient-48">
            <stop stop-color="#C3268E" offset="0%"></stop>
            <stop stop-color="#662D90" offset="100%"></stop>
        </linearGradient>
        <path d="M6.73883721,2.19493333 C4.13460465,2.76133333 1.73565116,2.79226667 0.423860465,2.7496 L0.423860465,2.7496 C0.34555814,3.13546667 0.264837209,3.53733333 0.178372093,3.94453333 L0.178372093,3.94453333 C1.99444186,3.98533333 5.95883721,3.8896 9.27534884,2.51386667 L9.27534884,2.51386667 C10.7410233,1.90453333 11.8823023,1.30453333 12.7593488,0.773866667 L12.7593488,0.773866667 C12.4842326,0.5336 12.208814,0.290933333 11.9364186,0.0432 L11.9364186,0.0432 C10.4574419,0.873866667 8.5304186,1.80453333 6.73883721,2.19493333" id="path-49"></path>
        <linearGradient x1="0.000119430961%" y1="49.9988605%" x2="100.000583%" y2="49.9988605%" id="linearGradient-51">
            <stop stop-color="#C3268E" offset="0%"></stop>
            <stop stop-color="#662D90" offset="100%"></stop>
        </linearGradient>
        <path d="M7.86306667,3.6785 C3.54166667,4.43525 0.5151,4.10775 0.5151,4.10775 L0.5151,4.10775 L0.242816667,4.901 C0.242816667,4.901 -0.227233333,6.53825 1.43055,6.80025 L1.43055,6.80025 C3.08805,7.06225 3.26116667,5.46875 3.26116667,5.46875 L3.26116667,5.46875 C3.26116667,5.46875 3.70656667,7.106 5.24053333,6.93125 L5.24053333,6.93125 C6.7745,6.7565 6.74985,5.18475 6.74985,5.18475 L6.74985,5.18475 C6.74985,5.18475 6.82408333,6.58175 8.30846667,6.451 L8.30846667,6.451 C9.79285,6.32 9.5948,4.72625 9.5948,4.72625 L9.5948,4.72625 C9.5948,4.72625 9.94131667,6.07975 11.40105,5.774 L11.40105,5.774 C12.8576667,5.4695 12.393,3.882 12.3910167,3.875 L12.3910167,3.875 C12.3932833,3.8825 12.7417833,4.965 14.0978167,4.52975 L14.0978167,4.52975 C15.4586667,4.09325 14.5928,2.8055 14.5928,2.8055 L14.5928,2.8055 C14.5928,2.8055 15.5578333,3.76575 16.3987667,2.97975 L16.3987667,2.97975 C17.2399833,2.19425 16.8688167,1.51725 16.3741167,1.037 L16.3741167,1.037 L15.5907,0.2075 C15.5907,0.2075 12.18475,2.9215 7.86306667,3.6785" id="path-52"></path>
        <linearGradient x1="-0.695262729%" y1="52.1763545%" x2="100.681014%" y2="48.5884531%" id="linearGradient-54">
            <stop stop-color="#C3268E" offset="0%"></stop>
            <stop stop-color="#662D90" offset="100%"></stop>
        </linearGradient>
        <path d="M6.88011321,4.68978495 L6.07440566,5.11182796 C6.00409434,5.14139785 5.93159434,5.16827957 5.8615566,5.19569892 C3.21161321,6.225 0.975603774,6.84086022 0.864528302,6.56747312 C0.783820755,6.36827957 1.88034906,5.74435484 3.51884906,5.01693548 L3.51638679,5.01424731 L2.39824528,3.79354839 L0.0930188679,1.27580645 C0.499839623,0.813709677 0.960556604,0.429301075 1.44480189,0.108870968 C1.38680189,0.504569892 1.52222642,1.02204301 2.08827358,1.65806452 C2.54680189,2.17231183 3.07728302,2.62849462 3.59216981,3.01424731 C4.32236792,3.56586022 5.02684906,3.97688172 5.46540566,4.21129032 C5.55514151,4.26209677 5.63612264,4.30295699 5.70014151,4.33548387 C5.77838679,4.37607527 5.83775472,4.40564516 5.87359434,4.42231183 C5.90450943,4.43629032 5.91873585,4.44408602 5.91873585,4.44408602 C5.91873585,4.44408602 3.93004717,5.1344086 4.15766981,5.33978495 C4.176,5.3577957 4.20937736,5.37177419 4.25780189,5.38172043" id="path-55"></path>
        <linearGradient x1="-1.7846098%" y1="48.9569137%" x2="100.872787%" y2="54.6621621%" id="linearGradient-57">
            <stop stop-color="#1A95D1" offset="0%"></stop>
            <stop stop-color="#2A3890" offset="100%"></stop>
        </linearGradient>
        <polygon id="path-58" points="0 0.01465609 5.08376164 0.01465609 5.08376164 6.82658566 0 6.82658566"></polygon>
    </defs>
    <g id="Home" stroke="none" stroke-width="1" fill="none" fill-rule="evenodd">
        <g id="Group-41">
            <g id="Group-36">
                <g id="Group-364" transform="translate(22.000000, 9.000000)" fill="#DDDDDD">
                    <path d="M2.52185455,0.432576596 C2.52185455,0.432576596 4.69194545,3.78768298 4.30058182,5.15876809 C3.90921818,6.5295766 0.760854545,0.955619149 0.760854545,0.955619149 C0.760854545,0.955619149 2.20167273,0.324151064 2.52185455,0.432576596" id="Fill-362"></path>
                </g>
                <g id="Group-367" transform="translate(24.000000, 11.000000)">
                    <mask id="mask-2" fill="white">
                        <use xlink:href="#path-1"></use>
                    </mask>
                    <g id="Clip-366"></g>
                    <path d="M9.12420833,6.0722093 C9.006375,6.67413953 0.340375,7.15755814 0.287875,10.5396744 L0.287875,10.5396744 C0.273,11.4756744 0.935375,12.74 3.0275,12.8808837 L3.0275,12.8808837 C5.11991667,13.0208605 10.33375,8.62686047 11.1787083,7.28695349 L11.1787083,7.28695349 C12.0239583,5.94704651 13.7955417,0.786651163 13.7955417,0.786651163 L13.7955417,0.786651163 L12.7787917,0.139069767 C12.7787917,0.139069767 9.24204167,5.46997674 9.12420833,6.0722093" id="Fill-365" fill="url(#linearGradient-3)" mask="url(#mask-2)"></path>
                </g>
                <path d="M36.5206155,11.5394129 C36.5206155,11.5394129 35.5125082,10.2581802 36.3019313,9.56977339 L36.4628397,10.0760144 C36.4628397,10.0760144 37.263602,9.62892105 36.902908,9.00415985 C36.902908,9.00415985 37.6178164,8.90093257 37.9436829,9.72292759 C38.2698194,10.5449226 37.0729957,12 37.0729957,12 L36.5206155,11.5394129 Z" id="Fill-368" fill="#FFBB92"></path>
                <g id="Group-372" transform="translate(16.000000, 31.000000)">
                    <mask id="mask-5" fill="white">
                        <use xlink:href="#path-4"></use>
                    </mask>
                    <g id="Clip-371"></g>
                    <path d="M9.52219608,0.148282353 C8.38215686,0.167223529 7.54133333,1.17516471 7.08866667,2.40904706 L7.08866667,2.40904706 C6.67168627,3.53956471 6.58384314,4.86057647 6.89733333,5.78084706 L6.89733333,5.78084706 C7.5514902,7.70310588 5.06607843,11.3325059 5.06607843,11.3325059 L5.06607843,11.3325059 C1.38215686,12.5174118 0.0161960784,22.8674118 0.0161960784,22.8674118 L0.0161960784,22.8674118 L1.53066667,22.7461882 C1.82082353,21.8667765 2.2847451,20.9346 2.83596078,20.0178471 L2.83596078,20.0178471 C4.86623529,16.6303529 8.078,13.4095412 8.078,13.4095412 L8.078,13.4095412 C10.2713333,11.8149647 12.1174118,7.5808 13.1141569,4.91171765 L13.1141569,4.91171765 C13.6184314,3.55958824 13.9036471,2.60738824 13.9036471,2.60738824 L13.9036471,2.60738824 C14.0205882,2.08352941 13.9612941,1.67277647 13.776549,1.34401176 L13.776549,1.34401176 C13.2088627,0.344188235 11.4662745,0.145305882 9.87741176,0.145305882 L9.87741176,0.145305882 C9.758,0.145305882 9.63941176,0.146388235 9.52219608,0.148282353" id="Fill-370" fill="url(#linearGradient-6)" mask="url(#mask-5)"></path>
                </g>
                <g id="Group-375" transform="translate(16.000000, 32.000000)">
                    <mask id="mask-8" fill="white">
                        <use xlink:href="#path-7"></use>
                    </mask>
                    <g id="Clip-374"></g>
                    <path d="M13.1141569,3.84375309 C12.572549,3.50533333 11.0481961,2.89503704 9.64188235,5.55323457 C7.89764706,8.85866667 9.35309804,9.83155556 6.98215686,10.3201728 C4.60819608,10.8104198 1.1872549,17.3805432 2.23560784,18.5264444 C2.45137255,18.7635556 2.65286275,18.9115802 2.83596078,19.0063704 C2.2847451,19.9268395 1.82082353,20.8625185 1.53066667,21.7452346 L0.0161960784,21.8669136 C0.0161960784,21.8669136 1.38188235,11.4782963 5.06607843,10.2886667 C5.06607843,10.2886667 7.5514902,6.64590123 6.89733333,4.71614815 C6.58411765,3.79241975 6.67141176,2.46644444 7.08866667,1.33167901 L13.776549,0.26291358 C13.9615686,0.59237037 14.0205882,1.00493827 13.9033725,1.53076543 C13.9033725,1.53076543 13.6184314,2.48654321 13.1141569,3.84375309" id="Fill-373" fill="url(#linearGradient-9)" mask="url(#mask-8)"></path>
                </g>
                <g id="Group-378" transform="translate(16.000000, 52.000000)">
                    <mask id="mask-11" fill="white">
                        <use xlink:href="#path-10"></use>
                    </mask>
                    <g id="Clip-377"></g>
                    <path d="M1.44363636,0.20925 L1.39931818,0.21 C1.37886364,0.29975 1.06068182,2.0325 1.06068182,2.0325 L1.06068182,2.0325 L0.0875,3.66075 L2.39727273,4.2295 L4.95,4.85775 L2.56204545,2.73675 L3.5925,0.19375 L1.44363636,0.20925 Z" id="Fill-376" fill="url(#linearGradient-12)" mask="url(#mask-11)"></path>
                </g>
                <g id="Group-384" transform="translate(15.000000, 15.000000)">
                    <g id="Group-381" transform="translate(0.000000, 35.912666)">
                        <mask id="mask-14" fill="white">
                            <use xlink:href="#path-13"></use>
                        </mask>
                        <g id="Clip-380"></g>
                        <path d="M0.108589744,3.92439673 L1.31661538,2.17888038 C1.31661538,2.17888038 1.71120513,0.321337955 1.73630769,0.225124172 L1.79158974,0.224320157 L2.20564103,2.98745137 C2.20564103,2.98745137 1.67058974,3.53900559 2.97507692,4.53410803 L0.108589744,3.92439673 Z" id="Fill-379" fill="url(#linearGradient-15)" mask="url(#mask-14)"></path>
                    </g>
                    <path d="M7.5229,0.674139694 C7.5229,0.674139694 8.16851538,2.65818046 7.74261795,2.84819599 C7.31643846,3.03821151 10.1016949,4.19706498 10.6776436,2.59653932 C11.2538744,0.996013659 9.69525897,0.13437769 9.69525897,0.13437769 L7.5229,0.674139694 Z" id="Fill-382" fill="#BF6D49"></path>
                </g>
                <g id="Group-387" transform="translate(26.000000, 31.000000)">
                    <mask id="mask-17" fill="white">
                        <use xlink:href="#path-16"></use>
                    </mask>
                    <g id="Clip-386"></g>
                    <path d="M0.629488889,1.9 C-0.235155556,2.58586667 -0.0655777778,3.8104 0.5876,4.96933333 L0.5876,4.96933333 C1.18386667,6.03253333 2.18948889,7.0392 3.17922222,7.51946667 L3.17922222,7.51946667 C5.24564444,8.52346667 6.27553333,12.6125333 6.27553333,12.6125333 L6.27553333,12.6125333 C4.39457778,15.6421333 11.7479556,23.9290667 11.7479556,23.9290667 L11.7479556,23.9290667 L12.8188667,22.9488 C12.3283333,22.1416 11.9290889,21.1941333 11.6098667,20.2061333 L11.6098667,20.2061333 C10.4251333,16.56 10.2876222,12.3378667 10.2876222,12.3378667 L10.2876222,12.3378667 C10.6854222,9.8912 8.67071111,5.74186667 7.27191111,3.2248 L7.27191111,3.2248 C6.56268889,1.9496 6.00917778,1.09306667 6.00917778,1.09306667 L6.00917778,1.09306667 C5.67406667,0.6456 5.29446667,0.3832 4.88482222,0.254666667 L4.88482222,0.254666667 C4.67768889,0.1904 4.46362222,0.161066667 4.24493333,0.161066667 L4.24493333,0.161066667 C3.04373333,0.161333333 1.70386667,1.0464 0.629488889,1.9" id="Fill-385" fill="url(#linearGradient-18)" mask="url(#mask-17)"></path>
                </g>
                <g id="Group-390" transform="translate(26.000000, 31.000000)">
                    <mask id="mask-20" fill="white">
                        <use xlink:href="#path-19"></use>
                    </mask>
                    <g id="Clip-389"></g>
                    <path d="M7.39671739,3.2248 C6.71930435,3.30026667 5.08497826,3.75973333 6.12808696,6.50346667 C7.42780435,9.9128 9.29697826,9.75493333 7.89354348,11.5050667 C6.48897826,13.2584 9.10763043,20.0077333 10.8063913,20.2144 C11.1571087,20.2581333 11.4264348,20.2458667 11.640087,20.2061333 C11.9523696,21.1938667 12.3432174,22.1416 12.8228043,22.9485333 L11.7751739,23.9290667 C11.7751739,23.9290667 4.58165217,15.6421333 6.42143478,12.6128 C6.42143478,12.6128 5.41393478,8.52346667 3.39243478,7.51946667 C2.4245,7.03893333 0.482130435,5.37546667 0.0627391304,3.56586667 L5.06123913,0.254933333 C5.46197826,0.3832 5.83332609,0.6456 6.16115217,1.09306667 C6.16115217,1.09306667 6.70263043,1.9496 7.39671739,3.2248" id="Fill-388" fill="url(#linearGradient-21)" mask="url(#mask-20)"></path>
                </g>
                <g id="Group-393" transform="translate(36.000000, 52.000000)">
                    <mask id="mask-23" fill="white">
                        <use xlink:href="#path-22"></use>
                    </mask>
                    <g id="Clip-392"></g>
                    <path d="M0.270407407,1.482 L0.233592593,1.51225 C0.287518519,1.592 1.38859259,3.075 1.38859259,3.075 L1.38859259,3.075 L1.85940741,4.9195 L4.24044444,3.79425 L6.87218519,2.55025 L3.20081481,2.589 L2.05644444,0.0355 L0.270407407,1.482 Z" id="Fill-391" fill="url(#linearGradient-24)" mask="url(#mask-23)"></path>
                </g>
                <g id="Group-396" transform="translate(36.000000, 53.000000)">
                    <mask id="mask-26" fill="white">
                        <use xlink:href="#path-25"></use>
                    </mask>
                    <g id="Clip-395"></g>
                    <path d="M1.68752941,3.91413333 L1.26047059,1.94693333 C1.26047059,1.94693333 0.260941176,0.3648 0.212,0.279733333 L0.245411765,0.247466667 L2.34470588,2.0264 C2.34470588,2.0264 2.38541176,2.73626667 3.84847059,2.71386667 L1.68752941,3.91413333 Z" id="Fill-394" fill="url(#linearGradient-27)" mask="url(#mask-26)"></path>
                </g>
                <g id="Group-399" transform="translate(20.000000, 17.000000)">
                    <mask id="mask-29" fill="white">
                        <use xlink:href="#path-28"></use>
                    </mask>
                    <g id="Clip-398"></g>
                    <path d="M1.58893333,0.733014493 C1.58893333,0.733014493 -0.596133333,1.67668116 0.450783333,4.29207246 L0.450783333,4.29207246 C2.00118333,8.16834783 2.69393333,8.50731884 2.29953333,10.237971 L2.29953333,10.237971 C2.1607,10.8426667 1.99863333,11.7469565 1.8139,12.7523043 L1.8139,12.7523043 C1.74051667,13.1507536 1.66486667,13.5657246 1.58383333,13.9862029 L1.58383333,13.9862029 C1.513,14.3573913 1.43961667,14.731058 1.36623333,15.0997681 L1.36623333,15.0997681 C1.27783333,15.5249275 1.18688333,15.9404493 1.0931,16.3383478 L1.0931,16.3383478 C0.9265,17.0366667 0.751683333,17.6708261 0.56695,18.1722609 L0.56695,18.1722609 C0.0867,19.4821594 5.68621667,18.9856812 8.88023333,18.3636377 L8.88023333,18.3636377 C9.86935,18.1722609 12.1377167,17.4494348 12.8712667,17.1126667 L12.8712667,17.1126667 C15.1147,16.0874928 16.32595,15.1193188 16.7962833,14.5807101 L16.7962833,14.5807101 C17.0368333,14.3056232 16.2602167,13.4751304 15.13,12.3860725 L15.13,12.3860725 C14.8869,12.1498116 14.6265167,11.9019855 14.3559333,11.6489275 L14.3559333,11.6489275 C14.0397333,11.3463043 13.7085167,11.0318406 13.3744667,10.7121449 L13.3744667,10.7121449 C13.1166333,10.4640435 12.8585167,10.2134638 12.6032333,9.95765217 L12.6032333,9.95765217 C10.8632833,8.227 9.26981667,6.39115942 9.37606667,5.15450725 L9.37606667,5.15450725 C9.37861667,5.1154058 9.34801667,4.26508696 9.3432,4.22571014 L9.3432,4.22571014 C8.85303333,1.15266667 6.29226667,0.21257971 4.13893333,0.21257971 L4.13893333,0.21257971 C3.10221667,0.21257971 2.16013333,0.430391304 1.58893333,0.733014493" id="Fill-397" fill="url(#linearGradient-30)" mask="url(#mask-29)"></path>
                </g>
                <g id="Group-406" transform="translate(19.000000, 10.000000)">
                    <path d="M6.86233333,5.45704444 C6.86466667,5.78785926 6.76511111,6.06578519 6.58233333,6.27863704 L6.58,6.27863704 C6.01066667,6.94052593 4.61766667,6.98900741 2.88192593,6.17908148 C2.19462963,5.85967407 1.67377778,5.38522963 1.33155556,4.8413037 C0.52137037,3.56626667 0.688074074,1.90000741 1.99785185,0.91197037 C1.99785185,0.91197037 2.15988889,0.810081481 2.42822222,0.712859259 C3.18033333,0.441933333 4.77737037,0.212748148 6.04774074,2.40685926 C7.434,4.79982222 6.86233333,5.13763704 6.86233333,5.45704444" id="Fill-400" fill="#DDDDDD"></path>
                    <path d="M6.86233333,5.45704444 C6.86466667,5.78785926 6.76511111,6.06578519 6.58233333,6.27863704 L6.58,6.27863704 C5.86262963,6.48215556 4.80277778,6.33852593 3.56688889,5.76245185 C2.88192593,5.44304444 2.36133333,4.9686 2.01859259,4.42493333 C1.26414815,3.23752593 1.35696296,1.7148963 2.42822222,0.712859259 C3.18033333,0.441933333 4.77737037,0.212748148 6.04774074,2.40685926 C7.434,4.79982222 6.86233333,5.13763704 6.86233333,5.45704444" id="Fill-402" fill="#F2F2F2"></path>
                    <path d="M4.13277407,0.609596296 C4.13277407,0.609596296 2.9489963,2.38318889 2.9184037,3.36811481 C2.88781111,4.35278148 2.47507037,3.3535963 2.01281111,3.8143 C1.55055185,4.27526296 2.36955185,5.11552222 2.95729259,5.24411481 C3.54477407,5.37270741 2.69777407,6.15437407 2.69777407,6.15437407 C2.69777407,6.15437407 0.422514815,5.74681852 0.105181481,3.31418889 C-0.211892593,0.8813 3.06332963,-0.467366667 4.13277407,0.609596296" id="Fill-404" fill="#543A67"></path>
                </g>
                <g id="Group-409" transform="translate(7.000000, 18.000000)">
                    <mask id="mask-32" fill="white">
                        <use xlink:href="#path-31"></use>
                    </mask>
                    <g id="Clip-408"></g>
                    <path d="M9.51267797,1.54725 C7.9799322,2.26425 6.7319322,2.98125 6.55023729,2.84825 L6.55023729,2.84825 C6.11877966,2.5325 0.523932203,1.112 0.523932203,1.112 L0.523932203,1.112 L0.174372881,2.0825 C0.174372881,2.0825 4.41572881,4.36925 5.79064407,4.7505 L5.79064407,4.7505 C7.16583051,5.132 13.4126102,5.03425 14.8200678,3.79075 L14.8200678,3.79075 C16.2272542,2.5475 15.968,1.3815 15.4169492,0.79775 L15.4169492,0.79775 C15.0345763,0.39225 14.4878644,0.23 13.8508475,0.23 L13.8508475,0.23 C12.5684068,0.23025 10.9204068,0.88875 9.51267797,1.54725" id="Fill-407" fill="url(#linearGradient-33)" mask="url(#mask-32)"></path>
                </g>
                <path d="M7,19.2192339 C7,19.2192339 6.92060576,17.3686498 6.03042149,17.1822874 L6.21300719,17.7693562 C6.21300719,17.7693562 5.45128576,17.8228742 5.32935137,17 C5.32935137,17 4.81592122,17.3341483 5.07116213,18.3268134 C5.32661364,19.3192067 6.90754888,20 6.90754888,20 L7,19.2192339 Z" id="Fill-410" fill="#FFBB92"></path>
                <g id="Group-414" transform="translate(15.000000, 50.000000)">
                    <mask id="mask-35" fill="white">
                        <use xlink:href="#path-34"></use>
                    </mask>
                    <g id="Clip-413"></g>
                    <path d="M0.195789474,2.4215 L0.992368421,2.31725 L0.808684211,2.8375 L1.54368421,2.49925 L1.63578947,3.3055 L2.21789474,2.96725 L2.27921053,3.4615 L2.83078947,3.14925 L3.25973684,3.7735 L3.68868421,3.22725 L3.995,3.66925 L4.14815789,3.17525 L4.63842105,3.53925 C4.63842105,3.53925 4.45447368,1.83625 4.91421053,0.90025 L4.91421053,0.90025 L2.67736842,0.211 C2.67736842,0.211 1.29894737,2.16125 0.195789474,2.4215" id="Fill-412" fill="url(#linearGradient-36)" mask="url(#mask-35)"></path>
                </g>
                <g id="Group-417" transform="translate(6.000000, 19.000000)">
                    <mask id="mask-38" fill="white">
                        <use xlink:href="#path-37"></use>
                    </mask>
                    <g id="Clip-416"></g>
                    <path d="M1.403,0.610636364 L1.109,0.435545455 L1.17825,0.803454545 L0.73975,0.734181818 L0.8395,1.25127273 L0.45525,1.35763636 L0.65575,1.63445455 L0.246,1.74245455 L0.57625,2.19054545 L0.09975,2.37109091 L0.41925,2.54454545 L0.0235,2.87181818 C0.62475,2.47690909 2.12325,2.79790909 2.12325,2.79790909 L2.12325,2.79790909 L2.78325,1.38654545 C2.15225,1.13618182 1.44975,0.194454545 1.44975,0.194454545 L1.44975,0.194454545 L1.403,0.610636364 Z" id="Fill-415" fill="url(#linearGradient-39)" mask="url(#mask-38)"></path>
                </g>
                <g id="Group-420" transform="translate(35.000000, 11.000000)">
                    <mask id="mask-41" fill="white">
                        <use xlink:href="#path-40"></use>
                    </mask>
                    <g id="Clip-419"></g>
                    <path d="M0.999692308,0.548454545 L0.856384615,0.213818182 L0.735923077,0.550363636 L0.483,0.256363636 C0.483,0.256363636 0.471461538,1.47054545 0.147461538,2.09481818 L0.147461538,2.09481818 L1.36753846,2.75127273 C1.36753846,2.75127273 2.28115385,1.48227273 2.92361538,1.383 L2.92361538,1.383 L2.46530769,1.39554545 L2.60492308,1.04318182 L2.16530769,1.22536364 L2.16807692,0.650454545 L1.81523077,0.844090909 L1.81407692,0.491181818 L1.48038462,0.669 L1.27984615,0.196636364 L0.999692308,0.548454545 Z" id="Fill-418" fill="url(#linearGradient-42)" mask="url(#mask-41)"></path>
                </g>
                <g id="Group-423" transform="translate(35.000000, 51.000000)">
                    <mask id="mask-44" fill="white">
                        <use xlink:href="#path-43"></use>
                    </mask>
                    <g id="Clip-422"></g>
                    <path d="M0.0623529412,0.908705882 C0.0623529412,0.908705882 0.617411765,2.99105882 0.103764706,3.78188235 L0.103764706,3.78188235 L0.536470588,3.26705882 L0.801882353,3.71952941 L1.02329412,3.08141176 L1.67552941,3.57247059 L1.79858824,3.02 L2.20188235,3.31835294 L2.32470588,2.80047059 L3.05835294,2.98094118 L2.93058824,2.37388235 L3.452,2.50023529 L3.18611765,2.08211765 L3.76776471,2.05364706 C3.76776471,2.05364706 2.39576471,1.00988235 1.99976471,0.123529412 L1.99976471,0.123529412 L0.0623529412,0.908705882 Z" id="Fill-421" fill="url(#linearGradient-45)" mask="url(#mask-44)"></path>
                </g>
                <g id="Group-440" transform="translate(17.000000, 44.000000)" fill="#F7941D">
                    <polygon id="Fill-424" points="2.95388889 4.35588095 0.201388889 3.58135714 0.340833333 3.29088095 3.09333333 4.06516667"></polygon>
                    <polygon id="Fill-426" points="3.71277778 3.42697619 0.565 2.5412619 0.704444444 2.25102381 3.85222222 3.1365"></polygon>
                    <polygon id="Fill-428" points="4.36883333 2.66783333 1.02716667 1.3347381 1.23716667 1.02640476 4.57855556 2.3595"></polygon>
                    <polygon id="Fill-430" points="5.19930556 1.79007143 1.60180556 0.355071429 1.78847222 0.0803095238 5.38597222 1.51554762"></polygon>
                    <polygon id="Fill-432" points="19.9021389 4.13638095 17.1068611 4.97138095 16.9571389 4.67495238 19.7524167 3.83995238"></polygon>
                    <polygon id="Fill-434" points="19.6638333 3.02590476 16.4674444 3.98066667 16.3177222 3.68447619 19.5141111 2.72971429"></polygon>
                    <polygon id="Fill-436" points="19.4965833 2.09978571 15.7560278 2.8107381 15.6446389 2.46407143 19.3851944 1.75311905"></polygon>
                    <polygon id="Fill-438" points="19.35825 0.991619048 15.3313056 1.75709524 15.2321389 1.44828571 19.2590833 0.682809524"></polygon>
                </g>
                <g id="Group-443" transform="translate(21.000000, 29.000000)">
                    <mask id="mask-47" fill="white">
                        <use xlink:href="#path-46"></use>
                    </mask>
                    <g id="Clip-442"></g>
                    <path d="M6.95937255,2.34844444 C4.25435294,2.86022222 1.77690196,2.886 0.500156863,2.85244444 L0.500156863,2.85244444 C0.414509804,3.19555556 0.326392157,3.53088889 0.235529412,3.852 L0.235529412,3.852 C2.01435294,3.87977778 6.09686275,3.79044444 9.49062745,2.59644444 L9.49062745,2.59644444 C11.4827451,1.89222222 12.8893333,1.20577778 13.8352941,0.662444444 L13.8352941,0.662444444 C13.5997647,0.471777778 13.3474902,0.271777778 13.0853333,0.0675555556 L13.0853333,0.0675555556 C11.548902,0.848888889 9.14996078,1.934 6.95937255,2.34844444" id="Fill-441" fill="url(#linearGradient-48)" mask="url(#mask-47)"></path>
                </g>
                <g id="Group-446" transform="translate(21.000000, 28.000000)">
                    <mask id="mask-50" fill="white">
                        <use xlink:href="#path-49"></use>
                    </mask>
                    <g id="Clip-445"></g>
                    <path d="M6.73883721,2.19493333 C4.13460465,2.76133333 1.73565116,2.79226667 0.423860465,2.7496 L0.423860465,2.7496 C0.34555814,3.13546667 0.264837209,3.53733333 0.178372093,3.94453333 L0.178372093,3.94453333 C1.99444186,3.98533333 5.95883721,3.8896 9.27534884,2.51386667 L9.27534884,2.51386667 C10.7410233,1.90453333 11.8823023,1.30453333 12.7593488,0.773866667 L12.7593488,0.773866667 C12.4842326,0.5336 12.208814,0.290933333 11.9364186,0.0432 L11.9364186,0.0432 C10.4574419,0.873866667 8.5304186,1.80453333 6.73883721,2.19493333" id="Fill-444" fill="url(#linearGradient-51)" mask="url(#mask-50)"></path>
                </g>
                <g id="Group-449" transform="translate(20.000000, 30.000000)">
                    <mask id="mask-53" fill="white">
                        <use xlink:href="#path-52"></use>
                    </mask>
                    <g id="Clip-448"></g>
                    <path d="M7.86306667,3.6785 C3.54166667,4.43525 0.5151,4.10775 0.5151,4.10775 L0.5151,4.10775 L0.242816667,4.901 C0.242816667,4.901 -0.227233333,6.53825 1.43055,6.80025 L1.43055,6.80025 C3.08805,7.06225 3.26116667,5.46875 3.26116667,5.46875 L3.26116667,5.46875 C3.26116667,5.46875 3.70656667,7.106 5.24053333,6.93125 L5.24053333,6.93125 C6.7745,6.7565 6.74985,5.18475 6.74985,5.18475 L6.74985,5.18475 C6.74985,5.18475 6.82408333,6.58175 8.30846667,6.451 L8.30846667,6.451 C9.79285,6.32 9.5948,4.72625 9.5948,4.72625 L9.5948,4.72625 C9.5948,4.72625 9.94131667,6.07975 11.40105,5.774 L11.40105,5.774 C12.8576667,5.4695 12.393,3.882 12.3910167,3.875 L12.3910167,3.875 C12.3932833,3.8825 12.7417833,4.965 14.0978167,4.52975 L14.0978167,4.52975 C15.4586667,4.09325 14.5928,2.8055 14.5928,2.8055 L14.5928,2.8055 C14.5928,2.8055 15.5578333,3.76575 16.3987667,2.97975 L16.3987667,2.97975 C17.2399833,2.19425 16.8688167,1.51725 16.3741167,1.037 L16.3741167,1.037 L15.5907,0.2075 C15.5907,0.2075 12.18475,2.9215 7.86306667,3.6785" id="Fill-447" fill="url(#linearGradient-54)" mask="url(#mask-53)"></path>
                </g>
                <g id="Group-492">
                    <path d="M19.841116,13.6305914 C19.841116,13.6305914 19.3412764,13.8859677 19.5713613,14.3483333 C19.5713613,14.3483333 18.7289934,14.4378495 18.8148991,15.1236022 C18.8148991,15.1236022 17.7974368,15.5252151 18.3147858,16.248871 C18.3147858,16.248871 17.0278425,17.1615054 18.0633613,17.4878495 C18.8698896,17.7418817 19.9158047,16.8889247 19.9158047,16.8889247 C19.9158047,16.8889247 20.5940217,17.3445699 21.2314745,16.6063978 C21.2314745,16.6063978 22.1786255,17.0367742 22.6478236,16.0986022 C23.3213896,14.7510215 22.349616,13.4354301 22.90855,12.1335484 C23.2294651,11.3854301 19.841116,13.6305914 19.841116,13.6305914" id="Fill-450" fill="#543A67"></path>
                    <path d="M24.8206896,14.1540591 C24.8986613,14.529328 24.6524349,14.895457 24.270784,14.9720699 C23.889133,15.048414 23.5162368,14.8067473 23.4385387,14.4314785 C23.360567,14.0564785 23.6067934,13.6903495 23.9884443,13.6137366 C24.3700953,13.5371237 24.7427179,13.7790591 24.8206896,14.1540591" id="Fill-452" fill="#FF7461"></path>
                    <path d="M24.7179585,14.4903495 L26.6160906,14.7236828 C26.6160906,14.7236828 26.4237604,15.6640054 25.7417132,15.6597043 C24.7907321,15.6529839 24.7179585,14.4903495 24.7179585,14.4903495" id="Fill-454" fill="#332763"></path>
                    <path d="M24.3083745,12.6201882 C24.24545,12.5274462 24.1734972,12.4505645 24.0999028,12.3890054 L23.9833557,12.5876613 C23.9833557,12.5876613 23.9694028,12.4207258 23.95545,12.2898118 C23.842733,12.2317473 23.7363085,12.2196505 23.6613462,12.2688441 C23.5056764,12.3712634 23.5434311,12.6941129 23.7453368,12.9906183 C23.9472425,13.286586 24.2366953,13.4438441 24.3923651,13.3419624 C24.5477613,13.239543 24.5102802,12.9164247 24.3083745,12.6201882" id="Fill-456" fill="#332763"></path>
                    <path d="M25.9808811,12.2941398 C25.932183,12.2223656 25.8763717,12.162957 25.819466,12.1151075 L25.729183,12.268871 C25.729183,12.268871 25.7185132,12.1398387 25.7075698,12.0382258 C25.6202962,11.9933333 25.5379472,11.9839247 25.4796736,12.0220968 C25.3592962,12.1013978 25.3882962,12.3516667 25.5447868,12.5809677 C25.7012774,12.8105376 25.9253434,12.9323118 26.0459943,12.8530108 C26.1663717,12.7737097 26.1373717,12.5237097 25.9808811,12.2941398" id="Fill-458" fill="#332763"></path>
                    <path d="M22.4894726,11.5635484 C22.4191613,11.5928495 22.3466613,11.62 22.2766236,11.6474194 C19.6266802,12.6767204 17.3906708,13.2925806 17.2798689,13.0191935 C17.1988877,12.82 18.295416,12.1960753 19.933916,11.4683871 C20.5221236,11.206828 21.1817368,10.9350538 21.8804726,10.6627419 C22.5165575,10.4159677 23.1293877,10.1917742 23.6937934,9.99849462 C25.4819443,9.38801075 26.7921425,9.08155914 26.8750387,9.28827957 C26.9839255,9.55413978 25.0349066,10.5613978 22.4894726,11.5635484" id="Fill-460" fill="#1B96D1"></path>
                    <path d="M23.7005509,10.0493548 C23.185117,10.4041935 22.7118151,10.6703226 22.2885792,10.8738172 C20.8079377,11.5767742 19.9362962,11.4687097 19.9362962,11.4687097 L19.933834,11.4684409 L19.9316453,11.4660215 L18.8132302,10.2453226 L16.5080038,7.72731183 C16.9148245,7.26548387 17.3758151,6.88107527 17.8597868,6.56037634 C20.1806075,5.02166667 23.0237019,4.96978495 23.0237019,4.96978495 L23.452683,8.18430108 L23.6939849,9.99854839 L23.7005509,10.0493548 Z" id="Fill-462" fill="#1B96D1"></path>
                    <path d="M23.7005509,10.0493548 C23.1643245,10.3453226 22.6185226,10.5902151 22.1151264,10.7869892 C20.9001358,11.2646774 19.9362962,11.4687097 19.9362962,11.4687097 L19.933834,11.4684409 L19.9316453,11.4660215 L18.8132302,10.2453226 C19.192966,9.94989247 19.5975981,9.68967742 20.0071547,9.46575269 C21.2746736,8.76736559 22.6042962,8.38268817 23.452683,8.18430108 L23.6939849,9.99854839 L23.7005509,10.0493548 Z" id="Fill-464" fill="#DB7700"></path>
                    <g id="Group-468" transform="translate(16.415094, 6.451613)">
                        <mask id="mask-56" fill="white">
                            <use xlink:href="#path-55"></use>
                        </mask>
                        <g id="Clip-467"></g>
                        <path d="M6.88011321,4.68978495 L6.07440566,5.11182796 C6.00409434,5.14139785 5.93159434,5.16827957 5.8615566,5.19569892 C3.21161321,6.225 0.975603774,6.84086022 0.864528302,6.56747312 C0.783820755,6.36827957 1.88034906,5.74435484 3.51884906,5.01693548 L3.51638679,5.01424731 L2.39824528,3.79354839 L0.0930188679,1.27580645 C0.499839623,0.813709677 0.960556604,0.429301075 1.44480189,0.108870968 C1.38680189,0.504569892 1.52222642,1.02204301 2.08827358,1.65806452 C2.54680189,2.17231183 3.07728302,2.62849462 3.59216981,3.01424731 C4.32236792,3.56586022 5.02684906,3.97688172 5.46540566,4.21129032 C5.55514151,4.26209677 5.63612264,4.30295699 5.70014151,4.33548387 C5.77838679,4.37607527 5.83775472,4.40564516 5.87359434,4.42231183 C5.90450943,4.43629032 5.91873585,4.44408602 5.91873585,4.44408602 C5.91873585,4.44408602 3.93004717,5.1344086 4.15766981,5.33978495 C4.176,5.3577957 4.20937736,5.37177419 4.25780189,5.38172043 C4.90072642,5.51021505 6.76958491,4.73629032 6.88011321,4.68978495" id="Fill-466" fill="url(#linearGradient-57)" mask="url(#mask-56)"></path>
                    </g>
                    <path d="M26.8163274,19.6682258 C26.9670726,20.0244086 26.9274028,20.3795161 26.7276858,20.4606989 C26.5279689,20.5424194 26.2439877,20.3198387 26.0932425,19.9636559 C25.9427708,19.6072043 25.9824406,19.2526344 26.181884,19.170914 C26.3816009,19.0894624 26.6655821,19.3123118 26.8163274,19.6682258" id="Fill-469" fill="#FFFFFF"></path>
                    <path d="M27.8177028,21.8016935 C27.9684481,22.1578763 27.9287783,22.5129839 27.7290613,22.5941667 C27.5296179,22.6758871 27.2456368,22.4533065 27.0948915,22.0971237 C26.9441462,21.7409409 26.983816,21.3861022 27.183533,21.3043817 C27.38325,21.2231989 27.6672311,21.4457796 27.8177028,21.8016935" id="Fill-471" fill="#FFFFFF"></path>
                    <path d="M28.7224755,23.9892473 C28.8732208,24.3454301 28.8335509,24.7002688 28.633834,24.7817204 C28.434117,24.8634409 28.1501358,24.6408602 27.9993906,24.2846774 C27.8489189,23.9282258 27.8885887,23.5733871 28.0883057,23.4919355 C28.2877491,23.4104839 28.5717302,23.6330645 28.7224755,23.9892473" id="Fill-473" fill="#FFFFFF"></path>
                    <path d="M21.1946226,17.1682796 C21.1946226,17.1682796 24.0538585,17.6639785 26.6050377,17.3688172 C26.6050377,17.3688172 27.8591509,18.5698925 27.4660094,18.7247312 C27.0731415,18.8795699 26.5634528,18.7021505 26.5634528,18.7021505 C26.5634528,18.7021505 26.2559434,19.3986559 25.342717,18.852957 C25.342717,18.852957 24.6188113,19.744086 23.8546887,19.008871 C23.8546887,19.008871 22.9121887,19.5852151 22.4364245,18.8645161 C22.4364245,18.8645161 21.7954151,19.2612903 21.4586321,18.5806452 C21.4586321,18.5806452 20.6964245,18.8166667 20.5445849,18.6247312 C20.3470566,18.3747312 21.1946226,17.1682796 21.1946226,17.1682796" id="Fill-475" fill="#523E9E"></path>
                    <path d="M26.6566906,13.1885215 C26.7239925,13.5121774 26.511417,13.8280376 26.1822943,13.8941667 C25.8528981,13.9602957 25.5314358,13.7514247 25.464134,13.4280376 C25.3968321,13.1043817 25.609134,12.7885215 25.9385302,12.7223925 C26.2679264,12.6565323 26.5893887,12.8651344 26.6566906,13.1885215" id="Fill-477" fill="#FF5038"></path>
                    <path d="M6.99250189,23.8970968 L6.88197358,23.8925269 C7.13476604,18.1470968 6.19992642,9.6038172 6.19035094,9.51806452 L6.30060566,9.50650538 C6.30963396,9.59225806 7.24556792,18.143871 6.99250189,23.8970968" id="Fill-479" fill="#1D1638"></path>
                    <path d="M6.5388434,23.2904301 L6.42940943,23.275914 C6.43406038,23.2412366 6.89696604,19.7993011 6.67153208,17.961129 C6.44691887,16.1269892 4.10913585,12.2490323 4.08533396,12.2100538 L4.18026792,12.1544086 C4.27711698,12.3143548 6.55389057,16.0912366 6.78151321,17.947957 C7.00831509,19.8001075 6.54376792,23.2557527 6.5388434,23.2904301" id="Fill-481" fill="#1D1638"></path>
                    <path d="M7.50054906,23.7999731 L7.39166226,23.8182527 C6.32112453,17.6921774 7.88192642,10.0658333 7.89806792,9.98948925 L8.00613396,10.0112634 C7.99053962,10.0873387 6.43384151,17.694328 7.50054906,23.7999731" id="Fill-483" fill="#1D1638"></path>
                    <path d="M8.50857264,2.78459677 C6.99127075,2.66040323 5.52622358,3.90314516 5.7199217,6.41228495 C5.81841226,7.68647849 6.65093113,8.96174731 7.63091226,10.1668548 C7.75429906,10.3184677 7.98383679,10.3372849 8.13075189,10.2079839 C9.30032736,9.17841398 10.3361198,8.05637097 10.647733,6.81577957 C11.2616575,4.3725 10.0256009,2.90879032 8.50857264,2.78459677" id="Fill-485" fill="#332763"></path>
                    <path d="M4.60933113,0.14905914 C2.71721792,0.468145161 1.32795377,2.43991935 2.37113302,5.44314516 C2.9007934,6.96814516 4.32699151,8.26626344 5.91077453,9.43373656 C6.10994434,9.58024194 6.39638774,9.53212366 6.53427453,9.32836022 C7.63107642,7.70873656 8.53500094,6.01760753 8.51667075,4.4063172 C8.48028396,1.23319892 6.50144434,-0.170026882 4.60933113,0.14905914" id="Fill-487" fill="#ED5D49"></path>
                    <g id="Group-491" transform="translate(0.000000, 5.376344)">
                        <mask id="mask-59" fill="white">
                            <use xlink:href="#path-58"></use>
                        </mask>
                        <g id="Clip-490"></g>
                        <path d="M1.44772925,0.177150538 C0.108804717,0.702956989 -0.597591509,2.36478495 0.647493396,4.41048387 C1.27947453,5.44892473 2.53413491,6.18333333 3.88372925,6.79704301 C4.05335189,6.87419355 4.2560783,6.79462366 4.3250217,6.62365591 C4.87246509,5.26532258 5.26670094,3.88387097 4.99639906,2.70295699 C4.46400283,0.377956989 2.78665377,-0.348655914 1.44772925,0.177150538" id="Fill-489" fill="#FFA01C" mask="url(#mask-59)"></path>
                    </g>
                </g>
            </g>
            <path d="M47.2625018,58.1051331 C47.2625018,59.2676323 39.1450379,60.2099904 29.1311138,60.2099904 C19.1177381,60.2099904 11,59.2676323 11,58.1051331 C11,56.9423581 19.1177381,56 29.1311138,56 C39.1450379,56 47.2625018,56.9423581 47.2625018,58.1051331" id="Fill-94-Copy" fill="#0098FF" opacity="0.147437686"></path>
        </g>
    </g>
</svg>