<?xml version="1.0" encoding="UTF-8"?>
<svg width="39px" height="62px" viewBox="0 0 39 62" version="1.1" xmlns="http://www.w3.org/2000/svg" xmlns:xlink="http://www.w3.org/1999/xlink">
    <!-- Generator: Sketch 55.2 (78181) - https://sketchapp.com -->
    <title>Group 40</title>
    <desc>Created with Sketch.</desc>
    <defs>
        <path d="M0.956057971,0.582037037 C0.206246377,1.21566667 -0.289405797,2.59725926 1.18681159,4.30525926 L1.18681159,4.30525926 C2.66357971,6.01325926 10.085971,7.00051852 11.7844058,6.72803704 L11.7844058,6.72803704 C13.4831159,6.45555556 18.8992174,4.2642963 18.8992174,4.2642963 L18.8992174,4.2642963 L18.6384493,3.03566667 C18.6384493,3.03566667 11.7491594,3.98507407 11.1846667,4.30888889 L11.1846667,4.30888889 C10.9387681,4.45018519 9.47934783,3.32603704 7.68673913,2.20162963 L7.68673913,2.20162963 C5.99711594,1.14203704 4.01092754,0.0824444444 2.4655942,0.0824444444 L2.4655942,0.0824444444 C1.88788406,0.0824444444 1.37185507,0.230481481 0.956057971,0.582037037" id="path-1"></path>
        <linearGradient x1="0.374907632%" y1="46.5123295%" x2="97.1615481%" y2="55.2061512%" id="linearGradient-3">
            <stop stop-color="#1D7E00" offset="0%"></stop>
            <stop stop-color="#FFB12A" offset="100%"></stop>
        </linearGradient>
        <path d="M11.432082,0.09072 C10.0642787,0.1134 9.05542623,1.34568 8.51281967,2.8546 L8.51281967,2.8546 C8.01229508,4.23668 7.90722951,5.852 8.28290164,6.97704 L8.28290164,6.97704 C9.06796721,9.32764 6.08627869,13.76536 6.08627869,13.76536 L6.08627869,13.76536 C1.66683607,15.21436 0.0284262295,27.86952 0.0284262295,27.86952 L0.0284262295,27.86952 L1.84519672,27.72168 C2.19327869,26.64648 2.74981967,25.50632 3.41142623,24.3852 L3.41142623,24.3852 C5.84660656,20.24344 9.69947541,16.30552 9.69947541,16.30552 L9.69947541,16.30552 C12.3308525,14.35532 14.5453115,9.1784 15.7411639,5.915 L15.7411639,5.915 C16.345918,4.2616 16.6878689,3.09708 16.6878689,3.09708 L16.6878689,3.09708 C16.8283279,2.45672 16.757541,1.95412 16.5354262,1.5526 L16.5354262,1.5526 C15.8551475,0.33068 13.7672131,0.0868 11.8620984,0.0868 L11.8620984,0.0868 C11.717459,0.0868 11.5739344,0.0882 11.432082,0.09072" id="path-4"></path>
        <linearGradient x1="45.576808%" y1="49.9528862%" x2="58.5952216%" y2="52.6132797%" id="linearGradient-6">
            <stop stop-color="#1D7E00" offset="0%"></stop>
            <stop stop-color="#FFB12A" offset="100%"></stop>
        </linearGradient>
        <path d="M15.4233326,4.33765453 C14.7868262,3.94114583 12.9949967,3.22721497 11.3421554,6.33795215 C9.29200969,10.2061985 11.0024669,11.3448832 8.21587433,11.9170501 C5.42545889,12.490024 1.40435528,20.1794414 2.63668182,21.5206845 C2.89035595,21.7980254 3.12682721,21.9715316 3.34227273,22.0826293 C2.69457086,23.1594437 2.14926705,24.2548191 1.80794017,25.2880552 L0.0278522727,25.4298191 C0.0278522727,25.4298191 1.63345388,13.2720124 5.9636631,11.8799279 C5.9636631,11.8799279 8.88460194,7.61624886 8.11593382,5.35824748 C7.74757386,4.27712912 7.85051805,2.72525755 8.3409365,1.39746451 L16.2018309,0.146605998 C16.4191878,0.532085623 16.4888185,1.01521291 16.3509225,1.6304201" id="path-7"></path>
        <linearGradient x1="59.7700379%" y1="55.7693388%" x2="43.9393441%" y2="46.683089%" id="linearGradient-9">
            <stop stop-color="#91268E" offset="0%"></stop>
            <stop stop-color="#662D90" offset="100%"></stop>
        </linearGradient>
        <path d="M0.108678476,4.51438874 L1.49064271,2.44415064 C1.49064271,2.44415064 1.94201337,0.241025641 1.97095789,0.126430861 L2.03403509,0.125892857 L2.50752373,3.40287317 C2.50752373,3.40287317 1.89531985,4.05708562 3.38760094,5.23746566 L0.108678476,4.51438874 Z" id="path-10"></path>
        <linearGradient x1="36.1177551%" y1="41.0285849%" x2="77.2185316%" y2="55.5005347%" id="linearGradient-12">
            <stop stop-color="#1A95D1" offset="0%"></stop>
            <stop stop-color="#2A3890" offset="100%"></stop>
        </linearGradient>
        <path d="M0.874166667,2.16460377 C-0.108611111,2.9960283 0.0841666667,4.4805 0.826388889,5.88590566 L0.826388889,5.88590566 C1.50388889,7.17421698 2.64638889,8.39495283 3.77083333,8.97714151 L3.77083333,8.97714151 C6.11861111,10.1937736 7.28888889,15.1516792 7.28888889,15.1516792 L7.28888889,15.1516792 C5.15166667,18.8240094 13.5066667,28.8703208 13.5066667,28.8703208 L13.5066667,28.8703208 L14.7233333,27.6818679 C14.1661111,26.7032547 13.7122222,25.5544717 13.3494444,24.3569906 L13.3494444,24.3569906 C12.0036111,19.9369528 11.8475,14.8184528 11.8475,14.8184528 L11.8475,14.8184528 C12.2991667,11.8525189 10.0102778,6.82211321 8.42111111,3.77054717 L8.42111111,3.77054717 C7.61527778,2.22506604 6.98638889,1.18681132 6.98638889,1.18681132 L6.98638889,1.18681132 C6.60555556,0.644018868 6.17416667,0.325839623 5.70888889,0.170443396 L5.70888889,0.170443396 C5.47333333,0.0924716981 5.23027778,0.0569056604 4.98166667,0.0569056604 L4.98166667,0.0569056604 C3.61694444,0.0569056604 2.09472222,1.13017925 0.874166667,2.16460377" id="path-13"></path>
        <linearGradient x1="50.802745%" y1="51.7108914%" x2="57.9172323%" y2="41.6697788%" id="linearGradient-15">
            <stop stop-color="#1D7E00" offset="0%"></stop>
            <stop stop-color="#FFB12A" offset="100%"></stop>
        </linearGradient>
        <path d="M8.46378378,3.65202762 C7.69864865,3.7407977 5.85189189,4.2803078 7.03027027,7.50199927 C8.49918919,11.5051324 10.6113514,11.3199077 9.02540541,13.3748688 C7.43810811,15.4332747 10.3972973,23.3584556 12.317027,23.6011821 C12.7132432,23.6523243 13.0178378,23.6380151 13.2589189,23.5913777 C13.6121622,24.7512184 14.0535135,25.8638917 14.5956757,26.8114792 L13.4116216,27.9628404 C13.4116216,27.9628404 5.2827027,18.2323146 7.36216216,14.6754167 C7.36216216,14.6754167 6.22351351,9.87361784 3.93891892,8.69496316 C2.84513514,8.13080942 0.65027027,6.17733768 0.176216216,4.05268542 L5.82486486,0.165085852 C6.27756757,0.315597511 6.6972973,0.623510448 7.06783784,1.1495063" id="path-16"></path>
        <linearGradient x1="59.8937112%" y1="45.5986644%" x2="48.5224818%" y2="54.3364204%" id="linearGradient-18">
            <stop stop-color="#91268E" offset="0%"></stop>
            <stop stop-color="#662D90" offset="100%"></stop>
        </linearGradient>
        <path d="M2.22189189,4.48169664 L1.64243243,2.17155466 C1.64243243,2.17155466 0.285945946,0.314007599 0.219459459,0.214108135 L0.264594595,0.17648022 L3.11378378,2.26535946 C3.11378378,2.26535946 3.16945946,3.09847329 5.15513514,3.07223975 L2.22189189,4.48169664 Z" id="path-19"></path>
        <linearGradient x1="17.5086513%" y1="53.751113%" x2="74.754459%" y2="25.592174%" id="linearGradient-21">
            <stop stop-color="#1A95D1" offset="0%"></stop>
            <stop stop-color="#2A3890" offset="100%"></stop>
        </linearGradient>
        <path d="M1.89972222,1.25479518 C1.89972222,1.25479518 -0.630555556,2.32881928 0.581388889,5.30306024 L0.581388889,5.30306024 C2.37861111,9.71392771 3.17972222,10.098 2.7225,12.0663373 L2.7225,12.0663373 C2.2625,14.0344096 1.57611111,18.7940964 0.716388889,21.0913735 L0.716388889,21.0913735 C0.158333333,22.5823373 7.84694444,21.8319518 11.2066667,20.1891084 L11.2066667,20.1891084 C11.9708333,19.8151084 12.6286111,19.1201205 13.27,18.4659518 L13.27,18.4659518 C14.4508333,17.2692048 14.1963889,17.0730602 14.7413889,16.4610361 L14.7413889,16.4610361 C15.5705556,15.5269639 9.86333333,7.39995181 10.1416667,4.23221687 L10.1416667,4.23221687 C10.1444444,4.18742169 10.1502778,4.14289157 10.1561111,4.09809639 L10.1561111,4.09809639 C10.4761111,1.95322892 6.94111111,0.13173494 4.34444444,0.132 L4.34444444,0.132 C3.23111111,0.13226506 2.29,0.467036145 1.89972222,1.25479518" id="path-22"></path>
        <linearGradient x1="30.1407492%" y1="82.4635644%" x2="57.970751%" y2="28.5750605%" id="linearGradient-24">
            <stop stop-color="#D45700" offset="0%"></stop>
            <stop stop-color="#FFB12A" offset="100%"></stop>
        </linearGradient>
        <path d="M0.456052632,1.32633333 C0.998947368,1.87666667 4.74605263,1.94566667 4.74605263,1.94566667 L4.74605263,1.94566667 L4.36605263,0.569666667 C3.55131579,1.464 0.564473684,0.294666667 0.564473684,0.294666667 L0.564473684,0.294666667 C0.564473684,0.294666667 -0.0873684211,0.776 0.456052632,1.32633333" id="path-25"></path>
        <linearGradient x1="0.00111881574%" y1="49.9896103%" x2="100.001692%" y2="49.9896103%" id="linearGradient-27">
            <stop stop-color="#91268E" offset="0%"></stop>
            <stop stop-color="#662D90" offset="100%"></stop>
        </linearGradient>
        <path d="M12.2834938,16.8512821 C11.7239216,17.4989554 10.2285918,20.7081626 7.37882353,21.2868629 C6.84948307,20.7011532 7.98773619,16.7506263 6.71229947,14.8076064 C5.14196078,12.4154208 5.22010695,11.4127889 2.00442068,9.17397006 C-1.21440285,6.93851581 0.434081996,2.46396238 0.434081996,2.46396238 C0.414117647,-0.931696287 7.74188948,-0.613467191 7.56078431,3.91604034" id="path-28"></path>
        <linearGradient x1="75.4100681%" y1="56.1761317%" x2="37.8981315%" y2="47.6273199%" id="linearGradient-30">
            <stop stop-color="#91268E" offset="0%"></stop>
            <stop stop-color="#662D90" offset="100%"></stop>
        </linearGradient>
        <path d="M11.4219231,0.0947222222 C8.97230769,0.144444444 3.32625,5.40055556 2.47153846,6.93138889 L2.47153846,6.93138889 C1.61682692,8.46222222 0.0525,14.215 0.0525,14.215 L0.0525,14.215 L1.29894231,14.8169444 C1.29894231,14.8169444 4.90153846,8.70972222 4.98086538,8.04722222 L4.98086538,8.04722222 C5.05990385,7.38472222 15.1035577,6.02638889 14.8384615,2.36277778 L14.8384615,2.36277778 C14.7663462,1.36805556 13.9047115,0.0933333333 11.5577885,0.0933333333 L11.5577885,0.0933333333 C11.5130769,0.0933333333 11.4677885,0.0938888889 11.4219231,0.0947222222" id="path-31"></path>
        <linearGradient x1="96.6944742%" y1="7.67276809%" x2="-8.81483298%" y2="84.3488792%" id="linearGradient-33">
            <stop stop-color="#1D7E00" offset="0%"></stop>
            <stop stop-color="#FFB12A" offset="100%"></stop>
        </linearGradient>
        <path d="M0.145454545,2.46352941 L0.958409091,2.34776471 L0.770909091,2.92611765 L1.52136364,2.55035294 L1.615,3.44658824 L2.20909091,3.07082353 L2.27159091,3.62 L2.83454545,3.27317647 L3.27227273,3.96705882 L3.71,3.36 L4.0225,3.85152941 L4.17909091,3.30211765 L4.67909091,3.70705882 C4.67909091,3.70705882 4.49181818,1.81294118 4.96068182,0.772 L4.96068182,0.772 L2.67795455,0.00564705882 C2.67795455,0.00564705882 1.27113636,2.17435294 0.145454545,2.46352941" id="path-34"></path>
        <linearGradient x1="0.000429036673%" y1="50.0011636%" x2="99.9995752%" y2="50.0011636%" id="linearGradient-36">
            <stop stop-color="#1D7E00" offset="0%"></stop>
            <stop stop-color="#FFB12A" offset="100%"></stop>
        </linearGradient>
        <path d="M0.218133333,1.76125 L0.838133333,1.68125 L0.6952,2.08075 L1.26773333,1.821 L1.3392,2.4405 L1.79226667,2.1805 L1.84026667,2.56025 L2.26933333,2.3205 L2.60346667,2.79975 L2.93733333,2.38025 L3.176,2.72 L3.2952,2.3405 L3.6768,2.62 C3.6768,2.62 3.5336,1.31175 3.89146667,0.59275 L3.89146667,0.59275 L2.15013333,0.063 C2.15013333,0.063 1.0768,1.5615 0.218133333,1.76125" id="path-37"></path>
        <linearGradient x1="-4.93647915e-05%" y1="50.0073363%" x2="99.99902%" y2="50.0073363%" id="linearGradient-39">
            <stop stop-color="#1D7E00" offset="0%"></stop>
            <stop stop-color="#FFB12A" offset="100%"></stop>
        </linearGradient>
        <path d="M0.217846154,1.45428571 L0.717230769,3.31542857 C0.717230769,3.31542857 2.38153846,3.22742857 2.97069231,3.83314286 L2.97069231,3.83314286 L2.59292308,3.352 L2.96353846,3.20485714 L2.47684615,2.88657143 L2.90053846,2.40542857 L2.475,2.19028571 L2.73276923,1.89228571 L2.33446154,1.684 L2.51953846,1.07114286 L2.03630769,1.06685714 L2.16669231,0.631142857 L1.82330769,0.785142857 L1.83553846,0.266571429 C1.83553846,0.266571429 0.936,1.27628571 0.217846154,1.45428571" id="path-40"></path>
        <linearGradient x1="74.4808976%" y1="106.257292%" x2="33.71294%" y2="17.3727758%" id="linearGradient-42">
            <stop stop-color="#1D7E00" offset="0%"></stop>
            <stop stop-color="#FFB12A" offset="100%"></stop>
        </linearGradient>
        <path d="M0.129,1.13578947 C0.129,1.13578947 0.82575,3.88736842 0.181,4.93263158 L0.181,4.93263158 L0.724,4.25236842 L1.0575,4.85052632 L1.335,4.00736842 L2.15425,4.65657895 L2.309,3.92605263 L2.81475,4.32026316 L2.969,3.63578947 L3.8905,3.87447368 L3.72975,3.07184211 L4.3845,3.23894737 L4.05075,2.68684211 L4.7805,2.64868421 C4.7805,2.64868421 3.05825,1.26973684 2.5615,0.0981578947 L2.5615,0.0981578947 L0.129,1.13578947 Z" id="path-43"></path>
        <linearGradient x1="-0.000703536494%" y1="50.00078%" x2="100.003638%" y2="50.00078%" id="linearGradient-45">
            <stop stop-color="#1D7E00" offset="0%"></stop>
            <stop stop-color="#FFB12A" offset="100%"></stop>
        </linearGradient>
        <path d="M6.657875,3.367 C3.37720833,3.926 0.588583333,3.1995 0.588583333,3.1995 L0.588583333,3.1995 L0.270083333,4.4955 C0.270083333,4.4955 4.88191667,5.55975 8.70391667,3.9605 L8.70391667,3.9605 C12.5262083,2.36125 13.9104583,0.55525 13.9104583,0.55525 L13.9104583,0.55525 L13.30875,0.0395 C13.30875,0.0395 9.6635,2.855 6.657875,3.367" id="path-46"></path>
        <linearGradient x1="-0.000304702034%" y1="49.9987973%" x2="100.000752%" y2="49.9987973%" id="linearGradient-48">
            <stop stop-color="#1D7E00" offset="0%"></stop>
            <stop stop-color="#FFB12A" offset="100%"></stop>
        </linearGradient>
        <path d="M6.56075,3.37275 C3.28066667,3.93175 0.491458333,3.20525 0.491458333,3.20525 L0.491458333,3.20525 L0.215833333,4.51225 C0.215833333,4.51225 4.785375,5.56525 8.607375,3.966 L8.607375,3.966 C12.429375,2.367 13.813625,0.561 13.813625,0.561 L13.813625,0.561 L13.2119167,0.04525 C13.2119167,0.04525 9.56666667,2.86075 6.56075,3.37275" id="path-49"></path>
        <linearGradient x1="0.000306299736%" y1="49.9999328%" x2="100.00099%" y2="49.9999328%" id="linearGradient-51">
            <stop stop-color="#1D7E00" offset="0%"></stop>
            <stop stop-color="#FFB12A" offset="100%"></stop>
        </linearGradient>
    </defs>
    <g id="Home" stroke="none" stroke-width="1" fill="none" fill-rule="evenodd">
        <g id="Group-40">
            <g id="Group-37">
                <g id="Group-226" transform="translate(0.000000, 25.000000)" fill="#332763">
                    <path d="M8.12217913,8.94874198 C7.95247724,8.73633632 7.72228482,8.62206745 7.54272927,8.64223255 L0.761769919,0.148157075 L0.525008401,0.330449528 L7.30596775,8.824525 C7.24301382,8.99095425 7.30104092,9.23804387 7.47074282,9.45044953 C7.69190271,9.72765236 8.01707344,9.83977028 8.19690271,9.70157217 C8.37700569,9.56283632 8.34333902,9.22594481 8.12217913,8.94874198" id="Fill-224"></path>
                </g>
                <g id="Group-229" transform="translate(11.000000, 12.000000)">
                    <mask id="mask-2" fill="white">
                        <use xlink:href="#path-1"></use>
                    </mask>
                    <g id="Clip-228"></g>
                    <path d="M0.956057971,0.582037037 C0.206246377,1.21566667 -0.289405797,2.59725926 1.18681159,4.30525926 L1.18681159,4.30525926 C2.66357971,6.01325926 10.085971,7.00051852 11.7844058,6.72803704 L11.7844058,6.72803704 C13.4831159,6.45555556 18.8992174,4.2642963 18.8992174,4.2642963 L18.8992174,4.2642963 L18.6384493,3.03566667 C18.6384493,3.03566667 11.7491594,3.98507407 11.1846667,4.30888889 L11.1846667,4.30888889 C10.9387681,4.45018519 9.47934783,3.32603704 7.68673913,2.20162963 L7.68673913,2.20162963 C5.99711594,1.14203704 4.01092754,0.0824444444 2.4655942,0.0824444444 L2.4655942,0.0824444444 C1.88788406,0.0824444444 1.37185507,0.230481481 0.956057971,0.582037037" id="Fill-227" fill="url(#linearGradient-3)" mask="url(#mask-2)"></path>
                </g>
                <path d="M30.0318059,16.0882667 C30.0318059,16.0882667 30.5054688,14.0050667 31.7290164,14.0245333 L31.368876,14.6445333 C31.368876,14.6445333 32.373697,14.904 32.6998296,14 C32.6998296,14 33.3178423,14.5133333 32.7803229,15.5754667 C32.2428036,16.6376 30,17 30,17 L30.0318059,16.0882667 Z" id="Fill-230" fill="#FFBB92"></path>
                <g id="Group-234" transform="translate(6.000000, 27.000000)">
                    <mask id="mask-5" fill="white">
                        <use xlink:href="#path-4"></use>
                    </mask>
                    <g id="Clip-233"></g>
                    <path d="M11.432082,0.09072 C10.0642787,0.1134 9.05542623,1.34568 8.51281967,2.8546 L8.51281967,2.8546 C8.01229508,4.23668 7.90722951,5.852 8.28290164,6.97704 L8.28290164,6.97704 C9.06796721,9.32764 6.08627869,13.76536 6.08627869,13.76536 L6.08627869,13.76536 C1.66683607,15.21436 0.0284262295,27.86952 0.0284262295,27.86952 L0.0284262295,27.86952 L1.84519672,27.72168 C2.19327869,26.64648 2.74981967,25.50632 3.41142623,24.3852 L3.41142623,24.3852 C5.84660656,20.24344 9.69947541,16.30552 9.69947541,16.30552 L9.69947541,16.30552 C12.3308525,14.35532 14.5453115,9.1784 15.7411639,5.915 L15.7411639,5.915 C16.345918,4.2616 16.6878689,3.09708 16.6878689,3.09708 L16.6878689,3.09708 C16.8283279,2.45672 16.757541,1.95412 16.5354262,1.5526 L16.5354262,1.5526 C15.8551475,0.33068 13.7672131,0.0868 11.8620984,0.0868 L11.8620984,0.0868 C11.717459,0.0868 11.5739344,0.0882 11.432082,0.09072" id="Fill-232" fill="url(#linearGradient-6)" mask="url(#mask-5)"></path>
                </g>
                <g id="Group-245" transform="translate(4.000000, 10.000000)">
                    <g id="Group-237" transform="translate(1.911430, 19.906136)">
                        <mask id="mask-8" fill="white">
                            <use xlink:href="#path-7"></use>
                        </mask>
                        <g id="Clip-236"></g>
                        <path d="M15.4233326,4.33765453 C14.7868262,3.94114583 12.9949967,3.22721497 11.3421554,6.33795215 C9.29200969,10.2061985 11.0024669,11.3448832 8.21587433,11.9170501 C5.42545889,12.490024 1.40435528,20.1794414 2.63668182,21.5206845 C2.89035595,21.7980254 3.12682721,21.9715316 3.34227273,22.0826293 C2.69457086,23.1594437 2.14926705,24.2548191 1.80794017,25.2880552 L0.0278522727,25.4298191 C0.0278522727,25.4298191 1.63345388,13.2720124 5.9636631,11.8799279 C5.9636631,11.8799279 8.88460194,7.61624886 8.11593382,5.35824748 C7.74757386,4.27712912 7.85051805,2.72525755 8.3409365,1.39746451 L16.2018309,0.146605998 C16.4191878,0.532085623 16.4888185,1.01521291 16.3509225,1.6304201 C16.3509225,1.6304201 16.015876,2.74919872 15.4233326,4.33765453" id="Fill-235" fill="url(#linearGradient-9)" mask="url(#mask-8)"></path>
                    </g>
                    <path d="M7.01180966,48.8077461 L3.38773747,48.0085417 L0.108815007,47.2857337 L1.49050618,45.2154957 C1.49050618,45.2154957 1.94187684,43.0123707 1.97082136,42.8977759 L2.03417162,42.8969689 L5.08481467,42.8776007 L3.62202423,46.1107337 L7.01180966,48.8077461 Z" id="Fill-238" fill="#A12C1D"></path>
                    <g id="Group-242" transform="translate(0.000000, 42.771291)">
                        <mask id="mask-11" fill="white">
                            <use xlink:href="#path-10"></use>
                        </mask>
                        <g id="Clip-241"></g>
                        <path d="M0.108678476,4.51438874 L1.49064271,2.44415064 C1.49064271,2.44415064 1.94201337,0.241025641 1.97095789,0.126430861 L2.03403509,0.125892857 L2.50752373,3.40287317 C2.50752373,3.40287317 1.89531985,4.05708562 3.38760094,5.23746566 L0.108678476,4.51438874 Z" id="Fill-240" fill="url(#linearGradient-12)" mask="url(#mask-11)"></path>
                    </g>
                    <path d="M8.59043279,0.837295101 C8.59043279,0.837295101 9.32906414,3.19052312 8.84164936,3.41567766 C8.35423459,3.64110119 11.5403161,5.01543155 12.1992135,3.11708562 C12.858384,1.2190087 11.0755655,0.197339744 11.0755655,0.197339744 L8.59043279,0.837295101 Z" id="Fill-243" fill="#BF6D49"></path>
                </g>
                <g id="Group-248" transform="translate(16.000000, 27.000000)">
                    <mask id="mask-14" fill="white">
                        <use xlink:href="#path-13"></use>
                    </mask>
                    <g id="Clip-247"></g>
                    <path d="M0.874166667,2.16460377 C-0.108611111,2.9960283 0.0841666667,4.4805 0.826388889,5.88590566 L0.826388889,5.88590566 C1.50388889,7.17421698 2.64638889,8.39495283 3.77083333,8.97714151 L3.77083333,8.97714151 C6.11861111,10.1937736 7.28888889,15.1516792 7.28888889,15.1516792 L7.28888889,15.1516792 C5.15166667,18.8240094 13.5066667,28.8703208 13.5066667,28.8703208 L13.5066667,28.8703208 L14.7233333,27.6818679 C14.1661111,26.7032547 13.7122222,25.5544717 13.3494444,24.3569906 L13.3494444,24.3569906 C12.0036111,19.9369528 11.8475,14.8184528 11.8475,14.8184528 L11.8475,14.8184528 C12.2991667,11.8525189 10.0102778,6.82211321 8.42111111,3.77054717 L8.42111111,3.77054717 C7.61527778,2.22506604 6.98638889,1.18681132 6.98638889,1.18681132 L6.98638889,1.18681132 C6.60555556,0.644018868 6.17416667,0.325839623 5.70888889,0.170443396 L5.70888889,0.170443396 C5.47333333,0.0924716981 5.23027778,0.0569056604 4.98166667,0.0569056604 L4.98166667,0.0569056604 C3.61694444,0.0569056604 2.09472222,1.13017925 0.874166667,2.16460377" id="Fill-246" fill="url(#linearGradient-15)" mask="url(#mask-14)"></path>
                </g>
                <g id="Group-257" transform="translate(18.000000, 28.000000)">
                    <g id="Group-251">
                        <mask id="mask-17" fill="white">
                            <use xlink:href="#path-16"></use>
                        </mask>
                        <g id="Clip-250"></g>
                        <path d="M8.46378378,3.65202762 C7.69864865,3.7407977 5.85189189,4.2803078 7.03027027,7.50199927 C8.49918919,11.5051324 10.6113514,11.3199077 9.02540541,13.3748688 C7.43810811,15.4332747 10.3972973,23.3584556 12.317027,23.6011821 C12.7132432,23.6523243 13.0178378,23.6380151 13.2589189,23.5913777 C13.6121622,24.7512184 14.0535135,25.8638917 14.5956757,26.8114792 L13.4116216,27.9628404 C13.4116216,27.9628404 5.2827027,18.2323146 7.36216216,14.6754167 C7.36216216,14.6754167 6.22351351,9.87361784 3.93891892,8.69496316 C2.84513514,8.13080942 0.65027027,6.17733768 0.176216216,4.05268542 L5.82486486,0.165085852 C6.27756757,0.315597511 6.6972973,0.623510448 7.06783784,1.1495063 C7.06783784,1.1495063 7.67972973,2.15512557 8.46378378,3.65202762" id="Fill-249" fill="url(#linearGradient-18)" mask="url(#mask-17)"></path>
                    </g>
                    <path d="M19.7485405,27.4826075 L16.5066486,29.0407212 L13.5731351,30.4501781 L12.9936757,28.1400361 C12.9936757,28.1400361 11.6371892,26.282754 11.5707027,26.1828545 L11.6161081,26.1449616 L13.8161081,24.333257 L15.2258378,27.5313648 L19.7485405,27.4826075 Z" id="Fill-252" fill="#A12C1D"></path>
                    <g id="Group-256" transform="translate(11.351351, 25.968561)">
                        <mask id="mask-20" fill="white">
                            <use xlink:href="#path-19"></use>
                        </mask>
                        <g id="Clip-255"></g>
                        <path d="M2.22189189,4.48169664 L1.64243243,2.17155466 C1.64243243,2.17155466 0.285945946,0.314007599 0.219459459,0.214108135 L0.264594595,0.17648022 L3.11378378,2.26535946 C3.11378378,2.26535946 3.16945946,3.09847329 5.15513514,3.07223975 L2.22189189,4.48169664 Z" id="Fill-254" fill="url(#linearGradient-21)" mask="url(#mask-20)"></path>
                    </g>
                </g>
                <g id="Group-260" transform="translate(9.000000, 13.000000)">
                    <mask id="mask-23" fill="white">
                        <use xlink:href="#path-22"></use>
                    </mask>
                    <g id="Clip-259"></g>
                    <path d="M1.89972222,1.25479518 C1.89972222,1.25479518 -0.630555556,2.32881928 0.581388889,5.30306024 L0.581388889,5.30306024 C2.37861111,9.71392771 3.17972222,10.098 2.7225,12.0663373 L2.7225,12.0663373 C2.2625,14.0344096 1.57611111,18.7940964 0.716388889,21.0913735 L0.716388889,21.0913735 C0.158333333,22.5823373 7.84694444,21.8319518 11.2066667,20.1891084 L11.2066667,20.1891084 C11.9708333,19.8151084 12.6286111,19.1201205 13.27,18.4659518 L13.27,18.4659518 C14.4508333,17.2692048 14.1963889,17.0730602 14.7413889,16.4610361 L14.7413889,16.4610361 C15.5705556,15.5269639 9.86333333,7.39995181 10.1416667,4.23221687 L10.1416667,4.23221687 C10.1444444,4.18742169 10.1502778,4.14289157 10.1561111,4.09809639 L10.1561111,4.09809639 C10.4761111,1.95322892 6.94111111,0.13173494 4.34444444,0.132 L4.34444444,0.132 C3.23111111,0.13226506 2.29,0.467036145 1.89972222,1.25479518" id="Fill-258" fill="url(#linearGradient-24)" mask="url(#mask-23)"></path>
                </g>
                <g id="Group-267" transform="translate(10.000000, 3.000000)">
                    <path d="M6.14148235,2.41811379 C7.25724706,4.59945862 7.65183529,5.3149069 7.78642353,5.54180345 C7.8556,5.65597586 7.86430588,5.66032069 7.86665882,5.65887241 C7.86665882,5.65887241 5.51536471,7.8114931 3.05395294,6.63428621 C2.31818824,6.28259655 1.75983529,5.76097586 1.3916,5.16259655 C0.5236,3.76018276 0.703129412,1.92835517 2.1076,0.839493103 C2.1076,0.839493103 4.43042353,-0.935127586 6.14148235,2.41811379" id="Fill-261" fill="#FFBB92"></path>
                    <path d="M4.39642353,0.507934483 C4.39642353,0.507934483 3.12701176,2.45900345 3.09407059,3.54279655 C3.06136471,4.62634828 2.61877647,3.52686552 2.12301176,4.03352069 C1.62701176,4.54065862 2.5056,5.46514138 3.13571765,5.60658966 C3.76607059,5.74803793 3.00348235,6.83134828 3.00348235,6.83134828 C3.00348235,6.83134828 0.4176,6.15983103 0.0773647059,3.48341724 C-0.262870588,0.807003448 3.24936471,-0.676996552 4.39642353,0.507934483" id="Fill-263" fill="#543A67"></path>
                    <path d="M5.71261176,2.69719655 C5.74531765,2.85481724 5.67449412,3.00374828 5.55449412,3.02981724 C5.43449412,3.05612759 5.31072941,2.94943793 5.27802353,2.79205862 C5.24531765,2.63443793 5.31614118,2.4855069 5.43614118,2.45919655 C5.55614118,2.43312759 5.67990588,2.53957586 5.71261176,2.69719655" id="Fill-265" fill="#543A67"></path>
                </g>
                <g id="Group-270" transform="translate(12.000000, 11.000000)">
                    <mask id="mask-26" fill="white">
                        <use xlink:href="#path-25"></use>
                    </mask>
                    <g id="Clip-269"></g>
                    <path d="M0.456052632,1.32633333 C0.998947368,1.87666667 4.74605263,1.94566667 4.74605263,1.94566667 L4.74605263,1.94566667 L4.36605263,0.569666667 C3.55131579,1.464 0.564473684,0.294666667 0.564473684,0.294666667 L0.564473684,0.294666667 C0.564473684,0.294666667 -0.0873684211,0.776 0.456052632,1.32633333" id="Fill-268" fill="url(#linearGradient-27)" mask="url(#mask-26)"></path>
                </g>
                <g id="Group-278" transform="translate(10.000000, 5.000000)">
                    <g id="Group-273" transform="translate(1.996435, 6.168317)">
                        <mask id="mask-29" fill="white">
                            <use xlink:href="#path-28"></use>
                        </mask>
                        <g id="Clip-272"></g>
                        <path d="M12.2834938,16.8512821 C11.7239216,17.4989554 10.2285918,20.7081626 7.37882353,21.2868629 C6.84948307,20.7011532 7.98773619,16.7506263 6.71229947,14.8076064 C5.14196078,12.4154208 5.22010695,11.4127889 2.00442068,9.17397006 C-1.21440285,6.93851581 0.434081996,2.46396238 0.434081996,2.46396238 C0.414117647,-0.931696287 7.74188948,-0.613467191 7.56078431,3.91604034 C7.27500891,7.26683851 13.1348307,15.8635102 12.2834938,16.8512821" id="Fill-271" fill="url(#linearGradient-30)" mask="url(#mask-29)"></path>
                    </g>
                    <path d="M8.10931907,3.20853435 C8.10931907,3.20853435 5.2592656,5.70894587 2.27573619,4.34182246 C1.38390018,3.93303125 0.707108734,3.32713426 0.260762923,2.63207706 L2.47595009,0.0340939719 C2.47595009,0.0340939719 3.33698396,2.16721024 4.49063815,2.20786506 C5.64144029,2.25048252 4.99545098,1.84169131 5.8821533,2.60460001 C6.62653832,3.24638538 7.59823173,3.02320445 8.01206417,3.07283137 C8.09591444,3.20516981 8.10646702,3.21021661 8.10931907,3.20853435" id="Fill-274" fill="#FFBB92"></path>
                    <path d="M6.89819608,1.02015556 C6.89819608,1.02015556 6.3451836,1.87811242 6.02347237,1.93643106 C5.70176114,1.99503007 5.65242068,2.41139149 6.35259893,2.57541265 C7.05277718,2.7397142 7.42211765,2.04409623 7.42211765,2.04409623 L6.89819608,1.02015556 Z" id="Fill-276" fill="#E2956F"></path>
                </g>
                <g id="Group-281" transform="translate(3.000000, 14.000000)">
                    <mask id="mask-32" fill="white">
                        <use xlink:href="#path-31"></use>
                    </mask>
                    <g id="Clip-280"></g>
                    <path d="M11.4219231,0.0947222222 C8.97230769,0.144444444 3.32625,5.40055556 2.47153846,6.93138889 L2.47153846,6.93138889 C1.61682692,8.46222222 0.0525,14.215 0.0525,14.215 L0.0525,14.215 L1.29894231,14.8169444 C1.29894231,14.8169444 4.90153846,8.70972222 4.98086538,8.04722222 L4.98086538,8.04722222 C5.05990385,7.38472222 15.1035577,6.02638889 14.8384615,2.36277778 L14.8384615,2.36277778 C14.7663462,1.36805556 13.9047115,0.0933333333 11.5577885,0.0933333333 L11.5577885,0.0933333333 C11.5130769,0.0933333333 11.4677885,0.0938888889 11.4219231,0.0947222222" id="Fill-279" fill="url(#linearGradient-33)" mask="url(#mask-32)"></path>
                </g>
                <g id="Group-286" transform="translate(3.000000, 8.000000)">
                    <path d="M32.1650202,0.610230588 C32.0391411,0.849971765 32.0261008,1.10459529 32.1149879,1.25883059 L27.0854153,10.8436071 L27.3438266,10.9835012 L32.3731331,1.39899529 C32.548246,1.38817176 32.7491734,1.23528941 32.8750524,0.995548235 C33.039254,0.682748235 33.0131734,0.34316 32.8170363,0.236818824 C32.6208992,0.130477647 32.3289556,0.297701176 32.1650202,0.610230588" id="Fill-282" fill="#332763"></path>
                    <path d="M1.21064758,19.1932024 C1.21064758,19.1932024 2.90455887,20.52612 2.34914758,21.7562141 L1.9414379,21.13792 C1.9414379,21.13792 1.26334113,22.0481788 1.94542984,22.7484612 C1.94542984,22.7484612 1.20505887,23.1632729 0.471607258,22.1842847 C-0.262110484,21.2052965 0.392300806,18.7875906 0.392300806,18.7875906 L1.21064758,19.1932024 Z" id="Fill-284" fill="#FFBB92"></path>
                </g>
                <g id="Group-289" transform="translate(4.000000, 50.000000)">
                    <mask id="mask-35" fill="white">
                        <use xlink:href="#path-34"></use>
                    </mask>
                    <g id="Clip-288"></g>
                    <path d="M0.145454545,2.46352941 L0.958409091,2.34776471 L0.770909091,2.92611765 L1.52136364,2.55035294 L1.615,3.44658824 L2.20909091,3.07082353 L2.27159091,3.62 L2.83454545,3.27317647 L3.27227273,3.96705882 L3.71,3.36 L4.0225,3.85152941 L4.17909091,3.30211765 L4.67909091,3.70705882 C4.67909091,3.70705882 4.49181818,1.81294118 4.96068182,0.772 L4.96068182,0.772 L2.67795455,0.00564705882 C2.67795455,0.00564705882 1.27113636,2.17435294 0.145454545,2.46352941" id="Fill-287" fill="url(#linearGradient-36)" mask="url(#mask-35)"></path>
                </g>
                <g id="Group-292" transform="translate(1.000000, 25.000000)">
                    <mask id="mask-38" fill="white">
                        <use xlink:href="#path-37"></use>
                    </mask>
                    <g id="Clip-291"></g>
                    <path d="M0.218133333,1.76125 L0.838133333,1.68125 L0.6952,2.08075 L1.26773333,1.821 L1.3392,2.4405 L1.79226667,2.1805 L1.84026667,2.56025 L2.26933333,2.3205 L2.60346667,2.79975 L2.93733333,2.38025 L3.176,2.72 L3.2952,2.3405 L3.6768,2.62 C3.6768,2.62 3.5336,1.31175 3.89146667,0.59275 L3.89146667,0.59275 L2.15013333,0.063 C2.15013333,0.063 1.0768,1.5615 0.218133333,1.76125" id="Fill-290" fill="url(#linearGradient-39)" mask="url(#mask-38)"></path>
                </g>
                <g id="Group-295" transform="translate(28.000000, 14.000000)">
                    <mask id="mask-41" fill="white">
                        <use xlink:href="#path-40"></use>
                    </mask>
                    <g id="Clip-294"></g>
                    <path d="M0.217846154,1.45428571 L0.717230769,3.31542857 C0.717230769,3.31542857 2.38153846,3.22742857 2.97069231,3.83314286 L2.97069231,3.83314286 L2.59292308,3.352 L2.96353846,3.20485714 L2.47684615,2.88657143 L2.90053846,2.40542857 L2.475,2.19028571 L2.73276923,1.89228571 L2.33446154,1.684 L2.51953846,1.07114286 L2.03630769,1.06685714 L2.16669231,0.631142857 L1.82330769,0.785142857 L1.83553846,0.266571429 C1.83553846,0.266571429 0.936,1.27628571 0.217846154,1.45428571" id="Fill-293" fill="url(#linearGradient-42)" mask="url(#mask-41)"></path>
                </g>
                <g id="Group-298" transform="translate(27.000000, 51.000000)">
                    <mask id="mask-44" fill="white">
                        <use xlink:href="#path-43"></use>
                    </mask>
                    <g id="Clip-297"></g>
                    <path d="M0.129,1.13578947 C0.129,1.13578947 0.82575,3.88736842 0.181,4.93263158 L0.181,4.93263158 L0.724,4.25236842 L1.0575,4.85052632 L1.335,4.00736842 L2.15425,4.65657895 L2.309,3.92605263 L2.81475,4.32026316 L2.969,3.63578947 L3.8905,3.87447368 L3.72975,3.07184211 L4.3845,3.23894737 L4.05075,2.68684211 L4.7805,2.64868421 C4.7805,2.64868421 3.05825,1.26973684 2.5615,0.0981578947 L2.5615,0.0981578947 L0.129,1.13578947 Z" id="Fill-296" fill="url(#linearGradient-45)" mask="url(#mask-44)"></path>
                </g>
                <g id="Group-315" transform="translate(7.000000, 45.000000)" fill="#F7941D">
                    <polygon id="Fill-299" points="3.28569882 5.17332 0.117381176 4.25076 0.27784 3.90492 3.44615765 4.82748"></polygon>
                    <polygon id="Fill-301" points="4.15929294 4.067064 0.536116471 3.012024 0.696845882 2.666184 4.31975176 3.720984"></polygon>
                    <polygon id="Fill-303" points="4.91453176 3.16284 1.06812 1.575 1.30948471 1.2078 5.15589647 2.79564"></polygon>
                    <polygon id="Fill-305" points="5.87043882 2.117304 1.72935647 0.407784 1.94447412 0.080904 6.08528588 1.790424"></polygon>
                    <polygon id="Fill-307" points="22.7939471 4.911984 19.5763824 5.906544 19.4042882 5.553264 22.6218529 4.558944"></polygon>
                    <polygon id="Fill-309" points="22.5197871 3.589392 18.8403282 4.726512 18.6682341 4.373712 22.3474224 3.236352"></polygon>
                    <polygon id="Fill-311" points="22.3271553 2.486208 18.0218259 3.332928 17.8935671 2.920368 22.1988965 2.073408"></polygon>
                    <polygon id="Fill-313" points="22.1679412 1.166208 17.5327647 2.077968 17.4185765 1.710288 22.0537529 0.798768"></polygon>
                </g>
                <g id="Group-318" transform="translate(10.000000, 26.000000)">
                    <mask id="mask-47" fill="white">
                        <use xlink:href="#path-46"></use>
                    </mask>
                    <g id="Clip-317"></g>
                    <path d="M6.657875,3.367 C3.37720833,3.926 0.588583333,3.1995 0.588583333,3.1995 L0.588583333,3.1995 L0.270083333,4.4955 C0.270083333,4.4955 4.88191667,5.55975 8.70391667,3.9605 L8.70391667,3.9605 C12.5262083,2.36125 13.9104583,0.55525 13.9104583,0.55525 L13.9104583,0.55525 L13.30875,0.0395 C13.30875,0.0395 9.6635,2.855 6.657875,3.367" id="Fill-316" fill="url(#linearGradient-48)" mask="url(#mask-47)"></path>
                </g>
                <g id="Group-321" transform="translate(10.000000, 24.000000)">
                    <mask id="mask-50" fill="white">
                        <use xlink:href="#path-49"></use>
                    </mask>
                    <g id="Clip-320"></g>
                    <path d="M6.56075,3.37275 C3.28066667,3.93175 0.491458333,3.20525 0.491458333,3.20525 L0.491458333,3.20525 L0.215833333,4.51225 C0.215833333,4.51225 4.785375,5.56525 8.607375,3.966 L8.607375,3.966 C12.429375,2.367 13.813625,0.561 13.813625,0.561 L13.813625,0.561 L13.2119167,0.04525 C13.2119167,0.04525 9.56666667,2.86075 6.56075,3.37275" id="Fill-319" fill="url(#linearGradient-51)" mask="url(#mask-50)"></path>
                </g>
                <g id="Group-364" transform="translate(6.000000, 0.000000)">
                    <path d="M17.4779182,27.6387191 C17.2856455,27.6542085 17.0971909,27.5444 17.0191909,27.3538255 L11.1803727,13.1179957 C10.7980091,12.1742511 9.7851,11.6730596 8.8161,11.9532511 L3.60291818,13.4587617 C3.36128182,13.5273574 3.10628182,13.386017 3.03673636,13.1392936 C2.96773636,12.8925702 3.10846364,12.6358894 3.35200909,12.5653574 L8.56546364,11.0598468 C9.97928182,10.6510383 11.4678273,11.3829106 12.0266455,12.7631234 L17.8646455,26.9975702 C17.9617364,27.2340596 17.8512818,27.5059532 17.6178273,27.6044213 C17.5720091,27.623783 17.5248273,27.6348468 17.4779182,27.6387191" id="Fill-322" fill="#332763"></path>
                    <polygon id="Fill-324" fill="#332763" points="29.7723545 25.8975766 16.8246273 27.967066 15.8070818 21.4203213 28.7550818 19.3508319"></polygon>
                    <path d="M28.8352364,19.8675681 L15.8875091,21.9370574 L15.7754182,21.2165255 C15.7486909,21.0439298 15.8648727,20.8815681 16.0353273,20.8544617 L28.3661455,18.8834404 C28.5366,18.856334 28.6964182,18.9744404 28.7231455,19.1470362 L28.8352364,19.8675681 Z" id="Fill-326" fill="#ED5D49"></path>
                    <path d="M29.5523455,26.4623851 L17.2051636,28.4358957 C17.0393455,28.4621723 16.8836182,28.3473851 16.8577091,28.1794915 L16.7442545,27.4503851 L29.6919818,25.3808957 L29.8054364,26.1100021 C29.8313455,26.2778957 29.7181636,26.4355553 29.5523455,26.4623851" id="Fill-328" fill="#ED5D49"></path>
                    <polygon id="Fill-330" fill="#523E9E" points="19.3892727 27.4193787 18.6280909 27.5408043 17.6525455 21.2634638 18.4137273 21.1417617"></polygon>
                    <path d="M18.3413727,21.0155511 C18.3700091,21.1997638 18.2459182,21.3729128 18.0640091,21.4016787 C17.8823727,21.4309979 17.7116455,21.3051468 17.6830091,21.1206574 C17.6543727,20.9364447 17.7787364,20.7632957 17.9603727,20.7339766 C18.1422818,20.7052106 18.3127364,20.8310617 18.3413727,21.0155511" id="Fill-332" fill="#FFD51C"></path>
                    <path d="M19.3587818,27.5619915 C19.3874182,27.7464809 19.2633273,27.9193532 19.0814182,27.9483957 C18.8995091,27.9777149 18.7290545,27.8515872 18.7004182,27.6673745 C18.6717818,27.4828851 18.7958727,27.3100128 18.9777818,27.2806936 C19.1596909,27.2519277 19.3301455,27.3777787 19.3587818,27.5619915" id="Fill-334" fill="#FFD51C"></path>
                    <polygon id="Fill-336" fill="#523E9E" points="22.2352091 26.964517 21.4740273 27.0859426 20.4984818 20.8083255 21.2596636 20.6869"></polygon>
                    <path d="M21.1873091,20.5604128 C21.2159455,20.7449021 21.0918545,20.9180511 20.9099455,20.946817 C20.7280364,20.9761362 20.5575818,20.8502851 20.5289455,20.6657957 C20.5003091,20.4813064 20.6244,20.308434 20.8063091,20.2791149 C20.9882182,20.2503489 21.1586727,20.3762 21.1873091,20.5604128" id="Fill-338" fill="#FFD51C"></path>
                    <path d="M22.2046909,27.1071298 C22.2333273,27.2916191 22.1092364,27.4644915 21.9273273,27.493534 C21.7454182,27.5225766 21.5749636,27.3967255 21.5463273,27.2125128 C21.5176909,27.0280234 21.6417818,26.8551511 21.8236909,26.8258319 C22.0053273,26.7967894 22.1760545,26.922917 22.2046909,27.1071298" id="Fill-340" fill="#FFD51C"></path>
                    <polygon id="Fill-342" fill="#523E9E" points="25.0811182 26.5096553 24.3199364 26.6310809 23.3443909 20.3534638 24.1055727 20.2320383"></polygon>
                    <path d="M24.0332182,20.1055234 C24.0618545,20.2900128 23.9377636,20.4628851 23.7558545,20.4919277 C23.5739455,20.5212468 23.4034909,20.3953957 23.3748545,20.2109064 C23.3462182,20.026417 23.4703091,19.8535447 23.6522182,19.8242255 C23.8338545,19.7954596 24.0045818,19.9213106 24.0332182,20.1055234" id="Fill-344" fill="#FFD51C"></path>
                    <path d="M25.0506273,26.6522681 C25.0792636,26.8367574 24.9549,27.0096298 24.7732636,27.0386723 C24.5913545,27.0677149 24.4209,26.9418638 24.3922636,26.7576511 C24.3636273,26.5731617 24.4877182,26.4000128 24.6696273,26.3709702 C24.8512636,26.3419277 25.0219909,26.4677787 25.0506273,26.6522681" id="Fill-346" fill="#FFD51C"></path>
                    <polygon id="Fill-348" fill="#523E9E" points="27.9270545 26.054517 27.1658727 26.1762191 26.1903273 19.8986021 26.9515091 19.7771766"></polygon>
                    <path d="M26.8791545,19.6506617 C26.9077909,19.8351511 26.7834273,20.0080234 26.6017909,20.037066 C26.4198818,20.0661085 26.2494273,19.9402574 26.2207909,19.7560447 C26.1921545,19.5715553 26.3162455,19.398683 26.4981545,19.3693638 C26.6797909,19.3405979 26.8505182,19.4664489 26.8791545,19.6506617" id="Fill-350" fill="#FFD51C"></path>
                    <path d="M27.8964273,26.1974064 C27.9250636,26.3816191 27.8009727,26.5547681 27.6190636,26.5838106 C27.4374273,26.6128532 27.2667,26.4870021 27.2380636,26.3027894 C27.2094273,26.1183 27.3337909,25.9451511 27.5154273,25.9161085 C27.6973364,25.887066 27.8677909,26.012917 27.8964273,26.1974064" id="Fill-352" fill="#FFD51C"></path>
                    <path d="M7.39658182,1.75757234 L6.32203636,0.890168085 C4.71785455,-0.404576596 2.38249091,-0.13517234 1.10585455,1.49176383 C-0.170781818,3.1184234 0.0948545455,5.48691277 1.69876364,6.78165745 L2.77330909,7.6490617 L7.39658182,1.75757234 Z" id="Fill-354" fill="#ED5D49"></path>
                    <path d="M6.32206364,0.890085106 C6.1737,0.770319149 6.01742727,0.668531915 5.85788182,0.575319149 C5.13979091,1.31576596 4.29979091,2.28108511 3.4407,3.37612766 C2.58160909,4.47089362 1.84251818,5.51753191 1.29215455,6.39351064 C1.41760909,6.53042553 1.55042727,6.66208511 1.69879091,6.78157447 L2.77333636,7.64897872 L7.39660909,1.75748936 L6.32206364,0.890085106 Z" id="Fill-356" fill="#FFD51C"></path>
                    <path d="M9.05440909,0.0534106383 C9.41631818,0.345495745 8.02022727,2.73500638 5.93631818,5.39032553 C3.85268182,8.04592128 1.86995455,9.9619 1.50831818,9.67009149 C1.14640909,9.37800638 2.5425,6.98849574 4.62613636,4.3329 C6.71004545,1.67758085 8.6925,-0.238674468 9.05440909,0.0534106383" id="Fill-358" fill="#ED5D49"></path>
                </g>
            </g>
            <path d="M38.2625018,59.1051331 C38.2625018,60.2676323 30.1450379,61.2099904 20.1311138,61.2099904 C10.1177381,61.2099904 2,60.2676323 2,59.1051331 C2,57.9423581 10.1177381,57 20.1311138,57 C30.1450379,57 38.2625018,57.9423581 38.2625018,59.1051331" id="Fill-94" fill="#0098FF" opacity="0.147437686"></path>
        </g>
    </g>
</svg>