<?xml version="1.0" encoding="UTF-8"?>
<svg width="37px" height="66px" viewBox="0 0 37 66" version="1.1" xmlns="http://www.w3.org/2000/svg" xmlns:xlink="http://www.w3.org/1999/xlink">
    <!-- Generator: Sketch 55.2 (78181) - https://sketchapp.com -->
    <title>Group 43</title>
    <desc>Created with Sketch.</desc>
    <defs>
        <path d="M11.6413488,0.518965517 C11.6413488,0.518965517 10.1300233,3.43651724 10.3226047,4.05758621 L10.3226047,4.05758621 C10.386093,4.26203448 9.04376744,3.78917241 7.30690698,3.31631034 L7.30690698,3.31631034 C4.68937209,2.60351724 1.17634884,1.89072414 0.225232558,3.49493103 L0.225232558,3.49493103 C-0.212232558,4.23306897 -0.152976744,5.51962069 1.781,6.51675862 L1.781,6.51675862 C3.71437209,7.51413793 10.6687674,6.20996552 12.0936279,5.51648276 L12.0936279,5.51648276 C13.8782558,4.64824138 12.4730465,0.230034483 12.4730465,0.230034483 L12.4730465,0.230034483 L11.6413488,0.518965517 Z" id="path-1"></path>
        <linearGradient x1="-0.171525516%" y1="52.6424477%" x2="100.2777%" y2="48.6514518%" id="linearGradient-3">
            <stop stop-color="#91268E" offset="0%"></stop>
            <stop stop-color="#422D90" offset="100%"></stop>
        </linearGradient>
        <path d="M6.483,4.78589831 C6.483,4.78589831 9.933,7.74752542 12.1448182,7.43566102 L12.1448182,7.43566102 C13.9009091,7.19132203 14.8745455,8.25735593 15.1993636,8.70210169 L15.1993636,8.70210169 C15.2620909,8.79159322 15.3,8.85369492 15.3163636,8.88108475 L15.3163636,8.88108475 C15.2727273,8.81844068 15.2293636,8.76149153 15.183,8.70752542 L15.183,8.70752542 C13.4975455,6.58413559 10.1078182,7.61464407 8.373,9.2580339 L8.373,9.2580339 C7.63390909,9.96013559 6.07663636,10.9393898 4.50845455,11.8397288 L4.50845455,11.8397288 C2.95390909,12.7343729 1.38845455,13.556339 0.600272727,13.9631186 L0.600272727,13.9631186 C0.267818182,14.1339661 0.0739090909,14.231322 0.0739090909,14.231322 L0.0739090909,14.231322 L0.515727273,15.1265085 L0.938454545,15.9861695 C1.35845455,15.2322712 4.41845455,14.5597288 7.85209091,14.0200678 L7.85209091,14.0200678 C12.2072727,13.3339661 17.1711818,12.8618305 18.123,12.7181017 L18.123,12.7181017 C19.8248182,12.4526102 20.8066364,10.1065763 20.8066364,10.1065763 L20.8066364,10.1065763 C20.8066364,10.0987119 20.8066364,10.0878644 20.8039091,10.0797288 L20.8039091,10.0797288 C20.6481818,6.80922034 16.1348182,3.18047458 13.7239091,1.47227119 L13.7239091,1.47227119 C12.8427273,0.845559322 12.243,0.477016949 12.243,0.477016949 L12.243,0.477016949 C11.6236364,0.249491525 11.0689091,0.150237288 10.572,0.15050792 L10.572,0.15050792 C7.17436364,0.150779661 6.483,4.78589831 6.483,4.78589831" id="path-4"></path>
        <linearGradient x1="44.4773778%" y1="47.3456005%" x2="52.9705658%" y2="73.7338005%" id="linearGradient-6">
            <stop stop-color="#C3268E" offset="0%"></stop>
            <stop stop-color="#662D90" offset="100%"></stop>
        </linearGradient>
        <path d="M7.99082353,7.68048485 C7.99082353,7.68048485 7.88470588,7.71490909 7.70023529,7.78012121 C7.42047059,7.38060606 6.58235294,6.42884848 5.06729412,6.6470303 C3.15905882,6.92484848 0.182117647,4.27757576 0.182117647,4.27757576 C0.182117647,4.27757576 0.965882353,-1.16751515 5.14964706,0.426424242 C5.14964706,0.426424242 5.66823529,0.756606061 6.428,1.31612121 C5.82823529,1.584 4.51694118,2.40969697 5.34541176,4.27272727" id="path-7"></path>
        <linearGradient x1="92.4099123%" y1="123.728173%" x2="34.9499012%" y2="26.9599383%" id="linearGradient-9">
            <stop stop-color="#91268E" offset="0%"></stop>
            <stop stop-color="#662D90" offset="100%"></stop>
        </linearGradient>
        <path d="M0.23525,0.347 L0.28775,0.327 C0.28675,0.32675 0.28575,0.3265 0.28425,0.3265 L0.28425,0.3265 C0.27525,0.3265 0.25725,0.334 0.23525,0.347" id="path-10"></path>
        <linearGradient x1="63.03916%" y1="51.9127%" x2="43.8362%" y2="49.30658%" id="linearGradient-12">
            <stop stop-color="#91268E" offset="0%"></stop>
            <stop stop-color="#662D90" offset="100%"></stop>
        </linearGradient>
        <path d="M19.7290098,0.340195122 C19.7290098,0.340195122 18.7856775,2.66119512 17.1505681,2.92385366 C16.2360598,3.06604878 11.4667287,3.53314634 7.28226365,4.21192683 C3.98322082,4.74556098 1.04316835,5.41119512 0.639631736,6.15704878 L0.233212718,5.30656098 L0.314706151,4.15558537 C1.07199239,3.75314634 2.57608341,2.94021951 4.06969295,2.05485366 C4.10375773,2.36607317 4.56730076,2.66360976 6.20503052,2.61290244 C9.5200576,2.508 14.3386516,-0.362731707 16.0133286,0.163390244 C17.5960306,0.659731707 18.5052982,1.81070732 19.7263895,0.313634146" id="path-13"></path>
        <linearGradient x1="113.149639%" y1="52.8528176%" x2="19.6389657%" y2="48.8152398%" id="linearGradient-15">
            <stop stop-color="#91268E" offset="0%"></stop>
            <stop stop-color="#662D90" offset="100%"></stop>
        </linearGradient>
        <path d="M0.093547124,2.013 L2.83418962,1.48821951 C2.83418962,1.48821951 5.08587151,0.159634146 5.20640842,0.0944390244 L5.24833431,0.141658537 L2.64499908,2.98368293 C2.64499908,2.98368293 1.66471955,3.01668293 1.58925296,5.03934146 L0.093547124,2.013 Z" id="path-16"></path>
        <linearGradient x1="46.0637998%" y1="15.9369838%" x2="75.934574%" y2="71.8119726%" id="linearGradient-18">
            <stop stop-color="#1A95D1" offset="0%"></stop>
            <stop stop-color="#2A3890" offset="100%"></stop>
        </linearGradient>
        <path d="M1.60025,0.820163793 C0.50775,1.24748276 0.078,2.72693103 0.1075,4.33278448 L0.1075,4.33278448 C0.13275,5.80448276 0.54775,7.38281034 1.19775,8.34862069 L1.19775,8.34862069 C2.55525,10.3668276 1.53025,15.5005345 1.53025,15.5005345 L1.53025,15.5005345 C-1.57475,18.1986034 1.02025,30.8027759 1.02025,30.8027759 L1.02025,30.8027759 L2.43525,30.1226466 C2.38275,28.9895431 2.47775,27.7327069 2.66275,26.4633103 L2.66275,26.4633103 C3.34025,21.7745603 5.22,16.8607931 5.22,16.8607931 L5.22,16.8607931 C6.7325,14.2132328 6.91275,8.59902586 6.86525,5.11927586 L6.86525,5.11927586 C6.84025,3.35655172 6.75525,2.14033621 6.75525,2.14033621 L6.75525,2.14033621 C6.67025,1.48506034 6.45775,1.02487069 6.15525,0.706586207 L6.15525,0.706586207 C5.746,0.277931034 5.1745,0.114646552 4.5315,0.114646552 L4.5315,0.114646552 C3.6115,0.114646552 2.54525,0.4495 1.60025,0.820163793" id="path-19"></path>
        <linearGradient x1="48.8588042%" y1="50.471821%" x2="52.4304315%" y2="46.8276802%" id="linearGradient-21">
            <stop stop-color="#91268E" offset="0%"></stop>
            <stop stop-color="#422D90" offset="100%"></stop>
        </linearGradient>
        <path d="M7.47072013,4.53465771 C6.76339438,4.33456819 4.9134655,4.16698991 4.52688478,7.72868918 C4.05080014,12.1560334 5.97690256,12.766346 3.68924787,14.1645939 C1.39832859,15.5652205 0.500841038,24.3496 2.0705601,25.3024702 C2.39429765,25.5001809 2.66634602,25.6000935 2.89758713,25.645292 C2.69627134,26.9008075 2.59289296,28.1439 2.65002312,29.2648772 L1.11022937,29.9373048 C1.11022937,29.9373048 -1.71363265,17.4709609 1.66520804,14.8023957 C1.66520804,14.8023957 2.78033428,9.72482668 1.30338371,7.72868918 C0.596057966,6.77344011 0.144457681,5.21237177 0.116980797,3.75676673 L6.69810277,0.169957153 C7.02728129,0.485289785 7.25825036,0.94018288 7.35101885,1.5882932" id="path-22"></path>
        <linearGradient x1="53.1807692%" y1="50.3407577%" x2="48.009305%" y2="49.7617632%" id="linearGradient-24">
            <stop stop-color="#91268E" offset="0%"></stop>
            <stop stop-color="#662D90" offset="100%"></stop>
        </linearGradient>
        <path d="M0.158332148,4.9187133 L0.667334637,2.46371791 C0.667334637,2.46371791 0.298709104,0.157005519 0.284834637,0.0356830725 L0.3408766,0.0155948243 L1.91113976,3.10469162 C1.91113976,3.10469162 1.59365932,3.93306754 3.33939367,4.6496365 L0.158332148,4.9187133 Z" id="path-25"></path>
        <linearGradient x1="25.4708106%" y1="51.3945013%" x2="67.4710543%" y2="44.6426453%" id="linearGradient-27">
            <stop stop-color="#1A95D1" offset="0%"></stop>
            <stop stop-color="#2A3890" offset="100%"></stop>
        </linearGradient>
        <path d="M10.4278858,7.97662045 C9.69335526,7.78657505 9.13021515,7.5196128 8.70037873,7.22093227 C7.97128912,6.4250676 7.94408428,5.63211043 7.94408428,5.63211043 C7.87607219,5.83325723 7.79717817,6.02621014 7.7074022,6.20568278 C7.32381401,5.59272689 7.30449858,5.07994792 7.30449858,5.07994792 C6.59989331,7.16251776 4.78288229,8.09582834 3.9667372,8.42094078 C3.38156117,6.25616772 4.415617,4.74135521 4.4645857,4.6676102 C4.12724573,4.84206077 3.75998044,4.97131279 3.3845537,5.06118127 C3.56954659,4.49051643 3.80350818,4.15218804 3.82527205,4.11782656 C2.64730263,4.73078245 1.09390647,4.75747868 0.125414296,4.6940421 C1.76586593,2.18036789 4.67950391,1.01207766 4.67950391,1.01207766 C4.67950391,1.01207766 8.97786807,-0.750930436 11.559607,1.01709972 C11.649383,1.1125189 11.733718,1.21296014 11.812612,1.32133096" id="path-28"></path>
        <linearGradient x1="-0.000470232162%" y1="49.9994744%" x2="100.000448%" y2="49.9994744%" id="linearGradient-30">
            <stop stop-color="#1A95D1" offset="0%"></stop>
            <stop stop-color="#2A3890" offset="100%"></stop>
        </linearGradient>
        <path d="M1.51536,1.32244737 C1.51536,1.32244737 -0.19712,2.20140789 0.25536,5.32322368 L0.25536,5.32322368 C1.02368,10.6199211 5.46084,14.2426974 5.02376,16.1882368 L5.02376,16.1882368 C4.58444,18.1335 3.3138,16.5245132 2.94112,18.6214737 L2.94112,18.6214737 C2.667,20.1619342 7.84392,22.1083026 10.52828,19.7295 L10.52828,19.7295 C11.0208,19.2931974 11.22996,18.7273026 11.84288,18.0804474 L11.84288,18.0804474 C12.97156,16.8980921 13.26724,16.9563947 13.78804,16.3512632 L13.78804,16.3512632 C14.58044,15.4283684 9.12576,7.39586842 9.39204,4.26521053 L9.39204,4.26521053 C9.39484,4.22072368 9.40044,4.17678947 9.40576,4.13257895 L9.40576,4.13257895 C9.71152,2.01268421 6.33304,0.212486842 3.85168,0.212763158 L3.85168,0.212763158 C2.78796,0.212763158 1.8886,0.543789474 1.51536,1.32244737" id="path-31"></path>
        <linearGradient x1="34.9670758%" y1="75.6313838%" x2="58.5192423%" y2="28.0369215%" id="linearGradient-33">
            <stop stop-color="#C3268E" offset="0%"></stop>
            <stop stop-color="#662D90" offset="100%"></stop>
        </linearGradient>
        <path d="M0.272,0.6346 C0.732235294,0.9478 3.90870588,0.987 3.90870588,0.987 L3.90870588,0.987 L3.58658824,0.2042 C2.89576471,0.7132 0.363764706,0.0478 0.363764706,0.0478 L0.363764706,0.0478 C0.363764706,0.0478 -0.188470588,0.3218 0.272,0.6346" id="path-34"></path>
        <linearGradient x1="0.000267411985%" y1="49.999144%" x2="100.000514%" y2="49.999144%" id="linearGradient-36">
            <stop stop-color="#91268E" offset="0%"></stop>
            <stop stop-color="#662D90" offset="100%"></stop>
        </linearGradient>
        <path d="M10.8017381,13.8782373 C10.3145952,14.4721356 9.91361905,14.7568814 8.85840476,15.9175593 C8.39719048,15.3806102 7.0617381,13.7860339 5.951,12.0040678 C4.58411905,9.81044068 4.65195238,8.89111864 1.85245238,6.83823729 C-0.949928571,4.7880678 0.485047619,0.684745763 0.485047619,0.684745763 C1.3257619,-0.820338983 4.26459524,0.533152542 6.68983333,2.01627119" id="path-37"></path>
        <linearGradient x1="84.1799664%" y1="57.1547066%" x2="34.0127641%" y2="46.7419216%" id="linearGradient-39">
            <stop stop-color="#1A95D1" offset="0%"></stop>
            <stop stop-color="#2A3890" offset="100%"></stop>
        </linearGradient>
        <path d="M14.5785714,0.387151515 C14.5785714,0.387151515 12.3517143,3.93672727 12.4914286,4.7430303 L12.4914286,4.7430303 C12.5394286,5.01915152 10.878,4.21575758 8.75571429,3.41212121 L8.75571429,3.41212121 C5.76542857,2.28024242 1.85942857,1.14812121 0.528857143,3.03563636 L0.528857143,3.03563636 C-0.100571429,3.92848485 -0.216285714,5.56533333 1.94485714,7.01963636 L1.94485714,7.01963636 C4.10657143,8.47442424 12.5917143,7.50545455 14.3922857,6.76678788 L14.3922857,6.76678788 C16.6468571,5.84169697 15.6125714,0.102787879 15.6125714,0.102787879 L15.6125714,0.102787879 L14.5785714,0.387151515 Z" id="path-40"></path>
        <linearGradient x1="0.000434953936%" y1="49.9996676%" x2="100.000874%" y2="49.9996676%" id="linearGradient-42">
            <stop stop-color="#91268E" offset="0%"></stop>
            <stop stop-color="#662D90" offset="100%"></stop>
        </linearGradient>
        <path d="M1.42359494,0.174642857 C1.42359494,0.174642857 2.11394937,2.41071429 0.116126582,3.73848214" id="path-43"></path>
        <linearGradient x1="-0.0109042369%" y1="49.9988861%" x2="99.9967081%" y2="49.9988861%" id="linearGradient-45">
            <stop stop-color="#1A95D1" offset="0%"></stop>
            <stop stop-color="#2A3890" offset="100%"></stop>
        </linearGradient>
        <path d="M9.35167089,5.60866071 L6.97065823,6.69883929 L6.93139241,6.74410714 L6.70053165,6.80035714 L3.94356962,8.97294643 C2.76002532,9.25419643 1.62382278,9.24883929 0.682556962,9.14410714 C3.14432911,7.59883929 3.36962025,6.48723214 3.36962025,6.48723214 C3.29749367,6.35866071 3.20837975,6.22473214 3.10534177,6.088125 C3.18610127,5.97830357 3.21116456,5.91669643 3.21116456,5.91669643 C2.82129114,4.68723214 1.25344304,2.93008929 0.119746835,1.77294643 C3.93243038,1.625625 6.51673418,3.63991071 6.51673418,3.63991071 C6.55572152,3.58607143 6.58913924,3.51910714 6.61977215,3.44705357 C6.78964557,3.613125 6.87597468,3.71491071 6.87597468,3.71491071 C7.41622785,3.18964286 7.79496203,1.29348214 7.99268354,0.050625" id="path-46"></path>
        <linearGradient x1="0.00246357576%" y1="49.9993548%" x2="99.9993367%" y2="49.9993548%" id="linearGradient-48">
            <stop stop-color="#1A95D1" offset="0%"></stop>
            <stop stop-color="#2A3890" offset="100%"></stop>
        </linearGradient>
        <path d="M1.97847826,0.836470588 C0.000869565217,2.10235294 0.0643478261,3.52941176 0.0643478261,3.52941176 L0.0643478261,3.52941176 L0.787608696,3.78258824 C2.44652174,1.31976471 4.91326087,1.02047059 4.91326087,1.02047059 L4.91326087,1.02047059 L4.87086957,0.376 C4.87086957,0.376 4.58413043,0.123294118 3.98434783,0.123294118 L3.98434783,0.123294118 C3.51304348,0.123294118 2.84869565,0.279529412 1.97847826,0.836470588" id="path-49"></path>
        <linearGradient x1="0.00376129055%" y1="50.0005099%" x2="100.000906%" y2="50.0005099%" id="linearGradient-51">
            <stop stop-color="#91268E" offset="0%"></stop>
            <stop stop-color="#662D90" offset="100%"></stop>
        </linearGradient>
    </defs>
    <g id="Home" stroke="none" stroke-width="1" fill="none" fill-rule="evenodd">
        <g id="Group-43">
            <g id="Group-33" transform="translate(7.000000, 0.000000)">
                <g id="Group-100" transform="translate(5.000000, 14.000000)">
                    <mask id="mask-2" fill="white">
                        <use xlink:href="#path-1"></use>
                    </mask>
                    <g id="Clip-99"></g>
                    <path d="M11.6413488,0.518965517 C11.6413488,0.518965517 10.1300233,3.43651724 10.3226047,4.05758621 L10.3226047,4.05758621 C10.386093,4.26203448 9.04376744,3.78917241 7.30690698,3.31631034 L7.30690698,3.31631034 C4.68937209,2.60351724 1.17634884,1.89072414 0.225232558,3.49493103 L0.225232558,3.49493103 C-0.212232558,4.23306897 -0.152976744,5.51962069 1.781,6.51675862 L1.781,6.51675862 C3.71437209,7.51413793 10.6687674,6.20996552 12.0936279,5.51648276 L12.0936279,5.51648276 C13.8782558,4.64824138 12.4730465,0.230034483 12.4730465,0.230034483 L12.4730465,0.230034483 L11.6413488,0.518965517 Z" id="Fill-98" fill="url(#linearGradient-3)" mask="url(#mask-2)"></path>
                </g>
                <g id="Group-123" transform="translate(7.000000, 11.000000)">
                    <path d="M10.1982541,3.803856 C10.1982541,3.803856 8.61801882,3.455376 8.63398353,2.558016 L9.10372471,2.822496 C9.10372471,2.822496 9.30152471,2.085696 8.61558353,1.846176 C8.61558353,1.846176 9.00577176,1.393296 9.81077176,1.787856 C10.6163129,2.182656 10.8898776,3.827616 10.8898776,3.827616 L10.1982541,3.803856 Z" id="Fill-101" fill="#FFBB92"></path>
                    <path d="M8.99408235,4.726824 C8.99408235,4.726824 9.90569412,4.572744 10.3242941,4.298664 L11.6030941,4.996344 L10.8135176,3.704184 L9.68976471,3.656424 L8.99408235,4.726824 Z" id="Fill-103" fill="#1B96D1"></path>
                    <polygon id="Fill-105" fill="#332763" points="14.5308318 4.018536 14.0551376 4.048536 13.9331024 2.533656 14.4087965 2.503656"></polygon>
                    <path d="M11.5638859,4.206504 L10.9512741,4.245144 L10.7978506,2.337384 C10.7940624,2.290104 10.83438,2.248824 10.8879565,2.245464 L11.3062859,2.218824 C11.3598624,2.215464 11.4064035,2.251224 11.4104624,2.298744 L11.5638859,4.206504 Z" id="Fill-107" fill="#2B2154"></path>
                    <path d="M11.2563082,1.945152 L10.89372,1.968192 C10.82472,1.972512 10.7714141,2.006832 10.7743906,2.044992 C10.7773671,2.082912 10.8358141,2.110272 10.9048141,2.105712 L11.2674024,2.082912 C11.3364024,2.078592 11.3897082,2.044272 11.3867318,2.006112 C11.3837553,1.968192 11.3253082,1.940832 11.2563082,1.945152" id="Fill-109" fill="#332763"></path>
                    <path d="M12.9075729,4.121424 L12.2949612,4.160064 L12.1415376,2.252304 C12.1377494,2.205024 12.1783376,2.163744 12.2316435,2.160384 L12.6502435,2.133744 C12.70382,2.130384 12.7503612,2.166144 12.7541494,2.213664 L12.9075729,4.121424 Z" id="Fill-111" fill="#2B2154"></path>
                    <path d="M12.5999953,1.860072 L12.2374071,1.883112 C12.1684071,1.887432 12.1151012,1.921752 12.1180776,1.959912 C12.1210541,1.997832 12.1795012,2.025192 12.2485012,2.020632 L12.6110894,1.997832 C12.6800894,1.993512 12.7333953,1.959192 12.7304188,1.921032 C12.7274424,1.883112 12.6689953,1.855752 12.5999953,1.860072" id="Fill-113" fill="#332763"></path>
                    <polygon id="Fill-115" fill="#332763" points="15.4345694 3.961344 14.9588753 3.991344 14.83684 2.476464 15.3125341 2.446464"></polygon>
                    <path d="M16.1755212,2.029176 C14.9389329,2.107656 8.00023882,2.546856 7.29562706,2.591496 C6.95414471,2.613096 6.60075647,2.551896 6.32719176,2.483256 C6.10990941,2.428536 5.85149765,2.531736 5.86232118,2.667096 L5.87720353,2.852616 L5.89208588,3.038136 C5.90318,3.173496 6.17539176,3.243336 6.38212118,3.161736 C6.64188588,3.059016 6.98147412,2.954136 7.32295647,2.932536 C8.02756824,2.887896 14.9662624,2.448696 16.2031212,2.370216 C17.7979682,2.269176 20.9706153,2.709816 22.3157094,3.385176 C22.5013329,3.478536 22.8108859,3.393096 22.7995212,3.250056 L22.6818153,1.788696 L22.5641094,0.327336 C22.5527447,0.184296 22.2326388,0.138696 22.0640624,0.254136 C20.8401918,1.092456 17.7709094,1.928136 16.1755212,2.029176" id="Fill-117" fill="#ED5D49"></path>
                    <path d="M9.93664941,2.885568 C9.28615529,2.926848 8.77988471,3.252288 8.80883765,3.611088 C8.83752,3.970368 9.39060235,4.228848 10.0416376,4.187568 L15.4815435,3.842928 C16.1323082,3.801648 16.6385788,3.476208 16.6093553,3.117408 C16.5806729,2.758368 16.0275906,2.499888 15.3765553,2.541168 L9.93664941,2.885568 Z M15.5069788,4.157808 L10.0668024,4.502208 C9.10134353,4.563408 8.28092,4.179888 8.23816706,3.647568 C8.19514353,3.115008 8.94602588,2.631888 9.91121412,2.570688 L15.3516612,2.226288 C16.3168494,2.165328 17.1372729,2.548848 17.1805671,3.081168 C17.22332,3.613728 16.4721671,4.096848 15.5069788,4.157808 L15.5069788,4.157808 Z" id="Fill-119" fill="#503D9C"></path>
                    <path d="M1.24982,2.755968 C1.24982,2.755968 0.750314118,4.601088 0.291937647,4.561488 C-0.166438824,4.522128 1.56911412,6.666288 2.89526706,5.663808 C4.22114941,4.661328 3.36230235,3.294048 3.36230235,3.294048 L1.24982,2.755968 Z" id="Fill-121" fill="#E2956F"></path>
                </g>
                <g id="Group-126" transform="translate(1.000000, 31.000000)">
                    <mask id="mask-5" fill="white">
                        <use xlink:href="#path-4"></use>
                    </mask>
                    <g id="Clip-125"></g>
                    <path d="M6.483,4.78589831 C6.483,4.78589831 9.933,7.74752542 12.1448182,7.43566102 L12.1448182,7.43566102 C13.9009091,7.19132203 14.8745455,8.25735593 15.1993636,8.70210169 L15.1993636,8.70210169 C15.2620909,8.79159322 15.3,8.85369492 15.3163636,8.88108475 L15.3163636,8.88108475 C15.2727273,8.81844068 15.2293636,8.76149153 15.183,8.70752542 L15.183,8.70752542 C13.4975455,6.58413559 10.1078182,7.61464407 8.373,9.2580339 L8.373,9.2580339 C7.63390909,9.96013559 6.07663636,10.9393898 4.50845455,11.8397288 L4.50845455,11.8397288 C2.95390909,12.7343729 1.38845455,13.556339 0.600272727,13.9631186 L0.600272727,13.9631186 C0.267818182,14.1339661 0.0739090909,14.231322 0.0739090909,14.231322 L0.0739090909,14.231322 L0.515727273,15.1265085 L0.938454545,15.9861695 C1.35845455,15.2322712 4.41845455,14.5597288 7.85209091,14.0200678 L7.85209091,14.0200678 C12.2072727,13.3339661 17.1711818,12.8618305 18.123,12.7181017 L18.123,12.7181017 C19.8248182,12.4526102 20.8066364,10.1065763 20.8066364,10.1065763 L20.8066364,10.1065763 C20.8066364,10.0987119 20.8066364,10.0878644 20.8039091,10.0797288 L20.8039091,10.0797288 C20.6481818,6.80922034 16.1348182,3.18047458 13.7239091,1.47227119 L13.7239091,1.47227119 C12.8427273,0.845559322 12.243,0.477016949 12.243,0.477016949 L12.243,0.477016949 C11.6236364,0.249491525 11.0689091,0.150237288 10.572,0.15050792 L10.572,0.15050792 C7.17436364,0.150779661 6.483,4.78589831 6.483,4.78589831" id="Fill-124" fill="url(#linearGradient-6)" mask="url(#mask-5)"></path>
                </g>
                <g id="Group-129" transform="translate(9.000000, 32.000000)">
                    <mask id="mask-8" fill="white">
                        <use xlink:href="#path-7"></use>
                    </mask>
                    <g id="Clip-128"></g>
                    <path d="M7.99082353,7.68048485 C7.99082353,7.68048485 7.88470588,7.71490909 7.70023529,7.78012121 C7.42047059,7.38060606 6.58235294,6.42884848 5.06729412,6.6470303 C3.15905882,6.92484848 0.182117647,4.27757576 0.182117647,4.27757576 C0.182117647,4.27757576 0.965882353,-1.16751515 5.14964706,0.426424242 C5.14964706,0.426424242 5.66823529,0.756606061 6.428,1.31612121 C5.82823529,1.584 4.51694118,2.40969697 5.34541176,4.27272727 C6.4,6.64436364 7.99082353,7.68048485 7.99082353,7.68048485" id="Fill-127" fill="url(#linearGradient-9)" mask="url(#mask-8)"></path>
                </g>
                <g id="Group-132" transform="translate(7.000000, 42.000000)">
                    <mask id="mask-11" fill="white">
                        <use xlink:href="#path-10"></use>
                    </mask>
                    <g id="Clip-131"></g>
                    <path d="M0.23525,0.347 L0.28775,0.327 C0.28675,0.32675 0.28575,0.3265 0.28425,0.3265 L0.28425,0.3265 C0.27525,0.3265 0.25725,0.334 0.23525,0.347" id="Fill-130" fill="url(#linearGradient-12)" mask="url(#mask-11)"></path>
                </g>
                <g id="Group-141" transform="translate(1.000000, 40.000000)">
                    <g id="Group-135" transform="translate(2.620368, 0.000000)">
                        <mask id="mask-14" fill="white">
                            <use xlink:href="#path-13"></use>
                        </mask>
                        <g id="Clip-134"></g>
                        <path d="M19.7290098,0.340195122 C19.7290098,0.340195122 18.7856775,2.66119512 17.1505681,2.92385366 C16.2360598,3.06604878 11.4667287,3.53314634 7.28226365,4.21192683 C3.98322082,4.74556098 1.04316835,5.41119512 0.639631736,6.15704878 L0.233212718,5.30656098 L0.314706151,4.15558537 C1.07199239,3.75314634 2.57608341,2.94021951 4.06969295,2.05485366 C4.10375773,2.36607317 4.56730076,2.66360976 6.20503052,2.61290244 C9.5200576,2.508 14.3386516,-0.362731707 16.0133286,0.163390244 C17.5960306,0.659731707 18.5052982,1.81070732 19.7263895,0.313634146 C19.7290098,0.321682927 19.7290098,0.332414634 19.7290098,0.340195122" id="Fill-133" fill="url(#linearGradient-15)" mask="url(#mask-14)"></path>
                    </g>
                    <path d="M3.24239049,10.7984585 L1.58920055,7.45392195 L0.0934947167,4.42758049 L2.83413721,3.9028 C2.83413721,3.9028 5.08581911,2.57421463 5.20635602,2.5092878 L5.2482819,2.55623902 L7.25495942,4.84719024 L3.42843659,6.19240976 L3.24239049,10.7984585 Z" id="Fill-136" fill="#DB7700"></path>
                    <g id="Group-140" transform="translate(0.000000, 2.414634)">
                        <mask id="mask-17" fill="white">
                            <use xlink:href="#path-16"></use>
                        </mask>
                        <g id="Clip-139"></g>
                        <path d="M0.093547124,2.013 L2.83418962,1.48821951 C2.83418962,1.48821951 5.08587151,0.159634146 5.20640842,0.0944390244 L5.24833431,0.141658537 L2.64499908,2.98368293 C2.64499908,2.98368293 1.66471955,3.01668293 1.58925296,5.03934146 L0.093547124,2.013 Z" id="Fill-138" fill="url(#linearGradient-18)" mask="url(#mask-17)"></path>
                    </g>
                </g>
                <g id="Group-144" transform="translate(10.000000, 31.000000)">
                    <mask id="mask-20" fill="white">
                        <use xlink:href="#path-19"></use>
                    </mask>
                    <g id="Clip-143"></g>
                    <path d="M1.60025,0.820163793 C0.50775,1.24748276 0.078,2.72693103 0.1075,4.33278448 L0.1075,4.33278448 C0.13275,5.80448276 0.54775,7.38281034 1.19775,8.34862069 L1.19775,8.34862069 C2.55525,10.3668276 1.53025,15.5005345 1.53025,15.5005345 L1.53025,15.5005345 C-1.57475,18.1986034 1.02025,30.8027759 1.02025,30.8027759 L1.02025,30.8027759 L2.43525,30.1226466 C2.38275,28.9895431 2.47775,27.7327069 2.66275,26.4633103 L2.66275,26.4633103 C3.34025,21.7745603 5.22,16.8607931 5.22,16.8607931 L5.22,16.8607931 C6.7325,14.2132328 6.91275,8.59902586 6.86525,5.11927586 L6.86525,5.11927586 C6.84025,3.35655172 6.75525,2.14033621 6.75525,2.14033621 L6.75525,2.14033621 C6.67025,1.48506034 6.45775,1.02487069 6.15525,0.706586207 L6.15525,0.706586207 C5.746,0.277931034 5.1745,0.114646552 4.5315,0.114646552 L4.5315,0.114646552 C3.6115,0.114646552 2.54525,0.4495 1.60025,0.820163793" id="Fill-142" fill="url(#linearGradient-21)" mask="url(#mask-20)"></path>
                </g>
                <g id="Group-164" transform="translate(2.000000, 31.000000)">
                    <g id="Group-147" transform="translate(7.889403, 0.000000)">
                        <mask id="mask-23" fill="white">
                            <use xlink:href="#path-22"></use>
                        </mask>
                        <g id="Clip-146"></g>
                        <path d="M7.47072013,4.53465771 C6.76339438,4.33456819 4.9134655,4.16698991 4.52688478,7.72868918 C4.05080014,12.1560334 5.97690256,12.766346 3.68924787,14.1645939 C1.39832859,15.5652205 0.500841038,24.3496 2.0705601,25.3024702 C2.39429765,25.5001809 2.66634602,25.6000935 2.89758713,25.645292 C2.69627134,26.9008075 2.59289296,28.1439 2.65002312,29.2648772 L1.11022937,29.9373048 C1.11022937,29.9373048 -1.71363265,17.4709609 1.66520804,14.8023957 C1.66520804,14.8023957 2.78033428,9.72482668 1.30338371,7.72868918 C0.596057966,6.77344011 0.144457681,5.21237177 0.116980797,3.75676673 L6.69810277,0.169957153 C7.02728129,0.485289785 7.25825036,0.94018288 7.35101885,1.5882932 C7.35101885,1.5882932 7.44351529,2.79120922 7.47072013,4.53465771" id="Fill-145" fill="url(#linearGradient-24)" mask="url(#mask-23)"></path>
                    </g>
                    <path d="M14.7444772,31.8413536 L11.2287962,32.1387125 L8.04773471,32.4080536 L8.5567372,29.9527939 C8.5567372,29.9527939 8.18811166,27.6460815 8.1742372,27.5247591 L8.23027916,27.5049352 L10.9474982,26.5721532 L10.7733873,30.1975534 L14.7444772,31.8413536 Z" id="Fill-148" fill="#DB7700"></path>
                    <g id="Group-152" transform="translate(7.889403, 27.489182)">
                        <mask id="mask-26" fill="white">
                            <use xlink:href="#path-25"></use>
                        </mask>
                        <g id="Clip-151"></g>
                        <path d="M0.158332148,4.9187133 L0.667334637,2.46371791 C0.667334637,2.46371791 0.298709104,0.157005519 0.284834637,0.0356830725 L0.3408766,0.0155948243 L1.91113976,3.10469162 C1.91113976,3.10469162 1.59365932,3.93306754 3.33939367,4.6496365 L0.158332148,4.9187133 Z" id="Fill-150" fill="url(#linearGradient-27)" mask="url(#mask-26)"></path>
                    </g>
                    <path d="M11.7880733,9.03402883 C11.0535427,8.84371911 10.4904026,8.57702118 10.0605661,8.27834065 C9.58720199,7.95560708 9.27434637,7.59348998 9.06758962,7.26309116 C8.68400142,6.64987095 8.66495804,6.13709198 8.66495804,6.13709198 C7.96035277,8.21992614 6.1430697,9.1529724 5.32692461,9.47834916 C5.07664011,9.57588289 4.92157255,9.61817394 4.92157255,9.61817394 C4.31762518,8.14855999 4.48629516,6.91154682 4.74474111,6.11858965 C4.929734,5.54792481 5.16369559,5.2093321 5.18545946,5.17497062 C4.00749004,5.78819083 2.45409388,5.81462274 1.48560171,5.75118616 C0.936064011,5.71682469 0.574239687,5.65338811 0.574239687,5.65338811 C2.1357973,2.82808173 5.40037767,1.51705922 5.40037767,1.51705922 C5.40037767,1.51705922 10.493123,-0.571325638 12.9197945,2.07450811 C13.0095704,2.16966297 13.0939054,2.27010421 13.1727994,2.37847502 C15.4770491,5.48184505 11.7880733,9.03402883 11.7880733,9.03402883" id="Fill-153" fill="#418F4B"></path>
                    <g id="Group-157" transform="translate(1.360242, 1.057276)">
                        <mask id="mask-29" fill="white">
                            <use xlink:href="#path-28"></use>
                        </mask>
                        <g id="Clip-156"></g>
                        <path d="M10.4278858,7.97662045 C9.69335526,7.78657505 9.13021515,7.5196128 8.70037873,7.22093227 C7.97128912,6.4250676 7.94408428,5.63211043 7.94408428,5.63211043 C7.87607219,5.83325723 7.79717817,6.02621014 7.7074022,6.20568278 C7.32381401,5.59272689 7.30449858,5.07994792 7.30449858,5.07994792 C6.59989331,7.16251776 4.78288229,8.09582834 3.9667372,8.42094078 C3.38156117,6.25616772 4.415617,4.74135521 4.4645857,4.6676102 C4.12724573,4.84206077 3.75998044,4.97131279 3.3845537,5.06118127 C3.56954659,4.49051643 3.80350818,4.15218804 3.82527205,4.11782656 C2.64730263,4.73078245 1.09390647,4.75747868 0.125414296,4.6940421 C1.76586593,2.18036789 4.67950391,1.01207766 4.67950391,1.01207766 C4.67950391,1.01207766 8.97786807,-0.750930436 11.559607,1.01709972 C11.649383,1.1125189 11.733718,1.21296014 11.812612,1.32133096 C14.1165896,4.42443667 10.4278858,7.97662045 10.4278858,7.97662045" id="Fill-155" fill="url(#linearGradient-30)" mask="url(#mask-29)"></path>
                    </g>
                    <path d="M0.783145626,5.66266571 C0.783145626,5.83896652 0.636239509,5.98169881 0.45478325,5.98169881 C0.27359904,5.98169881 0.126692923,5.83896652 0.126692923,5.66266571 C0.126692923,5.48662922 0.27359904,5.34389693 0.45478325,5.34389693 C0.636239509,5.34389693 0.783145626,5.48662922 0.783145626,5.66266571" id="Fill-158" fill="#ED5D49"></path>
                    <path d="M5.29397955,9.73095888 C5.29397955,9.90699537 5.14707344,10.0497277 4.96588922,10.0497277 C4.78443297,10.0497277 4.63752685,9.90699537 4.63752685,9.73095888 C4.63752685,9.55492239 4.78443297,9.4121901 4.96588922,9.4121901 C5.14707344,9.4121901 5.29397955,9.55492239 5.29397955,9.73095888" id="Fill-160" fill="#ED5D49"></path>
                    <path d="M12.1249507,9.23097296 C12.1249507,9.40727377 11.9777726,9.55000606 11.7965884,9.55000606 C11.6154042,9.55000606 11.468498,9.40727377 11.468498,9.23097296 C11.468498,9.05493647 11.6154042,8.91220418 11.7965884,8.91220418 C11.9777726,8.91220418 12.1249507,9.05493647 12.1249507,9.23097296" id="Fill-162" fill="#ED5D49"></path>
                </g>
                <g id="Group-167" transform="translate(4.000000, 15.000000)">
                    <mask id="mask-32" fill="white">
                        <use xlink:href="#path-31"></use>
                    </mask>
                    <g id="Clip-166"></g>
                    <path d="M1.51536,1.32244737 C1.51536,1.32244737 -0.19712,2.20140789 0.25536,5.32322368 L0.25536,5.32322368 C1.02368,10.6199211 5.46084,14.2426974 5.02376,16.1882368 L5.02376,16.1882368 C4.58444,18.1335 3.3138,16.5245132 2.94112,18.6214737 L2.94112,18.6214737 C2.667,20.1619342 7.84392,22.1083026 10.52828,19.7295 L10.52828,19.7295 C11.0208,19.2931974 11.22996,18.7273026 11.84288,18.0804474 L11.84288,18.0804474 C12.97156,16.8980921 13.26724,16.9563947 13.78804,16.3512632 L13.78804,16.3512632 C14.58044,15.4283684 9.12576,7.39586842 9.39204,4.26521053 L9.39204,4.26521053 C9.39484,4.22072368 9.40044,4.17678947 9.40576,4.13257895 L9.40576,4.13257895 C9.71152,2.01268421 6.33304,0.212486842 3.85168,0.212763158 L3.85168,0.212763158 C2.78796,0.212763158 1.8886,0.543789474 1.51536,1.32244737" id="Fill-165" fill="url(#linearGradient-33)" mask="url(#mask-32)"></path>
                </g>
                <g id="Group-174" transform="translate(7.000000, 8.000000)">
                    <path d="M4.84369565,3.57207586 C4.74369565,5.69621379 4.73043478,6.40586897 4.73282609,6.63517931 C4.735,6.75104138 4.73934783,6.75828276 4.74152174,6.75828276 C4.74152174,6.75828276 2.27413043,7.29414483 1.0523913,5.3075931 C0.687173913,4.7138 0.510869565,4.07414483 0.495869565,3.46345517 C0.456521739,2.02966207 1.30652174,0.750351724 2.70217391,0.576558621 C2.70217391,0.576558621 5.00021739,0.308627586 4.84369565,3.57207586" id="Fill-168" fill="#FFBB92"></path>
                    <path d="M4.40423913,1.36478276 C4.40423913,1.36478276 2.75923913,2.24002414 2.30684783,3.02981724 C1.85423913,3.81961034 1.98684783,2.80316207 1.44554348,2.95547241 C0.904021739,3.10778276 1.1398913,4.19133448 1.51641304,4.58140345 C1.8925,4.97123103 0.939456522,5.43105862 0.939456522,5.43105862 C0.939456522,5.43105862 -0.568152174,3.76361034 0.260326087,1.62233448 C1.08880435,-0.518941379 4.0875,-0.0332862069 4.40423913,1.36478276" id="Fill-170" fill="#543A67"></path>
                    <path d="M4.43863043,3.5854 C4.39841304,3.7171931 4.29080435,3.79588276 4.19819565,3.76112414 C4.10536957,3.72612414 4.06276087,3.5911931 4.10276087,3.4594 C4.14297826,3.3276069 4.25080435,3.24891724 4.34341304,3.28367586 C4.43602174,3.31867586 4.47884783,3.4536069 4.43863043,3.5854" id="Fill-172" fill="#543A67"></path>
                </g>
                <g id="Group-177" transform="translate(6.000000, 15.000000)">
                    <mask id="mask-35" fill="white">
                        <use xlink:href="#path-34"></use>
                    </mask>
                    <g id="Clip-176"></g>
                    <path d="M0.272,0.6346 C0.732235294,0.9478 3.90870588,0.987 3.90870588,0.987 L3.90870588,0.987 L3.58658824,0.2042 C2.89576471,0.7132 0.363764706,0.0478 0.363764706,0.0478 L0.363764706,0.0478 C0.363764706,0.0478 -0.188470588,0.3218 0.272,0.6346" id="Fill-175" fill="url(#linearGradient-36)" mask="url(#mask-35)"></path>
                </g>
                <g id="Group-180" transform="translate(7.000000, 17.000000)">
                    <mask id="mask-38" fill="white">
                        <use xlink:href="#path-37"></use>
                    </mask>
                    <g id="Clip-179"></g>
                    <path d="M10.8017381,13.8782373 C10.3145952,14.4721356 9.91361905,14.7568814 8.85840476,15.9175593 C8.39719048,15.3806102 7.0617381,13.7860339 5.951,12.0040678 C4.58411905,9.81044068 4.65195238,8.89111864 1.85245238,6.83823729 C-0.949928571,4.7880678 0.485047619,0.684745763 0.485047619,0.684745763 C1.3257619,-0.820338983 4.26459524,0.533152542 6.68983333,2.01627119 C6.44102381,5.08881356 11.5429286,12.9724746 10.8017381,13.8782373" id="Fill-178" fill="url(#linearGradient-39)" mask="url(#mask-38)"></path>
                </g>
                <g id="Group-183" transform="translate(6.000000, 14.000000)">
                    <mask id="mask-41" fill="white">
                        <use xlink:href="#path-40"></use>
                    </mask>
                    <g id="Clip-182"></g>
                    <path d="M14.5785714,0.387151515 C14.5785714,0.387151515 12.3517143,3.93672727 12.4914286,4.7430303 L12.4914286,4.7430303 C12.5394286,5.01915152 10.878,4.21575758 8.75571429,3.41212121 L8.75571429,3.41212121 C5.76542857,2.28024242 1.85942857,1.14812121 0.528857143,3.03563636 L0.528857143,3.03563636 C-0.100571429,3.92848485 -0.216285714,5.56533333 1.94485714,7.01963636 L1.94485714,7.01963636 C4.10657143,8.47442424 12.5917143,7.50545455 14.3922857,6.76678788 L14.3922857,6.76678788 C16.6468571,5.84169697 15.6125714,0.102787879 15.6125714,0.102787879 L15.6125714,0.102787879 L14.5785714,0.387151515 Z" id="Fill-181" fill="url(#linearGradient-42)" mask="url(#mask-41)"></path>
                </g>
                <g id="Group-208">
                    <path d="M20.2053013,14.0258304 C20.2053013,14.0258304 18.2024658,13.3427946 18.3508962,12.0806518 L18.9234532,12.5105625 C18.9234532,12.5105625 19.2849215,11.4967232 18.4285924,11.0756518 C18.4285924,11.0756518 18.999757,10.4850268 19.989757,11.1388661 C20.9792,11.7929732 21.1003392,14.1431518 21.1003392,14.1431518 L20.2053013,14.0258304 Z" id="Fill-184" fill="#FFBB92"></path>
                    <g id="Group-188" transform="translate(11.417722, 27.321429)">
                        <mask id="mask-44" fill="white">
                            <use xlink:href="#path-43"></use>
                        </mask>
                        <g id="Clip-187"></g>
                        <path d="M1.42359494,0.174642857 C1.42359494,0.174642857 2.11394937,2.41071429 0.116126582,3.73848214 C0.116126582,3.73848214 1.13313924,2.55026786 1.42359494,0.174642857" id="Fill-186" fill="url(#linearGradient-45)" mask="url(#mask-44)"></path>
                    </g>
                    <polygon id="Fill-189" fill="#418F4B" points="9.83569873 57.5063036 8.99106582 59.8621071 11.3339266 58.126125 14.1942051 58.3990714 12.5054962 56.6135357"></polygon>
                    <polygon id="Fill-191" fill="#418F4B" points="4.64191646 42.5824286 1.92199241 42.7002857 4.53303038 44.1619821 5.26181519 46.8384107 6.50133418 44.6526964"></polygon>
                    <polygon id="Fill-193" fill="#418F4B" points="13.170119 56.5164911 9.38222025 57.9926518 9.17725823 57.5490804 12.965157 56.0729196"></polygon>
                    <polygon id="Fill-195" fill="#418F4B" points="6.97962532 45.2408571 3.86982785 42.2041607 4.27084051 41.8240714 7.38063797 44.8607679"></polygon>
                    <path d="M18.5096861,15.1796518 C18.5096861,15.1796518 19.7157873,15.0735804 20.2986481,14.7382232 L21.8600911,15.8766161 L21.0188,13.9600982 L19.5659646,13.7565268 L18.5096861,15.1796518 Z" id="Fill-197" fill="#1B96D1"></path>
                    <path d="M11.3009823,6.94789286 C11.2508557,7.30682143 11.2062987,7.51842857 11.2062987,7.51842857 L8.88098228,8.08360714 L8.64984304,8.13985714 L5.89288101,10.3121786 C4.70933671,10.5934286 3.57313418,10.5880714 2.63186835,10.4836071 C1.21718481,10.3228929 0.248070886,9.92914286 0.248070886,9.92914286 C3.65389367,8.97289286 4.74832405,7.84789286 5.05465316,7.42735714 C5.13541266,7.31753571 5.16047595,7.25592857 5.16047595,7.25592857 C4.77060253,6.02646429 3.20275443,4.26932143 2.06933671,3.11217857 C1.37034937,2.40235714 0.835665823,1.91753571 0.835665823,1.91753571 C5.02958987,1.71396429 7.75034937,3.99075 8.56908354,4.78628571 C8.73895696,4.95235714 8.82528608,5.05414286 8.82528608,5.05414286 C9.36553924,4.52914286 9.74427342,2.63271429 9.94199494,1.38985714 C10.0450329,0.733607143 10.0979443,0.2595 10.0979443,0.2595 C11.7938937,2.10503571 11.4987038,5.5845 11.3009823,6.94789286" id="Fill-199" fill="#418F4B"></path>
                    <g id="Group-203" transform="translate(1.949367, 1.339286)">
                        <mask id="mask-47" fill="white">
                            <use xlink:href="#path-46"></use>
                        </mask>
                        <g id="Clip-202"></g>
                        <path d="M9.35167089,5.60866071 L6.97065823,6.69883929 L6.93139241,6.74410714 L6.70053165,6.80035714 L3.94356962,8.97294643 C2.76002532,9.25419643 1.62382278,9.24883929 0.682556962,9.14410714 C3.14432911,7.59883929 3.36962025,6.48723214 3.36962025,6.48723214 C3.29749367,6.35866071 3.20837975,6.22473214 3.10534177,6.088125 C3.18610127,5.97830357 3.21116456,5.91669643 3.21116456,5.91669643 C2.82129114,4.68723214 1.25344304,2.93008929 0.119746835,1.77294643 C3.93243038,1.625625 6.51673418,3.63991071 6.51673418,3.63991071 C6.55572152,3.58607143 6.58913924,3.51910714 6.61977215,3.44705357 C6.78964557,3.613125 6.87597468,3.71491071 6.87597468,3.71491071 C7.41622785,3.18964286 7.79496203,1.29348214 7.99268354,0.050625 C9.34331646,2.27919643 9.35167089,5.53875 9.35167089,5.60866071" id="Fill-201" fill="url(#linearGradient-48)" mask="url(#mask-47)"></path>
                    </g>
                    <path d="M11.9221342,13.92825 C11.9221342,13.92825 8.7610962,14.5228929 7.19603291,12.3184286 C6.72846329,11.6595 6.50261519,10.9496786 6.4834,10.272 L9.22615949,9.34521429 C9.22615949,9.34521429 8.91732405,11.2148571 9.73577975,11.7211071 C10.5517291,12.2273571 10.2621089,11.6702143 10.5712228,12.57825 C10.8302101,13.3416429 11.6325139,13.5853929 11.9109949,13.7916429 C11.9137797,13.9202143 11.9190709,13.92825 11.9221342,13.92825" id="Fill-204" fill="#FFBB92"></path>
                    <path d="M12.0012785,11.8744554 C12.0012785,11.8744554 11.2248734,12.2542768 10.9661646,12.1626696 C10.7074557,12.0710625 10.4894051,12.3461518 10.9252278,12.7524911 C11.3610506,13.1582946 11.9333291,12.8178482 11.9333291,12.8178482 L12.0012785,11.8744554 Z" id="Fill-206" fill="#E2956F"></path>
                </g>
                <g id="Group-211" transform="translate(6.000000, 8.000000)">
                    <mask id="mask-50" fill="white">
                        <use xlink:href="#path-49"></use>
                    </mask>
                    <g id="Clip-210"></g>
                    <path d="M1.97847826,0.836470588 C0.000869565217,2.10235294 0.0643478261,3.52941176 0.0643478261,3.52941176 L0.0643478261,3.52941176 L0.787608696,3.78258824 C2.44652174,1.31976471 4.91326087,1.02047059 4.91326087,1.02047059 L4.91326087,1.02047059 L4.87086957,0.376 C4.87086957,0.376 4.58413043,0.123294118 3.98434783,0.123294118 L3.98434783,0.123294118 C3.51304348,0.123294118 2.84869565,0.279529412 1.97847826,0.836470588" id="Fill-209" fill="url(#linearGradient-51)" mask="url(#mask-50)"></path>
                </g>
                <g id="Group-226">
                    <path d="M1.16586558,10.263791 C1.16586558,10.4428571 1.0180607,10.5883146 0.835494309,10.5883146 C0.653201626,10.5883146 0.505396748,10.4428571 0.505396748,10.263791 C0.505396748,10.0844561 0.653201626,9.93926745 0.835494309,9.93926745 C1.0180607,9.93926745 1.16586558,10.0844561 1.16586558,10.263791" id="Fill-212" fill="#ED5D49"></path>
                    <path d="M1.87981789,2.25026321 C1.87981789,2.42959811 1.73201301,2.57478679 1.54972033,2.57478679 C1.36715393,2.57478679 1.21934905,2.42959811 1.21934905,2.25026321 C1.21934905,2.07119717 1.36715393,1.92573962 1.54972033,1.92573962 C1.73201301,1.92573962 1.87981789,2.07119717 1.87981789,2.25026321" id="Fill-214" fill="#ED5D49"></path>
                    <path d="M10.9481672,0.514317453 C10.9481672,0.693652358 10.8003623,0.838841038 10.6177959,0.838841038 C10.4355033,0.838841038 10.2876984,0.693652358 10.2876984,0.514317453 C10.2876984,0.335251415 10.4355033,0.189793868 10.6177959,0.189793868 C10.8003623,0.189793868 10.9481672,0.335251415 10.9481672,0.514317453" id="Fill-216" fill="#ED5D49"></path>
                    <path d="M11.6677306,11.1667571 C11.3784163,11.0758797 11.2289691,10.7406014 11.3340748,10.4174222 C11.4391805,10.0945118 11.758877,9.90630425 12.0481913,9.99691274 C12.3375057,10.0877901 12.4869528,10.4233373 12.3818472,10.7462476 C12.2770152,11.0694269 11.9573187,11.2576344 11.6677306,11.1667571 L11.6677306,11.1667571 Z M12.9205138,10.2593278 C12.9205138,10.2593278 12.3782889,9.01930896 10.2846602,8.92332311 C10.2846602,8.92332311 9.75776314,9.796875 10.078007,10.601059 C10.3979772,11.4047052 11.3524136,11.9230825 12.7313783,11.5111769 L12.9205138,10.2593278 Z" id="Fill-218" fill="#A12C1D"></path>
                    <path d="M10.2422347,9.97930189 L8.71984444,9.85051415" id="Stroke-220" stroke="#332763" stroke-width="0.95" stroke-linecap="round" stroke-linejoin="round"></path>
                </g>
            </g>
            <path d="M36.2625018,63.1051331 C36.2625018,64.2676323 28.1450379,65.2099904 18.1311138,65.2099904 C8.11773807,65.2099904 -1.7408297e-13,64.2676323 -1.7408297e-13,63.1051331 C-1.7408297e-13,61.9423581 8.11773807,61 18.1311138,61 C28.1450379,61 36.2625018,61.9423581 36.2625018,63.1051331" id="Fill-94-Copy-3" fill="#0098FF" opacity="0.147437686"></path>
        </g>
    </g>
</svg>