<?xml version="1.0" encoding="UTF-8"?>
<svg width="75px" height="59px" viewBox="0 0 75 59" version="1.1" xmlns="http://www.w3.org/2000/svg" xmlns:xlink="http://www.w3.org/1999/xlink">
    <!-- Generator: sketchtool 55.2 (78181) - https://sketchapp.com -->
    <title>D72DA396-C635-4171-888D-11BD7F44264D</title>
    <desc>Created with sketchtool.</desc>
    <g id="Career" stroke="none" stroke-width="1" fill="none" fill-rule="evenodd" opacity="0.502999442">
        <g id="Career-V8.0" transform="translate(-337.000000, -2956.000000)" fill="#343434" fill-rule="nonzero">
            <g id="Testimonials" transform="translate(-259.000000, 2828.000000)">
                <g id="Center-Slider">
                    <g id="Group-8" transform="translate(567.000000, 128.000000)">
                        <g id="Group-7" transform="translate(29.000000, 0.000000)">
                            <g id="Group-14" opacity="0.396391369">
                                <path d="M27.743301,27.8994832 L20.5167621,27.8994832 C21.6037612,20.0075109 26.0534283,19.6110233 28.101133,19.4283586 C30.146852,19.2456939 31.7128139,17.5639322 31.7128139,15.5495572 L31.7128139,3.89445822 C31.7128139,2.82378597 31.2632403,1.79985095 30.4697348,1.06412891 C29.6762294,0.328406873 28.6078963,-0.0528911024 27.5185142,0.00591992352 C14.9646069,0.698410016 0,6.91446282 0,32.5957968 L0,52.8641795 C0,56.2475661 2.8066581,59 6.25669898,59 L27.7436982,59 C31.193739,59 34.0003971,56.2471766 34,52.86379 L34,34.0353037 C34,30.6519171 31.1933419,27.8994832 27.743301,27.8994832 Z M26.0573998,51.2100707 L7.94299731,51.2100707 L7.94299731,32.5957968 C7.94299731,14.6759603 16.0690807,9.67118097 23.7698166,8.25854792 L23.7698166,12.353509 C18.4515828,13.9410172 12.330709,18.6295413 12.330709,31.7942531 C12.330709,33.9453345 14.108749,35.689023 16.3022077,35.689023 L26.0573998,35.689023 L26.0573998,51.2100707 Z" id="Shape"></path>
                                <path d="M68.7433741,27.8994832 L61.5165224,27.8994832 C62.6035089,20.0075109 67.053124,19.6110233 69.1008048,19.4283586 C71.1464999,19.2456939 72.7124435,17.5639322 72.7124435,15.5495572 L72.7124435,3.89445822 C72.7124435,2.82378597 72.2628751,1.79985095 71.4693789,1.06412891 C70.6758828,0.328406873 69.6067678,-0.0528911024 68.5181928,0.00591992352 C55.9644321,0.698410016 41,6.91446282 41,32.5957968 L41,52.8641795 C41,56.2475661 43.8066253,59 47.2566259,59 L68.7433741,59 C72.1933747,59 75.0003971,56.2471766 75,52.8634005 L75,34.0353037 C75,30.6519171 72.1933747,27.8994832 68.7433741,27.8994832 Z M67.0570955,51.2104601 L48.9429045,51.2104601 L48.9429045,32.5957968 C48.9429045,14.6759603 57.068893,9.67118097 64.769539,8.25854792 L64.769539,12.353509 C59.4513672,13.9410172 53.330565,18.6295413 53.330565,31.7942531 C53.330565,33.9453345 55.1085842,35.689023 57.3020173,35.689023 L67.0570955,35.689023 L67.0570955,51.2104601 Z" id="Shape"></path>
                            </g>
                        </g>
                    </g>
                </g>
            </g>
        </g>
    </g>
</svg>