<?xml version="1.0" encoding="UTF-8"?>
<svg width="16px" height="15px" viewBox="0 0 16 15" version="1.1" xmlns="http://www.w3.org/2000/svg" xmlns:xlink="http://www.w3.org/1999/xlink">
    <!-- Generator: Sketch 55.2 (78181) - https://sketchapp.com -->
    <title>Shape</title>
    <desc>Created with Sketch.</desc>
    <g id="Mini-Cart" stroke="none" stroke-width="1" fill="none" fill-rule="evenodd">
        <path d="M9.02409578,7.49999999 L10.6646653,7.49999999 C11.1175653,7.49999999 11.4847132,7.86979557 11.4847132,8.3331265 C11.4847132,8.7932496 11.1207742,9.1662531 10.6646653,9.1662531 L8.2037321,9.1662531 C7.97853385,9.1662531 7.77453723,9.0748234 7.6263367,8.925927 C7.47546757,8.7719846 7.38368424,8.5656456 7.38368424,8.3408097 L7.38368424,4.9929372 C7.38368424,4.53705738 7.74774474,4.16749377 8.20388999,4.16749377 C8.65687718,4.16749377 9.02409578,4.54321316 9.02409578,4.9929372 L9.02409578,7.49999999 Z M1.72242812,4.81760187 C2.54063716,2.65331644 4.33243919,0.903298901 6.70575184,0.257353881 C10.6437197,-0.814443689 14.6914621,1.55933582 15.7466374,5.55933882 C16.8018127,9.5593418 14.4648476,13.6708486 10.5268797,14.7426461 C6.58891179,15.8144437 2.54116947,13.4406642 1.48599416,9.4406611 L3.07051007,9.0094032 C3.89120198,12.1205166 7.03944601,13.9667895 10.1023099,13.1331692 C13.1651738,12.2995488 14.9828133,9.1017103 14.1621214,5.99059686 C13.3414296,2.87948341 10.1931855,1.03321046 7.1303216,1.8668308 C5.1936664,2.39393066 3.75485926,3.86625896 3.16607502,5.66422183 L5.02271418,6.75303916 L1.0614244,7.83118426 L0,3.80749198 L1.72242812,4.81760187 Z" id="Shape" fill="#9B9B9B" fill-rule="nonzero"></path>
    </g>
</svg>