<?xml version="1.0" encoding="UTF-8"?>
<svg width="26px" height="26px" viewBox="0 0 26 26" version="1.1" xmlns="http://www.w3.org/2000/svg" xmlns:xlink="http://www.w3.org/1999/xlink">
    <!-- Generator: sketchtool 55.2 (78181) - https://sketchapp.com -->
    <title>98DED406-6A35-45A0-8F3A-9266BB09E694</title>
    <desc>Created with sketchtool.</desc>
    <g id="New-Find-Agent" stroke="none" stroke-width="1" fill="none" fill-rule="evenodd">
        <g id="Find-Venue-Search-Results-Hover" transform="translate(-893.000000, -507.000000)">
            <g id="Group-8" transform="translate(431.000000, 490.000000)">
                <g id="ic_directions-copy" transform="translate(460.000000, 15.000000)">
                    <g id="Group">
                        <path d="M27.4517152,14.2759035 L16.0714555,2.89564384 C15.578311,2.40249925 14.7816928,2.40249925 14.2885482,2.89564384 L2.90828857,14.2759035 C2.41514399,14.769048 2.41514399,15.5656662 2.90828857,16.0588108 L14.2885482,27.4390704 C14.7816928,27.932215 15.578311,27.932215 16.0714555,27.4390704 L27.4517152,16.0588108 C27.9448597,15.578311 27.9448597,14.7816928 27.4517152,14.2759035 L27.4517152,14.2759035 Z M17.7026261,18.3348627 L17.7026261,15.1736795 L12.6447329,15.1736795 L12.6447329,18.9670994 L10.1157863,18.9670994 L10.1157863,13.9092062 C10.1157863,13.2137459 10.6847993,12.6447329 11.3802596,12.6447329 L17.7026261,12.6447329 L17.7026261,9.48354969 L22.1282826,13.9092062 L17.7026261,18.3348627 L17.7026261,18.3348627 Z" id="Shape" fill="#679DF6"></path>
                        <polygon id="Shape" points="0 0 30.347359 0 30.347359 30.347359 0 30.347359"></polygon>
                    </g>
                </g>
            </g>
        </g>
    </g>
</svg>