<?xml version="1.0" encoding="UTF-8"?>
<svg width="20px" height="20px" viewBox="0 0 20 20" version="1.1" xmlns="http://www.w3.org/2000/svg" xmlns:xlink="http://www.w3.org/1999/xlink">
    <!-- Generator: sketchtool 55.2 (78181) - https://sketchapp.com -->
    <title>20C4EDA9-4421-45D6-9FC7-0FA8504158F1mdpi/</title>
    <desc>Created with sketchtool.</desc>
    <g id="Final-Short" stroke="none" stroke-width="1" fill="none" fill-rule="evenodd">
        <g id="Home-V8.0--S--Dark---2-Liner" transform="translate(-730.000000, -110.000000)" fill="#FFFFFF" fill-rule="nonzero" stroke="#FFFFFF">
            <g id="Group-8">
                <g id="Header-upper" transform="translate(29.000000, 92.000000)">
                    <g id="Header-top">
                        <g id="Group-6" transform="translate(144.000000, 7.000000)">
                            <path d="M575.844311,29.5325894 L571.469062,25.15831 C572.642715,23.8093078 573.353293,22.0492191 573.353293,20.125494 C573.353293,15.8909042 569.908184,12.4505495 565.676647,12.4505495 C561.441118,12.4505495 558,15.8948953 558,20.125494 C558,24.3560927 561.44511,27.8004386 565.676647,27.8004386 C567.600798,27.8004386 569.361277,27.0900173 570.710579,25.9166248 L575.085828,30.2909042 C575.189621,30.3946736 575.329341,30.4505495 575.46507,30.4505495 C575.600798,30.4505495 575.740519,30.3986647 575.844311,30.2909042 C576.051896,30.0833654 576.051896,29.7401282 575.844311,29.5325894 Z M559.073852,20.125494 C559.073852,16.4855827 562.035928,13.5281548 565.672655,13.5281548 C569.313373,13.5281548 572.271457,16.4895738 572.271457,20.125494 C572.271457,23.7614142 569.313373,26.7268244 565.672655,26.7268244 C562.035928,26.7268244 559.073852,23.7654053 559.073852,20.125494 Z" id="Search"></path>
                        </g>
                    </g>
                </g>
            </g>
        </g>
    </g>
</svg>