<?xml version="1.0" encoding="UTF-8"?>
<svg width="62px" height="62px" viewBox="0 0 62 62" version="1.1" xmlns="http://www.w3.org/2000/svg" xmlns:xlink="http://www.w3.org/1999/xlink">
    <!-- Generator: Sketch 55.2 (78181) - https://sketchapp.com -->
    <title>Shape</title>
    <desc>Created with Sketch.</desc>
    <g id="Page-1" stroke="none" stroke-width="1" fill="none" fill-rule="evenodd" opacity="0.696428571">
        <path d="M58.9114625,56.4803245 L44.9573321,42.5292881 C48.7005021,38.22687 50.9667751,32.6133599 50.9667751,26.4779589 C50.9667751,12.9724392 39.9791706,2 26.4833875,2 C12.9748726,2 2,12.9851682 2,26.4779589 C2,39.9707495 12.9876045,50.9559177 26.4833875,50.9559177 C32.6201493,50.9559177 38.2349043,48.6901472 42.5382766,44.9478072 L56.492407,58.8988435 C56.8234357,59.2297988 57.2690511,59.4080054 57.7019348,59.4080054 C58.1348184,59.4080054 58.5804338,59.2425278 58.9114625,58.8988435 C59.5735198,58.236933 59.5735198,57.1422349 58.9114625,56.4803245 Z M5.42487325,26.4779589 C5.42487325,14.8690673 14.8719214,5.4368429 26.4706557,5.4368429 C38.0821218,5.4368429 47.5164381,14.8817963 47.5164381,26.4779589 C47.5164381,38.0741214 38.0821218,47.5318039 26.4706557,47.5318039 C14.8719214,47.5318039 5.42487325,38.0868504 5.42487325,26.4779589 Z" id="Shape" stroke="#343434" stroke-width="3.58800034" fill-rule="nonzero"></path>
    </g>
</svg>