<?xml version="1.0" encoding="UTF-8"?>
<svg width="18px" height="18px" viewBox="0 0 18 18" version="1.1" xmlns="http://www.w3.org/2000/svg" xmlns:xlink="http://www.w3.org/1999/xlink">
    <!-- Generator: sketchtool 56.2 (101010) - https://sketch.com -->
    <title>0F2934AF-F545-48E3-B184-8948F6E8FA4Bmdpi/</title>
    <desc>Created with sketchtool.</desc>
    <g id="Page-1" stroke="none" stroke-width="1" fill="none" fill-rule="evenodd">
        <g id="FAQ's" transform="translate(-668.000000, -28.000000)" fill="#FFFFFF" fill-rule="nonzero" stroke="#FFFFFF">
            <g id="Group-19">
                <g id="Group-8">
                    <g id="Header-upper" transform="translate(29.000000, 12.000000)">
                        <g id="Header-top">
                            <g id="Group-6" transform="translate(144.000000, 6.000000)">
                                <path d="M512.120649,26.2511905 L508.229571,22.3629422 C509.273345,21.1638291 509.905291,19.5993058 509.905291,17.889328 C509.905291,14.1252482 506.841421,11.0671551 503.078151,11.0671551 C499.311331,11.0671551 496.251012,14.1287959 496.251012,17.889328 C496.251012,21.6498602 499.314882,24.711501 503.078151,24.711501 C504.789374,24.711501 506.355036,24.0800154 507.555022,23.0369999 L511.446101,26.9252482 C511.538408,27.0174877 511.662667,27.0671551 511.783375,27.0671551 C511.904084,27.0671551 512.028343,27.0210353 512.120649,26.9252482 C512.305263,26.7407693 512.305263,26.4356695 512.120649,26.2511905 Z M497.206031,17.889328 C497.206031,14.6538513 499.840319,12.0250265 503.074601,12.0250265 C506.312433,12.0250265 508.943172,14.657399 508.943172,17.889328 C508.943172,21.1212571 506.312433,23.7571772 503.074601,23.7571772 C499.840319,23.7571772 497.206031,21.1248047 497.206031,17.889328 Z" id="Search"></path>
                            </g>
                        </g>
                    </g>
                </g>
            </g>
        </g>
    </g>
</svg>