<svg id="Layer_1" data-name="Layer 1" xmlns="http://www.w3.org/2000/svg" xmlns:xlink="http://www.w3.org/1999/xlink" viewBox="0 0 49.58 54.32"><defs><style>.cls-1,.cls-4{fill:none;}.cls-2{clip-path:url(#clip-path);}.cls-3{clip-path:url(#clip-path-2);}.cls-4{stroke:#458dcb;stroke-miterlimit:10;stroke-width:7.39px;}.cls-5{clip-path:url(#clip-path-3);}.cls-6{clip-path:url(#clip-path-5);}.cls-7{clip-path:url(#clip-path-7);}</style><clipPath id="clip-path"><rect class="cls-1" x="0.68" y="31.63" width="2.07" height="16.73"/></clipPath><clipPath id="clip-path-2"><rect class="cls-1" x="-2266.78" y="-998.29" width="3366.68" height="8148.06"/></clipPath><clipPath id="clip-path-3"><rect class="cls-1" x="46.42" y="31.63" width="2.07" height="16.73"/></clipPath><clipPath id="clip-path-5"><path class="cls-1" d="M21.38,2.35h6.41A12.32,12.32,0,0,1,40.11,14.67V40H9V14.75A12.31,12.31,0,0,1,21.23,2.35Z"/></clipPath><clipPath id="clip-path-7"><path class="cls-1" d="M5.9,42.08H43.27a5.25,5.25,0,0,1,0,10.48H5.9a5.25,5.25,0,0,1,0-10.48Z"/></clipPath></defs><title>blue-01</title><g class="cls-2"><g class="cls-3"><rect class="cls-4" x="0.68" y="31.63" width="2.07" height="16.73"/></g></g><g class="cls-5"><g class="cls-3"><rect class="cls-4" x="46.42" y="31.63" width="2.07" height="16.73"/></g></g><g class="cls-6"><g class="cls-3"><path class="cls-4" d="M21.38,2.35h6.41A12.32,12.32,0,0,1,40.11,14.67V40H9V14.75A12.31,12.31,0,0,1,21.23,2.35Z"/></g></g><g class="cls-7"><g class="cls-3"><path class="cls-4" d="M5.9,42.08H43.27a5.25,5.25,0,0,1,0,10.48H5.9a5.25,5.25,0,0,1,0-10.48Z"/></g></g></svg>