<svg id="Layer_3" data-name="Layer 3" xmlns="http://www.w3.org/2000/svg" xmlns:xlink="http://www.w3.org/1999/xlink" viewBox="0 0 49.58 54.32"><defs><style>.cls-1,.cls-4{fill:none;}.cls-2{clip-path:url(#clip-path);}.cls-3{clip-path:url(#clip-path-2);}.cls-4{stroke:#fff;stroke-miterlimit:10;stroke-width:7.18px;}.cls-5{clip-path:url(#clip-path-3);}.cls-6{clip-path:url(#clip-path-5);}.cls-7{clip-path:url(#clip-path-7);}</style><clipPath id="clip-path"><rect class="cls-1" x="1.56" y="31.22" width="2.01" height="16.26"/></clipPath><clipPath id="clip-path-2"><rect class="cls-1" x="-2201.11" y="-969.3" width="3270.5" height="7915.28"/></clipPath><clipPath id="clip-path-3"><rect class="cls-1" x="46" y="31.22" width="2.01" height="16.26"/></clipPath><clipPath id="clip-path-5"><path class="cls-1" d="M21.68,2.82H27.9a12,12,0,0,1,12,12V39.33H9.63V14.79a12,12,0,0,1,12-12Z"/></clipPath><clipPath id="clip-path-7"><path class="cls-1" d="M6.64,41.37h36.3a5.08,5.08,0,1,1,0,10.15H6.64a5.08,5.08,0,0,1,0-10.15Z"/></clipPath></defs><title>white-01</title><g class="cls-2"><g class="cls-3"><rect class="cls-4" x="1.56" y="31.22" width="2.01" height="16.26"/></g></g><g class="cls-5"><g class="cls-3"><rect class="cls-4" x="46" y="31.22" width="2.01" height="16.26"/></g></g><g class="cls-6"><g class="cls-3"><path class="cls-4" d="M21.68,2.82H27.9a12,12,0,0,1,12,12V39.33H9.63V14.79a12,12,0,0,1,12-12Z"/></g></g><g class="cls-7"><g class="cls-3"><path class="cls-4" d="M6.64,41.37h36.3a5.08,5.08,0,1,1,0,10.15H6.64a5.08,5.08,0,0,1,0-10.15Z"/></g></g></svg>