<svg id="Layer_2" data-name="Layer 2" xmlns="http://www.w3.org/2000/svg" xmlns:xlink="http://www.w3.org/1999/xlink" viewBox="0 0 49.58 54.32"><defs><style>.cls-1,.cls-4{fill:none;}.cls-2{clip-path:url(#clip-path);}.cls-3{clip-path:url(#clip-path-2);}.cls-4{stroke:#6b6b6b;stroke-miterlimit:10;stroke-width:7.31px;}.cls-5{clip-path:url(#clip-path-3);}.cls-6{clip-path:url(#clip-path-5);}.cls-7{clip-path:url(#clip-path-7);}</style><clipPath id="clip-path"><rect class="cls-1" x="1.16" y="31.29" width="2.05" height="16.54"/></clipPath><clipPath id="clip-path-2"><rect class="cls-1" x="-2239.6" y="-986.53" width="3327.05" height="8052.15"/></clipPath><clipPath id="clip-path-3"><rect class="cls-1" x="46.37" y="31.29" width="2.05" height="16.54"/></clipPath><clipPath id="clip-path-5"><path class="cls-1" d="M21.62,2.4H28A12.18,12.18,0,0,1,40.13,14.58v25H9.37v-25A12.18,12.18,0,0,1,21.55,2.4Z"/></clipPath><clipPath id="clip-path-7"><path class="cls-1" d="M6.33,41.61H43.25a5.17,5.17,0,1,1,0,10.33H6.33a5.17,5.17,0,0,1,0-10.33Z"/></clipPath></defs><title>gray-01</title><g class="cls-2"><g class="cls-3"><rect class="cls-4" x="1.16" y="31.29" width="2.05" height="16.54"/></g></g><g class="cls-5"><g class="cls-3"><rect class="cls-4" x="46.37" y="31.29" width="2.05" height="16.54"/></g></g><g class="cls-6"><g class="cls-3"><path class="cls-4" d="M21.62,2.4H28A12.18,12.18,0,0,1,40.13,14.58v25H9.37v-25A12.18,12.18,0,0,1,21.55,2.4Z"/></g></g><g class="cls-7"><g class="cls-3"><path class="cls-4" d="M6.33,41.61H43.25a5.17,5.17,0,1,1,0,10.33H6.33a5.17,5.17,0,0,1,0-10.33Z"/></g></g></svg>