<?xml version="1.0" encoding="UTF-8"?>
<svg width="20px" height="28px" viewBox="0 0 20 28" version="1.1" xmlns="http://www.w3.org/2000/svg" xmlns:xlink="http://www.w3.org/1999/xlink">
    <!-- Generator: sketchtool 55.2 (78181) - https://sketchapp.com -->
    <title>6031C99E-6BF2-45E2-9255-BE6115586D1A</title>
    <desc>Created with sketchtool.</desc>
    <g id="New-Find-Agent" stroke="none" stroke-width="1" fill="none" fill-rule="evenodd">
        <g id="Find-Venue-Search-Results-Hover" transform="translate(-456.000000, -790.000000)" fill="#343434" fill-rule="nonzero">
            <g id="Group-8" transform="translate(431.000000, 490.000000)">
                <g id="noun_Chair_2598822" transform="translate(25.000000, 300.000000)">
                    <g id="Group">
                        <path d="M16.0265643,14 C15.6745079,14 15.3864618,13.7165354 15.3864618,13.3700787 L15.3864618,3.51181102 C15.3864618,2.27086614 14.3590975,1.25984252 13.0980957,1.25984252 L6.9019043,1.25984252 C5.64090254,1.25984252 4.61353817,2.27086614 4.61353817,3.51181102 L4.61353817,13.3700787 C4.61353817,13.7165354 4.32549208,14 3.97343575,14 C3.62137942,14 3.33333333,13.7165354 3.33333333,13.3700787 L3.33333333,3.51181102 C3.33333333,1.57480315 4.93358937,0 6.9019043,0 L13.0980957,0 C15.0664106,0 16.6666667,1.57480315 16.6666667,3.51181102 L16.6666667,13.3700787 C16.6666667,13.7165354 16.3786206,14 16.0265643,14 Z" id="Path"></path>
                        <path d="M3.98530768,28 C3.97879036,28 3.97227305,28 3.96901439,28 C3.610562,27.9903226 3.32380009,27.6935484 3.33357606,27.3387097 L3.39223191,25.1354839 C3.39223191,23.6354839 4.64029795,22.4 6.17186725,22.4 L14.3836856,22.4 C15.9185136,22.4 17.163321,23.6354839 17.163321,25.1516129 L17.2219768,27.3387097 C17.2317528,27.6935484 16.9482495,27.9903226 16.5897971,28 C16.5832798,28 16.5767625,28 16.5702452,28 C16.2183101,28 15.9282895,27.7225806 15.9185136,27.3709677 L15.8565991,25.1677419 C15.8565991,24.3451613 15.1950915,23.6870968 14.380427,23.6870968 L6.17186725,23.6870968 C5.35720273,23.6870968 4.69569514,24.3419355 4.69569514,25.1483871 L4.63378064,27.3709677 C4.62726332,27.7225806 4.33724275,28 3.98530768,28 Z" id="Path"></path>
                        <path d="M10,28 C9.69444444,28 9.44444444,27.7188491 9.44444444,27.3752202 L9.44444444,17.9847798 C9.44444444,17.6411509 9.69444444,17.36 10,17.36 C10.3055556,17.36 10.5555556,17.6411509 10.5555556,17.9847798 L10.5555556,27.3752202 C10.5555556,27.7188491 10.3083333,28 10,28 Z" id="Path"></path>
                        <path d="M17.4093055,18.48 L3.14625005,18.48 C2.33103491,18.48 1.66666667,17.8028972 1.66666667,16.9720561 L1.66666667,14.3879439 C1.66666667,13.5571028 2.33103491,12.88 3.14625005,12.88 L17.4093055,12.88 C18.2245206,12.88 18.8888889,13.5571028 18.8888889,14.3879439 L18.8888889,16.9720561 C18.8888889,17.8028972 18.2245206,18.48 17.4093055,18.48 Z M3.14625005,14.1884112 C3.04033627,14.1884112 2.95047004,14.28 2.95047004,14.3879439 L2.95047004,16.9720561 C2.95047004,17.08 3.04033627,17.1715888 3.14625005,17.1715888 L17.4093055,17.1715888 C17.5152193,17.1715888 17.6050855,17.08 17.6050855,16.9720561 L17.6050855,14.3879439 C17.6050855,14.28 17.5152193,14.1884112 17.4093055,14.1884112 L3.14625005,14.1884112 Z" id="Shape"></path>
                        <g transform="translate(0.000000, 8.400000)" id="Path">
                            <path d="M1.99032258,8.16092308 C1.69354839,8.16092308 1.42580645,7.95415385 1.36129032,7.65046154 L0.358064516,2.97876923 C0.138709677,2.03538462 0.232258065,1.28907692 0.638709677,0.772153846 C1.10645161,0.180923077 1.78387097,0.164769231 1.86129032,0.164769231 L3.90322581,0.164769231 C4.25806452,0.164769231 4.5483871,0.455538462 4.5483871,0.810923077 C4.5483871,1.16630769 4.25806452,1.45707692 3.90322581,1.45707692 L1.86129032,1.45707692 C1.86451613,1.45707692 1.72903226,1.47 1.64516129,1.58630769 C1.58064516,1.67353846 1.44516129,1.96107692 1.61935484,2.69769231 L2.62580645,7.37907692 C2.7,7.728 2.48064516,8.07046154 2.13225806,8.148 C2.08064516,8.15446154 2.03548387,8.16092308 1.99032258,8.16092308 Z"></path>
                            <path d="M18.0096774,8.16092308 C17.9645161,8.16092308 17.9193548,8.15769231 17.8741935,8.148 C17.5258065,8.07369231 17.3032258,7.728 17.3806452,7.37907692 L18.383871,2.70738462 C18.5580645,1.95784615 18.4258065,1.67353846 18.3612903,1.58630769 C18.2774194,1.47 18.1419355,1.46030769 18.1258065,1.45707692 L16.1129032,1.45707692 C15.7580645,1.45707692 15.4677419,1.16630769 15.4677419,0.810923077 C15.4677419,0.455538462 15.7580645,0.164769231 16.1129032,0.164769231 L18.1451613,0.164769231 C18.2193548,0.164769231 18.8967742,0.180923077 19.3677419,0.772153846 C19.7741935,1.28584615 19.8677419,2.03215385 19.6451613,2.98846154 L18.6419355,7.64723077 C18.5741935,7.95415385 18.3064516,8.16092308 18.0096774,8.16092308 Z"></path>
                        </g>
                    </g>
                </g>
            </g>
        </g>
    </g>
</svg>