<?xml version="1.0" encoding="UTF-8"?>
<svg width="23px" height="40px" viewBox="0 0 23 40" version="1.1" xmlns="http://www.w3.org/2000/svg" xmlns:xlink="http://www.w3.org/1999/xlink">
    <!-- Generator: Sketch 56.2 (81672) - https://sketch.com -->
    <title>smartphone</title>
    <desc>Created with Sketch.</desc>
    <g id="Page-1" stroke="none" stroke-width="1" fill="none" fill-rule="evenodd">
        <g id="smartphone" fill="#092438" fill-rule="nonzero">
            <path d="M14.8607568,2 L8.13932192,2 C7.76832877,2 7.46720205,2.29867188 7.46720205,2.66664062 C7.46720205,3.03460938 7.76832877,3.33328125 8.13932192,3.33328125 L14.8607568,3.33328125 C15.23175,3.33328125 15.5328767,3.03460938 15.5328767,2.66664062 C15.5328767,2.29867187 15.23175,2 14.8607568,2 Z" id="Path"></path>
            <path d="M19.5657534,2 L18.8936336,2 C18.5226404,2 18.2215137,2.29867188 18.2215137,2.66664062 C18.2215137,3.03460938 18.5226404,3.33328125 18.8936336,3.33328125 L19.5657534,3.33328125 C19.9367466,3.33328125 20.2378733,3.03460938 20.2378733,2.66664062 C20.2378733,2.29867187 19.9367466,2 19.5657534,2 Z" id="Path"></path>
            <path d="M12.334774,34 L10.6658562,34 C9.64353767,34 8.81144178,34.8253125 8.81144178,35.8392969 L8.81144178,36.1613281 C8.81144178,37.1753125 9.64353767,38 10.665226,38 L12.3341438,38 C13.3564623,38 14.1885582,37.1753125 14.1885582,36.1613281 L14.1885582,35.8392969 C14.1885582,34.8253125 13.3564623,34 12.334774,34 Z M12.8443185,36.1613281 C12.8443185,36.44 12.6158151,36.6666406 12.3348527,36.6666406 L10.6658562,36.6666406 C10.3842637,36.6666406 10.1556815,36.44 10.1556815,36.1613281 L10.1556815,35.8392969 C10.1556815,35.56 10.3841849,35.3332813 10.6658562,35.3332813 L12.3341438,35.3332813 C12.6158151,35.3332813 12.8443185,35.5599219 12.8443185,35.8392969 L12.8443185,36.1613281 L12.8443185,36.1613281 Z" id="Shape"></path>
            <path d="M20.4973322,0 L2.50329795,0 C1.16370548,0 0.073489726,1.08132812 0.073489726,2.41 L0.073489726,37.59 C0.073489726,38.9186719 1.16370548,40 2.50329795,40 L20.4966233,40 C21.8362158,40 22.9264315,38.9186719 22.9264315,37.5907031 L22.9264315,2.41 C22.9264315,1.08132812 21.8362945,0 20.4973322,0 Z M21.5821918,37.59 C21.5821918,38.1833594 21.0955685,38.6666406 20.4973322,38.6666406 L2.50329795,38.6666406 C1.90443151,38.6666406 1.41780822,38.1832812 1.41780822,37.590625 L1.41780822,2.41 C1.41780822,1.81664063 1.90443151,1.33335938 2.50329795,1.33335938 L20.4966233,1.33335938 C21.0954897,1.33335938 21.5821918,1.81671875 21.5821918,2.41 L21.5821918,37.59 L21.5821918,37.59 Z" id="Shape"></path>
            <path d="M22.2543116,4 L0.745688356,4 C0.374695205,4 0.0735684932,4.29867188 0.0735684932,4.66664063 L0.0735684932,32.6666406 C0.0735684932,33.0346094 0.374695205,33.3332812 0.745688356,33.3332812 L22.2543904,33.3332812 C22.6253836,33.3332812 22.9265103,33.0346094 22.9265103,32.6666406 L22.9265103,4.66664063 C22.9265103,4.29867188 22.6253836,4 22.2543116,4 Z M21.5821918,32 L1.41780822,32 L1.41780822,5.33335937 L21.5821918,5.33335937 L21.5821918,32 Z" id="Shape"></path>
        </g>
    </g>
</svg>