<?xml version="1.0" encoding="UTF-8"?>
<svg width="23px" height="24px" viewBox="0 0 23 24" version="1.1" xmlns="http://www.w3.org/2000/svg" xmlns:xlink="http://www.w3.org/1999/xlink">
    <!-- Generator: Sketch 55.2 (78181) - https://sketchapp.com -->
    <title>stopwatch</title>
    <desc>Created with Sketch.</desc>
    <g id="Home" stroke="none" stroke-width="1" fill="none" fill-rule="evenodd">
        <g id="Home-V8.0--S--Dark---2-Liner" transform="translate(-183.000000, -2851.000000)" fill="#FFFFFF" fill-rule="nonzero">
            <g id="Special-Offers" transform="translate(0.000000, 2599.000000)">
                <g id="02" transform="translate(52.000000, 96.000000)">
                    <g id="Bitmap-Copy">
                        <g id="Group-2" transform="translate(0.000000, 146.108204)">
                            <g id="stopwatch" transform="translate(131.000000, 9.891796)">
                                <path d="M12.1479655,15.1956 C12.5607759,15.1632 12.9371034,14.9508 13.1813793,14.612 L16.8942931,9.4344 C17.0081034,9.2756 16.9910517,9.0564 16.8530517,8.9172 C16.7150517,8.7784 16.4977414,8.7612 16.3403103,8.8756 L11.2065517,12.622 C10.8718621,12.8676 10.6612931,13.2472 10.6291724,13.6636 C10.5970517,14.08 10.7465517,14.4876 11.0388103,14.7824 C11.3048966,15.0512 11.6637759,15.2 12.036931,15.2 C12.0738103,15.2 12.1106897,15.1984 12.1479655,15.1956 Z M11.4198966,13.726 C11.4337759,13.5432 11.526569,13.3764 11.6725,13.2692 L14.804069,10.984 L12.5393621,14.142 C12.4322931,14.2904 12.266931,14.3836 12.0857069,14.398 C11.9052759,14.41 11.7280172,14.3468 11.5991379,14.2168 C11.4714483,14.0876 11.4056207,13.9084 11.4198966,13.726 Z" id="Shape"></path>
                                <path d="M21.0307241,7.8256 C21.0267586,7.8172 21.0267586,7.8084 21.0223966,7.8 C21.0176379,7.792 21.0101034,7.7876 21.0049483,7.78 C20.6040345,7.0864 20.1297586,6.4412 19.5912414,5.8564 L20.4430345,4.9976 L21.0037586,5.5632 L22.685931,3.866 L21.0037586,2.1692 L19.3211897,3.866 L19.8823103,4.432 L19.0305172,5.2908 C18.4507586,4.7476 17.8115172,4.2688 17.1235,3.8644 C17.1159655,3.8592 17.1116034,3.8516 17.1036724,3.8468 C17.0953448,3.842 17.0866207,3.8424 17.0782931,3.838 C15.8517586,3.1252 14.4737414,2.6504 13.0045172,2.4764 L13.0045172,2 L13.5993448,2 C14.1461897,2 14.5907241,1.5516 14.5907241,1 C14.5907241,0.4484 14.1457931,0 13.5989483,0 L10.0299828,0 C9.48313793,0 9.03860345,0.4484 9.03860345,1 C9.03860345,1.5516 9.48313793,2 10.0299828,2 L10.6248103,2 L10.6248103,2.4624 C10.1965345,2.5084 9.76905172,2.5788 9.34632759,2.6764 C9.13298276,2.7256 8.99934483,2.9404 9.04851724,3.1556 C9.0972931,3.3708 9.31024138,3.506 9.52358621,3.456 C9.88841379,3.3716 10.2568103,3.308 10.626,3.2652 L11.0515,3.232 C11.181569,3.222 11.3013276,3.2148 11.4179138,3.2092 L11.4179138,4 C11.4179138,4.2212 11.5951724,4.4 11.8144655,4.4 C12.0337586,4.4 12.2110172,4.2212 12.2110172,4 L12.2110172,3.212 C13.7024483,3.2812 15.1078276,3.6852 16.3573621,4.35 L15.9663621,5.0328 C15.8569138,5.2244 15.9219483,5.4688 16.1115,5.5792 C16.1737586,5.6156 16.2419655,5.6328 16.3093793,5.6328 C16.4465862,5.6328 16.5798276,5.5612 16.6531897,5.4328 L17.043,4.7516 C18.2838103,5.5456 19.3378448,6.6088 20.125,7.8604 L19.4496724,8.2536 C19.2605172,8.364 19.1954828,8.6084 19.3053276,8.8 C19.3790862,8.9284 19.511931,9 19.6491379,9 C19.7165517,9 19.7847586,8.9828 19.8470172,8.9464 L20.523931,8.552 C21.1921207,9.8304 21.5938276,11.2712 21.6537069,12.7996 L20.8705172,12.7996 C20.6512241,12.7996 20.4739655,12.9784 20.4739655,13.1996 C20.4739655,13.4208 20.6512241,13.5996 20.8705172,13.5996 L21.6537069,13.5996 C21.5938276,15.128 21.1921207,16.5688 20.523931,17.8472 L19.8470172,17.4528 C19.6574655,17.3424 19.4147759,17.4072 19.3053276,17.5992 C19.1958793,17.7908 19.2609138,18.0352 19.4504655,18.1456 L20.1257931,18.5388 C19.3386379,19.7904 18.2846034,20.8536 17.0437931,21.6476 L16.6539828,20.9664 C16.5441379,20.7744 16.3010517,20.7092 16.1122931,20.82 C15.9223448,20.9304 15.8573103,21.1752 15.9671552,21.3664 L16.3581552,22.0492 C15.1086207,22.714 13.7032414,23.118 12.2118103,23.1872 L12.2118103,22.4 C12.2118103,22.1788 12.0345517,22 11.8152586,22 C11.5959655,22 11.4187069,22.1788 11.4187069,22.4 L11.4187069,23.1904 C10.7854138,23.1684 10.1501379,23.0884 9.52477586,22.9436 C9.31143103,22.892 9.09848276,23.0288 9.0497069,23.244 C9.00053448,23.4592 9.13417241,23.674 9.34751724,23.7232 C10.1390345,23.9072 10.9476034,24 11.7498276,24 C11.7692586,24 11.7878966,23.9988 11.8073276,23.9984 C11.8101034,23.9984 11.8120862,24 11.8144655,24 C11.8176379,24 11.8204138,23.998 11.8235862,23.998 C13.7298103,23.9848 15.5182586,23.4656 17.0656034,22.5688 C17.0778966,22.5632 17.0909828,22.5604 17.1028793,22.5532 C17.1108103,22.5484 17.1151724,22.5408 17.1227069,22.5356 C18.7243793,21.594 20.0627414,20.2456 20.9982069,18.6312 C21.0057414,18.6204 21.0152586,18.612 21.022,18.6 C21.0267586,18.5916 21.0263621,18.5828 21.0303276,18.5744 C21.9360517,16.9904 22.4567241,15.156 22.4567241,13.2 C22.4567241,11.244 21.9360517,9.4096 21.0307241,7.8256 Z M21.0033621,3.3004 L21.5640862,3.866 L21.0033621,4.432 L20.4422414,3.866 L21.0033621,3.3004 Z M11.4179138,2.4084 L11.4179138,1.2 L10.0299828,1.2 C9.92093103,1.2 9.8317069,1.11 9.8317069,1 C9.8317069,0.89 9.92093103,0.8 10.0299828,0.8 L13.5989483,0.8 C13.708,0.8 13.7972241,0.89 13.7972241,1 C13.7972241,1.11 13.708,1.2 13.5989483,1.2 L12.2110172,1.2 L12.2110172,2.4084 C12.0730172,2.4028 11.9413621,2.4 11.8144655,2.4 C11.8033621,2.4 11.7906724,2.4008 11.779569,2.4008 C11.7696552,2.4008 11.7597414,2.4 11.7498276,2.4 C11.6847931,2.4 11.6197586,2.4044 11.5547241,2.4056 C11.5087241,2.4068 11.4655,2.4064 11.4179138,2.4084 Z" id="Shape"></path>
                                <path d="M8.2455,5.6 L6.26274138,5.6 C6.04344828,5.6 5.86618966,5.7788 5.86618966,6 C5.86618966,6.2212 6.04344828,6.4 6.26274138,6.4 L8.2455,6.4 C8.4647931,6.4 8.64205172,6.2212 8.64205172,6 C8.64205172,5.7788 8.4647931,5.6 8.2455,5.6 Z" id="Path"></path>
                                <path d="M8.2455,8.4 L4.27998276,8.4 C4.06068966,8.4 3.88343103,8.5788 3.88343103,8.8 C3.88343103,9.0212 4.06068966,9.2 4.27998276,9.2 L8.2455,9.2 C8.4647931,9.2 8.64205172,9.0212 8.64205172,8.8 C8.64205172,8.5788 8.4647931,8.4 8.2455,8.4 Z" id="Path"></path>
                                <path d="M8.2455,11.2 L2.29722414,11.2 C2.07793103,11.2 1.90067241,11.3788 1.90067241,11.6 C1.90067241,11.8212 2.07793103,12 2.29722414,12 L8.2455,12 C8.4647931,12 8.64205172,11.8212 8.64205172,11.6 C8.64205172,11.3788 8.4647931,11.2 8.2455,11.2 Z" id="Path"></path>
                                <path d="M8.2455,14 L0.711017241,14 C0.491724138,14 0.314465517,14.1788 0.314465517,14.4 C0.314465517,14.6212 0.491724138,14.8 0.711017241,14.8 L8.2455,14.8 C8.4647931,14.8 8.64205172,14.6212 8.64205172,14.4 C8.64205172,14.1788 8.4647931,14 8.2455,14 Z" id="Path"></path>
                                <path d="M8.2455,16.8 L3.09032759,16.8 C2.87103448,16.8 2.69377586,16.9788 2.69377586,17.2 C2.69377586,17.4212 2.87103448,17.6 3.09032759,17.6 L8.2455,17.6 C8.4647931,17.6 8.64205172,17.4212 8.64205172,17.2 C8.64205172,16.9788 8.4647931,16.8 8.2455,16.8 Z" id="Path"></path>
                                <path d="M8.2455,19.6 L5.46963793,19.6 C5.25034483,19.6 5.07308621,19.7788 5.07308621,20 C5.07308621,20.2212 5.25034483,20.4 5.46963793,20.4 L8.2455,20.4 C8.4647931,20.4 8.64205172,20.2212 8.64205172,20 C8.64205172,19.7788 8.4647931,19.6 8.2455,19.6 Z" id="Path"></path>
                            </g>
                        </g>
                    </g>
                </g>
            </g>
        </g>
    </g>
</svg>