<?xml version="1.0" encoding="UTF-8"?>
<svg width="84px" height="76px" viewBox="0 0 84 76" version="1.1" xmlns="http://www.w3.org/2000/svg" xmlns:xlink="http://www.w3.org/1999/xlink">
    <!-- Generator: sketchtool 56.2 (101010) - https://sketch.com -->
    <title>370522D8-3BC3-4B59-82BC-DE371D9DB1A3</title>
    <desc>Created with sketchtool.</desc>
    <g id="About-Us" stroke="none" stroke-width="1" fill="none" fill-rule="evenodd">
        <g id="About-us-" transform="translate(-1032.000000, -2917.000000)" fill="#FFFFFF" fill-rule="nonzero">
            <g id="About-Us" transform="translate(0.000000, -2.000000)">
                <g id="Careers" transform="translate(0.000000, 2670.000000)">
                    <g id="Group-26">
                        <g transform="translate(181.000000, 161.000000)">
                            <g id="Group-24" transform="translate(782.000000, 33.000000)">
                                <g id="suitcase" transform="translate(69.000000, 55.000000)">
                                    <path d="M79.8,12.6666667 L61.6,12.6666667 L61.6,7.03703704 C61.5952148,3.15223529 58.4643554,0.00481048333 54.6,0 L29.4,0 C25.5356446,0.00481048333 22.4047852,3.15223529 22.4,7.03703704 L22.4,12.6666667 L4.2,12.6666667 C1.88056645,12.6666667 0,14.5571832 0,16.8888889 L0,48.2174479 C0.00888671,50.0028211 1.1279296,51.5909649 2.8,52.1908998 L2.8,71.7777778 C2.8,74.1094835 4.68056645,76 7,76 L77,76 C79.3194335,76 81.2,74.1094835 81.2,71.7777778 L81.2,52.1922743 C82.8720704,51.5916521 83.9917969,50.0028211 84,48.2174479 L84,16.8888889 C84,14.5571832 82.1194335,12.6666667 79.8,12.6666667 Z M25.2,7.03703704 C25.2,4.70533135 27.0805664,2.81481481 29.4,2.81481481 L54.6,2.81481481 C56.9194336,2.81481481 58.8,4.70533135 58.8,7.03703704 L58.8,12.6666667 L56,12.6666667 L56,7.03703704 C56,6.25980175 55.3731446,5.62962963 54.6,5.62962963 L29.4,5.62962963 C28.6268554,5.62962963 28,6.25980175 28,7.03703704 L28,12.6666667 L25.2,12.6666667 L25.2,7.03703704 Z M53.2,12.6666667 L30.8,12.6666667 L30.8,8.44444444 L53.2,8.44444444 L53.2,12.6666667 Z M78.4,71.7777778 C78.4,72.5550131 77.7731446,73.1851852 77,73.1851852 L7,73.1851852 C6.22685542,73.1851852 5.6,72.5550131 5.6,71.7777778 L5.6,52.6746961 L36.4,56.9450231 L36.4,60.5185185 C36.4,62.8502242 38.2805664,64.7407407 40.6,64.7407407 L43.4,64.7407407 C45.7194335,64.7407407 47.6,62.8502242 47.6,60.5185185 L47.6,56.9450231 L78.4,52.6746961 L78.4,71.7777778 Z M44.8,60.5185185 C44.8,61.2957538 44.1731446,61.9259259 43.4,61.9259259 L40.6,61.9259259 C39.8268554,61.9259259 39.2,61.2957538 39.2,60.5185185 L39.2,52.0740741 C39.2,51.2968388 39.8268554,50.6666667 40.6,50.6666667 L43.4,50.6666667 C44.1731446,50.6666667 44.8,51.2968388 44.8,52.0740741 L44.8,60.5185185 Z M81.2000007,48.2174479 C81.2000007,48.9190899 80.6873046,49.5142145 79.9961915,49.6124854 L79.6079102,49.666088 L47.6,54.1034071 L47.6,52.0740741 C47.6,49.7423684 45.7194336,47.8518519 43.4,47.8518519 L40.6,47.8518519 C38.2805665,47.8518519 36.4,49.7423684 36.4,52.0740741 L36.4,54.1034071 L4.00517583,49.6124854 C3.3140625,49.5149016 2.79999932,48.9197771 2.79999932,48.2174479 L2.79999932,16.8888889 C2.79999932,16.1116536 3.42685543,15.4814815 4.2,15.4814815 L79.7999993,15.4814815 C80.5731446,15.4814815 81.2000007,16.1116536 81.2000007,16.8888889 L81.2000007,48.2174479 Z" id="Shape"></path>
                                </g>
                            </g>
                        </g>
                    </g>
                </g>
            </g>
        </g>
    </g>
</svg>