<?xml version="1.0" encoding="UTF-8"?>
<svg width="44px" height="40px" viewBox="0 0 44 40" version="1.1" xmlns="http://www.w3.org/2000/svg" xmlns:xlink="http://www.w3.org/1999/xlink">
    <!-- Generator: sketchtool 56.2 (101010) - https://sketch.com -->
    <title>F1243474-BEA8-4F13-80BB-E64BC16F0FC7</title>
    <desc>Created with sketchtool.</desc>
    <g id="Sell-ticket-with-us" stroke="none" stroke-width="1" fill="none" fill-rule="evenodd">
        <g id="Sell-Ticket-with-Us" transform="translate(-431.000000, -513.000000)" fill="#0098FF" fill-rule="nonzero">
            <g id="Group-16" transform="translate(431.000000, 508.000000)">
                <g id="tickets-icon" transform="translate(0.000000, 5.833386)">
                    <path d="M43.2666667,25.7546623 C43.67165,25.7546623 44,25.4251845 44,25.0188102 L44,19.1319935 C44,18.7256192 43.67165,18.3961414 43.2666667,18.3961414 L34.0369333,18.3961414 L38.6518,13.7654241 C38.938075,13.4780739 38.938075,13.0122795 38.6518,12.7249293 L34.6448667,8.70423345 C34.3585,8.41697519 33.8943,8.41697519 33.6079333,8.70423345 C32.4621917,9.85391036 30.604475,9.85391036 29.4587333,8.70423345 C28.3129917,7.55455653 28.3129917,5.69045922 29.4587333,4.5407823 C29.7450083,4.25343206 29.7450083,3.78763768 29.4587333,3.50028744 L26.1851333,0.215443696 C25.8987667,-0.0718145653 25.4345667,-0.0718145653 25.1482,0.215443696 L7.02973333,18.3961414 L0.733333333,18.3961414 C0.32835,18.3961414 0,18.7256192 0,19.1319935 L0,25.0188102 C0,25.4251845 0.32835,25.7546623 0.733333333,25.7546623 C2.35335833,25.7546623 3.66666667,27.0724814 3.66666667,28.6980707 C3.66666667,30.3236599 2.35335833,31.6414791 0.733333333,31.6414791 C0.32835,31.6414791 0,31.9709568 0,32.3773312 L0,38.2641479 C0,38.6705222 0.32835,39 0.733333333,39 L43.2666667,39 C43.67165,39 44,38.6705222 44,38.2641479 L44,32.3773312 C44,31.9709568 43.67165,31.6414791 43.2666667,31.6414791 C41.6466417,31.6414791 40.3333333,30.3236599 40.3333333,28.6980707 C40.3333333,27.0724814 41.6466417,25.7546623 43.2666667,25.7546623 Z M25.6666667,1.77618599 L27.9458667,4.06321429 C26.5331917,6.0472555 26.9908833,8.80476924 28.9681333,10.2222963 C30.4981417,11.3192678 32.5538583,11.3192678 34.0838667,10.2222963 L37.0964,13.2451767 L31.9630667,18.3961414 L29.6369333,18.3961414 L31.3184667,16.7088325 C31.6047417,16.4214823 31.6047417,15.9556879 31.3184667,15.6683377 L23.2518,7.57396463 C22.9654333,7.28670637 22.5012333,7.28670637 22.2148667,7.57396463 L11.4297333,18.3961414 L9.1036,18.3961414 L25.6666667,1.77618599 Z M27.5630667,18.3961414 L13.5036,18.3961414 L22.7333333,9.13470692 L29.7630667,16.1885851 L27.5630667,18.3961414 Z M38.9235,29.4298756 C39.2344333,31.2858785 40.6836833,32.7401062 42.5333333,33.0521075 L42.5333333,37.5282958 L36.6666667,37.5282958 L36.6666667,34.5848874 L35.2,34.5848874 L35.2,37.5282958 L8.8,37.5282958 L8.8,36.7924437 L7.33333333,36.7924437 L7.33333333,37.5282958 L1.46666667,37.5282958 L1.46666667,33.0521075 C3.86310833,32.6479408 5.47928333,30.3709384 5.0765,27.9662658 C4.76556667,26.1102628 3.31640833,24.6560351 1.46666667,24.3440338 L1.46666667,19.8678456 L7.33333333,19.8678456 L7.33333333,22.0754018 L8.8,22.0754018 L8.8,19.8678456 L42.5333333,19.8678456 L42.5333333,24.3440338 C40.1368917,24.7482006 38.5207167,27.0252949 38.9235,29.4298756 Z" id="Shape"></path>
                    <rect id="Rectangle" x="35" y="21" width="1" height="3"></rect>
                    <rect id="Rectangle" x="35" y="26" width="1" height="3"></rect>
                    <rect id="Rectangle" x="35" y="30" width="1" height="3"></rect>
                    <rect id="Rectangle" x="8" y="24" width="1" height="3"></rect>
                    <rect id="Rectangle" x="8" y="28" width="1" height="3"></rect>
                    <rect id="Rectangle" x="8" y="32" width="1" height="3"></rect>
                    <path d="M32.2666667,23.25 C31.4566083,23.25 30.8,22.5784687 30.8,21.75 C30.8,21.3358125 30.47165,21 30.0666667,21 L13.9333333,21 C13.52835,21 13.2,21.3358125 13.2,21.75 C13.2,22.5784687 12.5433917,23.25 11.7333333,23.25 C11.32835,23.25 11,23.5858125 11,24 L11,33 C11,33.4141875 11.32835,33.75 11.7333333,33.75 C12.5433917,33.75 13.2,34.4215313 13.2,35.25 C13.2,35.6641875 13.52835,36 13.9333333,36 L30.0666667,36 C30.47165,36 30.8,35.6641875 30.8,35.25 C30.8,34.4215313 31.4566083,33.75 32.2666667,33.75 C32.67165,33.75 33,33.4141875 33,33 L33,24 C33,23.5858125 32.67165,23.25 32.2666667,23.25 Z M31.5333333,32.3445 C30.5008917,32.6195625 29.6946833,33.4440938 29.4257333,34.5 L14.5742667,34.5 C14.3053167,33.4440938 13.4991083,32.6195625 12.4666667,32.3445 L12.4666667,24.6555 C13.4991083,24.3804375 14.3053167,23.5559062 14.5742667,22.5 L29.4257333,22.5 C29.6946833,23.5559062 30.5008917,24.3804375 31.5333333,24.6555 L31.5333333,32.3445 Z" id="Shape"></path>
                </g>
            </g>
        </g>
    </g>
</svg>