<?xml version="1.0" encoding="UTF-8"?>
<svg width="31px" height="40px" viewBox="0 0 31 40" version="1.1" xmlns="http://www.w3.org/2000/svg" xmlns:xlink="http://www.w3.org/1999/xlink">
    <!-- Generator: sketchtool 56.2 (101010) - https://sketch.com -->
    <title>E3B75E3F-DB3B-44D6-A558-BDC4D0363A84</title>
    <desc>Created with sketchtool.</desc>
    <g id="Page-1" stroke="none" stroke-width="1" fill="none" fill-rule="evenodd">
        <g id="Where-to-buy-tickets-" transform="translate(-667.000000, -262.000000)" fill="#092438" fill-rule="nonzero" stroke="#092438" stroke-width="0.3">
            <g id="6-steps" transform="translate(278.000000, 241.000000)">
                <g id="Group-15" transform="translate(332.000000, 0.000000)">
                    <g id="user" transform="translate(58.000000, 22.000000)">
                        <path d="M25.8566522,27.1630333 L19.8341087,24.1382333 C19.266087,23.8526 18.9130435,23.2788 18.9130435,22.6404 L18.9130435,20.4991 C19.057413,20.3217667 19.2093478,20.1197333 19.3663261,19.8968 C20.1474348,18.7884667 20.7734565,17.5547333 21.2286304,16.2241 C22.1181739,15.8143333 22.6956522,14.9308333 22.6956522,13.9333333 L22.6956522,11.4 C22.6956522,10.7901 22.4686957,10.1992 22.0652174,9.7375 L22.0652174,6.3688 C22.1005217,6.02046667 22.2392174,3.94693333 20.7463478,2.2363 C19.4514348,0.7524 17.3501957,0 14.5,0 C11.6498043,0 9.54856522,0.7524 8.25365217,2.23566667 C6.76078261,3.9463 6.89947826,6.02046667 6.93478261,6.3688 L6.93478261,9.7375 C6.53130435,10.1992 6.30434783,10.7901 6.30434783,11.4 L6.30434783,13.9333333 C6.30434783,14.7041 6.65297826,15.4229333 7.2481087,15.9023667 C7.82558696,18.1994667 9.03413043,19.9303667 9.45652174,20.4858 L9.45652174,22.5815 C9.45652174,23.1945667 9.12365217,23.7569667 8.58841304,24.0508333 L2.96430435,27.1326333 C1.13541304,28.1352 0,30.0567333 0,32.1492667 L0,34.2 C0,37.2058 9.4848913,38 14.5,38 C19.5151087,38 29,37.2058 29,34.2 L29,32.2727667 C29,30.0953667 27.7952391,28.1371 25.8566522,27.1630333 Z M27.7391304,34.2 C27.7391304,35.0594333 23.0663478,36.7333333 14.5,36.7333333 C5.93365217,36.7333333 1.26086957,35.0594333 1.26086957,34.2 L1.26086957,32.1492667 C1.26086957,30.5209667 2.14473913,29.0244 3.56763043,28.2454 L9.19173913,25.1636 C10.1329783,24.6474333 10.7173913,23.6575333 10.7173913,22.5815 L10.7173913,20.0361333 L10.5705,19.8600667 C10.5553696,19.8417 9.01017391,17.9638667 8.42071739,15.3855667 L8.36334783,15.1347667 L8.14836957,14.9954333 C7.78334783,14.7585667 7.56521739,14.3614667 7.56521739,13.9333333 L7.56521739,11.4 C7.56521739,11.0447 7.71526087,10.7134667 7.9876087,10.4658333 L8.19565217,10.2777333 L8.19565217,6.33333333 L8.18997826,6.25036667 C8.18808696,6.23326667 7.97373913,4.47766667 9.20182609,3.0704 C10.2464565,1.8734 12.0293261,1.26666667 14.5,1.26666667 C16.9618478,1.26666667 18.7409348,1.86896667 19.7868261,3.05773333 C21.0142826,4.4517 20.8112826,6.23516667 20.8100217,6.25036667 L20.8043478,10.2777333 L21.0123913,10.4664667 C21.2847391,10.7134667 21.4347826,11.0447 21.4347826,11.4 L21.4347826,13.9333333 C21.4347826,14.4862333 21.0741739,14.9701 20.5383043,15.1360333 L20.2243478,15.2329333 L20.1234783,15.5464333 C19.7017174,16.8644 19.100913,18.0816667 18.3368261,19.1646667 C18.149587,19.4313 17.9673913,19.6675333 17.8091522,19.8480333 L17.6521739,20.0279 L17.6521739,22.6404 C17.6521739,23.7614 18.2718913,24.7690333 19.2698696,25.2706333 L25.292413,28.2954333 C26.8016739,29.0535333 27.7391304,30.5773333 27.7391304,32.2727667 L27.7391304,34.2 Z" id="Shape"></path>
                    </g>
                </g>
            </g>
        </g>
    </g>
</svg>