<?xml version="1.0" encoding="UTF-8"?>
<svg width="39px" height="34px" viewBox="0 0 39 34" version="1.1" xmlns="http://www.w3.org/2000/svg" xmlns:xlink="http://www.w3.org/1999/xlink">
    <!-- Generator: Sketch 56.2 (81672) - https://sketch.com -->
    <title>website</title>
    <desc>Created with Sketch.</desc>
    <g id="Page-1" stroke="none" stroke-width="1" fill="none" fill-rule="evenodd">
        <g id="website" fill="#162F42" fill-rule="nonzero">
            <path d="M18.3328093,30 C18.8728323,30 19.3106075,29.5793204 19.3106075,29.0603859 C19.3106075,28.5414513 18.8728323,28.1207717 18.3328093,28.1207717 L3.37640758,28.1207717 C3.08263504,28.1207717 2.84448535,27.891922 2.84448535,27.6096216 L2.84448535,8.98646956 L32.9332924,8.98646956 L32.9332924,14.0904535 C32.9332924,14.6093881 33.3710676,15.0300677 33.9110907,15.0300677 C34.4511137,15.0300677 34.8888889,14.6093881 34.8888889,14.0904535 L34.8888889,2.38661989 C34.8867312,1.06791839 33.7736629,0 32.4013702,0 L3.37640758,0 C2.00411491,0 0.891046582,1.06791839 0.888888889,2.38661989 L0.888888889,27.6096216 C0.888888889,28.9297912 2.00258894,30 3.37640758,30 L18.3328093,30 Z M3.37640758,1.87922826 L32.4013702,1.87922826 C32.6951427,1.87922826 32.9332924,2.10807795 32.9332924,2.39037835 L32.9332924,7.10724129 L2.84448535,7.10724129 L2.84448535,2.38661989 C2.84663426,2.10578837 3.08415571,1.87922826 3.37640758,1.87922826 Z" id="Shape"></path>
            <path d="M38.2366839,27.0679884 L29.2199002,24.0554787 C28.8578986,23.9341842 28.4514077,24.015418 28.1786225,24.2635692 C27.9058374,24.5117204 27.8165396,24.881503 27.949875,25.210814 L31.2614362,33.4133344 C31.3958709,33.7454812 31.7318731,33.9750779 32.1199891,34 L32.1912054,34 C32.5553622,33.9994702 32.889746,33.8169579 33.0616277,33.5249089 L34.4266081,31.2142383 L36.867747,33.4349295 C37.2545089,33.7867647 37.8815738,33.7867646 38.2683356,33.4349294 C38.6550975,33.0830942 38.6550975,32.5126567 38.2683356,32.1608214 L35.8271967,29.9401303 L38.3672473,28.6984148 C38.7105099,28.5309443 38.9137676,28.1957999 38.8864408,27.8423351 C38.859114,27.4888704 38.6062913,27.1829053 38.2406404,27.0607901 L38.2366839,27.0679884 Z M32.357377,30.9119076 L30.5413595,26.4129385 L35.4869408,28.06496 L33.7144444,28.9323612 C33.5472316,29.0151926 33.409852,29.1401661 33.3187979,29.2922787 L32.357377,30.9119076 Z" id="Shape"></path>
            <path d="M36.030879,19.2426936 L34.209197,20.6044933 C33.9329478,20.8110036 33.8250602,21.1119988 33.9261744,21.3940971 C34.0272886,21.6761953 34.322043,21.8965392 34.6994064,21.9721272 C35.0767697,22.0477152 35.4794117,21.9670637 35.7556608,21.7605535 L37.5686058,20.3954881 C37.9956499,20.0762509 37.9956499,19.5586651 37.5686057,19.2394279 C37.1415615,18.9201907 36.4491861,18.9201907 36.0221419,19.2394279 L36.030879,19.2426936 Z" id="Path"></path>
            <path d="M23.9772951,32.9934721 C24.2668821,32.9942196 24.5448839,32.9084656 24.7495713,32.7552516 L26.5690016,31.3944575 C26.995518,31.0754561 26.995518,30.5582525 26.5690016,30.2392511 C26.1424853,29.9202496 25.4509656,29.9202496 25.0244493,30.2392511 L23.2093821,31.6065717 C22.8965953,31.8399205 22.8028896,32.1913369 22.9720614,32.4965755 C23.1412331,32.8018141 23.5398707,33.0005899 23.9816583,33 L23.9772951,32.9934721 Z" id="Path"></path>
            <path d="M26.5693018,20.6029825 L24.7515789,19.2396903 C24.3254628,18.9201032 23.6345921,18.9201032 23.208476,19.2396903 C22.7823599,19.5592774 22.7823599,20.0774304 23.208476,20.3970175 L25.0261989,21.7603097 C25.452315,22.0798968 26.1431857,22.0798968 26.5693018,21.7603097 C26.9954179,21.4407226 26.9954179,20.9225696 26.5693018,20.6029825 Z" id="Path"></path>
            <path d="M28.8888889,16.9182736 L28.8888889,19.0817264 C28.8888889,19.5888749 29.3366041,20 29.8888889,20 C30.4411736,20 30.8888889,19.5888749 30.8888889,19.0817264 L30.8888889,16.9182736 C30.8888889,16.4111251 30.4411736,16 29.8888889,16 C29.3366041,16 28.8888889,16.4111251 28.8888889,16.9182736 L28.8888889,16.9182736 Z" id="Path"></path>
            <path d="M24.8888889,26 C24.8888889,25.4477153 24.4777638,25 23.9706152,25 L21.8071625,25 C21.300014,25 20.8888889,25.4477153 20.8888889,26 C20.8888889,26.5522847 21.300014,27 21.8071625,27 L23.9706152,27 C24.4777638,27 24.8888889,26.5522847 24.8888889,26 L24.8888889,26 Z" id="Path"></path>
            <circle id="Oval" cx="5.88888889" cy="5" r="1"></circle>
            <circle id="Oval" cx="9.88888889" cy="5" r="1"></circle>
            <circle id="Oval" cx="12.8888889" cy="5" r="1"></circle>
        </g>
    </g>
</svg>