<?xml version="1.0" encoding="UTF-8"?>
<svg width="45px" height="44px" viewBox="0 0 45 44" version="1.1" xmlns="http://www.w3.org/2000/svg" xmlns:xlink="http://www.w3.org/1999/xlink">
    <!-- Generator: sketchtool 56.2 (101010) - https://sketch.com -->
    <title>B1CD0B2D-141B-4AAC-B0D3-53AAC8B60712</title>
    <desc>Created with sketchtool.</desc>
    <g id="Sell-ticket-with-us" stroke="none" stroke-width="1" fill="none" fill-rule="evenodd">
        <g id="Sell-Ticket-with-Us" transform="translate(-166.000000, -510.000000)" fill="#0098FF" fill-rule="nonzero">
            <g id="Group-18" transform="translate(166.000000, 506.000000)">
                <g id="Years-icon" transform="translate(0.000000, 4.833386)">
                    <path d="M30.8560385,26.8959506 C32.0215563,29.8468113 31.3887195,31.3182803 30.6535938,32.0320472 C30.2233871,32.4395281 29.6726225,32.7062004 29.0785497,32.794791 C29.040342,32.8238711 28.9990741,32.8489898 28.955395,32.8696969 L1.50526224,42.9531848 C1.36476578,43.0048626 1.21147163,43.0140458 1.0655037,42.9792938 C0.66747677,42.8846711 0.423949578,42.4946562 0.521508834,42.1083325 L1.96894692,36.3463395 C2.06604249,35.9596557 2.46759342,35.7226938 2.86589855,35.8169564 C3.26420369,35.911219 3.5082873,36.3010538 3.41119173,36.6877376 L2.29834851,41.1215912 L8.48724061,38.8470445 C6.22742697,36.8981404 4.82264788,34.1828011 4.56187162,31.2592199 L4.21169695,27.2135805 C4.21151148,27.2119599 4.21132601,27.2102493 4.21123327,27.2086288 C4.17877534,26.8121316 4.48360165,26.4650616 4.89201511,26.4335507 C4.89961954,26.4327404 4.9073167,26.4322002 4.91501387,26.43166 C5.31897596,26.4053709 5.66840873,26.7019335 5.69548791,27.0940191 L6.03972742,31.141099 C6.27954513,33.8762451 7.66299473,36.3966669 9.8679081,38.1152714 C9.9264251,38.1644284 9.97650305,38.2222284 10.0162872,38.2866906 L18.6920129,35.0995882 C12.6217314,32.3590403 8.12204256,27.1385846 6.41364274,20.8545009 C6.2229756,20.1500973 6.06717755,19.4298481 5.95069996,18.709599 C5.88717516,18.3166131 6.16390217,17.9480256 6.56869889,17.8863542 C6.97349562,17.8246829 7.35316063,18.0933358 7.41668543,18.4863218 C8.59082776,25.7075396 13.6578812,31.765555 20.6966145,34.3634936 L25.9677819,32.4231425 C25.3561818,32.2299356 24.7583995,31.9977453 24.17833,31.7281021 C20.9751035,30.1202359 18.0633493,28.0161181 15.5575045,25.4986673 C10.2685317,20.363291 6.11317507,13.4813106 8.83148011,10.843038 C9.61278879,10.1655536 10.6711027,9.87358265 11.7026156,10.0507639 C12.0957275,10.09713 12.3820064,10.4351069 12.3529797,10.8185495 C12.322933,11.2152267 11.9672868,11.5132298 11.5586879,11.4840597 C10.968881,11.3621575 10.3537569,11.5015258 9.88052032,11.8643513 C8.39747125,13.3041293 10.7952774,18.8406843 16.6065447,24.483116 C18.9938717,26.8849668 21.7673552,28.8942818 24.8185858,30.4323739 C27.0976887,31.4911401 28.8863987,31.7086553 29.6045536,31.0128947 C30.1965862,30.4366954 30.1476211,29.1258419 29.4710124,27.411649 C29.4672102,27.4025559 29.4635934,27.3934627 29.4601622,27.3842795 C29.3212422,27.0101101 29.5210903,26.5974074 29.9065978,26.4625407 C30.2920125,26.3276741 30.7171186,26.5216912 30.8560385,26.8959506 Z M38.0263442,25.5571029 C38.311629,25.6659518 38.5005448,25.9448248 38.5,26.2562872 C38.4993618,26.6677529 38.1728541,27.0006313 37.7708164,27 C37.6838205,27.0006313 37.5972795,26.9857332 37.5152886,26.9560302 C33.8195085,25.5393184 29.8245207,25.142099 25.9313618,25.8044106 L23.3309479,26.2476277 C22.9464732,26.3037748 22.5865685,26.0411035 22.5132225,25.6507744 C22.4373286,25.2467578 22.6958594,24.8563357 23.0907081,24.7786796 L25.69185,24.3317379 C29.8372607,23.6269668 34.0908703,24.049606 38.0263442,25.5571029 Z M40.4280101,13.4277716 C40.6035473,13.8018083 40.4470421,14.2493398 40.0784141,14.4274525 L24.5572345,21.9269344 C24.5571421,21.9269344 24.5571421,21.9270281 24.5570497,21.9270281 C24.1884217,22.1050471 23.7474539,21.9461518 23.5720091,21.5722089 C23.5720091,21.5722089 23.5719167,21.5721151 23.5719167,21.5720214 C23.3964719,21.1979847 23.5530696,20.7505469 23.9216052,20.5725279 L39.4427848,13.0730461 C39.8114128,12.8949334 40.252473,13.0537349 40.4280101,13.4277716 Z M18.9921217,5.55694845 C19.9439261,9.76836553 19.5514647,14.1686233 17.8690486,18.1495731 L16.847754,20.5724349 C16.7386931,20.8314065 16.483194,21 16.1998812,21 C16.1073154,21.0001726 16.015627,20.9820098 15.9303437,20.9464664 C15.5742944,20.7983833 15.4059212,20.3933274 15.5534123,20.039892 L16.5740049,17.6142492 C18.1442892,13.8978329 18.5104286,9.79009134 17.6219725,5.85867644 C17.6199545,5.85042063 17.6180242,5.84216483 17.6163572,5.83382212 C17.5391459,5.45753116 17.7845549,5.09053885 18.1644695,5.01406402 C18.544384,4.93758918 18.9149104,5.1806575 18.9921217,5.55694845 Z M41.5,26 C42.6045833,26 43.5,26.8954167 43.5,28 C43.5,29.1045833 42.6045833,30 41.5,30 C40.3954167,30 39.5,29.1045833 39.5,28 C39.5,26.8954167 40.3954167,26 41.5,26 Z M41.5,28.6666667 C41.8681667,28.6666667 42.1666667,28.3681667 42.1666667,28 C42.1666667,27.6318333 41.8681667,27.3333333 41.5,27.3333333 C41.1318333,27.3333333 40.8333333,27.6318333 40.8333333,28 C40.8333333,28.3681667 41.1318333,28.6666667 41.5,28.6666667 Z M23.5,6 C24.6045833,6 25.5,6.89541667 25.5,8 C25.5,9.10458333 24.6045833,10 23.5,10 C22.3954167,10 21.5,9.10458333 21.5,8 C21.5,6.89541667 22.3954167,6 23.5,6 Z M23.5,8.66666667 C23.8681667,8.66666667 24.1666667,8.36816667 24.1666667,8 C24.1666667,7.63183333 23.8681667,7.33333333 23.5,7.33333333 C23.1318333,7.33333333 22.8333333,7.63183333 22.8333333,8 C22.8333333,8.36816667 23.1318333,8.66666667 23.5,8.66666667 Z M17,3 C16.1715729,3 15.5,2.32842712 15.5,1.5 C15.5,0.671572875 16.1715729,0 17,0 C17.8284271,0 18.5,0.671572875 18.5,1.5 C18.5,2.32842712 17.8284271,3 17,3 Z M38,4 C38.276125,4 38.5,4.2985 38.5,4.66666667 L38.5,5.33333333 C38.5,5.7015 38.276125,6 38,6 C37.723875,6 37.5,5.7015 37.5,5.33333333 L37.5,4.66666667 C37.5,4.2985 37.723875,4 38,4 Z M38,0 C38.276125,0 38.5,0.2985 38.5,0.666666667 L38.5,1.33333333 C38.5,1.7015 38.276125,2 38,2 C37.723875,2 37.5,1.7015 37.5,1.33333333 L37.5,0.666666667 C37.5,0.2985 37.723875,0 38,0 Z M39.8333333,2 C40.2015,2 40.5,2.223875 40.5,2.5 C40.5,2.776125 40.2015,3 39.8333333,3 L39.1666667,3 C38.7985,3 38.5,2.776125 38.5,2.5 C38.5,2.223875 38.7985,2 39.1666667,2 L39.8333333,2 Z M35.8333333,2 C36.2015,2 36.5,2.223875 36.5,2.5 C36.5,2.776125 36.2015,3 35.8333333,3 L35.1666667,3 C34.7985,3 34.5,2.776125 34.5,2.5 C34.5,2.223875 34.7985,2 35.1666667,2 L35.8333333,2 Z M32.7878507,8 C33.1811352,8 33.5,8.31886483 33.5,8.71214927 L33.5,12.2878507 C33.5,12.6811352 33.1811352,13 32.7878507,13 L29.2121493,13 C28.8188648,13 28.5,12.6811352 28.5,12.2878507 L28.5,8.71214927 C28.5,8.31886483 28.8188648,8 29.2121493,8 L32.7878507,8 Z M32.0757015,11.5757015 L32.0757015,9.42429853 L29.9242985,9.42429853 L29.9242985,11.5757015 L32.0757015,11.5757015 Z M27.2970581,14.2303502 C27.5806285,14.52389 27.5651406,14.9846338 27.2624214,15.2596055 L19.7531079,21.8130532 C19.4449445,22.0820176 18.970262,22.0578973 18.6927928,21.7591693 C18.4154176,21.4603503 18.4402922,21.0000616 18.7483618,20.7310062 L26.2576752,14.1775585 C26.5625534,13.921701 27.0213724,13.9450021 27.2970581,14.2303502 Z M41,17 C41.276125,17 41.5,17.2985 41.5,17.6666667 L41.5,18.3333333 C41.5,18.7015 41.276125,19 41,19 C40.723875,19 40.5,18.7015 40.5,18.3333333 L40.5,17.6666667 C40.5,17.2985 40.723875,17 41,17 Z M43.2906546,16.736445 C43.5697818,17.025349 43.5697818,17.4834015 43.2906546,17.7723987 C43.0045376,18.0685718 42.5325843,18.0767729 42.2364019,17.7906649 L41.7092755,17.263555 C41.4302415,16.9745578 41.4302415,16.5165053 41.7092755,16.2276013 C41.9953925,15.9314282 42.4673458,15.9232271 42.7635282,16.2093351 L43.2906546,16.736445 Z M43.8333333,14 C44.2015,14 44.5,14.223875 44.5,14.5 C44.5,14.776125 44.2015,15 43.8333333,15 L43.1666667,15 C42.7985,15 42.5,14.776125 42.5,14.5 C42.5,14.223875 42.7985,14 43.1666667,14 L43.8333333,14 Z M43.273414,11.2083266 C43.5682659,11.4930535 43.5764305,11.9629595 43.2915987,12.2577989 L42.7668403,12.7825351 C42.6276717,12.9216978 42.438959,13 42.2420818,13 C42.0453902,13 41.8566776,12.9217906 41.717509,12.7827206 C41.4275743,12.4928911 41.4274816,12.022985 41.7173234,11.7330627 L42.2420818,11.2083266 C42.5297897,10.9305578 42.9857989,10.9305578 43.273414,11.2083266 Z M41,10 C41.276125,10 41.5,10.2985 41.5,10.6666667 L41.5,11.3333333 C41.5,11.7015 41.276125,12 41,12 C40.723875,12 40.5,11.7015 40.5,11.3333333 L40.5,10.6666667 C40.5,10.2985 40.723875,10 41,10 Z M39.2906546,11.7364225 C39.5697818,12.0253316 39.5697818,12.4833923 39.2906546,12.7723946 C39.0045376,13.068573 38.5325843,13.0767743 38.2364019,12.7906611 L37.7092755,12.2635418 C37.4302415,11.9745395 37.4302415,11.5164788 37.7092755,11.2275697 C37.9953925,10.9313912 38.4673458,10.9232832 38.7635282,11.2093032 L39.2906546,11.7364225 Z M9.46290642,2.98421815 C9.55148747,3.23642494 9.47856043,3.51347755 9.27468342,3.69908013 L7.6819119,5.14275263 L8.05685812,7.18132978 C8.08469787,7.33249694 8.05826417,7.48793583 7.98149393,7.62367243 C7.78877157,7.96462673 7.33536786,8.0956557 6.9687642,7.91641713 L5.00029657,6.9539688 L3.03182895,7.91920684 C2.88438135,7.991652 2.7152806,8.01632345 2.55105416,7.98938536 C2.14320642,7.92243243 1.87099546,7.56064253 1.94298514,7.18132978 L2.31793135,5.14275263 L0.725909725,3.69908013 C0.60798914,3.59193801 0.531312639,3.45166814 0.507784764,3.29989074 C0.448636999,2.91866007 0.732939966,2.56497775 1.14284992,2.50996824 L3.3437842,2.2121672 L4.32989274,0.357710599 C4.39710185,0.251527441 4.49224445,0.163041476 4.60641558,0.100534641 C4.97789354,-0.10293949 5.45641864,0.0122230326 5.67519976,0.357710599 L6.65680895,2.2121672 L8.85774323,2.50996824 C9.139984,2.54815234 9.37460659,2.73192417 9.46290642,2.98421815 Z M6.35010295,4.39999359 L7.13749,3.68652646 L6.05014598,3.5393695 C5.80614973,3.50615457 5.59533622,3.36353089 5.48622687,3.1578773 L5.00029657,2.24215653 L4.51511617,3.1578773 C4.40591309,3.36370525 4.19472463,3.50641611 3.95044717,3.5393695 L2.86235326,3.68652646 L3.6504902,4.39999359 C3.82549635,4.56048882 3.90479747,4.79063951 3.86270976,5.01582104 L3.67673644,6.02360208 L4.65159659,5.54795732 C4.86990903,5.44133828 5.13068412,5.44133828 5.34899655,5.54795732 L6.32010725,6.02429951 L6.13413393,5.01651846 C6.09279611,4.79046516 6.17350328,4.55996575 6.35010295,4.39999359 Z M42.044203,36.0209395 C44.398237,37.4020918 45.1927373,40.3158991 43.8438916,42.6218443 C43.8378141,42.6329492 43.8314603,42.6437898 43.8248302,42.6545421 C43.617273,42.9894524 43.165325,43.0998846 42.815406,42.90123 C42.465487,42.7025753 42.3501058,42.2700123 42.5576631,41.935102 C43.2428597,40.7861836 43.1801505,39.3632557 42.396332,38.2736517 C42.3849136,38.9041643 42.2212804,39.5236601 41.9182321,40.0835772 C41.1248368,41.4435772 39.3298445,41.9305191 37.9088971,41.1711541 C36.4879497,40.4117892 35.9791859,38.6937878 36.7725812,37.3337877 C37.4191025,36.3135453 38.4922489,35.6082067 39.7192675,35.3969489 C38.259829,33.8101793 36.2753278,32.7513341 34.0977267,32.3975632 C33.7117108,32.3266151 33.4519419,31.978044 33.5074686,31.6055886 C33.5649289,31.2200892 33.9380531,30.952161 34.3408283,31.0071568 C37.3598926,31.4932173 40.0359442,33.1494367 41.7377476,35.5852037 L42.0412563,36.0209395 L42.044203,36.0209395 Z M40.6334769,39.3954247 C41.0784265,38.6325344 41.0452763,37.1927729 40.4235255,36.8606829 C40.3100781,36.8037482 40.1832785,36.7755452 40.0551897,36.7788943 C39.2282759,36.8832453 38.4950114,37.3399571 38.0602831,38.0212351 C38.0580731,38.0250249 38.055863,38.0289028 38.053653,38.0326925 C37.6604546,38.7144993 37.9193025,39.5723102 38.631664,39.9486436 C39.3440254,40.3249769 40.2402784,40.0773196 40.6334769,39.3954247 Z" id="Combined-Shape"></path>
                </g>
            </g>
        </g>
    </g>
</svg>