<?xml version="1.0" encoding="UTF-8"?>
<svg width="19px" height="14px" viewBox="0 0 19 14" version="1.1" xmlns="http://www.w3.org/2000/svg" xmlns:xlink="http://www.w3.org/1999/xlink">
    <!-- Generator: sketchtool 55.2 (78181) - https://sketchapp.com -->
    <title>B735FC89-4A1A-483D-B500-D75DBD8EEDDB</title>
    <desc>Created with sketchtool.</desc>
    <g id="Career" stroke="none" stroke-width="1" fill="none" fill-rule="evenodd">
        <g id="Career-V8.0" transform="translate(-282.000000, -1709.000000)" fill-rule="nonzero" stroke="#0098FF" stroke-width="1.5">
            <g id="Group-33" transform="translate(194.000000, 1637.000000)">
                <g id="Group-9" transform="translate(0.000000, 70.000000)">
                    <g id="Group-6" transform="translate(89.000000, 3.000000)">
                        <path d="M15.7548644,6.47043272 L0.245135591,6.47043272 C0.109820745,6.47043272 0,6.36505579 0,6.23521636 C0,6.10537693 0.109820745,6 0.245135591,6 L15.7548644,6 C15.8901793,6 16,6.10537693 16,6.23521636 C16,6.36505579 15.8901793,6.47043272 15.7548644,6.47043272 Z" id="Path"></path>
                        <path d="M10.2586942,12 C10.1925016,12 10.126309,11.9774456 10.0756303,11.932797 C9.97478992,11.8430395 9.97478992,11.697126 10.0756303,11.6073686 L16.3763413,5.99913695 L10.0756303,0.392746521 C9.97478992,0.302989039 9.97478992,0.157075594 10.0756303,0.0673181116 C10.1764706,-0.0224393705 10.3404008,-0.0224393705 10.4412411,0.0673181116 L16.924499,5.8361926 C16.9731092,5.8794603 17,5.93791774 17,5.99913695 C17,6.06035615 16.9725921,6.11881359 16.924499,6.1620813 L10.4412411,11.9323367 C10.3910795,11.9774456 10.3248869,12 10.2586942,12 Z" id="Path"></path>
                    </g>
                </g>
            </g>
        </g>
    </g>
</svg>