<?xml version="1.0" encoding="UTF-8"?>
<svg width="17px" height="18px" viewBox="0 0 17 18" version="1.1" xmlns="http://www.w3.org/2000/svg" xmlns:xlink="http://www.w3.org/1999/xlink">
    <!-- Generator: sketchtool 55.2 (78181) - https://sketchapp.com -->
    <title>DC8F2570-46D8-4385-959F-FA51C97A8D2F</title>
    <desc>Created with sketchtool.</desc>
    <g id="Career" stroke="none" stroke-width="1" fill="none" fill-rule="evenodd" opacity="0.49844215">
        <g id="Career-V8.0" transform="translate(-1167.000000, -2593.000000)" fill="#343434" fill-rule="nonzero" stroke="#2E2F30" stroke-width="0.3">
            <g id="Subscribe" transform="translate(146.000000, 2100.000000)">
                <g id="Group-25" transform="translate(548.000000, 493.000000)">
                    <path d="M488.083242,2.03229814 C487.506424,1.36662526 486.739557,1 485.923824,1 C485.108091,1 484.341225,1.36662526 483.764407,2.03229814 L474.692284,12.5026087 C473.769239,13.5679089 473.769239,15.3012422 474.692284,16.3665424 C475.153789,16.8991718 475.760027,17.1655072 476.366266,17.1655072 C476.972469,17.1655072 477.578707,16.8991718 478.040212,16.3665424 L485.185266,8.12033126 C485.83994,7.3647619 485.83994,6.13536232 485.185266,5.37975155 C484.530591,4.62418219 483.465324,4.62418219 482.810649,5.37975155 L477.506205,11.4869565 C477.3661,11.6486542 477.3661,11.9108489 477.506205,12.072588 C477.646311,12.2343271 477.873529,12.2342857 478.013599,12.072588 L483.318043,5.96538302 C483.692901,5.53271222 484.302943,5.53271222 484.677801,5.96538302 C485.052695,6.39805383 485.052695,7.10207039 484.677801,7.5347412 L477.532854,15.7809524 C476.889589,16.5233126 475.842943,16.523354 475.199677,15.7809524 C474.888073,15.4213251 474.716466,14.9431884 474.716466,14.4345756 C474.716466,13.9259627 474.888073,13.4478261 475.199677,13.0881988 L484.2718,2.61792961 C484.713069,2.10865424 485.299754,1.82819876 485.923824,1.82819876 C486.547894,1.82819876 487.134579,2.10865424 487.575813,2.61792961 C488.486731,3.66923395 488.486731,5.37983437 487.575813,6.43113872 L480.344264,14.7624845 C480.204159,14.9241822 480.204159,15.1863768 480.344264,15.3481159 C480.48437,15.5098551 480.711552,15.5098137 480.851693,15.3481159 L488.083242,7.01677019 C489.273905,5.64252588 489.273905,3.40650104 488.083242,2.03229814 Z" id="Path"></path>
                </g>
            </g>
        </g>
    </g>
</svg>