<?xml version="1.0" encoding="UTF-8"?>
<svg width="22px" height="19px" viewBox="0 0 22 19" version="1.1" xmlns="http://www.w3.org/2000/svg" xmlns:xlink="http://www.w3.org/1999/xlink">
    <!-- Generator: sketchtool 55.2 (78181) - https://sketchapp.com -->
    <title>DE785AD6-263A-4A65-92B8-E6831F1B7898</title>
    <desc>Created with sketchtool.</desc>
    <g id="Career" stroke="none" stroke-width="1" fill="none" fill-rule="evenodd">
        <g id="Career-V8.0" transform="translate(-279.000000, -446.000000)" fill-rule="nonzero" stroke="#FFFFFF">
            <g id="Banner" transform="translate(0.000000, 72.000000)">
                <g id="Group-13" transform="translate(68.000000, 359.000000)">
                    <g id="Group-10" transform="translate(23.000000, 13.000000)">
                        <g id="Group-15" transform="translate(188.000000, 3.000000)">
                            <path d="M20.6500875,8.72994895 L0.321302124,8.72994895 C0.143943352,8.72994895 1.27897692e-13,8.58777372 1.27897692e-13,8.41259352 C1.27897692e-13,8.23741333 0.143943352,8.0952381 0.321302124,8.0952381 L20.6500875,8.0952381 C20.8274463,8.0952381 20.9713897,8.23741333 20.9713897,8.41259352 C20.9713897,8.58777372 20.8274463,8.72994895 20.6500875,8.72994895 Z" id="Path"></path>
                            <path d="M12.8928913,16.5470706 C12.810638,16.5470706 12.7283847,16.5159697 12.6654094,16.4544028 C12.5401016,16.3306342 12.5401016,16.1294308 12.6654094,16.0056622 L20.4948996,8.2723452 L12.6654094,0.541567034 C12.5401016,0.417798418 12.5401016,0.216595078 12.6654094,0.092826462 C12.7907173,-0.030942154 12.9944228,-0.030942154 13.1197306,0.092826462 L21.1760601,8.04765756 C21.2364649,8.10732038 21.2698803,8.18792866 21.2698803,8.2723452 C21.2698803,8.35676174 21.2358223,8.43737002 21.1760601,8.49703284 L13.1197306,16.4537681 C13.057398,16.5159697 12.9751447,16.5470706 12.8928913,16.5470706 Z" id="Path"></path>
                        </g>
                    </g>
                </g>
            </g>
        </g>
    </g>
</svg>