<?xml version="1.0" encoding="UTF-8"?>
<svg width="14px" height="10px" viewBox="0 0 14 10" version="1.1" xmlns="http://www.w3.org/2000/svg" xmlns:xlink="http://www.w3.org/1999/xlink">
    <!-- Generator: sketchtool 55.2 (78181) - https://sketchapp.com -->
    <title>F76DACBB-14F7-4C5D-A9CC-3E5E4A5E642C</title>
    <desc>Created with sketchtool.</desc>
    <g id="Career" stroke="none" stroke-width="1" fill="none" fill-rule="evenodd" opacity="0.505905878">
        <g id="Career-V8.0" transform="translate(-1168.000000, -2457.000000)" fill-rule="nonzero" stroke="#343434" stroke-width="1.5">
            <g id="Subscribe" transform="translate(146.000000, 2100.000000)">
                <g id="Group-29" transform="translate(542.500000, 350.000000)">
                    <path d="M483.258694,18 C483.192502,18 483.126309,17.9774456 483.07563,17.932797 C482.97479,17.8430395 482.97479,17.697126 483.07563,17.6073686 L489.376341,11.9991369 L483.07563,6.39274652 C482.97479,6.30298904 482.97479,6.15707559 483.07563,6.06731811 C483.176471,5.97756063 483.340401,5.97756063 483.441241,6.06731811 L489.924499,11.8361926 C489.973109,11.8794603 490,11.9379177 490,11.9991369 C490,12.0603562 489.972592,12.1188136 489.924499,12.1620813 L483.441241,17.9323367 C483.39108,17.9774456 483.324887,18 483.258694,18 Z" id="Path" transform="translate(486.500000, 12.000000) rotate(-270.000000) translate(-486.500000, -12.000000) "></path>
                </g>
            </g>
        </g>
    </g>
</svg>