<?xml version="1.0" encoding="UTF-8"?>
<svg width="15px" height="10px" viewBox="0 0 15 10" version="1.1" xmlns="http://www.w3.org/2000/svg" xmlns:xlink="http://www.w3.org/1999/xlink">
    <!-- Generator: sketchtool 55.2 (78181) - https://sketchapp.com -->
    <title>9A49ED51-A053-424B-AFD0-88EF53D65E7B</title>
    <desc>Created with sketchtool.</desc>
    <g id="Career" stroke="none" stroke-width="1" fill="none" fill-rule="evenodd">
        <g id="Career-V8.0" transform="translate(-739.000000, -1940.000000)" fill-rule="nonzero" stroke="#0098FF" stroke-width="1.5">
            <g id="Group-32" transform="translate(613.000000, 1934.000000)">
                <path d="M130.258694,17 C130.192502,17 130.126309,16.9774456 130.07563,16.932797 C129.97479,16.8430395 129.97479,16.697126 130.07563,16.6073686 L136.376341,10.9991369 L130.07563,5.39274652 C129.97479,5.30298904 129.97479,5.15707559 130.07563,5.06731811 C130.176471,4.97756063 130.340401,4.97756063 130.441241,5.06731811 L136.924499,10.8361926 C136.973109,10.8794603 137,10.9379177 137,10.9991369 C137,11.0603562 136.972592,11.1188136 136.924499,11.1620813 L130.441241,16.9323367 C130.39108,16.9774456 130.324887,17 130.258694,17 Z" id="Path" transform="translate(133.500000, 11.000000) rotate(90.000000) translate(-133.500000, -11.000000) "></path>
            </g>
        </g>
    </g>
</svg>